G04 #@! TF.FileFunction,Soldermask,Top*
%FSLAX46Y46*%
G04 Gerber Fmt 4.6, Leading zero omitted, Abs format (unit mm)*
G04 Created by KiCad (PCBNEW 4.0.6) date 09/09/17 15:49:22*
%MOMM*%
%LPD*%
G01*
G04 APERTURE LIST*
%ADD10C,0.100000*%
%ADD11R,1.700000X1.400000*%
%ADD12R,1.400000X1.700000*%
%ADD13C,3.400000*%
%ADD14R,7.400000X4.400000*%
%ADD15R,1.150000X1.200000*%
%ADD16R,1.200000X1.150000*%
%ADD17R,2.350000X2.900000*%
%ADD18R,1.600000X1.300000*%
%ADD19R,1.300000X1.600000*%
%ADD20R,2.100000X2.100000*%
%ADD21O,2.100000X2.100000*%
%ADD22R,1.300000X0.900000*%
%ADD23R,1.200000X1.300000*%
%ADD24R,0.900000X1.300000*%
%ADD25R,2.100000X1.400000*%
%ADD26R,0.650000X1.700000*%
%ADD27R,1.700000X0.650000*%
%ADD28R,1.550000X1.000000*%
%ADD29R,1.100000X1.700000*%
G04 APERTURE END LIST*
D10*
D11*
X178000000Y-72250000D03*
X178000000Y-67750000D03*
X178000000Y-69250000D03*
X178000000Y-70750000D03*
X178000000Y-73750000D03*
X178000000Y-75250000D03*
X178000000Y-76750000D03*
X178000000Y-78250000D03*
D12*
X179800000Y-79500000D03*
X181300000Y-79500000D03*
X182800000Y-79500000D03*
X184300000Y-79500000D03*
X185800000Y-79500000D03*
X187300000Y-79500000D03*
X188800000Y-79500000D03*
X190300000Y-79500000D03*
X191800000Y-79500000D03*
X193300000Y-79500000D03*
X194800000Y-79500000D03*
X196300000Y-79500000D03*
X197800000Y-79500000D03*
X197800000Y-66500000D03*
X196300000Y-66500000D03*
X194800000Y-66500000D03*
X193300000Y-66500000D03*
X191800000Y-66500000D03*
X190300000Y-66500000D03*
X188800000Y-66500000D03*
X187300000Y-66500000D03*
X185800000Y-66500000D03*
X184300000Y-66500000D03*
X182800000Y-66500000D03*
X181300000Y-66500000D03*
X179800000Y-66500000D03*
D13*
X161770000Y-69500000D03*
X175230000Y-69500000D03*
D14*
X168500000Y-69500000D03*
D15*
X160200000Y-67150000D03*
X160200000Y-65650000D03*
X149400000Y-78250000D03*
X149400000Y-76750000D03*
D16*
X161950000Y-74700000D03*
X160450000Y-74700000D03*
X155450000Y-64300000D03*
X156950000Y-64300000D03*
D15*
X191250000Y-64750000D03*
X191250000Y-63250000D03*
D17*
X196525000Y-64000000D03*
X193475000Y-64000000D03*
X167275000Y-78000000D03*
X170325000Y-78000000D03*
X156025000Y-77300000D03*
X152975000Y-77300000D03*
D15*
X151000000Y-76850000D03*
X151000000Y-78350000D03*
X149700000Y-66150000D03*
X149700000Y-64650000D03*
X148300000Y-66150000D03*
X148300000Y-64650000D03*
D18*
X158500000Y-78650000D03*
X158500000Y-75350000D03*
D19*
X184050000Y-64200000D03*
X180750000Y-64200000D03*
D18*
X175800000Y-79050000D03*
X175800000Y-75750000D03*
D20*
X193000000Y-69750000D03*
D21*
X190460000Y-69750000D03*
X187920000Y-69750000D03*
X185380000Y-69750000D03*
X182840000Y-69750000D03*
D20*
X184000000Y-76000000D03*
D21*
X186540000Y-76000000D03*
X189080000Y-76000000D03*
X191620000Y-76000000D03*
D22*
X158400000Y-65750000D03*
X158400000Y-64250000D03*
X165000000Y-78950000D03*
X165000000Y-77450000D03*
D23*
X187800000Y-65000000D03*
X189700000Y-65000000D03*
X188750000Y-63000000D03*
X178750000Y-63800000D03*
X176850000Y-63800000D03*
X177800000Y-65800000D03*
D22*
X160300000Y-71850000D03*
X160300000Y-73350000D03*
X185800000Y-64750000D03*
X185800000Y-63250000D03*
D24*
X175050000Y-74000000D03*
X176550000Y-74000000D03*
X172450000Y-79200000D03*
X173950000Y-79200000D03*
X173950000Y-77200000D03*
X172450000Y-77200000D03*
D22*
X140800000Y-64950000D03*
X140800000Y-66450000D03*
X140800000Y-69050000D03*
X140800000Y-67550000D03*
X140800000Y-71750000D03*
X140800000Y-70250000D03*
X146900000Y-64750000D03*
X146900000Y-66250000D03*
X145400000Y-64750000D03*
X145400000Y-66250000D03*
X142300000Y-64850000D03*
X142300000Y-66350000D03*
X143900000Y-64750000D03*
X143900000Y-66250000D03*
D24*
X146750000Y-67800000D03*
X148250000Y-67800000D03*
X146750000Y-69800000D03*
X148250000Y-69800000D03*
X146750000Y-71700000D03*
X148250000Y-71700000D03*
D22*
X149400000Y-73850000D03*
X149400000Y-75350000D03*
D25*
X147450000Y-77500000D03*
X141150000Y-77500000D03*
X147450000Y-73700000D03*
X141150000Y-73700000D03*
D26*
X156950000Y-65750000D03*
X156450000Y-65750000D03*
X155950000Y-65750000D03*
X155450000Y-65750000D03*
X154950000Y-65750000D03*
X154450000Y-65750000D03*
X153950000Y-65750000D03*
X153450000Y-65750000D03*
X152950000Y-65750000D03*
X152450000Y-65750000D03*
X151950000Y-65750000D03*
X151450000Y-65750000D03*
D27*
X149850000Y-67350000D03*
X149850000Y-67850000D03*
X149850000Y-68350000D03*
X149850000Y-68850000D03*
X149850000Y-69350000D03*
X149850000Y-69850000D03*
X149850000Y-70350000D03*
X149850000Y-70850000D03*
X149850000Y-71350000D03*
X149850000Y-71850000D03*
X149850000Y-72350000D03*
X149850000Y-72850000D03*
D26*
X151450000Y-74450000D03*
X151950000Y-74450000D03*
X152450000Y-74450000D03*
X152950000Y-74450000D03*
X153450000Y-74450000D03*
X153950000Y-74450000D03*
X154450000Y-74450000D03*
X154950000Y-74450000D03*
X155450000Y-74450000D03*
X155950000Y-74450000D03*
X156450000Y-74450000D03*
X156950000Y-74450000D03*
D27*
X158550000Y-72850000D03*
X158550000Y-72350000D03*
X158550000Y-71850000D03*
X158550000Y-71350000D03*
X158550000Y-70850000D03*
X158550000Y-70350000D03*
X158550000Y-69850000D03*
X158550000Y-69350000D03*
X158550000Y-68850000D03*
X158550000Y-68350000D03*
X158550000Y-67850000D03*
X158550000Y-67350000D03*
D28*
X160600000Y-76750000D03*
X160600000Y-77700000D03*
X160600000Y-78650000D03*
X163200000Y-78650000D03*
X163200000Y-76750000D03*
D29*
X142900000Y-71150000D03*
X144000000Y-71150000D03*
X145100000Y-71150000D03*
X145100000Y-68050000D03*
X144000000Y-68050000D03*
X142900000Y-68050000D03*
M02*
