G04 #@! TF.FileFunction,Legend,Bot*
%FSLAX46Y46*%
G04 Gerber Fmt 4.6, Leading zero omitted, Abs format (unit mm)*
G04 Created by KiCad (PCBNEW 4.0.6) date 09/09/17 15:49:22*
%MOMM*%
%LPD*%
G01*
G04 APERTURE LIST*
%ADD10C,0.100000*%
%ADD11C,0.150000*%
%ADD12C,0.200000*%
%ADD13C,0.120000*%
%ADD14C,0.010000*%
%ADD15C,0.080000*%
G04 APERTURE END LIST*
D10*
D11*
X123589847Y-71289829D02*
X123856514Y-71004114D01*
X124046990Y-71289829D02*
X124046990Y-70689829D01*
X123742228Y-70689829D01*
X123666037Y-70718400D01*
X123627942Y-70746971D01*
X123589847Y-70804114D01*
X123589847Y-70889829D01*
X123627942Y-70946971D01*
X123666037Y-70975543D01*
X123742228Y-71004114D01*
X124046990Y-71004114D01*
X122942228Y-71261257D02*
X123018418Y-71289829D01*
X123170799Y-71289829D01*
X123246990Y-71261257D01*
X123285085Y-71204114D01*
X123285085Y-70975543D01*
X123246990Y-70918400D01*
X123170799Y-70889829D01*
X123018418Y-70889829D01*
X122942228Y-70918400D01*
X122904133Y-70975543D01*
X122904133Y-71032686D01*
X123285085Y-71089829D01*
X122637466Y-70889829D02*
X122446990Y-71289829D01*
X122256514Y-70889829D01*
X121951752Y-71232686D02*
X121913657Y-71261257D01*
X121951752Y-71289829D01*
X121989847Y-71261257D01*
X121951752Y-71232686D01*
X121951752Y-71289829D01*
X120542228Y-71289829D02*
X120999371Y-71289829D01*
X120770800Y-71289829D02*
X120770800Y-70689829D01*
X120846990Y-70775543D01*
X120923181Y-70832686D01*
X120999371Y-70861257D01*
X120237466Y-71118400D02*
X119856514Y-71118400D01*
X120313657Y-71289829D02*
X120046990Y-70689829D01*
X119780323Y-71289829D01*
D12*
X130793009Y-69729314D02*
X130873961Y-69767410D01*
X131107295Y-69805505D01*
X131259676Y-69805505D01*
X131483485Y-69767410D01*
X131626342Y-69691219D01*
X131693010Y-69615029D01*
X131750152Y-69462648D01*
X131735866Y-69348362D01*
X131640629Y-69195981D01*
X131554914Y-69119790D01*
X131393009Y-69043600D01*
X131159676Y-69005505D01*
X131007295Y-69005505D01*
X130783485Y-69043600D01*
X130712057Y-69081695D01*
X129364437Y-69272171D02*
X129431104Y-69805505D01*
X130050152Y-69272171D02*
X130102533Y-69691219D01*
X130035866Y-69767410D01*
X129888247Y-69805505D01*
X129659676Y-69805505D01*
X129502533Y-69767410D01*
X129421580Y-69729314D01*
X128831104Y-69272171D02*
X128221580Y-69272171D01*
X128569200Y-69005505D02*
X128654914Y-69691219D01*
X128588247Y-69767410D01*
X128440628Y-69805505D01*
X128288247Y-69805505D01*
X127526342Y-69805505D02*
X127673961Y-69767410D01*
X127740628Y-69691219D01*
X127654914Y-69005505D01*
X126302533Y-69767410D02*
X126459676Y-69805505D01*
X126764438Y-69805505D01*
X126912057Y-69767410D01*
X126978723Y-69691219D01*
X126940628Y-69386457D01*
X126854914Y-69310267D01*
X126697771Y-69272171D01*
X126393009Y-69272171D01*
X126245390Y-69310267D01*
X126178723Y-69386457D01*
X126188247Y-69462648D01*
X126959676Y-69538838D01*
X125545390Y-69805505D02*
X125478723Y-69272171D01*
X125497771Y-69424552D02*
X125412056Y-69348362D01*
X125331104Y-69310267D01*
X125173961Y-69272171D01*
X125021580Y-69272171D01*
X124640628Y-69272171D02*
X124326342Y-69805505D01*
X123878723Y-69272171D02*
X124326342Y-69805505D01*
X124502533Y-69995981D01*
X124583486Y-70034076D01*
X124740628Y-70072171D01*
X122412056Y-69729314D02*
X122493008Y-69767410D01*
X122726342Y-69805505D01*
X122878723Y-69805505D01*
X123102532Y-69767410D01*
X123245389Y-69691219D01*
X123312057Y-69615029D01*
X123369199Y-69462648D01*
X123354913Y-69348362D01*
X123259676Y-69195981D01*
X123173961Y-69119790D01*
X123012056Y-69043600D01*
X122778723Y-69005505D01*
X122626342Y-69005505D01*
X122402532Y-69043600D01*
X122331104Y-69081695D01*
X121507294Y-69805505D02*
X121654913Y-69767410D01*
X121726342Y-69729314D01*
X121793008Y-69653124D01*
X121764437Y-69424552D01*
X121678723Y-69348362D01*
X121597770Y-69310267D01*
X121440627Y-69272171D01*
X121212056Y-69272171D01*
X121064437Y-69310267D01*
X120993008Y-69348362D01*
X120926342Y-69424552D01*
X120954913Y-69653124D01*
X121040627Y-69729314D01*
X121121580Y-69767410D01*
X121278723Y-69805505D01*
X121507294Y-69805505D01*
X120221580Y-69272171D02*
X120288247Y-69805505D01*
X120231104Y-69348362D02*
X120150151Y-69310267D01*
X119993008Y-69272171D01*
X119764437Y-69272171D01*
X119616818Y-69310267D01*
X119550151Y-69386457D01*
X119602532Y-69805505D01*
X119002532Y-69272171D02*
X118393008Y-69272171D01*
X118740628Y-69005505D02*
X118826342Y-69691219D01*
X118759675Y-69767410D01*
X118612056Y-69805505D01*
X118459675Y-69805505D01*
X117926342Y-69805505D02*
X117859675Y-69272171D01*
X117878723Y-69424552D02*
X117793008Y-69348362D01*
X117712056Y-69310267D01*
X117554913Y-69272171D01*
X117402532Y-69272171D01*
X116707294Y-69805505D02*
X116854913Y-69767410D01*
X116926342Y-69729314D01*
X116993008Y-69653124D01*
X116964437Y-69424552D01*
X116878723Y-69348362D01*
X116797770Y-69310267D01*
X116640627Y-69272171D01*
X116412056Y-69272171D01*
X116264437Y-69310267D01*
X116193008Y-69348362D01*
X116126342Y-69424552D01*
X116154913Y-69653124D01*
X116240627Y-69729314D01*
X116321580Y-69767410D01*
X116478723Y-69805505D01*
X116707294Y-69805505D01*
X115259675Y-69805505D02*
X115407294Y-69767410D01*
X115473961Y-69691219D01*
X115388247Y-69005505D01*
X114421580Y-69805505D02*
X114569199Y-69767410D01*
X114635866Y-69691219D01*
X114550152Y-69005505D01*
X113197771Y-69767410D02*
X113354914Y-69805505D01*
X113659676Y-69805505D01*
X113807295Y-69767410D01*
X113873961Y-69691219D01*
X113835866Y-69386457D01*
X113750152Y-69310267D01*
X113593009Y-69272171D01*
X113288247Y-69272171D01*
X113140628Y-69310267D01*
X113073961Y-69386457D01*
X113083485Y-69462648D01*
X113854914Y-69538838D01*
X112440628Y-69805505D02*
X112373961Y-69272171D01*
X112393009Y-69424552D02*
X112307294Y-69348362D01*
X112226342Y-69310267D01*
X112069199Y-69272171D01*
X111916818Y-69272171D01*
X132015238Y-73120210D02*
X131900952Y-73158305D01*
X131710476Y-73158305D01*
X131634286Y-73120210D01*
X131596190Y-73082114D01*
X131558095Y-73005924D01*
X131558095Y-72929733D01*
X131596190Y-72853543D01*
X131634286Y-72815448D01*
X131710476Y-72777352D01*
X131862857Y-72739257D01*
X131939048Y-72701162D01*
X131977143Y-72663067D01*
X132015238Y-72586876D01*
X132015238Y-72510686D01*
X131977143Y-72434495D01*
X131939048Y-72396400D01*
X131862857Y-72358305D01*
X131672381Y-72358305D01*
X131558095Y-72396400D01*
X131215238Y-73082114D02*
X131177143Y-73120210D01*
X131215238Y-73158305D01*
X131253333Y-73120210D01*
X131215238Y-73082114D01*
X131215238Y-73158305D01*
X130224762Y-73158305D02*
X130224762Y-72358305D01*
X130224762Y-72739257D02*
X129767619Y-72739257D01*
X129767619Y-73158305D02*
X129767619Y-72358305D01*
X129234286Y-72358305D02*
X129081905Y-72358305D01*
X129005714Y-72396400D01*
X128929524Y-72472590D01*
X128891429Y-72624971D01*
X128891429Y-72891638D01*
X128929524Y-73044019D01*
X129005714Y-73120210D01*
X129081905Y-73158305D01*
X129234286Y-73158305D01*
X129310476Y-73120210D01*
X129386667Y-73044019D01*
X129424762Y-72891638D01*
X129424762Y-72624971D01*
X129386667Y-72472590D01*
X129310476Y-72396400D01*
X129234286Y-72358305D01*
X128167619Y-73158305D02*
X128548572Y-73158305D01*
X128548572Y-72358305D01*
X127977143Y-72358305D02*
X127443810Y-72358305D01*
X127977143Y-73158305D01*
X127443810Y-73158305D01*
X127177143Y-72929733D02*
X126796191Y-72929733D01*
X127253334Y-73158305D02*
X126986667Y-72358305D01*
X126720000Y-73158305D01*
X126453334Y-73158305D02*
X126453334Y-72358305D01*
X126148572Y-72358305D01*
X126072381Y-72396400D01*
X126034286Y-72434495D01*
X125996191Y-72510686D01*
X125996191Y-72624971D01*
X126034286Y-72701162D01*
X126072381Y-72739257D01*
X126148572Y-72777352D01*
X126453334Y-72777352D01*
X125386667Y-72739257D02*
X125653334Y-72739257D01*
X125653334Y-73158305D02*
X125653334Y-72358305D01*
X125272381Y-72358305D01*
X124967620Y-72739257D02*
X124700953Y-72739257D01*
X124586667Y-73158305D02*
X124967620Y-73158305D01*
X124967620Y-72358305D01*
X124586667Y-72358305D01*
X123862857Y-73158305D02*
X124243810Y-73158305D01*
X124243810Y-72358305D01*
X123558096Y-73120210D02*
X123558096Y-73158305D01*
X123596191Y-73234495D01*
X123634286Y-73272590D01*
X122377143Y-72358305D02*
X122377143Y-72929733D01*
X122415239Y-73044019D01*
X122491429Y-73120210D01*
X122605715Y-73158305D01*
X122681905Y-73158305D01*
X121996191Y-73082114D02*
X121958096Y-73120210D01*
X121996191Y-73158305D01*
X122034286Y-73120210D01*
X121996191Y-73082114D01*
X121996191Y-73158305D01*
X121081905Y-72358305D02*
X120891429Y-73158305D01*
X120739048Y-72586876D01*
X120586667Y-73158305D01*
X120396191Y-72358305D01*
X120091429Y-73158305D02*
X120091429Y-72358305D01*
X119710477Y-73158305D02*
X119710477Y-72358305D01*
X119253334Y-73158305D01*
X119253334Y-72358305D01*
X118872382Y-73158305D02*
X118872382Y-72358305D01*
X118681906Y-72358305D01*
X118567620Y-72396400D01*
X118491429Y-72472590D01*
X118453334Y-72548781D01*
X118415239Y-72701162D01*
X118415239Y-72815448D01*
X118453334Y-72967829D01*
X118491429Y-73044019D01*
X118567620Y-73120210D01*
X118681906Y-73158305D01*
X118872382Y-73158305D01*
X118072382Y-72739257D02*
X117805715Y-72739257D01*
X117691429Y-73158305D02*
X118072382Y-73158305D01*
X118072382Y-72358305D01*
X117691429Y-72358305D01*
X117196191Y-72777352D02*
X117196191Y-73158305D01*
X117462858Y-72358305D02*
X117196191Y-72777352D01*
X116929524Y-72358305D01*
X116662858Y-72739257D02*
X116396191Y-72739257D01*
X116281905Y-73158305D02*
X116662858Y-73158305D01*
X116662858Y-72358305D01*
X116281905Y-72358305D01*
X115481905Y-73158305D02*
X115748572Y-72777352D01*
X115939048Y-73158305D02*
X115939048Y-72358305D01*
X115634286Y-72358305D01*
X115558095Y-72396400D01*
X115520000Y-72434495D01*
X115481905Y-72510686D01*
X115481905Y-72624971D01*
X115520000Y-72701162D01*
X115558095Y-72739257D01*
X115634286Y-72777352D01*
X115939048Y-72777352D01*
X114567619Y-72434495D02*
X114529524Y-72396400D01*
X114453333Y-72358305D01*
X114262857Y-72358305D01*
X114186667Y-72396400D01*
X114148571Y-72434495D01*
X114110476Y-72510686D01*
X114110476Y-72586876D01*
X114148571Y-72701162D01*
X114605714Y-73158305D01*
X114110476Y-73158305D01*
X113615238Y-72358305D02*
X113539047Y-72358305D01*
X113462857Y-72396400D01*
X113424762Y-72434495D01*
X113386666Y-72510686D01*
X113348571Y-72663067D01*
X113348571Y-72853543D01*
X113386666Y-73005924D01*
X113424762Y-73082114D01*
X113462857Y-73120210D01*
X113539047Y-73158305D01*
X113615238Y-73158305D01*
X113691428Y-73120210D01*
X113729524Y-73082114D01*
X113767619Y-73005924D01*
X113805714Y-72853543D01*
X113805714Y-72663067D01*
X113767619Y-72510686D01*
X113729524Y-72434495D01*
X113691428Y-72396400D01*
X113615238Y-72358305D01*
X112586666Y-73158305D02*
X113043809Y-73158305D01*
X112815238Y-73158305D02*
X112815238Y-72358305D01*
X112891428Y-72472590D01*
X112967619Y-72548781D01*
X113043809Y-72586876D01*
X112319999Y-72358305D02*
X111786666Y-72358305D01*
X112129523Y-73158305D01*
D13*
X166400000Y-69650000D02*
X166400000Y-68950000D01*
X165200000Y-68950000D02*
X165200000Y-69650000D01*
X170596000Y-68674500D02*
X170596000Y-69374500D01*
X171796000Y-69374500D02*
X171796000Y-68674500D01*
X181510000Y-71080000D02*
X181510000Y-68420000D01*
X191730000Y-71080000D02*
X181510000Y-71080000D01*
X191730000Y-68420000D02*
X181510000Y-68420000D01*
X191730000Y-71080000D02*
X191730000Y-68420000D01*
X193000000Y-71080000D02*
X194330000Y-71080000D01*
X194330000Y-71080000D02*
X194330000Y-69750000D01*
X192950000Y-74670000D02*
X192950000Y-77330000D01*
X185270000Y-74670000D02*
X192950000Y-74670000D01*
X185270000Y-77330000D02*
X192950000Y-77330000D01*
X185270000Y-74670000D02*
X185270000Y-77330000D01*
X184000000Y-74670000D02*
X182670000Y-74670000D01*
X182670000Y-74670000D02*
X182670000Y-76000000D01*
X190250000Y-72070000D02*
X189250000Y-72070000D01*
X189250000Y-73430000D02*
X190250000Y-73430000D01*
X185000000Y-72070000D02*
X184000000Y-72070000D01*
X184000000Y-73430000D02*
X185000000Y-73430000D01*
X168200000Y-72980000D02*
X169200000Y-72980000D01*
X169200000Y-71620000D02*
X168200000Y-71620000D01*
X168500000Y-67380000D02*
X169500000Y-67380000D01*
X169500000Y-66020000D02*
X168500000Y-66020000D01*
X165900000Y-67380000D02*
X166900000Y-67380000D01*
X166900000Y-66020000D02*
X165900000Y-66020000D01*
D11*
X170100000Y-67900000D02*
X169700000Y-67900000D01*
X170100000Y-67900000D02*
X170100000Y-68300000D01*
X170100000Y-71100000D02*
X169700000Y-71100000D01*
X170100000Y-71100000D02*
X170100000Y-70700000D01*
X166900000Y-71100000D02*
X167300000Y-71100000D01*
X166900000Y-71100000D02*
X166900000Y-70700000D01*
X166900000Y-67900000D02*
X166900000Y-68300000D01*
D14*
G36*
X109628896Y-70967278D02*
X109573439Y-70994928D01*
X109524492Y-71045840D01*
X109511011Y-71064698D01*
X109496326Y-71089375D01*
X109486798Y-71116176D01*
X109481347Y-71151947D01*
X109478893Y-71203529D01*
X109478354Y-71271627D01*
X109480788Y-71364948D01*
X109489246Y-71435017D01*
X109505466Y-71487291D01*
X109531186Y-71527229D01*
X109568143Y-71560289D01*
X109570858Y-71562246D01*
X109607280Y-71582268D01*
X109651138Y-71592175D01*
X109706916Y-71594617D01*
X109797592Y-71594617D01*
X109797630Y-71682643D01*
X109798474Y-71731668D01*
X109803616Y-71760425D01*
X109817053Y-71777671D01*
X109842782Y-71792168D01*
X109848961Y-71795129D01*
X109877876Y-71809008D01*
X109900264Y-71817774D01*
X109916911Y-71818531D01*
X109928604Y-71808383D01*
X109936130Y-71784433D01*
X109940274Y-71743786D01*
X109941825Y-71683546D01*
X109941569Y-71600815D01*
X109940291Y-71492699D01*
X109939892Y-71460360D01*
X109938455Y-71348884D01*
X109937168Y-71275963D01*
X109797669Y-71275963D01*
X109796885Y-71337859D01*
X109793400Y-71378357D01*
X109785516Y-71405068D01*
X109771535Y-71425604D01*
X109762043Y-71435620D01*
X109723236Y-71464927D01*
X109688877Y-71467312D01*
X109653424Y-71443110D01*
X109652526Y-71442217D01*
X109638101Y-71423513D01*
X109629327Y-71398092D01*
X109624901Y-71358944D01*
X109623522Y-71299057D01*
X109623497Y-71285790D01*
X109626828Y-71203261D01*
X109637671Y-71146051D01*
X109657300Y-71111126D01*
X109686990Y-71095454D01*
X109704149Y-71093874D01*
X109744874Y-71101286D01*
X109772808Y-71125690D01*
X109789623Y-71170340D01*
X109796990Y-71238490D01*
X109797669Y-71275963D01*
X109937168Y-71275963D01*
X109936932Y-71262605D01*
X109934963Y-71197693D01*
X109932190Y-71150318D01*
X109928252Y-71116650D01*
X109922791Y-71092858D01*
X109915448Y-71075113D01*
X109905863Y-71059584D01*
X109901753Y-71053741D01*
X109847235Y-70998545D01*
X109778304Y-70967250D01*
X109698568Y-70958525D01*
X109628896Y-70967278D01*
X109628896Y-70967278D01*
G37*
X109628896Y-70967278D02*
X109573439Y-70994928D01*
X109524492Y-71045840D01*
X109511011Y-71064698D01*
X109496326Y-71089375D01*
X109486798Y-71116176D01*
X109481347Y-71151947D01*
X109478893Y-71203529D01*
X109478354Y-71271627D01*
X109480788Y-71364948D01*
X109489246Y-71435017D01*
X109505466Y-71487291D01*
X109531186Y-71527229D01*
X109568143Y-71560289D01*
X109570858Y-71562246D01*
X109607280Y-71582268D01*
X109651138Y-71592175D01*
X109706916Y-71594617D01*
X109797592Y-71594617D01*
X109797630Y-71682643D01*
X109798474Y-71731668D01*
X109803616Y-71760425D01*
X109817053Y-71777671D01*
X109842782Y-71792168D01*
X109848961Y-71795129D01*
X109877876Y-71809008D01*
X109900264Y-71817774D01*
X109916911Y-71818531D01*
X109928604Y-71808383D01*
X109936130Y-71784433D01*
X109940274Y-71743786D01*
X109941825Y-71683546D01*
X109941569Y-71600815D01*
X109940291Y-71492699D01*
X109939892Y-71460360D01*
X109938455Y-71348884D01*
X109937168Y-71275963D01*
X109797669Y-71275963D01*
X109796885Y-71337859D01*
X109793400Y-71378357D01*
X109785516Y-71405068D01*
X109771535Y-71425604D01*
X109762043Y-71435620D01*
X109723236Y-71464927D01*
X109688877Y-71467312D01*
X109653424Y-71443110D01*
X109652526Y-71442217D01*
X109638101Y-71423513D01*
X109629327Y-71398092D01*
X109624901Y-71358944D01*
X109623522Y-71299057D01*
X109623497Y-71285790D01*
X109626828Y-71203261D01*
X109637671Y-71146051D01*
X109657300Y-71111126D01*
X109686990Y-71095454D01*
X109704149Y-71093874D01*
X109744874Y-71101286D01*
X109772808Y-71125690D01*
X109789623Y-71170340D01*
X109796990Y-71238490D01*
X109797669Y-71275963D01*
X109937168Y-71275963D01*
X109936932Y-71262605D01*
X109934963Y-71197693D01*
X109932190Y-71150318D01*
X109928252Y-71116650D01*
X109922791Y-71092858D01*
X109915448Y-71075113D01*
X109905863Y-71059584D01*
X109901753Y-71053741D01*
X109847235Y-70998545D01*
X109778304Y-70967250D01*
X109698568Y-70958525D01*
X109628896Y-70967278D01*
G36*
X108512547Y-70975140D02*
X108465968Y-71002083D01*
X108433583Y-71028826D01*
X108409898Y-71056844D01*
X108393581Y-71091108D01*
X108383301Y-71136587D01*
X108377726Y-71198252D01*
X108375524Y-71281071D01*
X108375269Y-71340606D01*
X108375269Y-71559751D01*
X108436954Y-71587404D01*
X108498640Y-71615057D01*
X108505897Y-71375030D01*
X108508896Y-71285388D01*
X108512042Y-71220322D01*
X108515939Y-71175386D01*
X108521193Y-71146130D01*
X108528409Y-71128108D01*
X108538190Y-71116871D01*
X108541328Y-71114439D01*
X108588879Y-71095443D01*
X108636943Y-71102960D01*
X108665554Y-71122903D01*
X108677193Y-71137035D01*
X108685249Y-71155580D01*
X108690369Y-71183694D01*
X108693199Y-71226533D01*
X108694384Y-71289255D01*
X108694583Y-71354621D01*
X108694622Y-71436628D01*
X108696026Y-71494676D01*
X108700726Y-71533825D01*
X108710653Y-71559140D01*
X108727737Y-71575683D01*
X108753908Y-71588516D01*
X108788865Y-71601851D01*
X108827044Y-71616367D01*
X108822499Y-71358749D01*
X108820669Y-71265879D01*
X108818528Y-71197249D01*
X108815459Y-71148071D01*
X108810846Y-71113558D01*
X108804072Y-71088922D01*
X108794521Y-71069376D01*
X108783006Y-71052130D01*
X108727450Y-70997040D01*
X108659660Y-70965182D01*
X108585927Y-70957551D01*
X108512547Y-70975140D01*
X108512547Y-70975140D01*
G37*
X108512547Y-70975140D02*
X108465968Y-71002083D01*
X108433583Y-71028826D01*
X108409898Y-71056844D01*
X108393581Y-71091108D01*
X108383301Y-71136587D01*
X108377726Y-71198252D01*
X108375524Y-71281071D01*
X108375269Y-71340606D01*
X108375269Y-71559751D01*
X108436954Y-71587404D01*
X108498640Y-71615057D01*
X108505897Y-71375030D01*
X108508896Y-71285388D01*
X108512042Y-71220322D01*
X108515939Y-71175386D01*
X108521193Y-71146130D01*
X108528409Y-71128108D01*
X108538190Y-71116871D01*
X108541328Y-71114439D01*
X108588879Y-71095443D01*
X108636943Y-71102960D01*
X108665554Y-71122903D01*
X108677193Y-71137035D01*
X108685249Y-71155580D01*
X108690369Y-71183694D01*
X108693199Y-71226533D01*
X108694384Y-71289255D01*
X108694583Y-71354621D01*
X108694622Y-71436628D01*
X108696026Y-71494676D01*
X108700726Y-71533825D01*
X108710653Y-71559140D01*
X108727737Y-71575683D01*
X108753908Y-71588516D01*
X108788865Y-71601851D01*
X108827044Y-71616367D01*
X108822499Y-71358749D01*
X108820669Y-71265879D01*
X108818528Y-71197249D01*
X108815459Y-71148071D01*
X108810846Y-71113558D01*
X108804072Y-71088922D01*
X108794521Y-71069376D01*
X108783006Y-71052130D01*
X108727450Y-70997040D01*
X108659660Y-70965182D01*
X108585927Y-70957551D01*
X108512547Y-70975140D01*
G36*
X110187525Y-70969322D02*
X110119495Y-71005093D01*
X110069289Y-71062661D01*
X110051455Y-71099672D01*
X110037577Y-71155242D01*
X110030473Y-71225456D01*
X110029800Y-71302087D01*
X110035213Y-71376912D01*
X110046370Y-71441702D01*
X110062926Y-71488233D01*
X110068014Y-71496247D01*
X110128285Y-71556067D01*
X110199871Y-71591895D01*
X110277548Y-71602380D01*
X110356092Y-71586170D01*
X110377951Y-71576452D01*
X110420518Y-71546503D01*
X110457877Y-71506793D01*
X110461408Y-71501757D01*
X110475759Y-71477484D01*
X110485246Y-71451538D01*
X110490850Y-71417382D01*
X110493554Y-71368479D01*
X110494341Y-71298295D01*
X110494354Y-71282560D01*
X110494318Y-71277552D01*
X110349211Y-71277552D01*
X110348367Y-71343790D01*
X110345044Y-71387746D01*
X110338057Y-71416139D01*
X110326224Y-71435685D01*
X110320183Y-71442217D01*
X110285454Y-71467040D01*
X110251737Y-71465908D01*
X110217645Y-71444376D01*
X110197311Y-71421389D01*
X110185269Y-71387838D01*
X110178506Y-71334929D01*
X110178042Y-71328759D01*
X110176888Y-71232873D01*
X110188952Y-71161659D01*
X110214070Y-71115554D01*
X110252080Y-71094995D01*
X110265648Y-71093874D01*
X110301276Y-71099512D01*
X110325646Y-71119046D01*
X110340547Y-71156402D01*
X110347765Y-71215510D01*
X110349211Y-71277552D01*
X110494318Y-71277552D01*
X110493814Y-71207773D01*
X110491544Y-71155519D01*
X110486572Y-71119309D01*
X110477927Y-71092659D01*
X110464635Y-71069082D01*
X110461697Y-71064698D01*
X110412327Y-71005609D01*
X110358531Y-70971307D01*
X110293038Y-70957691D01*
X110270798Y-70957025D01*
X110187525Y-70969322D01*
X110187525Y-70969322D01*
G37*
X110187525Y-70969322D02*
X110119495Y-71005093D01*
X110069289Y-71062661D01*
X110051455Y-71099672D01*
X110037577Y-71155242D01*
X110030473Y-71225456D01*
X110029800Y-71302087D01*
X110035213Y-71376912D01*
X110046370Y-71441702D01*
X110062926Y-71488233D01*
X110068014Y-71496247D01*
X110128285Y-71556067D01*
X110199871Y-71591895D01*
X110277548Y-71602380D01*
X110356092Y-71586170D01*
X110377951Y-71576452D01*
X110420518Y-71546503D01*
X110457877Y-71506793D01*
X110461408Y-71501757D01*
X110475759Y-71477484D01*
X110485246Y-71451538D01*
X110490850Y-71417382D01*
X110493554Y-71368479D01*
X110494341Y-71298295D01*
X110494354Y-71282560D01*
X110494318Y-71277552D01*
X110349211Y-71277552D01*
X110348367Y-71343790D01*
X110345044Y-71387746D01*
X110338057Y-71416139D01*
X110326224Y-71435685D01*
X110320183Y-71442217D01*
X110285454Y-71467040D01*
X110251737Y-71465908D01*
X110217645Y-71444376D01*
X110197311Y-71421389D01*
X110185269Y-71387838D01*
X110178506Y-71334929D01*
X110178042Y-71328759D01*
X110176888Y-71232873D01*
X110188952Y-71161659D01*
X110214070Y-71115554D01*
X110252080Y-71094995D01*
X110265648Y-71093874D01*
X110301276Y-71099512D01*
X110325646Y-71119046D01*
X110340547Y-71156402D01*
X110347765Y-71215510D01*
X110349211Y-71277552D01*
X110494318Y-71277552D01*
X110493814Y-71207773D01*
X110491544Y-71155519D01*
X110486572Y-71119309D01*
X110477927Y-71092659D01*
X110464635Y-71069082D01*
X110461697Y-71064698D01*
X110412327Y-71005609D01*
X110358531Y-70971307D01*
X110293038Y-70957691D01*
X110270798Y-70957025D01*
X110187525Y-70969322D01*
G36*
X109060337Y-70978599D02*
X109003113Y-71017095D01*
X108958891Y-71072695D01*
X108932473Y-71143446D01*
X108927130Y-71195522D01*
X108927737Y-71217253D01*
X108932818Y-71233891D01*
X108946785Y-71248797D01*
X108974051Y-71265333D01*
X109019028Y-71286858D01*
X109086129Y-71316734D01*
X109086469Y-71316884D01*
X109148233Y-71345173D01*
X109198881Y-71370293D01*
X109233236Y-71389539D01*
X109246122Y-71400208D01*
X109246126Y-71400294D01*
X109234768Y-71423526D01*
X109208209Y-71449134D01*
X109177717Y-71467581D01*
X109162270Y-71471246D01*
X109120125Y-71458572D01*
X109083832Y-71426831D01*
X109066123Y-71391932D01*
X109049088Y-71366205D01*
X109015718Y-71336906D01*
X108976491Y-71311595D01*
X108941884Y-71297831D01*
X108934647Y-71297074D01*
X108926501Y-71309520D01*
X108926010Y-71341332D01*
X108931997Y-71384226D01*
X108943283Y-71429918D01*
X108958690Y-71470121D01*
X108959469Y-71471682D01*
X109005836Y-71536422D01*
X109065929Y-71580457D01*
X109134175Y-71602071D01*
X109205002Y-71599545D01*
X109272836Y-71571164D01*
X109275852Y-71569168D01*
X109329213Y-71520808D01*
X109364300Y-71457712D01*
X109383718Y-71374747D01*
X109386324Y-71351438D01*
X109390939Y-71241415D01*
X109385407Y-71190108D01*
X109246126Y-71190108D01*
X109244316Y-71222113D01*
X109234418Y-71231453D01*
X109209742Y-71224465D01*
X109170845Y-71207947D01*
X109127365Y-71187241D01*
X109126284Y-71186693D01*
X109089431Y-71167309D01*
X109074640Y-71154373D01*
X109078287Y-71140811D01*
X109093645Y-71122992D01*
X109132717Y-71097205D01*
X109174794Y-71095310D01*
X109212537Y-71114077D01*
X109238606Y-71150275D01*
X109246126Y-71190108D01*
X109385407Y-71190108D01*
X109381446Y-71153387D01*
X109357090Y-71083572D01*
X109323184Y-71034662D01*
X109261987Y-70985238D01*
X109194577Y-70960719D01*
X109125760Y-70959157D01*
X109060337Y-70978599D01*
X109060337Y-70978599D01*
G37*
X109060337Y-70978599D02*
X109003113Y-71017095D01*
X108958891Y-71072695D01*
X108932473Y-71143446D01*
X108927130Y-71195522D01*
X108927737Y-71217253D01*
X108932818Y-71233891D01*
X108946785Y-71248797D01*
X108974051Y-71265333D01*
X109019028Y-71286858D01*
X109086129Y-71316734D01*
X109086469Y-71316884D01*
X109148233Y-71345173D01*
X109198881Y-71370293D01*
X109233236Y-71389539D01*
X109246122Y-71400208D01*
X109246126Y-71400294D01*
X109234768Y-71423526D01*
X109208209Y-71449134D01*
X109177717Y-71467581D01*
X109162270Y-71471246D01*
X109120125Y-71458572D01*
X109083832Y-71426831D01*
X109066123Y-71391932D01*
X109049088Y-71366205D01*
X109015718Y-71336906D01*
X108976491Y-71311595D01*
X108941884Y-71297831D01*
X108934647Y-71297074D01*
X108926501Y-71309520D01*
X108926010Y-71341332D01*
X108931997Y-71384226D01*
X108943283Y-71429918D01*
X108958690Y-71470121D01*
X108959469Y-71471682D01*
X109005836Y-71536422D01*
X109065929Y-71580457D01*
X109134175Y-71602071D01*
X109205002Y-71599545D01*
X109272836Y-71571164D01*
X109275852Y-71569168D01*
X109329213Y-71520808D01*
X109364300Y-71457712D01*
X109383718Y-71374747D01*
X109386324Y-71351438D01*
X109390939Y-71241415D01*
X109385407Y-71190108D01*
X109246126Y-71190108D01*
X109244316Y-71222113D01*
X109234418Y-71231453D01*
X109209742Y-71224465D01*
X109170845Y-71207947D01*
X109127365Y-71187241D01*
X109126284Y-71186693D01*
X109089431Y-71167309D01*
X109074640Y-71154373D01*
X109078287Y-71140811D01*
X109093645Y-71122992D01*
X109132717Y-71097205D01*
X109174794Y-71095310D01*
X109212537Y-71114077D01*
X109238606Y-71150275D01*
X109246126Y-71190108D01*
X109385407Y-71190108D01*
X109381446Y-71153387D01*
X109357090Y-71083572D01*
X109323184Y-71034662D01*
X109261987Y-70985238D01*
X109194577Y-70960719D01*
X109125760Y-70959157D01*
X109060337Y-70978599D01*
G36*
X107852754Y-70898649D02*
X107848501Y-70957973D01*
X107843615Y-70992932D01*
X107836845Y-71008180D01*
X107826938Y-71008375D01*
X107823726Y-71006555D01*
X107780996Y-70993375D01*
X107725413Y-70994145D01*
X107668903Y-71007693D01*
X107633558Y-71025221D01*
X107597319Y-71053221D01*
X107570827Y-71084909D01*
X107552641Y-71125173D01*
X107541318Y-71178903D01*
X107535418Y-71250986D01*
X107533497Y-71346311D01*
X107533463Y-71364597D01*
X107533440Y-71570006D01*
X107579149Y-71585940D01*
X107611613Y-71596780D01*
X107629425Y-71601828D01*
X107629949Y-71601874D01*
X107631703Y-71588188D01*
X107633196Y-71550436D01*
X107634314Y-71493584D01*
X107634943Y-71422594D01*
X107635040Y-71379433D01*
X107635242Y-71294333D01*
X107636282Y-71233341D01*
X107638809Y-71191537D01*
X107643476Y-71164002D01*
X107650933Y-71145816D01*
X107661829Y-71132058D01*
X107668633Y-71125433D01*
X107715368Y-71098735D01*
X107766368Y-71096735D01*
X107812639Y-71119315D01*
X107821196Y-71127467D01*
X107833747Y-71142796D01*
X107842452Y-71160978D01*
X107848009Y-71187269D01*
X107851114Y-71226922D01*
X107852464Y-71285192D01*
X107852754Y-71365533D01*
X107852754Y-71570006D01*
X107898463Y-71585940D01*
X107930927Y-71596780D01*
X107948739Y-71601828D01*
X107949263Y-71601874D01*
X107950603Y-71587983D01*
X107951812Y-71548799D01*
X107952839Y-71488060D01*
X107953638Y-71409501D01*
X107954159Y-71316858D01*
X107954354Y-71213869D01*
X107954354Y-70816702D01*
X107907183Y-70796804D01*
X107860011Y-70776907D01*
X107852754Y-70898649D01*
X107852754Y-70898649D01*
G37*
X107852754Y-70898649D02*
X107848501Y-70957973D01*
X107843615Y-70992932D01*
X107836845Y-71008180D01*
X107826938Y-71008375D01*
X107823726Y-71006555D01*
X107780996Y-70993375D01*
X107725413Y-70994145D01*
X107668903Y-71007693D01*
X107633558Y-71025221D01*
X107597319Y-71053221D01*
X107570827Y-71084909D01*
X107552641Y-71125173D01*
X107541318Y-71178903D01*
X107535418Y-71250986D01*
X107533497Y-71346311D01*
X107533463Y-71364597D01*
X107533440Y-71570006D01*
X107579149Y-71585940D01*
X107611613Y-71596780D01*
X107629425Y-71601828D01*
X107629949Y-71601874D01*
X107631703Y-71588188D01*
X107633196Y-71550436D01*
X107634314Y-71493584D01*
X107634943Y-71422594D01*
X107635040Y-71379433D01*
X107635242Y-71294333D01*
X107636282Y-71233341D01*
X107638809Y-71191537D01*
X107643476Y-71164002D01*
X107650933Y-71145816D01*
X107661829Y-71132058D01*
X107668633Y-71125433D01*
X107715368Y-71098735D01*
X107766368Y-71096735D01*
X107812639Y-71119315D01*
X107821196Y-71127467D01*
X107833747Y-71142796D01*
X107842452Y-71160978D01*
X107848009Y-71187269D01*
X107851114Y-71226922D01*
X107852464Y-71285192D01*
X107852754Y-71365533D01*
X107852754Y-71570006D01*
X107898463Y-71585940D01*
X107930927Y-71596780D01*
X107948739Y-71601828D01*
X107949263Y-71601874D01*
X107950603Y-71587983D01*
X107951812Y-71548799D01*
X107952839Y-71488060D01*
X107953638Y-71409501D01*
X107954159Y-71316858D01*
X107954354Y-71213869D01*
X107954354Y-70816702D01*
X107907183Y-70796804D01*
X107860011Y-70776907D01*
X107852754Y-70898649D01*
G36*
X107188896Y-70998328D02*
X107132024Y-71019447D01*
X107131373Y-71019853D01*
X107096200Y-71045740D01*
X107070233Y-71075993D01*
X107051970Y-71115418D01*
X107039908Y-71168822D01*
X107032544Y-71241011D01*
X107028376Y-71336792D01*
X107028011Y-71350438D01*
X107022764Y-71556202D01*
X107066924Y-71579038D01*
X107098877Y-71594470D01*
X107118170Y-71601783D01*
X107119062Y-71601874D01*
X107122401Y-71588382D01*
X107125053Y-71551986D01*
X107126684Y-71498812D01*
X107127040Y-71455753D01*
X107127048Y-71386001D01*
X107130237Y-71342197D01*
X107141352Y-71321304D01*
X107165139Y-71320285D01*
X107206344Y-71336101D01*
X107268554Y-71365175D01*
X107314299Y-71389323D01*
X107337827Y-71410273D01*
X107344744Y-71433107D01*
X107344754Y-71434237D01*
X107333341Y-71473572D01*
X107299548Y-71494822D01*
X107247831Y-71497899D01*
X107210579Y-71497366D01*
X107190937Y-71508095D01*
X107178688Y-71533865D01*
X107171638Y-71566697D01*
X107181798Y-71585326D01*
X107185623Y-71587992D01*
X107221639Y-71598700D01*
X107272074Y-71600216D01*
X107324014Y-71593119D01*
X107360818Y-71580148D01*
X107411702Y-71536945D01*
X107440626Y-71476806D01*
X107446354Y-71429822D01*
X107441983Y-71387442D01*
X107426165Y-71352848D01*
X107394843Y-71322123D01*
X107343962Y-71291350D01*
X107269464Y-71256612D01*
X107264926Y-71254648D01*
X107197819Y-71223647D01*
X107156408Y-71198222D01*
X107138659Y-71175374D01*
X107142533Y-71152105D01*
X107165997Y-71125416D01*
X107173013Y-71119274D01*
X107220010Y-71095460D01*
X107268707Y-71096463D01*
X107311118Y-71119811D01*
X107339256Y-71163035D01*
X107341871Y-71171520D01*
X107367332Y-71212668D01*
X107399639Y-71232488D01*
X107446354Y-71252130D01*
X107446354Y-71201310D01*
X107432144Y-71127442D01*
X107389965Y-71059687D01*
X107368016Y-71037021D01*
X107318123Y-71007929D01*
X107254673Y-70994760D01*
X107188896Y-70998328D01*
X107188896Y-70998328D01*
G37*
X107188896Y-70998328D02*
X107132024Y-71019447D01*
X107131373Y-71019853D01*
X107096200Y-71045740D01*
X107070233Y-71075993D01*
X107051970Y-71115418D01*
X107039908Y-71168822D01*
X107032544Y-71241011D01*
X107028376Y-71336792D01*
X107028011Y-71350438D01*
X107022764Y-71556202D01*
X107066924Y-71579038D01*
X107098877Y-71594470D01*
X107118170Y-71601783D01*
X107119062Y-71601874D01*
X107122401Y-71588382D01*
X107125053Y-71551986D01*
X107126684Y-71498812D01*
X107127040Y-71455753D01*
X107127048Y-71386001D01*
X107130237Y-71342197D01*
X107141352Y-71321304D01*
X107165139Y-71320285D01*
X107206344Y-71336101D01*
X107268554Y-71365175D01*
X107314299Y-71389323D01*
X107337827Y-71410273D01*
X107344744Y-71433107D01*
X107344754Y-71434237D01*
X107333341Y-71473572D01*
X107299548Y-71494822D01*
X107247831Y-71497899D01*
X107210579Y-71497366D01*
X107190937Y-71508095D01*
X107178688Y-71533865D01*
X107171638Y-71566697D01*
X107181798Y-71585326D01*
X107185623Y-71587992D01*
X107221639Y-71598700D01*
X107272074Y-71600216D01*
X107324014Y-71593119D01*
X107360818Y-71580148D01*
X107411702Y-71536945D01*
X107440626Y-71476806D01*
X107446354Y-71429822D01*
X107441983Y-71387442D01*
X107426165Y-71352848D01*
X107394843Y-71322123D01*
X107343962Y-71291350D01*
X107269464Y-71256612D01*
X107264926Y-71254648D01*
X107197819Y-71223647D01*
X107156408Y-71198222D01*
X107138659Y-71175374D01*
X107142533Y-71152105D01*
X107165997Y-71125416D01*
X107173013Y-71119274D01*
X107220010Y-71095460D01*
X107268707Y-71096463D01*
X107311118Y-71119811D01*
X107339256Y-71163035D01*
X107341871Y-71171520D01*
X107367332Y-71212668D01*
X107399639Y-71232488D01*
X107446354Y-71252130D01*
X107446354Y-71201310D01*
X107432144Y-71127442D01*
X107389965Y-71059687D01*
X107368016Y-71037021D01*
X107318123Y-71007929D01*
X107254673Y-70994760D01*
X107188896Y-70998328D01*
G36*
X106698714Y-70997115D02*
X106632782Y-71021444D01*
X106579367Y-71064477D01*
X106558476Y-71094769D01*
X106535701Y-71150354D01*
X106536174Y-71190546D01*
X106560078Y-71217577D01*
X106568923Y-71222173D01*
X106607110Y-71236504D01*
X106626612Y-71232832D01*
X106633218Y-71208767D01*
X106633554Y-71195474D01*
X106645648Y-71146570D01*
X106677169Y-71112359D01*
X106720981Y-71095836D01*
X106769945Y-71099994D01*
X106809746Y-71121587D01*
X106823190Y-71133904D01*
X106832719Y-71148847D01*
X106839155Y-71171435D01*
X106843323Y-71206688D01*
X106846043Y-71259626D01*
X106848138Y-71335267D01*
X106848680Y-71359217D01*
X106850659Y-71441150D01*
X106852909Y-71498815D01*
X106856283Y-71536968D01*
X106861634Y-71560364D01*
X106869816Y-71573758D01*
X106881681Y-71581905D01*
X106889278Y-71585504D01*
X106921538Y-71597812D01*
X106940529Y-71601874D01*
X106946804Y-71588308D01*
X106950634Y-71547294D01*
X106952040Y-71478359D01*
X106951042Y-71381029D01*
X106950732Y-71366017D01*
X106948539Y-71277219D01*
X106945947Y-71212379D01*
X106942258Y-71166427D01*
X106936776Y-71134295D01*
X106928805Y-71110913D01*
X106917647Y-71091212D01*
X106911810Y-71082770D01*
X106878344Y-71045417D01*
X106840913Y-71016363D01*
X106836331Y-71013827D01*
X106769214Y-70993803D01*
X106698714Y-70997115D01*
X106698714Y-70997115D01*
G37*
X106698714Y-70997115D02*
X106632782Y-71021444D01*
X106579367Y-71064477D01*
X106558476Y-71094769D01*
X106535701Y-71150354D01*
X106536174Y-71190546D01*
X106560078Y-71217577D01*
X106568923Y-71222173D01*
X106607110Y-71236504D01*
X106626612Y-71232832D01*
X106633218Y-71208767D01*
X106633554Y-71195474D01*
X106645648Y-71146570D01*
X106677169Y-71112359D01*
X106720981Y-71095836D01*
X106769945Y-71099994D01*
X106809746Y-71121587D01*
X106823190Y-71133904D01*
X106832719Y-71148847D01*
X106839155Y-71171435D01*
X106843323Y-71206688D01*
X106846043Y-71259626D01*
X106848138Y-71335267D01*
X106848680Y-71359217D01*
X106850659Y-71441150D01*
X106852909Y-71498815D01*
X106856283Y-71536968D01*
X106861634Y-71560364D01*
X106869816Y-71573758D01*
X106881681Y-71581905D01*
X106889278Y-71585504D01*
X106921538Y-71597812D01*
X106940529Y-71601874D01*
X106946804Y-71588308D01*
X106950634Y-71547294D01*
X106952040Y-71478359D01*
X106951042Y-71381029D01*
X106950732Y-71366017D01*
X106948539Y-71277219D01*
X106945947Y-71212379D01*
X106942258Y-71166427D01*
X106936776Y-71134295D01*
X106928805Y-71110913D01*
X106917647Y-71091212D01*
X106911810Y-71082770D01*
X106878344Y-71045417D01*
X106840913Y-71016363D01*
X106836331Y-71013827D01*
X106769214Y-70993803D01*
X106698714Y-70997115D01*
G36*
X106038523Y-71112718D02*
X106038707Y-71221197D01*
X106039421Y-71304647D01*
X106040965Y-71367064D01*
X106043639Y-71412445D01*
X106047746Y-71444789D01*
X106053585Y-71468093D01*
X106061458Y-71486355D01*
X106067419Y-71496778D01*
X106116785Y-71553305D01*
X106179376Y-71588737D01*
X106248627Y-71601450D01*
X106317972Y-71589823D01*
X106359265Y-71568928D01*
X106402615Y-71532782D01*
X106432159Y-71488636D01*
X106449985Y-71430822D01*
X106458177Y-71353673D01*
X106459338Y-71297074D01*
X106459182Y-71293007D01*
X106357783Y-71293007D01*
X106357164Y-71357910D01*
X106354326Y-71400874D01*
X106347800Y-71428982D01*
X106336117Y-71449313D01*
X106322157Y-71464648D01*
X106275275Y-71494250D01*
X106224939Y-71496779D01*
X106177364Y-71472065D01*
X106173661Y-71468716D01*
X106157857Y-71451295D01*
X106147947Y-71430569D01*
X106142582Y-71399722D01*
X106140412Y-71351937D01*
X106140069Y-71299108D01*
X106140813Y-71232741D01*
X106143892Y-71188466D01*
X106150579Y-71159369D01*
X106162144Y-71138533D01*
X106171627Y-71127467D01*
X106215680Y-71099558D01*
X106266416Y-71096203D01*
X106314844Y-71117519D01*
X106324190Y-71125433D01*
X106340100Y-71143007D01*
X106350030Y-71163947D01*
X106355362Y-71195142D01*
X106357477Y-71243482D01*
X106357783Y-71293007D01*
X106459182Y-71293007D01*
X106455830Y-71205928D01*
X106443914Y-71137446D01*
X106421505Y-71085960D01*
X106386516Y-71045803D01*
X106359265Y-71025221D01*
X106309733Y-71002985D01*
X106252324Y-70992664D01*
X106198958Y-70995427D01*
X106169097Y-71006572D01*
X106157379Y-71009743D01*
X106149603Y-70997917D01*
X106144175Y-70966226D01*
X106140069Y-70917953D01*
X106135573Y-70864189D01*
X106129327Y-70831842D01*
X106117964Y-70813345D01*
X106098112Y-70801130D01*
X106085640Y-70795722D01*
X106038469Y-70775961D01*
X106038523Y-71112718D01*
X106038523Y-71112718D01*
G37*
X106038523Y-71112718D02*
X106038707Y-71221197D01*
X106039421Y-71304647D01*
X106040965Y-71367064D01*
X106043639Y-71412445D01*
X106047746Y-71444789D01*
X106053585Y-71468093D01*
X106061458Y-71486355D01*
X106067419Y-71496778D01*
X106116785Y-71553305D01*
X106179376Y-71588737D01*
X106248627Y-71601450D01*
X106317972Y-71589823D01*
X106359265Y-71568928D01*
X106402615Y-71532782D01*
X106432159Y-71488636D01*
X106449985Y-71430822D01*
X106458177Y-71353673D01*
X106459338Y-71297074D01*
X106459182Y-71293007D01*
X106357783Y-71293007D01*
X106357164Y-71357910D01*
X106354326Y-71400874D01*
X106347800Y-71428982D01*
X106336117Y-71449313D01*
X106322157Y-71464648D01*
X106275275Y-71494250D01*
X106224939Y-71496779D01*
X106177364Y-71472065D01*
X106173661Y-71468716D01*
X106157857Y-71451295D01*
X106147947Y-71430569D01*
X106142582Y-71399722D01*
X106140412Y-71351937D01*
X106140069Y-71299108D01*
X106140813Y-71232741D01*
X106143892Y-71188466D01*
X106150579Y-71159369D01*
X106162144Y-71138533D01*
X106171627Y-71127467D01*
X106215680Y-71099558D01*
X106266416Y-71096203D01*
X106314844Y-71117519D01*
X106324190Y-71125433D01*
X106340100Y-71143007D01*
X106350030Y-71163947D01*
X106355362Y-71195142D01*
X106357477Y-71243482D01*
X106357783Y-71293007D01*
X106459182Y-71293007D01*
X106455830Y-71205928D01*
X106443914Y-71137446D01*
X106421505Y-71085960D01*
X106386516Y-71045803D01*
X106359265Y-71025221D01*
X106309733Y-71002985D01*
X106252324Y-70992664D01*
X106198958Y-70995427D01*
X106169097Y-71006572D01*
X106157379Y-71009743D01*
X106149603Y-70997917D01*
X106144175Y-70966226D01*
X106140069Y-70917953D01*
X106135573Y-70864189D01*
X106129327Y-70831842D01*
X106117964Y-70813345D01*
X106098112Y-70801130D01*
X106085640Y-70795722D01*
X106038469Y-70775961D01*
X106038523Y-71112718D01*
G36*
X105448807Y-71006023D02*
X105446592Y-71044210D01*
X105444856Y-71102246D01*
X105443741Y-71175540D01*
X105443383Y-71252415D01*
X105443383Y-71512556D01*
X105489314Y-71558487D01*
X105520965Y-71586789D01*
X105548750Y-71598253D01*
X105586725Y-71597528D01*
X105601800Y-71595681D01*
X105648914Y-71590308D01*
X105687884Y-71587229D01*
X105697383Y-71586945D01*
X105729407Y-71588805D01*
X105775208Y-71593474D01*
X105792966Y-71595681D01*
X105836583Y-71599095D01*
X105865895Y-71591680D01*
X105894960Y-71568787D01*
X105905452Y-71558487D01*
X105951383Y-71512556D01*
X105951383Y-71025962D01*
X105914414Y-71009118D01*
X105882581Y-70996642D01*
X105863957Y-70992274D01*
X105859182Y-71006078D01*
X105854719Y-71044646D01*
X105850865Y-71103716D01*
X105847918Y-71179023D01*
X105846497Y-71242646D01*
X105842526Y-71493017D01*
X105807881Y-71497916D01*
X105776372Y-71494491D01*
X105760932Y-71483401D01*
X105756617Y-71462668D01*
X105752932Y-71418505D01*
X105750171Y-71356506D01*
X105748628Y-71282269D01*
X105748405Y-71244066D01*
X105748183Y-71024143D01*
X105702474Y-71008209D01*
X105670122Y-70997375D01*
X105652525Y-70992322D01*
X105652017Y-70992274D01*
X105650252Y-71006008D01*
X105648311Y-71044090D01*
X105646358Y-71101842D01*
X105644556Y-71174587D01*
X105643297Y-71242646D01*
X105639326Y-71493017D01*
X105552240Y-71493017D01*
X105548244Y-71264600D01*
X105544248Y-71036182D01*
X105501793Y-71014228D01*
X105470448Y-70999153D01*
X105451896Y-70992311D01*
X105451361Y-70992274D01*
X105448807Y-71006023D01*
X105448807Y-71006023D01*
G37*
X105448807Y-71006023D02*
X105446592Y-71044210D01*
X105444856Y-71102246D01*
X105443741Y-71175540D01*
X105443383Y-71252415D01*
X105443383Y-71512556D01*
X105489314Y-71558487D01*
X105520965Y-71586789D01*
X105548750Y-71598253D01*
X105586725Y-71597528D01*
X105601800Y-71595681D01*
X105648914Y-71590308D01*
X105687884Y-71587229D01*
X105697383Y-71586945D01*
X105729407Y-71588805D01*
X105775208Y-71593474D01*
X105792966Y-71595681D01*
X105836583Y-71599095D01*
X105865895Y-71591680D01*
X105894960Y-71568787D01*
X105905452Y-71558487D01*
X105951383Y-71512556D01*
X105951383Y-71025962D01*
X105914414Y-71009118D01*
X105882581Y-70996642D01*
X105863957Y-70992274D01*
X105859182Y-71006078D01*
X105854719Y-71044646D01*
X105850865Y-71103716D01*
X105847918Y-71179023D01*
X105846497Y-71242646D01*
X105842526Y-71493017D01*
X105807881Y-71497916D01*
X105776372Y-71494491D01*
X105760932Y-71483401D01*
X105756617Y-71462668D01*
X105752932Y-71418505D01*
X105750171Y-71356506D01*
X105748628Y-71282269D01*
X105748405Y-71244066D01*
X105748183Y-71024143D01*
X105702474Y-71008209D01*
X105670122Y-70997375D01*
X105652525Y-70992322D01*
X105652017Y-70992274D01*
X105650252Y-71006008D01*
X105648311Y-71044090D01*
X105646358Y-71101842D01*
X105644556Y-71174587D01*
X105643297Y-71242646D01*
X105639326Y-71493017D01*
X105552240Y-71493017D01*
X105548244Y-71264600D01*
X105544248Y-71036182D01*
X105501793Y-71014228D01*
X105470448Y-70999153D01*
X105451896Y-70992311D01*
X105451361Y-70992274D01*
X105448807Y-71006023D01*
G36*
X105083764Y-71003695D02*
X105041973Y-71022704D01*
X105009171Y-71045738D01*
X104985137Y-71071493D01*
X104968543Y-71104718D01*
X104958063Y-71150160D01*
X104952369Y-71212567D01*
X104950133Y-71296687D01*
X104949897Y-71352081D01*
X104949897Y-71568186D01*
X104986866Y-71585030D01*
X105015984Y-71597341D01*
X105030409Y-71601874D01*
X105033168Y-71588385D01*
X105035358Y-71552013D01*
X105036698Y-71498902D01*
X105036983Y-71456732D01*
X105038206Y-71395807D01*
X105041504Y-71347475D01*
X105046319Y-71317878D01*
X105050144Y-71311589D01*
X105075857Y-71318012D01*
X105116222Y-71334485D01*
X105162961Y-71356818D01*
X105207795Y-71380817D01*
X105242447Y-71402290D01*
X105258638Y-71417045D01*
X105258702Y-71417205D01*
X105257310Y-71444512D01*
X105244822Y-71470579D01*
X105222897Y-71491752D01*
X105190897Y-71498834D01*
X105163548Y-71498009D01*
X105124814Y-71497402D01*
X105104482Y-71506476D01*
X105092271Y-71530452D01*
X105090731Y-71534973D01*
X105085437Y-71569166D01*
X105099593Y-71589928D01*
X105136492Y-71599822D01*
X105176351Y-71601652D01*
X105248078Y-71588087D01*
X105285208Y-71568715D01*
X105331064Y-71523205D01*
X105355384Y-71467343D01*
X105357567Y-71408317D01*
X105337011Y-71353313D01*
X105306091Y-71318846D01*
X105275220Y-71299549D01*
X105226698Y-71275119D01*
X105170155Y-71250345D01*
X105160730Y-71246559D01*
X105098621Y-71219151D01*
X105062818Y-71194994D01*
X105051303Y-71170979D01*
X105062060Y-71143995D01*
X105080526Y-71122903D01*
X105124171Y-71096932D01*
X105172194Y-71094984D01*
X105216234Y-71114997D01*
X105247931Y-71154911D01*
X105252091Y-71165208D01*
X105276313Y-71203084D01*
X105311675Y-71231202D01*
X105356297Y-71254277D01*
X105356297Y-71188845D01*
X105353671Y-71148866D01*
X105342410Y-71117357D01*
X105317441Y-71083738D01*
X105293471Y-71057844D01*
X105256199Y-71021177D01*
X105227239Y-71001481D01*
X105196135Y-70993580D01*
X105160927Y-70992274D01*
X105083764Y-71003695D01*
X105083764Y-71003695D01*
G37*
X105083764Y-71003695D02*
X105041973Y-71022704D01*
X105009171Y-71045738D01*
X104985137Y-71071493D01*
X104968543Y-71104718D01*
X104958063Y-71150160D01*
X104952369Y-71212567D01*
X104950133Y-71296687D01*
X104949897Y-71352081D01*
X104949897Y-71568186D01*
X104986866Y-71585030D01*
X105015984Y-71597341D01*
X105030409Y-71601874D01*
X105033168Y-71588385D01*
X105035358Y-71552013D01*
X105036698Y-71498902D01*
X105036983Y-71456732D01*
X105038206Y-71395807D01*
X105041504Y-71347475D01*
X105046319Y-71317878D01*
X105050144Y-71311589D01*
X105075857Y-71318012D01*
X105116222Y-71334485D01*
X105162961Y-71356818D01*
X105207795Y-71380817D01*
X105242447Y-71402290D01*
X105258638Y-71417045D01*
X105258702Y-71417205D01*
X105257310Y-71444512D01*
X105244822Y-71470579D01*
X105222897Y-71491752D01*
X105190897Y-71498834D01*
X105163548Y-71498009D01*
X105124814Y-71497402D01*
X105104482Y-71506476D01*
X105092271Y-71530452D01*
X105090731Y-71534973D01*
X105085437Y-71569166D01*
X105099593Y-71589928D01*
X105136492Y-71599822D01*
X105176351Y-71601652D01*
X105248078Y-71588087D01*
X105285208Y-71568715D01*
X105331064Y-71523205D01*
X105355384Y-71467343D01*
X105357567Y-71408317D01*
X105337011Y-71353313D01*
X105306091Y-71318846D01*
X105275220Y-71299549D01*
X105226698Y-71275119D01*
X105170155Y-71250345D01*
X105160730Y-71246559D01*
X105098621Y-71219151D01*
X105062818Y-71194994D01*
X105051303Y-71170979D01*
X105062060Y-71143995D01*
X105080526Y-71122903D01*
X105124171Y-71096932D01*
X105172194Y-71094984D01*
X105216234Y-71114997D01*
X105247931Y-71154911D01*
X105252091Y-71165208D01*
X105276313Y-71203084D01*
X105311675Y-71231202D01*
X105356297Y-71254277D01*
X105356297Y-71188845D01*
X105353671Y-71148866D01*
X105342410Y-71117357D01*
X105317441Y-71083738D01*
X105293471Y-71057844D01*
X105256199Y-71021177D01*
X105227239Y-71001481D01*
X105196135Y-70993580D01*
X105160927Y-70992274D01*
X105083764Y-71003695D01*
G36*
X104576040Y-71006112D02*
X104558692Y-71013694D01*
X104517284Y-71046488D01*
X104481875Y-71093907D01*
X104459976Y-71144511D01*
X104456411Y-71169458D01*
X104468361Y-71204287D01*
X104494573Y-71222717D01*
X104522676Y-71233876D01*
X104535545Y-71235932D01*
X104541811Y-71221009D01*
X104554184Y-71188535D01*
X104559612Y-71173862D01*
X104590050Y-71123104D01*
X104634120Y-71097787D01*
X104690630Y-71098566D01*
X104694815Y-71099563D01*
X104724985Y-71113867D01*
X104747164Y-71141753D01*
X104762313Y-71186647D01*
X104771390Y-71251975D01*
X104775354Y-71341164D01*
X104775726Y-71388621D01*
X104775910Y-71463431D01*
X104777118Y-71514429D01*
X104780331Y-71546831D01*
X104786531Y-71565855D01*
X104796700Y-71576716D01*
X104811821Y-71584632D01*
X104812694Y-71585030D01*
X104841812Y-71597341D01*
X104856237Y-71601874D01*
X104858454Y-71588169D01*
X104860351Y-71550285D01*
X104861793Y-71493075D01*
X104862642Y-71421387D01*
X104862811Y-71368925D01*
X104861948Y-71267407D01*
X104858570Y-71190392D01*
X104851498Y-71133383D01*
X104839552Y-71091886D01*
X104821550Y-71061403D01*
X104796313Y-71037440D01*
X104771393Y-71020715D01*
X104711469Y-70998457D01*
X104641729Y-70993436D01*
X104576040Y-71006112D01*
X104576040Y-71006112D01*
G37*
X104576040Y-71006112D02*
X104558692Y-71013694D01*
X104517284Y-71046488D01*
X104481875Y-71093907D01*
X104459976Y-71144511D01*
X104456411Y-71169458D01*
X104468361Y-71204287D01*
X104494573Y-71222717D01*
X104522676Y-71233876D01*
X104535545Y-71235932D01*
X104541811Y-71221009D01*
X104554184Y-71188535D01*
X104559612Y-71173862D01*
X104590050Y-71123104D01*
X104634120Y-71097787D01*
X104690630Y-71098566D01*
X104694815Y-71099563D01*
X104724985Y-71113867D01*
X104747164Y-71141753D01*
X104762313Y-71186647D01*
X104771390Y-71251975D01*
X104775354Y-71341164D01*
X104775726Y-71388621D01*
X104775910Y-71463431D01*
X104777118Y-71514429D01*
X104780331Y-71546831D01*
X104786531Y-71565855D01*
X104796700Y-71576716D01*
X104811821Y-71584632D01*
X104812694Y-71585030D01*
X104841812Y-71597341D01*
X104856237Y-71601874D01*
X104858454Y-71588169D01*
X104860351Y-71550285D01*
X104861793Y-71493075D01*
X104862642Y-71421387D01*
X104862811Y-71368925D01*
X104861948Y-71267407D01*
X104858570Y-71190392D01*
X104851498Y-71133383D01*
X104839552Y-71091886D01*
X104821550Y-71061403D01*
X104796313Y-71037440D01*
X104771393Y-71020715D01*
X104711469Y-70998457D01*
X104641729Y-70993436D01*
X104576040Y-71006112D01*
G36*
X104075045Y-71014326D02*
X104017619Y-71051857D01*
X103989921Y-71085456D01*
X103967978Y-71146424D01*
X103966235Y-71194668D01*
X103970183Y-71259176D01*
X104118954Y-71324294D01*
X104191291Y-71357562D01*
X104238556Y-71384324D01*
X104263133Y-71407504D01*
X104267403Y-71430027D01*
X104253751Y-71454815D01*
X104238697Y-71471246D01*
X104194894Y-71497595D01*
X104147251Y-71499441D01*
X104103495Y-71478906D01*
X104071351Y-71438112D01*
X104065602Y-71423707D01*
X104038064Y-71378716D01*
X104006382Y-71359542D01*
X103962926Y-71343139D01*
X103962926Y-71405326D01*
X103966768Y-71447643D01*
X103981817Y-71483329D01*
X104013360Y-71524303D01*
X104018048Y-71529627D01*
X104053134Y-71566080D01*
X104083293Y-71585643D01*
X104121025Y-71594643D01*
X104152305Y-71597590D01*
X104208255Y-71598325D01*
X104248085Y-71589020D01*
X104272932Y-71575206D01*
X104311984Y-71544827D01*
X104339015Y-71511973D01*
X104356123Y-71470654D01*
X104365402Y-71414881D01*
X104368947Y-71338665D01*
X104369230Y-71299982D01*
X104368268Y-71253607D01*
X104280633Y-71253607D01*
X104279617Y-71278486D01*
X104277084Y-71282560D01*
X104260366Y-71277025D01*
X104224391Y-71262377D01*
X104176309Y-71241550D01*
X104166254Y-71237074D01*
X104105488Y-71206174D01*
X104072008Y-71179017D01*
X104064650Y-71153580D01*
X104082249Y-71127841D01*
X104096784Y-71116469D01*
X104149230Y-71093724D01*
X104198318Y-71097482D01*
X104239413Y-71125244D01*
X104267882Y-71174512D01*
X104277009Y-71213617D01*
X104280633Y-71253607D01*
X104368268Y-71253607D01*
X104367355Y-71209609D01*
X104360444Y-71142744D01*
X104346756Y-71094055D01*
X104324544Y-71058209D01*
X104292066Y-71029873D01*
X104277907Y-71020715D01*
X104213587Y-70996867D01*
X104143167Y-70995366D01*
X104075045Y-71014326D01*
X104075045Y-71014326D01*
G37*
X104075045Y-71014326D02*
X104017619Y-71051857D01*
X103989921Y-71085456D01*
X103967978Y-71146424D01*
X103966235Y-71194668D01*
X103970183Y-71259176D01*
X104118954Y-71324294D01*
X104191291Y-71357562D01*
X104238556Y-71384324D01*
X104263133Y-71407504D01*
X104267403Y-71430027D01*
X104253751Y-71454815D01*
X104238697Y-71471246D01*
X104194894Y-71497595D01*
X104147251Y-71499441D01*
X104103495Y-71478906D01*
X104071351Y-71438112D01*
X104065602Y-71423707D01*
X104038064Y-71378716D01*
X104006382Y-71359542D01*
X103962926Y-71343139D01*
X103962926Y-71405326D01*
X103966768Y-71447643D01*
X103981817Y-71483329D01*
X104013360Y-71524303D01*
X104018048Y-71529627D01*
X104053134Y-71566080D01*
X104083293Y-71585643D01*
X104121025Y-71594643D01*
X104152305Y-71597590D01*
X104208255Y-71598325D01*
X104248085Y-71589020D01*
X104272932Y-71575206D01*
X104311984Y-71544827D01*
X104339015Y-71511973D01*
X104356123Y-71470654D01*
X104365402Y-71414881D01*
X104368947Y-71338665D01*
X104369230Y-71299982D01*
X104368268Y-71253607D01*
X104280633Y-71253607D01*
X104279617Y-71278486D01*
X104277084Y-71282560D01*
X104260366Y-71277025D01*
X104224391Y-71262377D01*
X104176309Y-71241550D01*
X104166254Y-71237074D01*
X104105488Y-71206174D01*
X104072008Y-71179017D01*
X104064650Y-71153580D01*
X104082249Y-71127841D01*
X104096784Y-71116469D01*
X104149230Y-71093724D01*
X104198318Y-71097482D01*
X104239413Y-71125244D01*
X104267882Y-71174512D01*
X104277009Y-71213617D01*
X104280633Y-71253607D01*
X104368268Y-71253607D01*
X104367355Y-71209609D01*
X104360444Y-71142744D01*
X104346756Y-71094055D01*
X104324544Y-71058209D01*
X104292066Y-71029873D01*
X104277907Y-71020715D01*
X104213587Y-70996867D01*
X104143167Y-70995366D01*
X104075045Y-71014326D01*
G36*
X107124730Y-66289708D02*
X107046186Y-66290138D01*
X106989342Y-66291302D01*
X106950535Y-66293567D01*
X106926102Y-66297300D01*
X106912378Y-66302866D01*
X106905700Y-66310633D01*
X106902404Y-66320965D01*
X106902084Y-66322303D01*
X106897078Y-66346439D01*
X106887811Y-66394061D01*
X106875248Y-66460101D01*
X106860353Y-66539488D01*
X106844089Y-66627156D01*
X106843521Y-66630235D01*
X106827230Y-66716149D01*
X106811988Y-66792056D01*
X106798779Y-66853405D01*
X106788586Y-66895642D01*
X106782392Y-66914215D01*
X106782097Y-66914544D01*
X106763852Y-66923613D01*
X106726235Y-66938727D01*
X106677369Y-66956622D01*
X106677097Y-66956718D01*
X106615547Y-66979853D01*
X106542983Y-67009325D01*
X106474583Y-67038957D01*
X106471346Y-67040422D01*
X106359938Y-67090986D01*
X106113241Y-66922520D01*
X106037563Y-66871163D01*
X105969009Y-66825249D01*
X105911552Y-66787390D01*
X105869164Y-66760197D01*
X105845815Y-66746281D01*
X105843598Y-66745249D01*
X105826630Y-66749844D01*
X105794939Y-66772015D01*
X105747288Y-66812807D01*
X105682442Y-66873265D01*
X105616243Y-66937587D01*
X105552426Y-67000972D01*
X105495311Y-67058811D01*
X105448335Y-67107535D01*
X105414937Y-67143570D01*
X105398555Y-67163344D01*
X105397946Y-67164362D01*
X105396135Y-67177932D01*
X105402957Y-67200093D01*
X105420100Y-67233838D01*
X105449247Y-67282160D01*
X105492085Y-67348052D01*
X105549192Y-67432877D01*
X105599874Y-67507537D01*
X105645179Y-67574500D01*
X105682490Y-67629876D01*
X105709188Y-67669780D01*
X105722655Y-67690322D01*
X105723503Y-67691716D01*
X105721859Y-67711398D01*
X105709395Y-67749653D01*
X105688592Y-67799249D01*
X105681178Y-67815088D01*
X105648826Y-67885650D01*
X105614312Y-67965713D01*
X105586275Y-68034989D01*
X105566072Y-68086405D01*
X105550025Y-68125479D01*
X105540752Y-68145901D01*
X105539599Y-68147474D01*
X105522544Y-68150081D01*
X105482342Y-68157223D01*
X105424338Y-68167883D01*
X105353877Y-68181045D01*
X105276305Y-68195693D01*
X105196968Y-68210809D01*
X105121209Y-68225378D01*
X105054376Y-68238382D01*
X105001812Y-68248805D01*
X104968864Y-68255630D01*
X104960783Y-68257559D01*
X104952435Y-68262322D01*
X104946134Y-68273078D01*
X104941595Y-68293458D01*
X104938536Y-68327094D01*
X104936673Y-68377615D01*
X104935722Y-68448652D01*
X104935400Y-68543836D01*
X104935383Y-68582852D01*
X104935383Y-68900159D01*
X105011583Y-68915199D01*
X105053977Y-68923355D01*
X105117240Y-68935259D01*
X105193678Y-68949476D01*
X105275597Y-68964570D01*
X105298240Y-68968715D01*
X105373834Y-68983413D01*
X105439687Y-68997865D01*
X105490274Y-69010735D01*
X105520066Y-69020682D01*
X105525028Y-69023647D01*
X105537214Y-69044643D01*
X105554687Y-69085327D01*
X105574063Y-69137682D01*
X105577906Y-69148960D01*
X105603301Y-69218883D01*
X105634823Y-69297778D01*
X105665671Y-69368626D01*
X105665823Y-69368955D01*
X105717193Y-69480093D01*
X105548241Y-69728613D01*
X105379288Y-69977132D01*
X105596211Y-70194418D01*
X105661821Y-70259086D01*
X105721661Y-70316093D01*
X105772373Y-70362393D01*
X105810594Y-70394944D01*
X105832965Y-70410703D01*
X105836174Y-70411703D01*
X105855014Y-70403829D01*
X105893460Y-70381938D01*
X105947310Y-70348627D01*
X106012364Y-70306491D01*
X106082700Y-70259303D01*
X106154085Y-70211170D01*
X106217732Y-70169288D01*
X106269599Y-70136231D01*
X106305645Y-70114578D01*
X106321773Y-70106903D01*
X106341451Y-70113397D01*
X106378765Y-70130510D01*
X106426019Y-70154686D01*
X106431028Y-70157373D01*
X106494663Y-70189287D01*
X106538299Y-70204939D01*
X106565438Y-70205105D01*
X106579583Y-70190564D01*
X106579665Y-70190360D01*
X106586735Y-70173139D01*
X106603598Y-70132259D01*
X106628945Y-70070885D01*
X106661469Y-69992179D01*
X106699862Y-69899307D01*
X106742818Y-69795432D01*
X106784418Y-69694862D01*
X106830136Y-69583876D01*
X106872114Y-69481063D01*
X106909092Y-69389575D01*
X106939813Y-69312561D01*
X106963018Y-69253175D01*
X106977450Y-69214569D01*
X106981897Y-69200160D01*
X106970744Y-69183632D01*
X106941571Y-69157290D01*
X106902669Y-69128247D01*
X106791883Y-69036399D01*
X106705289Y-68931119D01*
X106643924Y-68814626D01*
X106608825Y-68689136D01*
X106601032Y-68556867D01*
X106606697Y-68495817D01*
X106637562Y-68369155D01*
X106690720Y-68257301D01*
X106762873Y-68161361D01*
X106850723Y-68082436D01*
X106950975Y-68021630D01*
X107060330Y-67980047D01*
X107175493Y-67958788D01*
X107293165Y-67958959D01*
X107410050Y-67981661D01*
X107522851Y-68027998D01*
X107628271Y-68099073D01*
X107672272Y-68139271D01*
X107756661Y-68242489D01*
X107815418Y-68355285D01*
X107848936Y-68474370D01*
X107857605Y-68596455D01*
X107841817Y-68718253D01*
X107801962Y-68836476D01*
X107738433Y-68947835D01*
X107651619Y-69049044D01*
X107554611Y-69128247D01*
X107514203Y-69158522D01*
X107485658Y-69184579D01*
X107475383Y-69200185D01*
X107480763Y-69217203D01*
X107496065Y-69257860D01*
X107520028Y-69319002D01*
X107551396Y-69397479D01*
X107588908Y-69490140D01*
X107631307Y-69593832D01*
X107672977Y-69694886D01*
X107718950Y-69805967D01*
X107761533Y-69908901D01*
X107799419Y-70000525D01*
X107831300Y-70077676D01*
X107855869Y-70137191D01*
X107871820Y-70175904D01*
X107877730Y-70190360D01*
X107891692Y-70205045D01*
X107918700Y-70205002D01*
X107962227Y-70189459D01*
X108025750Y-70157644D01*
X108026252Y-70157373D01*
X108074080Y-70132683D01*
X108112743Y-70114698D01*
X108134545Y-70106974D01*
X108135507Y-70106903D01*
X108151919Y-70114738D01*
X108188153Y-70136525D01*
X108240166Y-70169688D01*
X108303915Y-70211651D01*
X108374580Y-70259303D01*
X108446524Y-70307551D01*
X108511366Y-70349511D01*
X108564905Y-70382587D01*
X108602943Y-70404181D01*
X108621107Y-70411703D01*
X108637832Y-70401817D01*
X108671460Y-70374186D01*
X108718630Y-70331855D01*
X108775982Y-70277865D01*
X108840156Y-70215259D01*
X108861143Y-70194343D01*
X109078141Y-69976983D01*
X108912972Y-69734580D01*
X108862776Y-69660141D01*
X108818721Y-69593332D01*
X108783278Y-69538025D01*
X108758921Y-69498089D01*
X108748118Y-69477396D01*
X108747802Y-69475923D01*
X108753497Y-69456418D01*
X108768814Y-69417182D01*
X108791103Y-69364790D01*
X108806747Y-69329715D01*
X108835999Y-69262561D01*
X108863546Y-69194718D01*
X108884903Y-69137394D01*
X108890705Y-69119932D01*
X108907188Y-69073298D01*
X108923300Y-69037265D01*
X108932150Y-69023647D01*
X108951680Y-69015312D01*
X108994306Y-69003497D01*
X109054495Y-68989541D01*
X109126718Y-68974782D01*
X109159040Y-68968715D01*
X109241118Y-68953633D01*
X109319845Y-68939029D01*
X109387531Y-68926340D01*
X109436480Y-68917002D01*
X109445697Y-68915199D01*
X109521897Y-68900159D01*
X109521897Y-68582852D01*
X109521726Y-68478514D01*
X109521024Y-68399573D01*
X109519506Y-68342398D01*
X109516891Y-68303359D01*
X109512894Y-68278825D01*
X109507231Y-68265165D01*
X109499620Y-68258749D01*
X109496497Y-68257559D01*
X109477662Y-68253340D01*
X109436052Y-68244922D01*
X109377010Y-68233321D01*
X109305883Y-68219555D01*
X109228015Y-68204640D01*
X109148753Y-68189592D01*
X109073442Y-68175429D01*
X109007427Y-68163166D01*
X108956053Y-68153821D01*
X108924665Y-68148410D01*
X108917681Y-68147474D01*
X108911355Y-68134956D01*
X108897350Y-68101606D01*
X108878285Y-68053737D01*
X108871006Y-68034989D01*
X108841644Y-67962555D01*
X108807069Y-67882530D01*
X108776103Y-67815088D01*
X108753317Y-67763519D01*
X108738158Y-67721145D01*
X108733098Y-67695194D01*
X108733904Y-67691716D01*
X108744599Y-67675296D01*
X108769020Y-67638777D01*
X108804545Y-67586047D01*
X108848553Y-67520995D01*
X108898423Y-67447511D01*
X108908284Y-67433005D01*
X108966148Y-67347064D01*
X109008684Y-67281621D01*
X109037586Y-67233664D01*
X109054550Y-67200180D01*
X109061273Y-67178155D01*
X109059450Y-67164577D01*
X109059404Y-67164491D01*
X109045054Y-67146657D01*
X109013317Y-67112177D01*
X108967630Y-67064628D01*
X108911436Y-67007582D01*
X108848172Y-66944615D01*
X108841038Y-66937587D01*
X108761310Y-66860380D01*
X108699783Y-66803690D01*
X108655219Y-66766470D01*
X108626383Y-66747675D01*
X108613682Y-66745249D01*
X108595146Y-66755831D01*
X108556679Y-66780276D01*
X108502254Y-66815972D01*
X108435842Y-66860307D01*
X108361415Y-66910671D01*
X108344039Y-66922520D01*
X108097343Y-67090986D01*
X107985934Y-67040422D01*
X107918183Y-67010955D01*
X107845457Y-66981319D01*
X107782937Y-66957690D01*
X107780183Y-66956718D01*
X107731280Y-66938817D01*
X107693583Y-66923680D01*
X107675215Y-66914570D01*
X107675184Y-66914544D01*
X107669355Y-66898077D01*
X107659448Y-66857579D01*
X107646445Y-66797602D01*
X107631331Y-66722700D01*
X107615088Y-66637424D01*
X107613759Y-66630235D01*
X107597465Y-66542374D01*
X107582507Y-66462620D01*
X107569849Y-66396041D01*
X107560454Y-66347707D01*
X107555286Y-66322685D01*
X107555196Y-66322303D01*
X107552051Y-66311659D01*
X107545936Y-66303622D01*
X107533187Y-66297827D01*
X107510140Y-66293907D01*
X107473131Y-66291495D01*
X107418496Y-66290225D01*
X107342573Y-66289731D01*
X107241696Y-66289646D01*
X107228640Y-66289646D01*
X107124730Y-66289708D01*
X107124730Y-66289708D01*
G37*
X107124730Y-66289708D02*
X107046186Y-66290138D01*
X106989342Y-66291302D01*
X106950535Y-66293567D01*
X106926102Y-66297300D01*
X106912378Y-66302866D01*
X106905700Y-66310633D01*
X106902404Y-66320965D01*
X106902084Y-66322303D01*
X106897078Y-66346439D01*
X106887811Y-66394061D01*
X106875248Y-66460101D01*
X106860353Y-66539488D01*
X106844089Y-66627156D01*
X106843521Y-66630235D01*
X106827230Y-66716149D01*
X106811988Y-66792056D01*
X106798779Y-66853405D01*
X106788586Y-66895642D01*
X106782392Y-66914215D01*
X106782097Y-66914544D01*
X106763852Y-66923613D01*
X106726235Y-66938727D01*
X106677369Y-66956622D01*
X106677097Y-66956718D01*
X106615547Y-66979853D01*
X106542983Y-67009325D01*
X106474583Y-67038957D01*
X106471346Y-67040422D01*
X106359938Y-67090986D01*
X106113241Y-66922520D01*
X106037563Y-66871163D01*
X105969009Y-66825249D01*
X105911552Y-66787390D01*
X105869164Y-66760197D01*
X105845815Y-66746281D01*
X105843598Y-66745249D01*
X105826630Y-66749844D01*
X105794939Y-66772015D01*
X105747288Y-66812807D01*
X105682442Y-66873265D01*
X105616243Y-66937587D01*
X105552426Y-67000972D01*
X105495311Y-67058811D01*
X105448335Y-67107535D01*
X105414937Y-67143570D01*
X105398555Y-67163344D01*
X105397946Y-67164362D01*
X105396135Y-67177932D01*
X105402957Y-67200093D01*
X105420100Y-67233838D01*
X105449247Y-67282160D01*
X105492085Y-67348052D01*
X105549192Y-67432877D01*
X105599874Y-67507537D01*
X105645179Y-67574500D01*
X105682490Y-67629876D01*
X105709188Y-67669780D01*
X105722655Y-67690322D01*
X105723503Y-67691716D01*
X105721859Y-67711398D01*
X105709395Y-67749653D01*
X105688592Y-67799249D01*
X105681178Y-67815088D01*
X105648826Y-67885650D01*
X105614312Y-67965713D01*
X105586275Y-68034989D01*
X105566072Y-68086405D01*
X105550025Y-68125479D01*
X105540752Y-68145901D01*
X105539599Y-68147474D01*
X105522544Y-68150081D01*
X105482342Y-68157223D01*
X105424338Y-68167883D01*
X105353877Y-68181045D01*
X105276305Y-68195693D01*
X105196968Y-68210809D01*
X105121209Y-68225378D01*
X105054376Y-68238382D01*
X105001812Y-68248805D01*
X104968864Y-68255630D01*
X104960783Y-68257559D01*
X104952435Y-68262322D01*
X104946134Y-68273078D01*
X104941595Y-68293458D01*
X104938536Y-68327094D01*
X104936673Y-68377615D01*
X104935722Y-68448652D01*
X104935400Y-68543836D01*
X104935383Y-68582852D01*
X104935383Y-68900159D01*
X105011583Y-68915199D01*
X105053977Y-68923355D01*
X105117240Y-68935259D01*
X105193678Y-68949476D01*
X105275597Y-68964570D01*
X105298240Y-68968715D01*
X105373834Y-68983413D01*
X105439687Y-68997865D01*
X105490274Y-69010735D01*
X105520066Y-69020682D01*
X105525028Y-69023647D01*
X105537214Y-69044643D01*
X105554687Y-69085327D01*
X105574063Y-69137682D01*
X105577906Y-69148960D01*
X105603301Y-69218883D01*
X105634823Y-69297778D01*
X105665671Y-69368626D01*
X105665823Y-69368955D01*
X105717193Y-69480093D01*
X105548241Y-69728613D01*
X105379288Y-69977132D01*
X105596211Y-70194418D01*
X105661821Y-70259086D01*
X105721661Y-70316093D01*
X105772373Y-70362393D01*
X105810594Y-70394944D01*
X105832965Y-70410703D01*
X105836174Y-70411703D01*
X105855014Y-70403829D01*
X105893460Y-70381938D01*
X105947310Y-70348627D01*
X106012364Y-70306491D01*
X106082700Y-70259303D01*
X106154085Y-70211170D01*
X106217732Y-70169288D01*
X106269599Y-70136231D01*
X106305645Y-70114578D01*
X106321773Y-70106903D01*
X106341451Y-70113397D01*
X106378765Y-70130510D01*
X106426019Y-70154686D01*
X106431028Y-70157373D01*
X106494663Y-70189287D01*
X106538299Y-70204939D01*
X106565438Y-70205105D01*
X106579583Y-70190564D01*
X106579665Y-70190360D01*
X106586735Y-70173139D01*
X106603598Y-70132259D01*
X106628945Y-70070885D01*
X106661469Y-69992179D01*
X106699862Y-69899307D01*
X106742818Y-69795432D01*
X106784418Y-69694862D01*
X106830136Y-69583876D01*
X106872114Y-69481063D01*
X106909092Y-69389575D01*
X106939813Y-69312561D01*
X106963018Y-69253175D01*
X106977450Y-69214569D01*
X106981897Y-69200160D01*
X106970744Y-69183632D01*
X106941571Y-69157290D01*
X106902669Y-69128247D01*
X106791883Y-69036399D01*
X106705289Y-68931119D01*
X106643924Y-68814626D01*
X106608825Y-68689136D01*
X106601032Y-68556867D01*
X106606697Y-68495817D01*
X106637562Y-68369155D01*
X106690720Y-68257301D01*
X106762873Y-68161361D01*
X106850723Y-68082436D01*
X106950975Y-68021630D01*
X107060330Y-67980047D01*
X107175493Y-67958788D01*
X107293165Y-67958959D01*
X107410050Y-67981661D01*
X107522851Y-68027998D01*
X107628271Y-68099073D01*
X107672272Y-68139271D01*
X107756661Y-68242489D01*
X107815418Y-68355285D01*
X107848936Y-68474370D01*
X107857605Y-68596455D01*
X107841817Y-68718253D01*
X107801962Y-68836476D01*
X107738433Y-68947835D01*
X107651619Y-69049044D01*
X107554611Y-69128247D01*
X107514203Y-69158522D01*
X107485658Y-69184579D01*
X107475383Y-69200185D01*
X107480763Y-69217203D01*
X107496065Y-69257860D01*
X107520028Y-69319002D01*
X107551396Y-69397479D01*
X107588908Y-69490140D01*
X107631307Y-69593832D01*
X107672977Y-69694886D01*
X107718950Y-69805967D01*
X107761533Y-69908901D01*
X107799419Y-70000525D01*
X107831300Y-70077676D01*
X107855869Y-70137191D01*
X107871820Y-70175904D01*
X107877730Y-70190360D01*
X107891692Y-70205045D01*
X107918700Y-70205002D01*
X107962227Y-70189459D01*
X108025750Y-70157644D01*
X108026252Y-70157373D01*
X108074080Y-70132683D01*
X108112743Y-70114698D01*
X108134545Y-70106974D01*
X108135507Y-70106903D01*
X108151919Y-70114738D01*
X108188153Y-70136525D01*
X108240166Y-70169688D01*
X108303915Y-70211651D01*
X108374580Y-70259303D01*
X108446524Y-70307551D01*
X108511366Y-70349511D01*
X108564905Y-70382587D01*
X108602943Y-70404181D01*
X108621107Y-70411703D01*
X108637832Y-70401817D01*
X108671460Y-70374186D01*
X108718630Y-70331855D01*
X108775982Y-70277865D01*
X108840156Y-70215259D01*
X108861143Y-70194343D01*
X109078141Y-69976983D01*
X108912972Y-69734580D01*
X108862776Y-69660141D01*
X108818721Y-69593332D01*
X108783278Y-69538025D01*
X108758921Y-69498089D01*
X108748118Y-69477396D01*
X108747802Y-69475923D01*
X108753497Y-69456418D01*
X108768814Y-69417182D01*
X108791103Y-69364790D01*
X108806747Y-69329715D01*
X108835999Y-69262561D01*
X108863546Y-69194718D01*
X108884903Y-69137394D01*
X108890705Y-69119932D01*
X108907188Y-69073298D01*
X108923300Y-69037265D01*
X108932150Y-69023647D01*
X108951680Y-69015312D01*
X108994306Y-69003497D01*
X109054495Y-68989541D01*
X109126718Y-68974782D01*
X109159040Y-68968715D01*
X109241118Y-68953633D01*
X109319845Y-68939029D01*
X109387531Y-68926340D01*
X109436480Y-68917002D01*
X109445697Y-68915199D01*
X109521897Y-68900159D01*
X109521897Y-68582852D01*
X109521726Y-68478514D01*
X109521024Y-68399573D01*
X109519506Y-68342398D01*
X109516891Y-68303359D01*
X109512894Y-68278825D01*
X109507231Y-68265165D01*
X109499620Y-68258749D01*
X109496497Y-68257559D01*
X109477662Y-68253340D01*
X109436052Y-68244922D01*
X109377010Y-68233321D01*
X109305883Y-68219555D01*
X109228015Y-68204640D01*
X109148753Y-68189592D01*
X109073442Y-68175429D01*
X109007427Y-68163166D01*
X108956053Y-68153821D01*
X108924665Y-68148410D01*
X108917681Y-68147474D01*
X108911355Y-68134956D01*
X108897350Y-68101606D01*
X108878285Y-68053737D01*
X108871006Y-68034989D01*
X108841644Y-67962555D01*
X108807069Y-67882530D01*
X108776103Y-67815088D01*
X108753317Y-67763519D01*
X108738158Y-67721145D01*
X108733098Y-67695194D01*
X108733904Y-67691716D01*
X108744599Y-67675296D01*
X108769020Y-67638777D01*
X108804545Y-67586047D01*
X108848553Y-67520995D01*
X108898423Y-67447511D01*
X108908284Y-67433005D01*
X108966148Y-67347064D01*
X109008684Y-67281621D01*
X109037586Y-67233664D01*
X109054550Y-67200180D01*
X109061273Y-67178155D01*
X109059450Y-67164577D01*
X109059404Y-67164491D01*
X109045054Y-67146657D01*
X109013317Y-67112177D01*
X108967630Y-67064628D01*
X108911436Y-67007582D01*
X108848172Y-66944615D01*
X108841038Y-66937587D01*
X108761310Y-66860380D01*
X108699783Y-66803690D01*
X108655219Y-66766470D01*
X108626383Y-66747675D01*
X108613682Y-66745249D01*
X108595146Y-66755831D01*
X108556679Y-66780276D01*
X108502254Y-66815972D01*
X108435842Y-66860307D01*
X108361415Y-66910671D01*
X108344039Y-66922520D01*
X108097343Y-67090986D01*
X107985934Y-67040422D01*
X107918183Y-67010955D01*
X107845457Y-66981319D01*
X107782937Y-66957690D01*
X107780183Y-66956718D01*
X107731280Y-66938817D01*
X107693583Y-66923680D01*
X107675215Y-66914570D01*
X107675184Y-66914544D01*
X107669355Y-66898077D01*
X107659448Y-66857579D01*
X107646445Y-66797602D01*
X107631331Y-66722700D01*
X107615088Y-66637424D01*
X107613759Y-66630235D01*
X107597465Y-66542374D01*
X107582507Y-66462620D01*
X107569849Y-66396041D01*
X107560454Y-66347707D01*
X107555286Y-66322685D01*
X107555196Y-66322303D01*
X107552051Y-66311659D01*
X107545936Y-66303622D01*
X107533187Y-66297827D01*
X107510140Y-66293907D01*
X107473131Y-66291495D01*
X107418496Y-66290225D01*
X107342573Y-66289731D01*
X107241696Y-66289646D01*
X107228640Y-66289646D01*
X107124730Y-66289708D01*
G36*
X136780506Y-74967158D02*
X136747981Y-74979736D01*
X136698407Y-75004712D01*
X136627226Y-75043876D01*
X136621684Y-75046988D01*
X136556126Y-75084476D01*
X136500802Y-75117319D01*
X136461145Y-75142205D01*
X136442588Y-75155820D01*
X136442069Y-75156487D01*
X136446552Y-75175390D01*
X136467114Y-75217605D01*
X136502417Y-75280832D01*
X136551120Y-75362772D01*
X136611882Y-75461122D01*
X136683364Y-75573585D01*
X136701155Y-75601165D01*
X136747507Y-75677699D01*
X136781258Y-75743556D01*
X136799447Y-75792782D01*
X136801314Y-75802507D01*
X136800485Y-75845312D01*
X136791206Y-75913209D01*
X136774632Y-76001843D01*
X136751920Y-76106859D01*
X136724227Y-76223902D01*
X136692710Y-76348616D01*
X136658525Y-76476645D01*
X136622829Y-76603634D01*
X136586779Y-76725228D01*
X136551532Y-76837072D01*
X136518244Y-76934810D01*
X136488072Y-77014087D01*
X136467039Y-77061122D01*
X136442263Y-77111225D01*
X136418870Y-77159168D01*
X136417603Y-77161793D01*
X136378901Y-77210220D01*
X136322416Y-77242828D01*
X136256661Y-77258454D01*
X136190149Y-77255937D01*
X136131395Y-77234114D01*
X136098342Y-77205382D01*
X136050741Y-77126583D01*
X136015861Y-77028378D01*
X135996723Y-76920779D01*
X135994012Y-76859780D01*
X136004930Y-76745935D01*
X136036976Y-76651660D01*
X136091874Y-76572379D01*
X136108993Y-76554733D01*
X136159939Y-76505235D01*
X136163437Y-76155362D01*
X136166936Y-75805489D01*
X136077782Y-75670531D01*
X136035946Y-75609445D01*
X135995655Y-75554493D01*
X135962657Y-75513336D01*
X135948474Y-75498192D01*
X135908319Y-75460810D01*
X135853935Y-75490098D01*
X135819561Y-75511084D01*
X135800754Y-75527378D01*
X135799551Y-75530307D01*
X135786697Y-75542728D01*
X135764704Y-75551977D01*
X135743450Y-75560313D01*
X135710906Y-75576149D01*
X135664278Y-75601033D01*
X135600771Y-75636509D01*
X135517592Y-75684123D01*
X135411947Y-75745422D01*
X135354538Y-75778932D01*
X135287006Y-75819071D01*
X135242715Y-75847659D01*
X135217745Y-75868039D01*
X135208177Y-75883553D01*
X135210092Y-75897546D01*
X135211689Y-75900796D01*
X135227224Y-75921266D01*
X135260464Y-75959665D01*
X135307538Y-76011696D01*
X135364572Y-76073066D01*
X135413900Y-76125090D01*
X135527570Y-76248567D01*
X135616495Y-76355591D01*
X135681466Y-76447240D01*
X135723279Y-76524588D01*
X135737383Y-76563866D01*
X135743208Y-76598249D01*
X135749225Y-76656899D01*
X135754904Y-76733117D01*
X135759716Y-76820202D01*
X135761981Y-76875268D01*
X135765141Y-76970464D01*
X135766531Y-77040062D01*
X135765742Y-77089409D01*
X135762365Y-77123854D01*
X135755992Y-77148743D01*
X135746213Y-77169425D01*
X135738533Y-77182053D01*
X135694179Y-77230726D01*
X135637026Y-77264645D01*
X135576892Y-77279438D01*
X135531827Y-77274086D01*
X135491024Y-77250930D01*
X135439876Y-77209462D01*
X135385558Y-77156912D01*
X135335243Y-77100516D01*
X135296106Y-77047505D01*
X135281695Y-77021889D01*
X135260109Y-76986814D01*
X135220847Y-76933389D01*
X135167498Y-76865789D01*
X135103648Y-76788190D01*
X135032885Y-76704768D01*
X134958796Y-76619698D01*
X134884968Y-76537155D01*
X134814989Y-76461316D01*
X134752445Y-76396356D01*
X134703340Y-76348669D01*
X134648821Y-76301032D01*
X134602958Y-76265908D01*
X134570789Y-76246949D01*
X134560111Y-76244864D01*
X134543747Y-76253274D01*
X134502929Y-76275846D01*
X134440014Y-76311224D01*
X134357356Y-76358054D01*
X134257311Y-76414981D01*
X134142234Y-76480649D01*
X134014481Y-76553703D01*
X133876406Y-76632788D01*
X133730366Y-76716548D01*
X133578716Y-76803629D01*
X133423810Y-76892676D01*
X133268005Y-76982332D01*
X133113656Y-77071243D01*
X132963118Y-77158054D01*
X132818746Y-77241409D01*
X132682896Y-77319954D01*
X132557923Y-77392333D01*
X132446183Y-77457190D01*
X132350030Y-77513171D01*
X132271821Y-77558920D01*
X132213911Y-77593083D01*
X132178654Y-77614304D01*
X132168435Y-77620963D01*
X132182198Y-77622280D01*
X132225496Y-77623559D01*
X132296886Y-77624796D01*
X132394927Y-77625983D01*
X132518178Y-77627115D01*
X132665197Y-77628186D01*
X132834543Y-77629189D01*
X133024774Y-77630119D01*
X133234449Y-77630968D01*
X133462127Y-77631732D01*
X133706365Y-77632403D01*
X133965723Y-77632976D01*
X134238759Y-77633444D01*
X134524032Y-77633802D01*
X134820100Y-77634042D01*
X135125521Y-77634159D01*
X135253676Y-77634171D01*
X138353630Y-77634171D01*
X138132547Y-77250847D01*
X138085744Y-77169680D01*
X138025498Y-77065166D01*
X137953822Y-76940801D01*
X137872731Y-76800082D01*
X137784238Y-76646503D01*
X137690360Y-76483562D01*
X137593109Y-76314754D01*
X137494500Y-76143575D01*
X137396547Y-75973521D01*
X137371775Y-75930512D01*
X137281448Y-75773857D01*
X137195311Y-75624803D01*
X137114658Y-75485568D01*
X137040784Y-75358371D01*
X136974983Y-75245432D01*
X136918550Y-75148968D01*
X136872779Y-75071200D01*
X136838965Y-75014346D01*
X136818402Y-74980625D01*
X136812647Y-74972040D01*
X136800542Y-74965189D01*
X136780506Y-74967158D01*
X136780506Y-74967158D01*
G37*
X136780506Y-74967158D02*
X136747981Y-74979736D01*
X136698407Y-75004712D01*
X136627226Y-75043876D01*
X136621684Y-75046988D01*
X136556126Y-75084476D01*
X136500802Y-75117319D01*
X136461145Y-75142205D01*
X136442588Y-75155820D01*
X136442069Y-75156487D01*
X136446552Y-75175390D01*
X136467114Y-75217605D01*
X136502417Y-75280832D01*
X136551120Y-75362772D01*
X136611882Y-75461122D01*
X136683364Y-75573585D01*
X136701155Y-75601165D01*
X136747507Y-75677699D01*
X136781258Y-75743556D01*
X136799447Y-75792782D01*
X136801314Y-75802507D01*
X136800485Y-75845312D01*
X136791206Y-75913209D01*
X136774632Y-76001843D01*
X136751920Y-76106859D01*
X136724227Y-76223902D01*
X136692710Y-76348616D01*
X136658525Y-76476645D01*
X136622829Y-76603634D01*
X136586779Y-76725228D01*
X136551532Y-76837072D01*
X136518244Y-76934810D01*
X136488072Y-77014087D01*
X136467039Y-77061122D01*
X136442263Y-77111225D01*
X136418870Y-77159168D01*
X136417603Y-77161793D01*
X136378901Y-77210220D01*
X136322416Y-77242828D01*
X136256661Y-77258454D01*
X136190149Y-77255937D01*
X136131395Y-77234114D01*
X136098342Y-77205382D01*
X136050741Y-77126583D01*
X136015861Y-77028378D01*
X135996723Y-76920779D01*
X135994012Y-76859780D01*
X136004930Y-76745935D01*
X136036976Y-76651660D01*
X136091874Y-76572379D01*
X136108993Y-76554733D01*
X136159939Y-76505235D01*
X136163437Y-76155362D01*
X136166936Y-75805489D01*
X136077782Y-75670531D01*
X136035946Y-75609445D01*
X135995655Y-75554493D01*
X135962657Y-75513336D01*
X135948474Y-75498192D01*
X135908319Y-75460810D01*
X135853935Y-75490098D01*
X135819561Y-75511084D01*
X135800754Y-75527378D01*
X135799551Y-75530307D01*
X135786697Y-75542728D01*
X135764704Y-75551977D01*
X135743450Y-75560313D01*
X135710906Y-75576149D01*
X135664278Y-75601033D01*
X135600771Y-75636509D01*
X135517592Y-75684123D01*
X135411947Y-75745422D01*
X135354538Y-75778932D01*
X135287006Y-75819071D01*
X135242715Y-75847659D01*
X135217745Y-75868039D01*
X135208177Y-75883553D01*
X135210092Y-75897546D01*
X135211689Y-75900796D01*
X135227224Y-75921266D01*
X135260464Y-75959665D01*
X135307538Y-76011696D01*
X135364572Y-76073066D01*
X135413900Y-76125090D01*
X135527570Y-76248567D01*
X135616495Y-76355591D01*
X135681466Y-76447240D01*
X135723279Y-76524588D01*
X135737383Y-76563866D01*
X135743208Y-76598249D01*
X135749225Y-76656899D01*
X135754904Y-76733117D01*
X135759716Y-76820202D01*
X135761981Y-76875268D01*
X135765141Y-76970464D01*
X135766531Y-77040062D01*
X135765742Y-77089409D01*
X135762365Y-77123854D01*
X135755992Y-77148743D01*
X135746213Y-77169425D01*
X135738533Y-77182053D01*
X135694179Y-77230726D01*
X135637026Y-77264645D01*
X135576892Y-77279438D01*
X135531827Y-77274086D01*
X135491024Y-77250930D01*
X135439876Y-77209462D01*
X135385558Y-77156912D01*
X135335243Y-77100516D01*
X135296106Y-77047505D01*
X135281695Y-77021889D01*
X135260109Y-76986814D01*
X135220847Y-76933389D01*
X135167498Y-76865789D01*
X135103648Y-76788190D01*
X135032885Y-76704768D01*
X134958796Y-76619698D01*
X134884968Y-76537155D01*
X134814989Y-76461316D01*
X134752445Y-76396356D01*
X134703340Y-76348669D01*
X134648821Y-76301032D01*
X134602958Y-76265908D01*
X134570789Y-76246949D01*
X134560111Y-76244864D01*
X134543747Y-76253274D01*
X134502929Y-76275846D01*
X134440014Y-76311224D01*
X134357356Y-76358054D01*
X134257311Y-76414981D01*
X134142234Y-76480649D01*
X134014481Y-76553703D01*
X133876406Y-76632788D01*
X133730366Y-76716548D01*
X133578716Y-76803629D01*
X133423810Y-76892676D01*
X133268005Y-76982332D01*
X133113656Y-77071243D01*
X132963118Y-77158054D01*
X132818746Y-77241409D01*
X132682896Y-77319954D01*
X132557923Y-77392333D01*
X132446183Y-77457190D01*
X132350030Y-77513171D01*
X132271821Y-77558920D01*
X132213911Y-77593083D01*
X132178654Y-77614304D01*
X132168435Y-77620963D01*
X132182198Y-77622280D01*
X132225496Y-77623559D01*
X132296886Y-77624796D01*
X132394927Y-77625983D01*
X132518178Y-77627115D01*
X132665197Y-77628186D01*
X132834543Y-77629189D01*
X133024774Y-77630119D01*
X133234449Y-77630968D01*
X133462127Y-77631732D01*
X133706365Y-77632403D01*
X133965723Y-77632976D01*
X134238759Y-77633444D01*
X134524032Y-77633802D01*
X134820100Y-77634042D01*
X135125521Y-77634159D01*
X135253676Y-77634171D01*
X138353630Y-77634171D01*
X138132547Y-77250847D01*
X138085744Y-77169680D01*
X138025498Y-77065166D01*
X137953822Y-76940801D01*
X137872731Y-76800082D01*
X137784238Y-76646503D01*
X137690360Y-76483562D01*
X137593109Y-76314754D01*
X137494500Y-76143575D01*
X137396547Y-75973521D01*
X137371775Y-75930512D01*
X137281448Y-75773857D01*
X137195311Y-75624803D01*
X137114658Y-75485568D01*
X137040784Y-75358371D01*
X136974983Y-75245432D01*
X136918550Y-75148968D01*
X136872779Y-75071200D01*
X136838965Y-75014346D01*
X136818402Y-74980625D01*
X136812647Y-74972040D01*
X136800542Y-74965189D01*
X136780506Y-74967158D01*
G36*
X133115072Y-74910619D02*
X133103692Y-74929693D01*
X133078112Y-74973421D01*
X133039598Y-75039619D01*
X132989414Y-75126102D01*
X132928825Y-75230685D01*
X132859097Y-75351183D01*
X132781493Y-75485412D01*
X132697280Y-75631187D01*
X132607721Y-75786323D01*
X132515602Y-75946000D01*
X132421524Y-76109117D01*
X132331198Y-76265709D01*
X132245935Y-76413506D01*
X132167043Y-76550240D01*
X132095831Y-76673642D01*
X132033609Y-76781444D01*
X131981687Y-76871377D01*
X131941372Y-76941173D01*
X131913976Y-76988564D01*
X131901093Y-77010786D01*
X131880093Y-77048330D01*
X131868675Y-77071831D01*
X131868049Y-77075920D01*
X131881964Y-77068242D01*
X131920659Y-77046203D01*
X131982113Y-77010971D01*
X132064302Y-76963711D01*
X132165204Y-76905589D01*
X132282795Y-76837771D01*
X132415054Y-76761424D01*
X132559958Y-76677714D01*
X132715483Y-76587806D01*
X132879608Y-76492867D01*
X132942051Y-76456732D01*
X133109113Y-76360083D01*
X133268526Y-76267938D01*
X133418245Y-76181475D01*
X133556224Y-76101871D01*
X133680415Y-76030305D01*
X133788773Y-75967955D01*
X133879252Y-75915998D01*
X133949804Y-75875613D01*
X133998385Y-75847978D01*
X134022946Y-75834272D01*
X134025515Y-75832974D01*
X134018031Y-75821220D01*
X133991986Y-75789795D01*
X133950041Y-75741594D01*
X133894854Y-75679510D01*
X133829083Y-75606439D01*
X133755388Y-75525276D01*
X133676427Y-75438916D01*
X133594860Y-75350253D01*
X133513346Y-75262182D01*
X133434543Y-75177599D01*
X133361110Y-75099397D01*
X133295707Y-75030472D01*
X133240992Y-74973719D01*
X133199623Y-74932032D01*
X133185436Y-74918363D01*
X133138420Y-74874201D01*
X133115072Y-74910619D01*
X133115072Y-74910619D01*
G37*
X133115072Y-74910619D02*
X133103692Y-74929693D01*
X133078112Y-74973421D01*
X133039598Y-75039619D01*
X132989414Y-75126102D01*
X132928825Y-75230685D01*
X132859097Y-75351183D01*
X132781493Y-75485412D01*
X132697280Y-75631187D01*
X132607721Y-75786323D01*
X132515602Y-75946000D01*
X132421524Y-76109117D01*
X132331198Y-76265709D01*
X132245935Y-76413506D01*
X132167043Y-76550240D01*
X132095831Y-76673642D01*
X132033609Y-76781444D01*
X131981687Y-76871377D01*
X131941372Y-76941173D01*
X131913976Y-76988564D01*
X131901093Y-77010786D01*
X131880093Y-77048330D01*
X131868675Y-77071831D01*
X131868049Y-77075920D01*
X131881964Y-77068242D01*
X131920659Y-77046203D01*
X131982113Y-77010971D01*
X132064302Y-76963711D01*
X132165204Y-76905589D01*
X132282795Y-76837771D01*
X132415054Y-76761424D01*
X132559958Y-76677714D01*
X132715483Y-76587806D01*
X132879608Y-76492867D01*
X132942051Y-76456732D01*
X133109113Y-76360083D01*
X133268526Y-76267938D01*
X133418245Y-76181475D01*
X133556224Y-76101871D01*
X133680415Y-76030305D01*
X133788773Y-75967955D01*
X133879252Y-75915998D01*
X133949804Y-75875613D01*
X133998385Y-75847978D01*
X134022946Y-75834272D01*
X134025515Y-75832974D01*
X134018031Y-75821220D01*
X133991986Y-75789795D01*
X133950041Y-75741594D01*
X133894854Y-75679510D01*
X133829083Y-75606439D01*
X133755388Y-75525276D01*
X133676427Y-75438916D01*
X133594860Y-75350253D01*
X133513346Y-75262182D01*
X133434543Y-75177599D01*
X133361110Y-75099397D01*
X133295707Y-75030472D01*
X133240992Y-74973719D01*
X133199623Y-74932032D01*
X133185436Y-74918363D01*
X133138420Y-74874201D01*
X133115072Y-74910619D01*
G36*
X134938557Y-71761835D02*
X134915535Y-71799245D01*
X134880066Y-71858514D01*
X134833604Y-71937118D01*
X134777604Y-72032538D01*
X134713519Y-72142250D01*
X134642804Y-72263734D01*
X134566913Y-72394468D01*
X134487301Y-72531930D01*
X134405422Y-72673598D01*
X134322730Y-72816951D01*
X134240679Y-72959467D01*
X134160724Y-73098624D01*
X134084319Y-73231901D01*
X134012918Y-73356776D01*
X133947976Y-73470727D01*
X133890947Y-73571233D01*
X133843285Y-73655772D01*
X133806445Y-73721822D01*
X133781880Y-73766862D01*
X133771046Y-73788370D01*
X133770649Y-73789714D01*
X133784099Y-73807965D01*
X133821486Y-73835882D01*
X133878365Y-73870725D01*
X133950288Y-73909754D01*
X134025585Y-73946843D01*
X134128040Y-73991817D01*
X134235783Y-74032226D01*
X134352527Y-74068969D01*
X134481982Y-74102942D01*
X134627860Y-74135044D01*
X134793874Y-74166173D01*
X134983734Y-74197227D01*
X135180131Y-74226145D01*
X135350766Y-74251800D01*
X135494055Y-74277198D01*
X135613592Y-74303602D01*
X135712970Y-74332273D01*
X135795782Y-74364473D01*
X135865622Y-74401465D01*
X135926082Y-74444512D01*
X135980755Y-74494875D01*
X135998386Y-74513583D01*
X136036600Y-74557139D01*
X136064868Y-74592682D01*
X136077982Y-74613583D01*
X136078332Y-74615297D01*
X136082920Y-74625806D01*
X136098842Y-74625924D01*
X136129334Y-74614254D01*
X136177632Y-74589396D01*
X136246973Y-74549952D01*
X136295161Y-74521587D01*
X136367017Y-74477247D01*
X136422858Y-74439279D01*
X136458933Y-74410416D01*
X136471487Y-74393388D01*
X136471479Y-74393264D01*
X136463694Y-74377037D01*
X136441708Y-74336400D01*
X136406797Y-74273567D01*
X136360237Y-74190752D01*
X136303305Y-74090172D01*
X136237277Y-73974040D01*
X136163428Y-73844571D01*
X136083036Y-73703980D01*
X135997376Y-73554482D01*
X135907724Y-73398292D01*
X135815357Y-73237624D01*
X135721551Y-73074693D01*
X135627582Y-72911713D01*
X135534726Y-72750900D01*
X135444260Y-72594468D01*
X135357459Y-72444633D01*
X135275600Y-72303608D01*
X135199959Y-72173609D01*
X135131813Y-72056849D01*
X135072437Y-71955545D01*
X135023107Y-71871911D01*
X134985100Y-71808162D01*
X134959693Y-71766511D01*
X134948160Y-71749175D01*
X134947677Y-71748805D01*
X134938557Y-71761835D01*
X134938557Y-71761835D01*
G37*
X134938557Y-71761835D02*
X134915535Y-71799245D01*
X134880066Y-71858514D01*
X134833604Y-71937118D01*
X134777604Y-72032538D01*
X134713519Y-72142250D01*
X134642804Y-72263734D01*
X134566913Y-72394468D01*
X134487301Y-72531930D01*
X134405422Y-72673598D01*
X134322730Y-72816951D01*
X134240679Y-72959467D01*
X134160724Y-73098624D01*
X134084319Y-73231901D01*
X134012918Y-73356776D01*
X133947976Y-73470727D01*
X133890947Y-73571233D01*
X133843285Y-73655772D01*
X133806445Y-73721822D01*
X133781880Y-73766862D01*
X133771046Y-73788370D01*
X133770649Y-73789714D01*
X133784099Y-73807965D01*
X133821486Y-73835882D01*
X133878365Y-73870725D01*
X133950288Y-73909754D01*
X134025585Y-73946843D01*
X134128040Y-73991817D01*
X134235783Y-74032226D01*
X134352527Y-74068969D01*
X134481982Y-74102942D01*
X134627860Y-74135044D01*
X134793874Y-74166173D01*
X134983734Y-74197227D01*
X135180131Y-74226145D01*
X135350766Y-74251800D01*
X135494055Y-74277198D01*
X135613592Y-74303602D01*
X135712970Y-74332273D01*
X135795782Y-74364473D01*
X135865622Y-74401465D01*
X135926082Y-74444512D01*
X135980755Y-74494875D01*
X135998386Y-74513583D01*
X136036600Y-74557139D01*
X136064868Y-74592682D01*
X136077982Y-74613583D01*
X136078332Y-74615297D01*
X136082920Y-74625806D01*
X136098842Y-74625924D01*
X136129334Y-74614254D01*
X136177632Y-74589396D01*
X136246973Y-74549952D01*
X136295161Y-74521587D01*
X136367017Y-74477247D01*
X136422858Y-74439279D01*
X136458933Y-74410416D01*
X136471487Y-74393388D01*
X136471479Y-74393264D01*
X136463694Y-74377037D01*
X136441708Y-74336400D01*
X136406797Y-74273567D01*
X136360237Y-74190752D01*
X136303305Y-74090172D01*
X136237277Y-73974040D01*
X136163428Y-73844571D01*
X136083036Y-73703980D01*
X135997376Y-73554482D01*
X135907724Y-73398292D01*
X135815357Y-73237624D01*
X135721551Y-73074693D01*
X135627582Y-72911713D01*
X135534726Y-72750900D01*
X135444260Y-72594468D01*
X135357459Y-72444633D01*
X135275600Y-72303608D01*
X135199959Y-72173609D01*
X135131813Y-72056849D01*
X135072437Y-71955545D01*
X135023107Y-71871911D01*
X134985100Y-71808162D01*
X134959693Y-71766511D01*
X134948160Y-71749175D01*
X134947677Y-71748805D01*
X134938557Y-71761835D01*
D15*
X166055642Y-69421357D02*
X166074690Y-69440405D01*
X166131833Y-69459452D01*
X166169928Y-69459452D01*
X166227071Y-69440405D01*
X166265166Y-69402310D01*
X166284214Y-69364214D01*
X166303262Y-69288024D01*
X166303262Y-69230881D01*
X166284214Y-69154690D01*
X166265166Y-69116595D01*
X166227071Y-69078500D01*
X166169928Y-69059452D01*
X166131833Y-69059452D01*
X166074690Y-69078500D01*
X166055642Y-69097548D01*
X165674690Y-69459452D02*
X165903262Y-69459452D01*
X165788976Y-69459452D02*
X165788976Y-69059452D01*
X165827071Y-69116595D01*
X165865166Y-69154690D01*
X165903262Y-69173738D01*
X165522310Y-69097548D02*
X165503262Y-69078500D01*
X165465167Y-69059452D01*
X165369929Y-69059452D01*
X165331833Y-69078500D01*
X165312786Y-69097548D01*
X165293738Y-69135643D01*
X165293738Y-69173738D01*
X165312786Y-69230881D01*
X165541357Y-69459452D01*
X165293738Y-69459452D01*
X171453142Y-69167357D02*
X171472190Y-69186405D01*
X171529333Y-69205452D01*
X171567428Y-69205452D01*
X171624571Y-69186405D01*
X171662666Y-69148310D01*
X171681714Y-69110214D01*
X171700762Y-69034024D01*
X171700762Y-68976881D01*
X171681714Y-68900690D01*
X171662666Y-68862595D01*
X171624571Y-68824500D01*
X171567428Y-68805452D01*
X171529333Y-68805452D01*
X171472190Y-68824500D01*
X171453142Y-68843548D01*
X171072190Y-69205452D02*
X171300762Y-69205452D01*
X171186476Y-69205452D02*
X171186476Y-68805452D01*
X171224571Y-68862595D01*
X171262666Y-68900690D01*
X171300762Y-68919738D01*
X170938857Y-68805452D02*
X170691238Y-68805452D01*
X170824571Y-68957833D01*
X170767429Y-68957833D01*
X170729333Y-68976881D01*
X170710286Y-68995929D01*
X170691238Y-69034024D01*
X170691238Y-69129262D01*
X170710286Y-69167357D01*
X170729333Y-69186405D01*
X170767429Y-69205452D01*
X170881714Y-69205452D01*
X170919810Y-69186405D01*
X170938857Y-69167357D01*
X195110952Y-69616667D02*
X195396667Y-69616667D01*
X195453810Y-69597619D01*
X195491905Y-69559524D01*
X195510952Y-69502381D01*
X195510952Y-69464286D01*
X195510952Y-70016667D02*
X195510952Y-69788095D01*
X195510952Y-69902381D02*
X195110952Y-69902381D01*
X195168095Y-69864286D01*
X195206190Y-69826191D01*
X195225238Y-69788095D01*
X181450952Y-75866667D02*
X181736667Y-75866667D01*
X181793810Y-75847619D01*
X181831905Y-75809524D01*
X181850952Y-75752381D01*
X181850952Y-75714286D01*
X181489048Y-76038095D02*
X181470000Y-76057143D01*
X181450952Y-76095238D01*
X181450952Y-76190476D01*
X181470000Y-76228572D01*
X181489048Y-76247619D01*
X181527143Y-76266667D01*
X181565238Y-76266667D01*
X181622381Y-76247619D01*
X181850952Y-76019048D01*
X181850952Y-76266667D01*
X189816666Y-74380952D02*
X189950000Y-74190476D01*
X190045238Y-74380952D02*
X190045238Y-73980952D01*
X189892857Y-73980952D01*
X189854762Y-74000000D01*
X189835714Y-74019048D01*
X189816666Y-74057143D01*
X189816666Y-74114286D01*
X189835714Y-74152381D01*
X189854762Y-74171429D01*
X189892857Y-74190476D01*
X190045238Y-74190476D01*
X189664286Y-74019048D02*
X189645238Y-74000000D01*
X189607143Y-73980952D01*
X189511905Y-73980952D01*
X189473809Y-74000000D01*
X189454762Y-74019048D01*
X189435714Y-74057143D01*
X189435714Y-74095238D01*
X189454762Y-74152381D01*
X189683333Y-74380952D01*
X189435714Y-74380952D01*
X184566666Y-74380952D02*
X184700000Y-74190476D01*
X184795238Y-74380952D02*
X184795238Y-73980952D01*
X184642857Y-73980952D01*
X184604762Y-74000000D01*
X184585714Y-74019048D01*
X184566666Y-74057143D01*
X184566666Y-74114286D01*
X184585714Y-74152381D01*
X184604762Y-74171429D01*
X184642857Y-74190476D01*
X184795238Y-74190476D01*
X184433333Y-73980952D02*
X184185714Y-73980952D01*
X184319047Y-74133333D01*
X184261905Y-74133333D01*
X184223809Y-74152381D01*
X184204762Y-74171429D01*
X184185714Y-74209524D01*
X184185714Y-74304762D01*
X184204762Y-74342857D01*
X184223809Y-74361905D01*
X184261905Y-74380952D01*
X184376190Y-74380952D01*
X184414286Y-74361905D01*
X184433333Y-74342857D01*
X168900452Y-72259834D02*
X168709976Y-72126500D01*
X168900452Y-72031262D02*
X168500452Y-72031262D01*
X168500452Y-72183643D01*
X168519500Y-72221738D01*
X168538548Y-72240786D01*
X168576643Y-72259834D01*
X168633786Y-72259834D01*
X168671881Y-72240786D01*
X168690929Y-72221738D01*
X168709976Y-72183643D01*
X168709976Y-72031262D01*
X168671881Y-72488405D02*
X168652833Y-72450310D01*
X168633786Y-72431262D01*
X168595690Y-72412214D01*
X168576643Y-72412214D01*
X168538548Y-72431262D01*
X168519500Y-72450310D01*
X168500452Y-72488405D01*
X168500452Y-72564595D01*
X168519500Y-72602691D01*
X168538548Y-72621738D01*
X168576643Y-72640786D01*
X168595690Y-72640786D01*
X168633786Y-72621738D01*
X168652833Y-72602691D01*
X168671881Y-72564595D01*
X168671881Y-72488405D01*
X168690929Y-72450310D01*
X168709976Y-72431262D01*
X168748071Y-72412214D01*
X168824262Y-72412214D01*
X168862357Y-72431262D01*
X168881405Y-72450310D01*
X168900452Y-72488405D01*
X168900452Y-72564595D01*
X168881405Y-72602691D01*
X168862357Y-72621738D01*
X168824262Y-72640786D01*
X168748071Y-72640786D01*
X168709976Y-72621738D01*
X168690929Y-72602691D01*
X168671881Y-72564595D01*
X169217952Y-66608334D02*
X169027476Y-66475000D01*
X169217952Y-66379762D02*
X168817952Y-66379762D01*
X168817952Y-66532143D01*
X168837000Y-66570238D01*
X168856048Y-66589286D01*
X168894143Y-66608334D01*
X168951286Y-66608334D01*
X168989381Y-66589286D01*
X169008429Y-66570238D01*
X169027476Y-66532143D01*
X169027476Y-66379762D01*
X169217952Y-66798810D02*
X169217952Y-66875000D01*
X169198905Y-66913095D01*
X169179857Y-66932143D01*
X169122714Y-66970238D01*
X169046524Y-66989286D01*
X168894143Y-66989286D01*
X168856048Y-66970238D01*
X168837000Y-66951191D01*
X168817952Y-66913095D01*
X168817952Y-66836905D01*
X168837000Y-66798810D01*
X168856048Y-66779762D01*
X168894143Y-66760714D01*
X168989381Y-66760714D01*
X169027476Y-66779762D01*
X169046524Y-66798810D01*
X169065571Y-66836905D01*
X169065571Y-66913095D01*
X169046524Y-66951191D01*
X169027476Y-66970238D01*
X168989381Y-66989286D01*
X166614452Y-66417858D02*
X166423976Y-66284524D01*
X166614452Y-66189286D02*
X166214452Y-66189286D01*
X166214452Y-66341667D01*
X166233500Y-66379762D01*
X166252548Y-66398810D01*
X166290643Y-66417858D01*
X166347786Y-66417858D01*
X166385881Y-66398810D01*
X166404929Y-66379762D01*
X166423976Y-66341667D01*
X166423976Y-66189286D01*
X166614452Y-66798810D02*
X166614452Y-66570238D01*
X166614452Y-66684524D02*
X166214452Y-66684524D01*
X166271595Y-66646429D01*
X166309690Y-66608334D01*
X166328738Y-66570238D01*
X166214452Y-67046429D02*
X166214452Y-67084524D01*
X166233500Y-67122619D01*
X166252548Y-67141667D01*
X166290643Y-67160714D01*
X166366833Y-67179762D01*
X166462071Y-67179762D01*
X166538262Y-67160714D01*
X166576357Y-67141667D01*
X166595405Y-67122619D01*
X166614452Y-67084524D01*
X166614452Y-67046429D01*
X166595405Y-67008333D01*
X166576357Y-66989286D01*
X166538262Y-66970238D01*
X166462071Y-66951190D01*
X166366833Y-66951190D01*
X166290643Y-66970238D01*
X166252548Y-66989286D01*
X166233500Y-67008333D01*
X166214452Y-67046429D01*
X171056262Y-70837452D02*
X171056262Y-71161262D01*
X171037214Y-71199357D01*
X171018167Y-71218405D01*
X170980071Y-71237452D01*
X170903881Y-71237452D01*
X170865786Y-71218405D01*
X170846738Y-71199357D01*
X170827690Y-71161262D01*
X170827690Y-70837452D01*
X170465785Y-70970786D02*
X170465785Y-71237452D01*
X170561023Y-70818405D02*
X170656262Y-71104119D01*
X170408642Y-71104119D01*
M02*
