G04 #@! TF.FileFunction,Legend,Top*
%FSLAX46Y46*%
G04 Gerber Fmt 4.6, Leading zero omitted, Abs format (unit mm)*
G04 Created by KiCad (PCBNEW 4.0.6) date 09/09/17 15:49:22*
%MOMM*%
%LPD*%
G01*
G04 APERTURE LIST*
%ADD10C,0.100000*%
%ADD11C,0.127000*%
%ADD12C,0.254000*%
%ADD13C,0.381000*%
%ADD14C,0.150000*%
%ADD15C,0.120000*%
%ADD16C,0.200000*%
%ADD17C,0.080000*%
G04 APERTURE END LIST*
D10*
D11*
X204900000Y-66500000D02*
X204900000Y-79500000D01*
X204900000Y-79500000D02*
X199590000Y-79500000D01*
X199590000Y-66500000D02*
X204900000Y-66500000D01*
D12*
X199750000Y-79000000D02*
X204250000Y-79000000D01*
X204250000Y-79000000D02*
X204250000Y-77125000D01*
X204250000Y-77125000D02*
X200875000Y-77125000D01*
X200875000Y-77125000D02*
X200875000Y-75250000D01*
X200875000Y-75250000D02*
X204250000Y-75250000D01*
X204250000Y-75250000D02*
X204250000Y-73375000D01*
X204250000Y-73375000D02*
X200875000Y-73375000D01*
X200875000Y-73375000D02*
X200875000Y-71500000D01*
X200875000Y-71500000D02*
X204250000Y-71500000D01*
X204250000Y-71500000D02*
X204250000Y-69625000D01*
X204250000Y-69625000D02*
X200875000Y-69625000D01*
X200875000Y-69625000D02*
X200875000Y-67750000D01*
X200875000Y-67750000D02*
X204250000Y-67750000D01*
X204250000Y-67750000D02*
X204250000Y-67006000D01*
D13*
X199082000Y-67285000D02*
G75*
G03X199082000Y-67285000I-127000J0D01*
G01*
D11*
X199590000Y-79500000D02*
X199590000Y-66500000D01*
D13*
G36*
X198383500Y-67534180D02*
X198383500Y-78461000D01*
X179207560Y-78461000D01*
X179207560Y-67534180D01*
X198383500Y-67534180D01*
G37*
X198383500Y-67534180D02*
X198383500Y-78461000D01*
X179207560Y-78461000D01*
X179207560Y-67534180D01*
X198383500Y-67534180D01*
D11*
X178000000Y-78800000D02*
X178000000Y-79500000D01*
X178000000Y-79500000D02*
X179200000Y-79500000D01*
X180400000Y-79500000D02*
X180700000Y-79500000D01*
X181900000Y-79500000D02*
X182200000Y-79500000D01*
X183400000Y-79500000D02*
X183700000Y-79500000D01*
X184900000Y-79500000D02*
X185200000Y-79500000D01*
X186400000Y-79500000D02*
X186700000Y-79500000D01*
X187900000Y-79500000D02*
X188200000Y-79500000D01*
X189400000Y-79500000D02*
X189700000Y-79500000D01*
X190900000Y-79500000D02*
X191200000Y-79500000D01*
X192400000Y-79500000D02*
X192700000Y-79500000D01*
X193900000Y-79500000D02*
X194200000Y-79500000D01*
X195400000Y-79500000D02*
X195700000Y-79500000D01*
X196900000Y-79500000D02*
X197200000Y-79500000D01*
X198400000Y-79500000D02*
X199590000Y-79500000D01*
X198400000Y-66500000D02*
X199590000Y-66500000D01*
X196900000Y-66500000D02*
X197200000Y-66500000D01*
X195400000Y-66500000D02*
X195700000Y-66500000D01*
X193900000Y-66500000D02*
X194200000Y-66500000D01*
X192400000Y-66500000D02*
X192700000Y-66500000D01*
X190900000Y-66500000D02*
X191200000Y-66500000D01*
X189400000Y-66500000D02*
X189700000Y-66500000D01*
X187900000Y-66500000D02*
X188200000Y-66500000D01*
X186400000Y-66500000D02*
X186700000Y-66500000D01*
X184900000Y-66500000D02*
X185200000Y-66500000D01*
X183400000Y-66500000D02*
X183700000Y-66500000D01*
X181900000Y-66500000D02*
X182200000Y-66500000D01*
X180400000Y-66500000D02*
X180700000Y-66500000D01*
X179200000Y-66500000D02*
X178000000Y-66500000D01*
X178000000Y-66500000D02*
X178000000Y-67200000D01*
X178000000Y-68300000D02*
X178000000Y-68700000D01*
X178000000Y-69800000D02*
X178000000Y-70200000D01*
X178000000Y-71300000D02*
X178000000Y-71700000D01*
X178000000Y-72800000D02*
X178000000Y-73200000D01*
X178000000Y-74300000D02*
X178000000Y-74700000D01*
X178000000Y-75800000D02*
X178000000Y-76200000D01*
X178000000Y-77300000D02*
X178000000Y-77700000D01*
D14*
X175700000Y-66300000D02*
X175700000Y-67500000D01*
X161300000Y-72700000D02*
X161300000Y-71500000D01*
X175700000Y-72700000D02*
X175700000Y-71600000D01*
X161300000Y-66300000D02*
X161300000Y-67600000D01*
X164200000Y-73700000D02*
G75*
G03X172700000Y-73800000I4300000J4200000D01*
G01*
X172700000Y-65200000D02*
G75*
G03X164200000Y-65300000I-4200000J-4300000D01*
G01*
X175710000Y-72740000D02*
X161290000Y-72740000D01*
X161290000Y-66260000D02*
X175710000Y-66260000D01*
D15*
X159600000Y-66750000D02*
X159600000Y-66050000D01*
X160800000Y-66050000D02*
X160800000Y-66750000D01*
X148800000Y-77850000D02*
X148800000Y-77150000D01*
X150000000Y-77150000D02*
X150000000Y-77850000D01*
X161550000Y-75300000D02*
X160850000Y-75300000D01*
X160850000Y-74100000D02*
X161550000Y-74100000D01*
X155850000Y-63700000D02*
X156550000Y-63700000D01*
X156550000Y-64900000D02*
X155850000Y-64900000D01*
X190650000Y-64350000D02*
X190650000Y-63650000D01*
X191850000Y-63650000D02*
X191850000Y-64350000D01*
X197800000Y-65650000D02*
X193250000Y-65650000D01*
X197800000Y-62350000D02*
X193250000Y-62350000D01*
X197800000Y-65650000D02*
X197800000Y-62350000D01*
X166000000Y-76350000D02*
X170550000Y-76350000D01*
X166000000Y-79650000D02*
X170550000Y-79650000D01*
X166000000Y-76350000D02*
X166000000Y-79650000D01*
X157300000Y-78950000D02*
X152750000Y-78950000D01*
X157300000Y-75650000D02*
X152750000Y-75650000D01*
X157300000Y-78950000D02*
X157300000Y-75650000D01*
X151600000Y-77250000D02*
X151600000Y-77950000D01*
X150400000Y-77950000D02*
X150400000Y-77250000D01*
X149100000Y-65750000D02*
X149100000Y-65050000D01*
X150300000Y-65050000D02*
X150300000Y-65750000D01*
X147700000Y-65750000D02*
X147700000Y-65050000D01*
X148900000Y-65050000D02*
X148900000Y-65750000D01*
X157500000Y-79250000D02*
X159500000Y-79250000D01*
X159500000Y-79250000D02*
X159500000Y-75350000D01*
X157500000Y-79250000D02*
X157500000Y-75350000D01*
X184650000Y-65200000D02*
X184650000Y-63200000D01*
X184650000Y-63200000D02*
X180750000Y-63200000D01*
X184650000Y-65200000D02*
X180750000Y-65200000D01*
X174800000Y-79650000D02*
X176800000Y-79650000D01*
X176800000Y-79650000D02*
X176800000Y-75750000D01*
X174800000Y-79650000D02*
X174800000Y-75750000D01*
X159080000Y-64500000D02*
X159080000Y-65500000D01*
X157720000Y-65500000D02*
X157720000Y-64500000D01*
X165680000Y-77700000D02*
X165680000Y-78700000D01*
X164320000Y-78700000D02*
X164320000Y-77700000D01*
X190330000Y-63240000D02*
X189400000Y-63240000D01*
X187170000Y-63240000D02*
X188100000Y-63240000D01*
X187170000Y-63240000D02*
X187170000Y-65400000D01*
X190330000Y-63240000D02*
X190330000Y-64700000D01*
X176220000Y-65560000D02*
X177150000Y-65560000D01*
X179380000Y-65560000D02*
X178450000Y-65560000D01*
X179380000Y-65560000D02*
X179380000Y-63400000D01*
X176220000Y-65560000D02*
X176220000Y-64100000D01*
X159620000Y-73100000D02*
X159620000Y-72100000D01*
X160980000Y-72100000D02*
X160980000Y-73100000D01*
X186480000Y-63500000D02*
X186480000Y-64500000D01*
X185120000Y-64500000D02*
X185120000Y-63500000D01*
X176300000Y-74680000D02*
X175300000Y-74680000D01*
X175300000Y-73320000D02*
X176300000Y-73320000D01*
X173700000Y-79880000D02*
X172700000Y-79880000D01*
X172700000Y-78520000D02*
X173700000Y-78520000D01*
X172700000Y-76520000D02*
X173700000Y-76520000D01*
X173700000Y-77880000D02*
X172700000Y-77880000D01*
X140120000Y-66200000D02*
X140120000Y-65200000D01*
X141480000Y-65200000D02*
X141480000Y-66200000D01*
X141480000Y-67800000D02*
X141480000Y-68800000D01*
X140120000Y-68800000D02*
X140120000Y-67800000D01*
X141480000Y-70500000D02*
X141480000Y-71500000D01*
X140120000Y-71500000D02*
X140120000Y-70500000D01*
X146220000Y-66000000D02*
X146220000Y-65000000D01*
X147580000Y-65000000D02*
X147580000Y-66000000D01*
X144720000Y-66000000D02*
X144720000Y-65000000D01*
X146080000Y-65000000D02*
X146080000Y-66000000D01*
X141620000Y-66100000D02*
X141620000Y-65100000D01*
X142980000Y-65100000D02*
X142980000Y-66100000D01*
X143220000Y-66000000D02*
X143220000Y-65000000D01*
X144580000Y-65000000D02*
X144580000Y-66000000D01*
X148000000Y-68480000D02*
X147000000Y-68480000D01*
X147000000Y-67120000D02*
X148000000Y-67120000D01*
X148000000Y-70480000D02*
X147000000Y-70480000D01*
X147000000Y-69120000D02*
X148000000Y-69120000D01*
X148000000Y-72380000D02*
X147000000Y-72380000D01*
X147000000Y-71020000D02*
X148000000Y-71020000D01*
X148720000Y-75100000D02*
X148720000Y-74100000D01*
X150080000Y-74100000D02*
X150080000Y-75100000D01*
X146000000Y-73300000D02*
X145550000Y-72850000D01*
X142600000Y-73300000D02*
X143050000Y-72850000D01*
X142600000Y-77900000D02*
X143050000Y-78350000D01*
X146000000Y-77900000D02*
X145550000Y-78350000D01*
X141550000Y-76600000D02*
X141550000Y-74600000D01*
X145550000Y-72850000D02*
X143050000Y-72850000D01*
X147050000Y-76600000D02*
X147050000Y-74600000D01*
X145550000Y-78350000D02*
X143050000Y-78350000D01*
D14*
X157825000Y-66475000D02*
X157375000Y-66475000D01*
X157825000Y-73725000D02*
X157300000Y-73725000D01*
X150575000Y-73725000D02*
X151100000Y-73725000D01*
X150575000Y-66475000D02*
X151100000Y-66475000D01*
X157825000Y-66475000D02*
X157825000Y-67000000D01*
X150575000Y-66475000D02*
X150575000Y-67000000D01*
X150575000Y-73725000D02*
X150575000Y-73200000D01*
X157825000Y-73725000D02*
X157825000Y-73200000D01*
X157375000Y-66475000D02*
X157375000Y-65100000D01*
D16*
X161500000Y-76200000D02*
X162300000Y-76200000D01*
X162300000Y-76200000D02*
X162300000Y-79200000D01*
X162300000Y-79200000D02*
X161500000Y-79200000D01*
X161500000Y-79200000D02*
X161500000Y-76200000D01*
X160800000Y-75900000D02*
G75*
G03X160800000Y-75900000I-200000J0D01*
G01*
X160400000Y-75900000D02*
X160600000Y-75800000D01*
X160600000Y-75800000D02*
X160800000Y-75900000D01*
X160800000Y-75900000D02*
X160500000Y-76000000D01*
D15*
X142200000Y-72150000D02*
X143100000Y-72150000D01*
X145800000Y-72150000D02*
X145800000Y-67250000D01*
X142200000Y-67250000D02*
X142200000Y-72150000D01*
D17*
X205575252Y-73177557D02*
X205899062Y-73177557D01*
X205937157Y-73158509D01*
X205956205Y-73139462D01*
X205975252Y-73101366D01*
X205975252Y-73025176D01*
X205956205Y-72987081D01*
X205937157Y-72968033D01*
X205899062Y-72948985D01*
X205575252Y-72948985D01*
X205613348Y-72777557D02*
X205594300Y-72758509D01*
X205575252Y-72720414D01*
X205575252Y-72625176D01*
X205594300Y-72587080D01*
X205613348Y-72568033D01*
X205651443Y-72548985D01*
X205689538Y-72548985D01*
X205746681Y-72568033D01*
X205975252Y-72796604D01*
X205975252Y-72548985D01*
X174691714Y-72234429D02*
X174748857Y-72253476D01*
X174767905Y-72272524D01*
X174786953Y-72310619D01*
X174786953Y-72367762D01*
X174767905Y-72405857D01*
X174748857Y-72424905D01*
X174710762Y-72443952D01*
X174558381Y-72443952D01*
X174558381Y-72043952D01*
X174691714Y-72043952D01*
X174729810Y-72063000D01*
X174748857Y-72082048D01*
X174767905Y-72120143D01*
X174767905Y-72158238D01*
X174748857Y-72196333D01*
X174729810Y-72215381D01*
X174691714Y-72234429D01*
X174558381Y-72234429D01*
X174901238Y-72043952D02*
X175129810Y-72043952D01*
X175015524Y-72443952D02*
X175015524Y-72043952D01*
X175472667Y-72443952D02*
X175244095Y-72443952D01*
X175358381Y-72443952D02*
X175358381Y-72043952D01*
X175320286Y-72101095D01*
X175282191Y-72139190D01*
X175244095Y-72158238D01*
X160143834Y-66500357D02*
X160124786Y-66519405D01*
X160067643Y-66538452D01*
X160029548Y-66538452D01*
X159972405Y-66519405D01*
X159934310Y-66481310D01*
X159915262Y-66443214D01*
X159896214Y-66367024D01*
X159896214Y-66309881D01*
X159915262Y-66233690D01*
X159934310Y-66195595D01*
X159972405Y-66157500D01*
X160029548Y-66138452D01*
X160067643Y-66138452D01*
X160124786Y-66157500D01*
X160143834Y-66176548D01*
X160524786Y-66538452D02*
X160296214Y-66538452D01*
X160410500Y-66538452D02*
X160410500Y-66138452D01*
X160372405Y-66195595D01*
X160334310Y-66233690D01*
X160296214Y-66252738D01*
X150936334Y-77739857D02*
X150917286Y-77758905D01*
X150860143Y-77777952D01*
X150822048Y-77777952D01*
X150764905Y-77758905D01*
X150726810Y-77720810D01*
X150707762Y-77682714D01*
X150688714Y-77606524D01*
X150688714Y-77549381D01*
X150707762Y-77473190D01*
X150726810Y-77435095D01*
X150764905Y-77397000D01*
X150822048Y-77377952D01*
X150860143Y-77377952D01*
X150917286Y-77397000D01*
X150936334Y-77416048D01*
X151088714Y-77416048D02*
X151107762Y-77397000D01*
X151145857Y-77377952D01*
X151241095Y-77377952D01*
X151279191Y-77397000D01*
X151298238Y-77416048D01*
X151317286Y-77454143D01*
X151317286Y-77492238D01*
X151298238Y-77549381D01*
X151069667Y-77777952D01*
X151317286Y-77777952D01*
X161369357Y-74742666D02*
X161388405Y-74761714D01*
X161407452Y-74818857D01*
X161407452Y-74856952D01*
X161388405Y-74914095D01*
X161350310Y-74952190D01*
X161312214Y-74971238D01*
X161236024Y-74990286D01*
X161178881Y-74990286D01*
X161102690Y-74971238D01*
X161064595Y-74952190D01*
X161026500Y-74914095D01*
X161007452Y-74856952D01*
X161007452Y-74818857D01*
X161026500Y-74761714D01*
X161045548Y-74742666D01*
X161007452Y-74609333D02*
X161007452Y-74361714D01*
X161159833Y-74495047D01*
X161159833Y-74437905D01*
X161178881Y-74399809D01*
X161197929Y-74380762D01*
X161236024Y-74361714D01*
X161331262Y-74361714D01*
X161369357Y-74380762D01*
X161388405Y-74399809D01*
X161407452Y-74437905D01*
X161407452Y-74552190D01*
X161388405Y-74590286D01*
X161369357Y-74609333D01*
X156133334Y-65942857D02*
X156114286Y-65961905D01*
X156057143Y-65980952D01*
X156019048Y-65980952D01*
X155961905Y-65961905D01*
X155923810Y-65923810D01*
X155904762Y-65885714D01*
X155885714Y-65809524D01*
X155885714Y-65752381D01*
X155904762Y-65676190D01*
X155923810Y-65638095D01*
X155961905Y-65600000D01*
X156019048Y-65580952D01*
X156057143Y-65580952D01*
X156114286Y-65600000D01*
X156133334Y-65619048D01*
X156495238Y-65580952D02*
X156304762Y-65580952D01*
X156285714Y-65771429D01*
X156304762Y-65752381D01*
X156342857Y-65733333D01*
X156438095Y-65733333D01*
X156476191Y-65752381D01*
X156495238Y-65771429D01*
X156514286Y-65809524D01*
X156514286Y-65904762D01*
X156495238Y-65942857D01*
X156476191Y-65961905D01*
X156438095Y-65980952D01*
X156342857Y-65980952D01*
X156304762Y-65961905D01*
X156285714Y-65942857D01*
X192892857Y-64066666D02*
X192911905Y-64085714D01*
X192930952Y-64142857D01*
X192930952Y-64180952D01*
X192911905Y-64238095D01*
X192873810Y-64276190D01*
X192835714Y-64295238D01*
X192759524Y-64314286D01*
X192702381Y-64314286D01*
X192626190Y-64295238D01*
X192588095Y-64276190D01*
X192550000Y-64238095D01*
X192530952Y-64180952D01*
X192530952Y-64142857D01*
X192550000Y-64085714D01*
X192569048Y-64066666D01*
X192530952Y-63933333D02*
X192530952Y-63666666D01*
X192930952Y-63838095D01*
X195214857Y-64074666D02*
X195233905Y-64093714D01*
X195252952Y-64150857D01*
X195252952Y-64188952D01*
X195233905Y-64246095D01*
X195195810Y-64284190D01*
X195157714Y-64303238D01*
X195081524Y-64322286D01*
X195024381Y-64322286D01*
X194948190Y-64303238D01*
X194910095Y-64284190D01*
X194872000Y-64246095D01*
X194852952Y-64188952D01*
X194852952Y-64150857D01*
X194872000Y-64093714D01*
X194891048Y-64074666D01*
X195024381Y-63846095D02*
X195005333Y-63884190D01*
X194986286Y-63903238D01*
X194948190Y-63922286D01*
X194929143Y-63922286D01*
X194891048Y-63903238D01*
X194872000Y-63884190D01*
X194852952Y-63846095D01*
X194852952Y-63769905D01*
X194872000Y-63731809D01*
X194891048Y-63712762D01*
X194929143Y-63693714D01*
X194948190Y-63693714D01*
X194986286Y-63712762D01*
X195005333Y-63731809D01*
X195024381Y-63769905D01*
X195024381Y-63846095D01*
X195043429Y-63884190D01*
X195062476Y-63903238D01*
X195100571Y-63922286D01*
X195176762Y-63922286D01*
X195214857Y-63903238D01*
X195233905Y-63884190D01*
X195252952Y-63846095D01*
X195252952Y-63769905D01*
X195233905Y-63731809D01*
X195214857Y-63712762D01*
X195176762Y-63693714D01*
X195100571Y-63693714D01*
X195062476Y-63712762D01*
X195043429Y-63731809D01*
X195024381Y-63769905D01*
X168989357Y-78171642D02*
X169008405Y-78190690D01*
X169027452Y-78247833D01*
X169027452Y-78285928D01*
X169008405Y-78343071D01*
X168970310Y-78381166D01*
X168932214Y-78400214D01*
X168856024Y-78419262D01*
X168798881Y-78419262D01*
X168722690Y-78400214D01*
X168684595Y-78381166D01*
X168646500Y-78343071D01*
X168627452Y-78285928D01*
X168627452Y-78247833D01*
X168646500Y-78190690D01*
X168665548Y-78171642D01*
X169027452Y-77790690D02*
X169027452Y-78019262D01*
X169027452Y-77904976D02*
X168627452Y-77904976D01*
X168684595Y-77943071D01*
X168722690Y-77981166D01*
X168741738Y-78019262D01*
X168627452Y-77543071D02*
X168627452Y-77504976D01*
X168646500Y-77466881D01*
X168665548Y-77447833D01*
X168703643Y-77428786D01*
X168779833Y-77409738D01*
X168875071Y-77409738D01*
X168951262Y-77428786D01*
X168989357Y-77447833D01*
X169008405Y-77466881D01*
X169027452Y-77504976D01*
X169027452Y-77543071D01*
X169008405Y-77581167D01*
X168989357Y-77600214D01*
X168951262Y-77619262D01*
X168875071Y-77638310D01*
X168779833Y-77638310D01*
X168703643Y-77619262D01*
X168665548Y-77600214D01*
X168646500Y-77581167D01*
X168627452Y-77543071D01*
X154638357Y-77600142D02*
X154657405Y-77619190D01*
X154676452Y-77676333D01*
X154676452Y-77714428D01*
X154657405Y-77771571D01*
X154619310Y-77809666D01*
X154581214Y-77828714D01*
X154505024Y-77847762D01*
X154447881Y-77847762D01*
X154371690Y-77828714D01*
X154333595Y-77809666D01*
X154295500Y-77771571D01*
X154276452Y-77714428D01*
X154276452Y-77676333D01*
X154295500Y-77619190D01*
X154314548Y-77600142D01*
X154676452Y-77219190D02*
X154676452Y-77447762D01*
X154676452Y-77333476D02*
X154276452Y-77333476D01*
X154333595Y-77371571D01*
X154371690Y-77409666D01*
X154390738Y-77447762D01*
X154676452Y-76838238D02*
X154676452Y-77066810D01*
X154676452Y-76952524D02*
X154276452Y-76952524D01*
X154333595Y-76990619D01*
X154371690Y-77028714D01*
X154390738Y-77066810D01*
X149158358Y-77676357D02*
X149139310Y-77695405D01*
X149082167Y-77714452D01*
X149044072Y-77714452D01*
X148986929Y-77695405D01*
X148948834Y-77657310D01*
X148929786Y-77619214D01*
X148910738Y-77543024D01*
X148910738Y-77485881D01*
X148929786Y-77409690D01*
X148948834Y-77371595D01*
X148986929Y-77333500D01*
X149044072Y-77314452D01*
X149082167Y-77314452D01*
X149139310Y-77333500D01*
X149158358Y-77352548D01*
X149539310Y-77714452D02*
X149310738Y-77714452D01*
X149425024Y-77714452D02*
X149425024Y-77314452D01*
X149386929Y-77371595D01*
X149348834Y-77409690D01*
X149310738Y-77428738D01*
X149882167Y-77447786D02*
X149882167Y-77714452D01*
X149786929Y-77295405D02*
X149691690Y-77581119D01*
X149939310Y-77581119D01*
X149412358Y-65547857D02*
X149393310Y-65566905D01*
X149336167Y-65585952D01*
X149298072Y-65585952D01*
X149240929Y-65566905D01*
X149202834Y-65528810D01*
X149183786Y-65490714D01*
X149164738Y-65414524D01*
X149164738Y-65357381D01*
X149183786Y-65281190D01*
X149202834Y-65243095D01*
X149240929Y-65205000D01*
X149298072Y-65185952D01*
X149336167Y-65185952D01*
X149393310Y-65205000D01*
X149412358Y-65224048D01*
X149793310Y-65585952D02*
X149564738Y-65585952D01*
X149679024Y-65585952D02*
X149679024Y-65185952D01*
X149640929Y-65243095D01*
X149602834Y-65281190D01*
X149564738Y-65300238D01*
X150155214Y-65185952D02*
X149964738Y-65185952D01*
X149945690Y-65376429D01*
X149964738Y-65357381D01*
X150002833Y-65338333D01*
X150098071Y-65338333D01*
X150136167Y-65357381D01*
X150155214Y-65376429D01*
X150174262Y-65414524D01*
X150174262Y-65509762D01*
X150155214Y-65547857D01*
X150136167Y-65566905D01*
X150098071Y-65585952D01*
X150002833Y-65585952D01*
X149964738Y-65566905D01*
X149945690Y-65547857D01*
X148015358Y-65547857D02*
X147996310Y-65566905D01*
X147939167Y-65585952D01*
X147901072Y-65585952D01*
X147843929Y-65566905D01*
X147805834Y-65528810D01*
X147786786Y-65490714D01*
X147767738Y-65414524D01*
X147767738Y-65357381D01*
X147786786Y-65281190D01*
X147805834Y-65243095D01*
X147843929Y-65205000D01*
X147901072Y-65185952D01*
X147939167Y-65185952D01*
X147996310Y-65205000D01*
X148015358Y-65224048D01*
X148396310Y-65585952D02*
X148167738Y-65585952D01*
X148282024Y-65585952D02*
X148282024Y-65185952D01*
X148243929Y-65243095D01*
X148205834Y-65281190D01*
X148167738Y-65300238D01*
X148739167Y-65185952D02*
X148662976Y-65185952D01*
X148624881Y-65205000D01*
X148605833Y-65224048D01*
X148567738Y-65281190D01*
X148548690Y-65357381D01*
X148548690Y-65509762D01*
X148567738Y-65547857D01*
X148586786Y-65566905D01*
X148624881Y-65585952D01*
X148701071Y-65585952D01*
X148739167Y-65566905D01*
X148758214Y-65547857D01*
X148777262Y-65509762D01*
X148777262Y-65414524D01*
X148758214Y-65376429D01*
X148739167Y-65357381D01*
X148701071Y-65338333D01*
X148624881Y-65338333D01*
X148586786Y-65357381D01*
X148567738Y-65376429D01*
X148548690Y-65414524D01*
X158137262Y-77079452D02*
X158137262Y-76679452D01*
X158232500Y-76679452D01*
X158289643Y-76698500D01*
X158327738Y-76736595D01*
X158346786Y-76774690D01*
X158365834Y-76850881D01*
X158365834Y-76908024D01*
X158346786Y-76984214D01*
X158327738Y-77022310D01*
X158289643Y-77060405D01*
X158232500Y-77079452D01*
X158137262Y-77079452D01*
X158499167Y-76679452D02*
X158746786Y-76679452D01*
X158613453Y-76831833D01*
X158670595Y-76831833D01*
X158708691Y-76850881D01*
X158727738Y-76869929D01*
X158746786Y-76908024D01*
X158746786Y-77003262D01*
X158727738Y-77041357D01*
X158708691Y-77060405D01*
X158670595Y-77079452D01*
X158556310Y-77079452D01*
X158518214Y-77060405D01*
X158499167Y-77041357D01*
X181695762Y-63871452D02*
X181695762Y-63471452D01*
X181791000Y-63471452D01*
X181848143Y-63490500D01*
X181886238Y-63528595D01*
X181905286Y-63566690D01*
X181924334Y-63642881D01*
X181924334Y-63700024D01*
X181905286Y-63776214D01*
X181886238Y-63814310D01*
X181848143Y-63852405D01*
X181791000Y-63871452D01*
X181695762Y-63871452D01*
X182267191Y-63604786D02*
X182267191Y-63871452D01*
X182171953Y-63452405D02*
X182076714Y-63738119D01*
X182324334Y-63738119D01*
X175536262Y-77523952D02*
X175536262Y-77123952D01*
X175631500Y-77123952D01*
X175688643Y-77143000D01*
X175726738Y-77181095D01*
X175745786Y-77219190D01*
X175764834Y-77295381D01*
X175764834Y-77352524D01*
X175745786Y-77428714D01*
X175726738Y-77466810D01*
X175688643Y-77504905D01*
X175631500Y-77523952D01*
X175536262Y-77523952D01*
X176126738Y-77123952D02*
X175936262Y-77123952D01*
X175917214Y-77314429D01*
X175936262Y-77295381D01*
X175974357Y-77276333D01*
X176069595Y-77276333D01*
X176107691Y-77295381D01*
X176126738Y-77314429D01*
X176145786Y-77352524D01*
X176145786Y-77447762D01*
X176126738Y-77485857D01*
X176107691Y-77504905D01*
X176069595Y-77523952D01*
X175974357Y-77523952D01*
X175936262Y-77504905D01*
X175917214Y-77485857D01*
X156680952Y-65066667D02*
X156680952Y-65257143D01*
X156280952Y-65257143D01*
X156680952Y-64723809D02*
X156680952Y-64952381D01*
X156680952Y-64838095D02*
X156280952Y-64838095D01*
X156338095Y-64876190D01*
X156376190Y-64914285D01*
X156395238Y-64952381D01*
X164906333Y-78349452D02*
X164715857Y-78349452D01*
X164715857Y-77949452D01*
X165020619Y-77987548D02*
X165039667Y-77968500D01*
X165077762Y-77949452D01*
X165173000Y-77949452D01*
X165211096Y-77968500D01*
X165230143Y-77987548D01*
X165249191Y-78025643D01*
X165249191Y-78063738D01*
X165230143Y-78120881D01*
X165001572Y-78349452D01*
X165249191Y-78349452D01*
X189636405Y-64100048D02*
X189598310Y-64081000D01*
X189560214Y-64042905D01*
X189503071Y-63985762D01*
X189464976Y-63966714D01*
X189426881Y-63966714D01*
X189445929Y-64061952D02*
X189407833Y-64042905D01*
X189369738Y-64004810D01*
X189350690Y-63928619D01*
X189350690Y-63795286D01*
X189369738Y-63719095D01*
X189407833Y-63681000D01*
X189445929Y-63661952D01*
X189522119Y-63661952D01*
X189560214Y-63681000D01*
X189598310Y-63719095D01*
X189617357Y-63795286D01*
X189617357Y-63928619D01*
X189598310Y-64004810D01*
X189560214Y-64042905D01*
X189522119Y-64061952D01*
X189445929Y-64061952D01*
X189998310Y-64061952D02*
X189769738Y-64061952D01*
X189884024Y-64061952D02*
X189884024Y-63661952D01*
X189845929Y-63719095D01*
X189807834Y-63757190D01*
X189769738Y-63776238D01*
X177761905Y-64989048D02*
X177723810Y-64970000D01*
X177685714Y-64931905D01*
X177628571Y-64874762D01*
X177590476Y-64855714D01*
X177552381Y-64855714D01*
X177571429Y-64950952D02*
X177533333Y-64931905D01*
X177495238Y-64893810D01*
X177476190Y-64817619D01*
X177476190Y-64684286D01*
X177495238Y-64608095D01*
X177533333Y-64570000D01*
X177571429Y-64550952D01*
X177647619Y-64550952D01*
X177685714Y-64570000D01*
X177723810Y-64608095D01*
X177742857Y-64684286D01*
X177742857Y-64817619D01*
X177723810Y-64893810D01*
X177685714Y-64931905D01*
X177647619Y-64950952D01*
X177571429Y-64950952D01*
X177895238Y-64589048D02*
X177914286Y-64570000D01*
X177952381Y-64550952D01*
X178047619Y-64550952D01*
X178085715Y-64570000D01*
X178104762Y-64589048D01*
X178123810Y-64627143D01*
X178123810Y-64665238D01*
X178104762Y-64722381D01*
X177876191Y-64950952D01*
X178123810Y-64950952D01*
X160270834Y-72761452D02*
X160137500Y-72570976D01*
X160042262Y-72761452D02*
X160042262Y-72361452D01*
X160194643Y-72361452D01*
X160232738Y-72380500D01*
X160251786Y-72399548D01*
X160270834Y-72437643D01*
X160270834Y-72494786D01*
X160251786Y-72532881D01*
X160232738Y-72551929D01*
X160194643Y-72570976D01*
X160042262Y-72570976D01*
X160651786Y-72761452D02*
X160423214Y-72761452D01*
X160537500Y-72761452D02*
X160537500Y-72361452D01*
X160499405Y-72418595D01*
X160461310Y-72456690D01*
X160423214Y-72475738D01*
X185734334Y-64188952D02*
X185601000Y-63998476D01*
X185505762Y-64188952D02*
X185505762Y-63788952D01*
X185658143Y-63788952D01*
X185696238Y-63808000D01*
X185715286Y-63827048D01*
X185734334Y-63865143D01*
X185734334Y-63922286D01*
X185715286Y-63960381D01*
X185696238Y-63979429D01*
X185658143Y-63998476D01*
X185505762Y-63998476D01*
X186077191Y-63922286D02*
X186077191Y-64188952D01*
X185981953Y-63769905D02*
X185886714Y-64055619D01*
X186134334Y-64055619D01*
X175701334Y-74158452D02*
X175568000Y-73967976D01*
X175472762Y-74158452D02*
X175472762Y-73758452D01*
X175625143Y-73758452D01*
X175663238Y-73777500D01*
X175682286Y-73796548D01*
X175701334Y-73834643D01*
X175701334Y-73891786D01*
X175682286Y-73929881D01*
X175663238Y-73948929D01*
X175625143Y-73967976D01*
X175472762Y-73967976D01*
X176063238Y-73758452D02*
X175872762Y-73758452D01*
X175853714Y-73948929D01*
X175872762Y-73929881D01*
X175910857Y-73910833D01*
X176006095Y-73910833D01*
X176044191Y-73929881D01*
X176063238Y-73948929D01*
X176082286Y-73987024D01*
X176082286Y-74082262D01*
X176063238Y-74120357D01*
X176044191Y-74139405D01*
X176006095Y-74158452D01*
X175910857Y-74158452D01*
X175872762Y-74139405D01*
X175853714Y-74120357D01*
X173097834Y-77396952D02*
X172964500Y-77206476D01*
X172869262Y-77396952D02*
X172869262Y-76996952D01*
X173021643Y-76996952D01*
X173059738Y-77016000D01*
X173078786Y-77035048D01*
X173097834Y-77073143D01*
X173097834Y-77130286D01*
X173078786Y-77168381D01*
X173059738Y-77187429D01*
X173021643Y-77206476D01*
X172869262Y-77206476D01*
X173440691Y-76996952D02*
X173364500Y-76996952D01*
X173326405Y-77016000D01*
X173307357Y-77035048D01*
X173269262Y-77092190D01*
X173250214Y-77168381D01*
X173250214Y-77320762D01*
X173269262Y-77358857D01*
X173288310Y-77377905D01*
X173326405Y-77396952D01*
X173402595Y-77396952D01*
X173440691Y-77377905D01*
X173459738Y-77358857D01*
X173478786Y-77320762D01*
X173478786Y-77225524D01*
X173459738Y-77187429D01*
X173440691Y-77168381D01*
X173402595Y-77149333D01*
X173326405Y-77149333D01*
X173288310Y-77168381D01*
X173269262Y-77187429D01*
X173250214Y-77225524D01*
X173097834Y-79365452D02*
X172964500Y-79174976D01*
X172869262Y-79365452D02*
X172869262Y-78965452D01*
X173021643Y-78965452D01*
X173059738Y-78984500D01*
X173078786Y-79003548D01*
X173097834Y-79041643D01*
X173097834Y-79098786D01*
X173078786Y-79136881D01*
X173059738Y-79155929D01*
X173021643Y-79174976D01*
X172869262Y-79174976D01*
X173231167Y-78965452D02*
X173497834Y-78965452D01*
X173326405Y-79365452D01*
X140585858Y-65839952D02*
X140452524Y-65649476D01*
X140357286Y-65839952D02*
X140357286Y-65439952D01*
X140509667Y-65439952D01*
X140547762Y-65459000D01*
X140566810Y-65478048D01*
X140585858Y-65516143D01*
X140585858Y-65573286D01*
X140566810Y-65611381D01*
X140547762Y-65630429D01*
X140509667Y-65649476D01*
X140357286Y-65649476D01*
X140966810Y-65839952D02*
X140738238Y-65839952D01*
X140852524Y-65839952D02*
X140852524Y-65439952D01*
X140814429Y-65497095D01*
X140776334Y-65535190D01*
X140738238Y-65554238D01*
X141347762Y-65839952D02*
X141119190Y-65839952D01*
X141233476Y-65839952D02*
X141233476Y-65439952D01*
X141195381Y-65497095D01*
X141157286Y-65535190D01*
X141119190Y-65554238D01*
X140522358Y-68506952D02*
X140389024Y-68316476D01*
X140293786Y-68506952D02*
X140293786Y-68106952D01*
X140446167Y-68106952D01*
X140484262Y-68126000D01*
X140503310Y-68145048D01*
X140522358Y-68183143D01*
X140522358Y-68240286D01*
X140503310Y-68278381D01*
X140484262Y-68297429D01*
X140446167Y-68316476D01*
X140293786Y-68316476D01*
X140903310Y-68506952D02*
X140674738Y-68506952D01*
X140789024Y-68506952D02*
X140789024Y-68106952D01*
X140750929Y-68164095D01*
X140712834Y-68202190D01*
X140674738Y-68221238D01*
X141055690Y-68145048D02*
X141074738Y-68126000D01*
X141112833Y-68106952D01*
X141208071Y-68106952D01*
X141246167Y-68126000D01*
X141265214Y-68145048D01*
X141284262Y-68183143D01*
X141284262Y-68221238D01*
X141265214Y-68278381D01*
X141036643Y-68506952D01*
X141284262Y-68506952D01*
X140522358Y-71173952D02*
X140389024Y-70983476D01*
X140293786Y-71173952D02*
X140293786Y-70773952D01*
X140446167Y-70773952D01*
X140484262Y-70793000D01*
X140503310Y-70812048D01*
X140522358Y-70850143D01*
X140522358Y-70907286D01*
X140503310Y-70945381D01*
X140484262Y-70964429D01*
X140446167Y-70983476D01*
X140293786Y-70983476D01*
X140903310Y-71173952D02*
X140674738Y-71173952D01*
X140789024Y-71173952D02*
X140789024Y-70773952D01*
X140750929Y-70831095D01*
X140712834Y-70869190D01*
X140674738Y-70888238D01*
X141036643Y-70773952D02*
X141284262Y-70773952D01*
X141150929Y-70926333D01*
X141208071Y-70926333D01*
X141246167Y-70945381D01*
X141265214Y-70964429D01*
X141284262Y-71002524D01*
X141284262Y-71097762D01*
X141265214Y-71135857D01*
X141246167Y-71154905D01*
X141208071Y-71173952D01*
X141093786Y-71173952D01*
X141055690Y-71154905D01*
X141036643Y-71135857D01*
X146618358Y-65649452D02*
X146485024Y-65458976D01*
X146389786Y-65649452D02*
X146389786Y-65249452D01*
X146542167Y-65249452D01*
X146580262Y-65268500D01*
X146599310Y-65287548D01*
X146618358Y-65325643D01*
X146618358Y-65382786D01*
X146599310Y-65420881D01*
X146580262Y-65439929D01*
X146542167Y-65458976D01*
X146389786Y-65458976D01*
X146999310Y-65649452D02*
X146770738Y-65649452D01*
X146885024Y-65649452D02*
X146885024Y-65249452D01*
X146846929Y-65306595D01*
X146808834Y-65344690D01*
X146770738Y-65363738D01*
X147342167Y-65382786D02*
X147342167Y-65649452D01*
X147246929Y-65230405D02*
X147151690Y-65516119D01*
X147399310Y-65516119D01*
X145157858Y-65649452D02*
X145024524Y-65458976D01*
X144929286Y-65649452D02*
X144929286Y-65249452D01*
X145081667Y-65249452D01*
X145119762Y-65268500D01*
X145138810Y-65287548D01*
X145157858Y-65325643D01*
X145157858Y-65382786D01*
X145138810Y-65420881D01*
X145119762Y-65439929D01*
X145081667Y-65458976D01*
X144929286Y-65458976D01*
X145538810Y-65649452D02*
X145310238Y-65649452D01*
X145424524Y-65649452D02*
X145424524Y-65249452D01*
X145386429Y-65306595D01*
X145348334Y-65344690D01*
X145310238Y-65363738D01*
X145900714Y-65249452D02*
X145710238Y-65249452D01*
X145691190Y-65439929D01*
X145710238Y-65420881D01*
X145748333Y-65401833D01*
X145843571Y-65401833D01*
X145881667Y-65420881D01*
X145900714Y-65439929D01*
X145919762Y-65478024D01*
X145919762Y-65573262D01*
X145900714Y-65611357D01*
X145881667Y-65630405D01*
X145843571Y-65649452D01*
X145748333Y-65649452D01*
X145710238Y-65630405D01*
X145691190Y-65611357D01*
X142046358Y-65776452D02*
X141913024Y-65585976D01*
X141817786Y-65776452D02*
X141817786Y-65376452D01*
X141970167Y-65376452D01*
X142008262Y-65395500D01*
X142027310Y-65414548D01*
X142046358Y-65452643D01*
X142046358Y-65509786D01*
X142027310Y-65547881D01*
X142008262Y-65566929D01*
X141970167Y-65585976D01*
X141817786Y-65585976D01*
X142427310Y-65776452D02*
X142198738Y-65776452D01*
X142313024Y-65776452D02*
X142313024Y-65376452D01*
X142274929Y-65433595D01*
X142236834Y-65471690D01*
X142198738Y-65490738D01*
X142770167Y-65376452D02*
X142693976Y-65376452D01*
X142655881Y-65395500D01*
X142636833Y-65414548D01*
X142598738Y-65471690D01*
X142579690Y-65547881D01*
X142579690Y-65700262D01*
X142598738Y-65738357D01*
X142617786Y-65757405D01*
X142655881Y-65776452D01*
X142732071Y-65776452D01*
X142770167Y-65757405D01*
X142789214Y-65738357D01*
X142808262Y-65700262D01*
X142808262Y-65605024D01*
X142789214Y-65566929D01*
X142770167Y-65547881D01*
X142732071Y-65528833D01*
X142655881Y-65528833D01*
X142617786Y-65547881D01*
X142598738Y-65566929D01*
X142579690Y-65605024D01*
X143633858Y-65712952D02*
X143500524Y-65522476D01*
X143405286Y-65712952D02*
X143405286Y-65312952D01*
X143557667Y-65312952D01*
X143595762Y-65332000D01*
X143614810Y-65351048D01*
X143633858Y-65389143D01*
X143633858Y-65446286D01*
X143614810Y-65484381D01*
X143595762Y-65503429D01*
X143557667Y-65522476D01*
X143405286Y-65522476D01*
X144014810Y-65712952D02*
X143786238Y-65712952D01*
X143900524Y-65712952D02*
X143900524Y-65312952D01*
X143862429Y-65370095D01*
X143824334Y-65408190D01*
X143786238Y-65427238D01*
X144148143Y-65312952D02*
X144414810Y-65312952D01*
X144243381Y-65712952D01*
X147691452Y-68075142D02*
X147500976Y-68208476D01*
X147691452Y-68303714D02*
X147291452Y-68303714D01*
X147291452Y-68151333D01*
X147310500Y-68113238D01*
X147329548Y-68094190D01*
X147367643Y-68075142D01*
X147424786Y-68075142D01*
X147462881Y-68094190D01*
X147481929Y-68113238D01*
X147500976Y-68151333D01*
X147500976Y-68303714D01*
X147691452Y-67694190D02*
X147691452Y-67922762D01*
X147691452Y-67808476D02*
X147291452Y-67808476D01*
X147348595Y-67846571D01*
X147386690Y-67884666D01*
X147405738Y-67922762D01*
X147462881Y-67465619D02*
X147443833Y-67503714D01*
X147424786Y-67522762D01*
X147386690Y-67541810D01*
X147367643Y-67541810D01*
X147329548Y-67522762D01*
X147310500Y-67503714D01*
X147291452Y-67465619D01*
X147291452Y-67389429D01*
X147310500Y-67351333D01*
X147329548Y-67332286D01*
X147367643Y-67313238D01*
X147386690Y-67313238D01*
X147424786Y-67332286D01*
X147443833Y-67351333D01*
X147462881Y-67389429D01*
X147462881Y-67465619D01*
X147481929Y-67503714D01*
X147500976Y-67522762D01*
X147539071Y-67541810D01*
X147615262Y-67541810D01*
X147653357Y-67522762D01*
X147672405Y-67503714D01*
X147691452Y-67465619D01*
X147691452Y-67389429D01*
X147672405Y-67351333D01*
X147653357Y-67332286D01*
X147615262Y-67313238D01*
X147539071Y-67313238D01*
X147500976Y-67332286D01*
X147481929Y-67351333D01*
X147462881Y-67389429D01*
X147691452Y-70043642D02*
X147500976Y-70176976D01*
X147691452Y-70272214D02*
X147291452Y-70272214D01*
X147291452Y-70119833D01*
X147310500Y-70081738D01*
X147329548Y-70062690D01*
X147367643Y-70043642D01*
X147424786Y-70043642D01*
X147462881Y-70062690D01*
X147481929Y-70081738D01*
X147500976Y-70119833D01*
X147500976Y-70272214D01*
X147691452Y-69662690D02*
X147691452Y-69891262D01*
X147691452Y-69776976D02*
X147291452Y-69776976D01*
X147348595Y-69815071D01*
X147386690Y-69853166D01*
X147405738Y-69891262D01*
X147691452Y-69472214D02*
X147691452Y-69396024D01*
X147672405Y-69357929D01*
X147653357Y-69338881D01*
X147596214Y-69300786D01*
X147520024Y-69281738D01*
X147367643Y-69281738D01*
X147329548Y-69300786D01*
X147310500Y-69319833D01*
X147291452Y-69357929D01*
X147291452Y-69434119D01*
X147310500Y-69472214D01*
X147329548Y-69491262D01*
X147367643Y-69510310D01*
X147462881Y-69510310D01*
X147500976Y-69491262D01*
X147520024Y-69472214D01*
X147539071Y-69434119D01*
X147539071Y-69357929D01*
X147520024Y-69319833D01*
X147500976Y-69300786D01*
X147462881Y-69281738D01*
X147691452Y-71948642D02*
X147500976Y-72081976D01*
X147691452Y-72177214D02*
X147291452Y-72177214D01*
X147291452Y-72024833D01*
X147310500Y-71986738D01*
X147329548Y-71967690D01*
X147367643Y-71948642D01*
X147424786Y-71948642D01*
X147462881Y-71967690D01*
X147481929Y-71986738D01*
X147500976Y-72024833D01*
X147500976Y-72177214D01*
X147329548Y-71796262D02*
X147310500Y-71777214D01*
X147291452Y-71739119D01*
X147291452Y-71643881D01*
X147310500Y-71605785D01*
X147329548Y-71586738D01*
X147367643Y-71567690D01*
X147405738Y-71567690D01*
X147462881Y-71586738D01*
X147691452Y-71815309D01*
X147691452Y-71567690D01*
X147291452Y-71320071D02*
X147291452Y-71281976D01*
X147310500Y-71243881D01*
X147329548Y-71224833D01*
X147367643Y-71205786D01*
X147443833Y-71186738D01*
X147539071Y-71186738D01*
X147615262Y-71205786D01*
X147653357Y-71224833D01*
X147672405Y-71243881D01*
X147691452Y-71281976D01*
X147691452Y-71320071D01*
X147672405Y-71358167D01*
X147653357Y-71377214D01*
X147615262Y-71396262D01*
X147539071Y-71415310D01*
X147443833Y-71415310D01*
X147367643Y-71396262D01*
X147329548Y-71377214D01*
X147310500Y-71358167D01*
X147291452Y-71320071D01*
X149221858Y-74793452D02*
X149088524Y-74602976D01*
X148993286Y-74793452D02*
X148993286Y-74393452D01*
X149145667Y-74393452D01*
X149183762Y-74412500D01*
X149202810Y-74431548D01*
X149221858Y-74469643D01*
X149221858Y-74526786D01*
X149202810Y-74564881D01*
X149183762Y-74583929D01*
X149145667Y-74602976D01*
X148993286Y-74602976D01*
X149374238Y-74431548D02*
X149393286Y-74412500D01*
X149431381Y-74393452D01*
X149526619Y-74393452D01*
X149564715Y-74412500D01*
X149583762Y-74431548D01*
X149602810Y-74469643D01*
X149602810Y-74507738D01*
X149583762Y-74564881D01*
X149355191Y-74793452D01*
X149602810Y-74793452D01*
X149983762Y-74793452D02*
X149755190Y-74793452D01*
X149869476Y-74793452D02*
X149869476Y-74393452D01*
X149831381Y-74450595D01*
X149793286Y-74488690D01*
X149755190Y-74507738D01*
X144310167Y-75980905D02*
X144367310Y-75999952D01*
X144462548Y-75999952D01*
X144500644Y-75980905D01*
X144519691Y-75961857D01*
X144538739Y-75923762D01*
X144538739Y-75885667D01*
X144519691Y-75847571D01*
X144500644Y-75828524D01*
X144462548Y-75809476D01*
X144386358Y-75790429D01*
X144348263Y-75771381D01*
X144329215Y-75752333D01*
X144310167Y-75714238D01*
X144310167Y-75676143D01*
X144329215Y-75638048D01*
X144348263Y-75619000D01*
X144386358Y-75599952D01*
X144481596Y-75599952D01*
X144538739Y-75619000D01*
X144672072Y-75599952D02*
X144767310Y-75999952D01*
X144843500Y-75714238D01*
X144919691Y-75999952D01*
X145014929Y-75599952D01*
X145376834Y-75999952D02*
X145148262Y-75999952D01*
X145262548Y-75999952D02*
X145262548Y-75599952D01*
X145224453Y-75657095D01*
X145186358Y-75695190D01*
X145148262Y-75714238D01*
X158191238Y-73377452D02*
X158191238Y-73701262D01*
X158210286Y-73739357D01*
X158229333Y-73758405D01*
X158267429Y-73777452D01*
X158343619Y-73777452D01*
X158381714Y-73758405D01*
X158400762Y-73739357D01*
X158419810Y-73701262D01*
X158419810Y-73377452D01*
X158819810Y-73777452D02*
X158591238Y-73777452D01*
X158705524Y-73777452D02*
X158705524Y-73377452D01*
X158667429Y-73434595D01*
X158629334Y-73472690D01*
X158591238Y-73491738D01*
X162975952Y-78028762D02*
X163299762Y-78028762D01*
X163337857Y-78009714D01*
X163356905Y-77990667D01*
X163375952Y-77952571D01*
X163375952Y-77876381D01*
X163356905Y-77838286D01*
X163337857Y-77819238D01*
X163299762Y-77800190D01*
X162975952Y-77800190D01*
X162975952Y-77647809D02*
X162975952Y-77400190D01*
X163128333Y-77533523D01*
X163128333Y-77476381D01*
X163147381Y-77438285D01*
X163166429Y-77419238D01*
X163204524Y-77400190D01*
X163299762Y-77400190D01*
X163337857Y-77419238D01*
X163356905Y-77438285D01*
X163375952Y-77476381D01*
X163375952Y-77590666D01*
X163356905Y-77628762D01*
X163337857Y-77647809D01*
X143713238Y-69313452D02*
X143713238Y-69637262D01*
X143732286Y-69675357D01*
X143751333Y-69694405D01*
X143789429Y-69713452D01*
X143865619Y-69713452D01*
X143903714Y-69694405D01*
X143922762Y-69675357D01*
X143941810Y-69637262D01*
X143941810Y-69313452D01*
X144322762Y-69313452D02*
X144132286Y-69313452D01*
X144113238Y-69503929D01*
X144132286Y-69484881D01*
X144170381Y-69465833D01*
X144265619Y-69465833D01*
X144303715Y-69484881D01*
X144322762Y-69503929D01*
X144341810Y-69542024D01*
X144341810Y-69637262D01*
X144322762Y-69675357D01*
X144303715Y-69694405D01*
X144265619Y-69713452D01*
X144170381Y-69713452D01*
X144132286Y-69694405D01*
X144113238Y-69675357D01*
M02*
