M48
INCH,TZ
T1C0.016
T2C0.039
T3C0.071
%
G90
G05
T1
X54634Y-27038
X54732Y-30148
X54820Y-30532
X54872Y-27750
X54918Y-29506
X54934Y-25800
X55433Y-26594
X55433Y-27185
X55433Y-28248
X55548Y-29758
X55822Y-27388
X55900Y-26600
X56024Y-25531
X56050Y-26275
X56575Y-30825
X56654Y-25492
X56654Y-26083
X56969Y-29409
X57008Y-30236
X57165Y-27992
X57244Y-26083
X57500Y-27850
X57825Y-26075
X57825Y-30075
X58228Y-29724
X58346Y-27520
X58550Y-28700
X58661Y-25433
X58819Y-29665
X58819Y-30217
X58819Y-30807
X59100Y-26450
X59425Y-28500
X59449Y-30866
X59488Y-27480
X59488Y-28110
X59525Y-28800
X59567Y-27165
X59700Y-26900
X59850Y-26625
X59875Y-26325
X60000Y-28850
X60050Y-28550
X60075Y-27825
X60315Y-28780
X60394Y-26378
X60827Y-26417
X61000Y-28000
X61025Y-28550
X61260Y-28819
X61260Y-30394
X61339Y-26417
X61496Y-27520
X61614Y-28819
X61772Y-27677
X61791Y-25315
X61850Y-28031
X61929Y-26732
X62402Y-29665
X62925Y-26850
X63071Y-26457
X63110Y-28858
X63550Y-26075
X63583Y-25630
X63760Y-29409
X63800Y-30200
X63825Y-28250
X64275Y-28350
X64325Y-26450
X64425Y-28850
X64450Y-28100
X64700Y-27025
X64764Y-30039
X64950Y-28875
X65225Y-26250
X65275Y-27900
X65315Y-29882
X65394Y-28898
X65500Y-25875
X65856Y-30709
X66275Y-26200
X67057Y-30709
X67400Y-26805
X67402Y-28858
X67725Y-28400
X67874Y-30118
X68504Y-30394
X68622Y-25236
X68917Y-29134
X69016Y-25236
X69094Y-25748
X69606Y-25118
X69606Y-26220
X70787Y-26181
X70906Y-26693
X71181Y-25276
X71299Y-30433
X71811Y-25315
X72461Y-25276
X74291Y-24803
X75276Y-25512
X75295Y-24902
X76171Y-25197
X76339Y-30079
X76929Y-26850
X77441Y-25079
T2
X71984Y-27461
X72441Y-29921
X72984Y-27461
X73441Y-29921
X73984Y-27461
X74441Y-29921
X74984Y-27461
X75441Y-29921
X75984Y-27461
T3
X63689Y-27362
X68988Y-27362
T0
M30
