G04 #@! TF.FileFunction,Legend,Bot*
%FSLAX46Y46*%
G04 Gerber Fmt 4.6, Leading zero omitted, Abs format (unit mm)*
G04 Created by KiCad (PCBNEW 4.0.6) date 09/09/17 21:27:57*
%MOMM*%
%LPD*%
G01*
G04 APERTURE LIST*
%ADD10C,0.100000*%
%ADD11C,0.200000*%
%ADD12C,0.150000*%
%ADD13C,0.120000*%
%ADD14C,0.010000*%
%ADD15C,0.080000*%
G04 APERTURE END LIST*
D10*
D11*
X132015238Y-73120210D02*
X131900952Y-73158305D01*
X131710476Y-73158305D01*
X131634286Y-73120210D01*
X131596190Y-73082114D01*
X131558095Y-73005924D01*
X131558095Y-72929733D01*
X131596190Y-72853543D01*
X131634286Y-72815448D01*
X131710476Y-72777352D01*
X131862857Y-72739257D01*
X131939048Y-72701162D01*
X131977143Y-72663067D01*
X132015238Y-72586876D01*
X132015238Y-72510686D01*
X131977143Y-72434495D01*
X131939048Y-72396400D01*
X131862857Y-72358305D01*
X131672381Y-72358305D01*
X131558095Y-72396400D01*
X131215238Y-73082114D02*
X131177143Y-73120210D01*
X131215238Y-73158305D01*
X131253333Y-73120210D01*
X131215238Y-73082114D01*
X131215238Y-73158305D01*
X130224762Y-73158305D02*
X130224762Y-72358305D01*
X130224762Y-72739257D02*
X129767619Y-72739257D01*
X129767619Y-73158305D02*
X129767619Y-72358305D01*
X129234286Y-72358305D02*
X129081905Y-72358305D01*
X129005714Y-72396400D01*
X128929524Y-72472590D01*
X128891429Y-72624971D01*
X128891429Y-72891638D01*
X128929524Y-73044019D01*
X129005714Y-73120210D01*
X129081905Y-73158305D01*
X129234286Y-73158305D01*
X129310476Y-73120210D01*
X129386667Y-73044019D01*
X129424762Y-72891638D01*
X129424762Y-72624971D01*
X129386667Y-72472590D01*
X129310476Y-72396400D01*
X129234286Y-72358305D01*
X128167619Y-73158305D02*
X128548572Y-73158305D01*
X128548572Y-72358305D01*
X127977143Y-72358305D02*
X127443810Y-72358305D01*
X127977143Y-73158305D01*
X127443810Y-73158305D01*
X127177143Y-72929733D02*
X126796191Y-72929733D01*
X127253334Y-73158305D02*
X126986667Y-72358305D01*
X126720000Y-73158305D01*
X126453334Y-73158305D02*
X126453334Y-72358305D01*
X126148572Y-72358305D01*
X126072381Y-72396400D01*
X126034286Y-72434495D01*
X125996191Y-72510686D01*
X125996191Y-72624971D01*
X126034286Y-72701162D01*
X126072381Y-72739257D01*
X126148572Y-72777352D01*
X126453334Y-72777352D01*
X125386667Y-72739257D02*
X125653334Y-72739257D01*
X125653334Y-73158305D02*
X125653334Y-72358305D01*
X125272381Y-72358305D01*
X124967620Y-72739257D02*
X124700953Y-72739257D01*
X124586667Y-73158305D02*
X124967620Y-73158305D01*
X124967620Y-72358305D01*
X124586667Y-72358305D01*
X123862857Y-73158305D02*
X124243810Y-73158305D01*
X124243810Y-72358305D01*
X123558096Y-73120210D02*
X123558096Y-73158305D01*
X123596191Y-73234495D01*
X123634286Y-73272590D01*
X122377143Y-72358305D02*
X122377143Y-72929733D01*
X122415239Y-73044019D01*
X122491429Y-73120210D01*
X122605715Y-73158305D01*
X122681905Y-73158305D01*
X121996191Y-73082114D02*
X121958096Y-73120210D01*
X121996191Y-73158305D01*
X122034286Y-73120210D01*
X121996191Y-73082114D01*
X121996191Y-73158305D01*
X121081905Y-72358305D02*
X120891429Y-73158305D01*
X120739048Y-72586876D01*
X120586667Y-73158305D01*
X120396191Y-72358305D01*
X120091429Y-73158305D02*
X120091429Y-72358305D01*
X119710477Y-73158305D02*
X119710477Y-72358305D01*
X119253334Y-73158305D01*
X119253334Y-72358305D01*
X118872382Y-73158305D02*
X118872382Y-72358305D01*
X118681906Y-72358305D01*
X118567620Y-72396400D01*
X118491429Y-72472590D01*
X118453334Y-72548781D01*
X118415239Y-72701162D01*
X118415239Y-72815448D01*
X118453334Y-72967829D01*
X118491429Y-73044019D01*
X118567620Y-73120210D01*
X118681906Y-73158305D01*
X118872382Y-73158305D01*
X118072382Y-72739257D02*
X117805715Y-72739257D01*
X117691429Y-73158305D02*
X118072382Y-73158305D01*
X118072382Y-72358305D01*
X117691429Y-72358305D01*
X117196191Y-72777352D02*
X117196191Y-73158305D01*
X117462858Y-72358305D02*
X117196191Y-72777352D01*
X116929524Y-72358305D01*
X116662858Y-72739257D02*
X116396191Y-72739257D01*
X116281905Y-73158305D02*
X116662858Y-73158305D01*
X116662858Y-72358305D01*
X116281905Y-72358305D01*
X115481905Y-73158305D02*
X115748572Y-72777352D01*
X115939048Y-73158305D02*
X115939048Y-72358305D01*
X115634286Y-72358305D01*
X115558095Y-72396400D01*
X115520000Y-72434495D01*
X115481905Y-72510686D01*
X115481905Y-72624971D01*
X115520000Y-72701162D01*
X115558095Y-72739257D01*
X115634286Y-72777352D01*
X115939048Y-72777352D01*
X114567619Y-72434495D02*
X114529524Y-72396400D01*
X114453333Y-72358305D01*
X114262857Y-72358305D01*
X114186667Y-72396400D01*
X114148571Y-72434495D01*
X114110476Y-72510686D01*
X114110476Y-72586876D01*
X114148571Y-72701162D01*
X114605714Y-73158305D01*
X114110476Y-73158305D01*
X113615238Y-72358305D02*
X113539047Y-72358305D01*
X113462857Y-72396400D01*
X113424762Y-72434495D01*
X113386666Y-72510686D01*
X113348571Y-72663067D01*
X113348571Y-72853543D01*
X113386666Y-73005924D01*
X113424762Y-73082114D01*
X113462857Y-73120210D01*
X113539047Y-73158305D01*
X113615238Y-73158305D01*
X113691428Y-73120210D01*
X113729524Y-73082114D01*
X113767619Y-73005924D01*
X113805714Y-72853543D01*
X113805714Y-72663067D01*
X113767619Y-72510686D01*
X113729524Y-72434495D01*
X113691428Y-72396400D01*
X113615238Y-72358305D01*
X112586666Y-73158305D02*
X113043809Y-73158305D01*
X112815238Y-73158305D02*
X112815238Y-72358305D01*
X112891428Y-72472590D01*
X112967619Y-72548781D01*
X113043809Y-72586876D01*
X112319999Y-72358305D02*
X111786666Y-72358305D01*
X112129523Y-73158305D01*
D12*
X127666038Y-71289829D02*
X127932705Y-71004114D01*
X128123181Y-71289829D02*
X128123181Y-70689829D01*
X127818419Y-70689829D01*
X127742228Y-70718400D01*
X127704133Y-70746971D01*
X127666038Y-70804114D01*
X127666038Y-70889829D01*
X127704133Y-70946971D01*
X127742228Y-70975543D01*
X127818419Y-71004114D01*
X128123181Y-71004114D01*
X127018419Y-71261257D02*
X127094609Y-71289829D01*
X127246990Y-71289829D01*
X127323181Y-71261257D01*
X127361276Y-71204114D01*
X127361276Y-70975543D01*
X127323181Y-70918400D01*
X127246990Y-70889829D01*
X127094609Y-70889829D01*
X127018419Y-70918400D01*
X126980324Y-70975543D01*
X126980324Y-71032686D01*
X127361276Y-71089829D01*
X126713657Y-70889829D02*
X126523181Y-71289829D01*
X126332705Y-70889829D01*
X126027943Y-71232686D02*
X125989848Y-71261257D01*
X126027943Y-71289829D01*
X126066038Y-71261257D01*
X126027943Y-71232686D01*
X126027943Y-71289829D01*
X124618419Y-71289829D02*
X125075562Y-71289829D01*
X124846991Y-71289829D02*
X124846991Y-70689829D01*
X124923181Y-70775543D01*
X124999372Y-70832686D01*
X125075562Y-70861257D01*
X124313657Y-71118400D02*
X123932705Y-71118400D01*
X124389848Y-71289829D02*
X124123181Y-70689829D01*
X123856514Y-71289829D01*
X122751752Y-71518400D02*
X122789848Y-71489829D01*
X122866038Y-71404114D01*
X122904133Y-71346971D01*
X122942229Y-71261257D01*
X122980324Y-71118400D01*
X122980324Y-71004114D01*
X122942229Y-70861257D01*
X122904133Y-70775543D01*
X122866038Y-70718400D01*
X122789848Y-70632686D01*
X122751752Y-70604114D01*
X122446991Y-71289829D02*
X122446991Y-70689829D01*
X122256515Y-70689829D01*
X122142229Y-70718400D01*
X122066038Y-70775543D01*
X122027943Y-70832686D01*
X121989848Y-70946971D01*
X121989848Y-71032686D01*
X122027943Y-71146971D01*
X122066038Y-71204114D01*
X122142229Y-71261257D01*
X122256515Y-71289829D01*
X122446991Y-71289829D01*
X121646991Y-71289829D02*
X121646991Y-70889829D01*
X121646991Y-70689829D02*
X121685086Y-70718400D01*
X121646991Y-70746971D01*
X121608896Y-70718400D01*
X121646991Y-70689829D01*
X121646991Y-70746971D01*
X121266039Y-71289829D02*
X121266039Y-70889829D01*
X121266039Y-71004114D02*
X121227944Y-70946971D01*
X121189848Y-70918400D01*
X121113658Y-70889829D01*
X121037467Y-70889829D01*
X120466039Y-71261257D02*
X120542229Y-71289829D01*
X120694610Y-71289829D01*
X120770801Y-71261257D01*
X120808896Y-71204114D01*
X120808896Y-70975543D01*
X120770801Y-70918400D01*
X120694610Y-70889829D01*
X120542229Y-70889829D01*
X120466039Y-70918400D01*
X120427944Y-70975543D01*
X120427944Y-71032686D01*
X120808896Y-71089829D01*
X119742230Y-71261257D02*
X119818420Y-71289829D01*
X119970801Y-71289829D01*
X120046992Y-71261257D01*
X120085087Y-71232686D01*
X120123182Y-71175543D01*
X120123182Y-71004114D01*
X120085087Y-70946971D01*
X120046992Y-70918400D01*
X119970801Y-70889829D01*
X119818420Y-70889829D01*
X119742230Y-70918400D01*
X119513659Y-70889829D02*
X119208897Y-70889829D01*
X119399373Y-70689829D02*
X119399373Y-71204114D01*
X119361278Y-71261257D01*
X119285087Y-71289829D01*
X119208897Y-71289829D01*
X118942230Y-71289829D02*
X118942230Y-70889829D01*
X118942230Y-70689829D02*
X118980325Y-70718400D01*
X118942230Y-70746971D01*
X118904135Y-70718400D01*
X118942230Y-70689829D01*
X118942230Y-70746971D01*
X118446992Y-71289829D02*
X118523183Y-71261257D01*
X118561278Y-71232686D01*
X118599373Y-71175543D01*
X118599373Y-71004114D01*
X118561278Y-70946971D01*
X118523183Y-70918400D01*
X118446992Y-70889829D01*
X118332706Y-70889829D01*
X118256516Y-70918400D01*
X118218421Y-70946971D01*
X118180325Y-71004114D01*
X118180325Y-71175543D01*
X118218421Y-71232686D01*
X118256516Y-71261257D01*
X118332706Y-71289829D01*
X118446992Y-71289829D01*
X117837468Y-70889829D02*
X117837468Y-71289829D01*
X117837468Y-70946971D02*
X117799373Y-70918400D01*
X117723182Y-70889829D01*
X117608896Y-70889829D01*
X117532706Y-70918400D01*
X117494611Y-70975543D01*
X117494611Y-71289829D01*
X116770801Y-71289829D02*
X116770801Y-70975543D01*
X116808896Y-70918400D01*
X116885086Y-70889829D01*
X117037467Y-70889829D01*
X117113658Y-70918400D01*
X116770801Y-71261257D02*
X116846991Y-71289829D01*
X117037467Y-71289829D01*
X117113658Y-71261257D01*
X117151753Y-71204114D01*
X117151753Y-71146971D01*
X117113658Y-71089829D01*
X117037467Y-71061257D01*
X116846991Y-71061257D01*
X116770801Y-71032686D01*
X116275562Y-71289829D02*
X116351753Y-71261257D01*
X116389848Y-71204114D01*
X116389848Y-70689829D01*
X116046990Y-71518400D02*
X116008895Y-71489829D01*
X115932705Y-71404114D01*
X115894609Y-71346971D01*
X115856514Y-71261257D01*
X115818419Y-71118400D01*
X115818419Y-71004114D01*
X115856514Y-70861257D01*
X115894609Y-70775543D01*
X115932705Y-70718400D01*
X116008895Y-70632686D01*
X116046990Y-70604114D01*
D11*
X130793009Y-69729314D02*
X130873961Y-69767410D01*
X131107295Y-69805505D01*
X131259676Y-69805505D01*
X131483485Y-69767410D01*
X131626342Y-69691219D01*
X131693010Y-69615029D01*
X131750152Y-69462648D01*
X131735866Y-69348362D01*
X131640629Y-69195981D01*
X131554914Y-69119790D01*
X131393009Y-69043600D01*
X131159676Y-69005505D01*
X131007295Y-69005505D01*
X130783485Y-69043600D01*
X130712057Y-69081695D01*
X129364437Y-69272171D02*
X129431104Y-69805505D01*
X130050152Y-69272171D02*
X130102533Y-69691219D01*
X130035866Y-69767410D01*
X129888247Y-69805505D01*
X129659676Y-69805505D01*
X129502533Y-69767410D01*
X129421580Y-69729314D01*
X128831104Y-69272171D02*
X128221580Y-69272171D01*
X128569200Y-69005505D02*
X128654914Y-69691219D01*
X128588247Y-69767410D01*
X128440628Y-69805505D01*
X128288247Y-69805505D01*
X127526342Y-69805505D02*
X127673961Y-69767410D01*
X127740628Y-69691219D01*
X127654914Y-69005505D01*
X126302533Y-69767410D02*
X126459676Y-69805505D01*
X126764438Y-69805505D01*
X126912057Y-69767410D01*
X126978723Y-69691219D01*
X126940628Y-69386457D01*
X126854914Y-69310267D01*
X126697771Y-69272171D01*
X126393009Y-69272171D01*
X126245390Y-69310267D01*
X126178723Y-69386457D01*
X126188247Y-69462648D01*
X126959676Y-69538838D01*
X125545390Y-69805505D02*
X125478723Y-69272171D01*
X125497771Y-69424552D02*
X125412056Y-69348362D01*
X125331104Y-69310267D01*
X125173961Y-69272171D01*
X125021580Y-69272171D01*
X124640628Y-69272171D02*
X124326342Y-69805505D01*
X123878723Y-69272171D02*
X124326342Y-69805505D01*
X124502533Y-69995981D01*
X124583486Y-70034076D01*
X124740628Y-70072171D01*
X122412056Y-69729314D02*
X122493008Y-69767410D01*
X122726342Y-69805505D01*
X122878723Y-69805505D01*
X123102532Y-69767410D01*
X123245389Y-69691219D01*
X123312057Y-69615029D01*
X123369199Y-69462648D01*
X123354913Y-69348362D01*
X123259676Y-69195981D01*
X123173961Y-69119790D01*
X123012056Y-69043600D01*
X122778723Y-69005505D01*
X122626342Y-69005505D01*
X122402532Y-69043600D01*
X122331104Y-69081695D01*
X121507294Y-69805505D02*
X121654913Y-69767410D01*
X121726342Y-69729314D01*
X121793008Y-69653124D01*
X121764437Y-69424552D01*
X121678723Y-69348362D01*
X121597770Y-69310267D01*
X121440627Y-69272171D01*
X121212056Y-69272171D01*
X121064437Y-69310267D01*
X120993008Y-69348362D01*
X120926342Y-69424552D01*
X120954913Y-69653124D01*
X121040627Y-69729314D01*
X121121580Y-69767410D01*
X121278723Y-69805505D01*
X121507294Y-69805505D01*
X120221580Y-69272171D02*
X120288247Y-69805505D01*
X120231104Y-69348362D02*
X120150151Y-69310267D01*
X119993008Y-69272171D01*
X119764437Y-69272171D01*
X119616818Y-69310267D01*
X119550151Y-69386457D01*
X119602532Y-69805505D01*
X119002532Y-69272171D02*
X118393008Y-69272171D01*
X118740628Y-69005505D02*
X118826342Y-69691219D01*
X118759675Y-69767410D01*
X118612056Y-69805505D01*
X118459675Y-69805505D01*
X117926342Y-69805505D02*
X117859675Y-69272171D01*
X117878723Y-69424552D02*
X117793008Y-69348362D01*
X117712056Y-69310267D01*
X117554913Y-69272171D01*
X117402532Y-69272171D01*
X116707294Y-69805505D02*
X116854913Y-69767410D01*
X116926342Y-69729314D01*
X116993008Y-69653124D01*
X116964437Y-69424552D01*
X116878723Y-69348362D01*
X116797770Y-69310267D01*
X116640627Y-69272171D01*
X116412056Y-69272171D01*
X116264437Y-69310267D01*
X116193008Y-69348362D01*
X116126342Y-69424552D01*
X116154913Y-69653124D01*
X116240627Y-69729314D01*
X116321580Y-69767410D01*
X116478723Y-69805505D01*
X116707294Y-69805505D01*
X115259675Y-69805505D02*
X115407294Y-69767410D01*
X115473961Y-69691219D01*
X115388247Y-69005505D01*
X114421580Y-69805505D02*
X114569199Y-69767410D01*
X114635866Y-69691219D01*
X114550152Y-69005505D01*
X113197771Y-69767410D02*
X113354914Y-69805505D01*
X113659676Y-69805505D01*
X113807295Y-69767410D01*
X113873961Y-69691219D01*
X113835866Y-69386457D01*
X113750152Y-69310267D01*
X113593009Y-69272171D01*
X113288247Y-69272171D01*
X113140628Y-69310267D01*
X113073961Y-69386457D01*
X113083485Y-69462648D01*
X113854914Y-69538838D01*
X112440628Y-69805505D02*
X112373961Y-69272171D01*
X112393009Y-69424552D02*
X112307294Y-69348362D01*
X112226342Y-69310267D01*
X112069199Y-69272171D01*
X111916818Y-69272171D01*
D13*
X166400000Y-69650000D02*
X166400000Y-68950000D01*
X165200000Y-68950000D02*
X165200000Y-69650000D01*
X170596000Y-68674500D02*
X170596000Y-69374500D01*
X171796000Y-69374500D02*
X171796000Y-68674500D01*
X181510000Y-71080000D02*
X181510000Y-68420000D01*
X191730000Y-71080000D02*
X181510000Y-71080000D01*
X191730000Y-68420000D02*
X181510000Y-68420000D01*
X191730000Y-71080000D02*
X191730000Y-68420000D01*
X193000000Y-71080000D02*
X194330000Y-71080000D01*
X194330000Y-71080000D02*
X194330000Y-69750000D01*
X192950000Y-74670000D02*
X192950000Y-77330000D01*
X185270000Y-74670000D02*
X192950000Y-74670000D01*
X185270000Y-77330000D02*
X192950000Y-77330000D01*
X185270000Y-74670000D02*
X185270000Y-77330000D01*
X184000000Y-74670000D02*
X182670000Y-74670000D01*
X182670000Y-74670000D02*
X182670000Y-76000000D01*
X190250000Y-72070000D02*
X189250000Y-72070000D01*
X189250000Y-73430000D02*
X190250000Y-73430000D01*
X185000000Y-72070000D02*
X184000000Y-72070000D01*
X184000000Y-73430000D02*
X185000000Y-73430000D01*
X168200000Y-72980000D02*
X169200000Y-72980000D01*
X169200000Y-71620000D02*
X168200000Y-71620000D01*
X168500000Y-67380000D02*
X169500000Y-67380000D01*
X169500000Y-66020000D02*
X168500000Y-66020000D01*
X165900000Y-67380000D02*
X166900000Y-67380000D01*
X166900000Y-66020000D02*
X165900000Y-66020000D01*
D12*
X170100000Y-67900000D02*
X169700000Y-67900000D01*
X170100000Y-67900000D02*
X170100000Y-68300000D01*
X170100000Y-71100000D02*
X169700000Y-71100000D01*
X170100000Y-71100000D02*
X170100000Y-70700000D01*
X166900000Y-71100000D02*
X167300000Y-71100000D01*
X166900000Y-71100000D02*
X166900000Y-70700000D01*
X166900000Y-67900000D02*
X166900000Y-68300000D01*
D14*
G36*
X109619999Y-72467264D02*
X109593487Y-72480362D01*
X109560793Y-72503186D01*
X109536965Y-72528076D01*
X109520646Y-72559329D01*
X109510480Y-72601246D01*
X109505112Y-72658124D01*
X109503184Y-72734264D01*
X109503071Y-72766997D01*
X109503401Y-72838736D01*
X109504767Y-72890007D01*
X109507740Y-72925484D01*
X109512889Y-72949843D01*
X109520783Y-72967760D01*
X109528997Y-72979982D01*
X109581427Y-73031985D01*
X109643170Y-73063264D01*
X109709776Y-73072672D01*
X109776798Y-73059060D01*
X109798032Y-73049434D01*
X109848864Y-73022939D01*
X109848864Y-73438132D01*
X109811765Y-73418948D01*
X109762883Y-73404105D01*
X109702801Y-73400302D01*
X109642804Y-73407323D01*
X109597496Y-73423093D01*
X109559915Y-73453127D01*
X109527804Y-73496104D01*
X109525390Y-73500516D01*
X109515207Y-73521301D01*
X109507770Y-73542250D01*
X109502651Y-73567628D01*
X109499421Y-73601698D01*
X109497653Y-73648721D01*
X109496917Y-73712962D01*
X109496784Y-73785256D01*
X109496784Y-74015902D01*
X109635101Y-74015902D01*
X109635101Y-73590613D01*
X109673789Y-73558059D01*
X109713978Y-73532020D01*
X109752037Y-73527285D01*
X109790306Y-73539469D01*
X109810702Y-73551400D01*
X109825882Y-73568393D01*
X109836678Y-73594075D01*
X109843923Y-73632071D01*
X109848448Y-73686006D01*
X109851084Y-73759505D01*
X109852012Y-73808427D01*
X109855151Y-74009615D01*
X109921166Y-74013416D01*
X109987180Y-74017216D01*
X109987180Y-72768730D01*
X109848864Y-72768730D01*
X109845337Y-72838334D01*
X109833455Y-72886649D01*
X109811260Y-72916711D01*
X109776799Y-72931551D01*
X109741982Y-72934516D01*
X109702569Y-72931108D01*
X109676411Y-72917697D01*
X109660054Y-72899976D01*
X109647177Y-72880915D01*
X109639512Y-72859681D01*
X109636101Y-72829929D01*
X109635989Y-72785316D01*
X109637137Y-72747960D01*
X109639772Y-72691684D01*
X109643696Y-72654738D01*
X109650303Y-72631303D01*
X109660989Y-72615560D01*
X109671073Y-72606460D01*
X109713210Y-72586617D01*
X109763080Y-72583412D01*
X109791716Y-72590248D01*
X109820068Y-72614544D01*
X109838849Y-72661808D01*
X109847952Y-72731704D01*
X109848864Y-72768730D01*
X109987180Y-72768730D01*
X109987180Y-72456694D01*
X109918022Y-72456694D01*
X109876500Y-72458336D01*
X109855078Y-72464167D01*
X109848866Y-72475541D01*
X109848864Y-72475878D01*
X109845982Y-72487018D01*
X109833270Y-72485753D01*
X109807997Y-72473513D01*
X109749109Y-72454787D01*
X109682855Y-72452819D01*
X109619999Y-72467264D01*
X109619999Y-72467264D01*
G37*
X109619999Y-72467264D02*
X109593487Y-72480362D01*
X109560793Y-72503186D01*
X109536965Y-72528076D01*
X109520646Y-72559329D01*
X109510480Y-72601246D01*
X109505112Y-72658124D01*
X109503184Y-72734264D01*
X109503071Y-72766997D01*
X109503401Y-72838736D01*
X109504767Y-72890007D01*
X109507740Y-72925484D01*
X109512889Y-72949843D01*
X109520783Y-72967760D01*
X109528997Y-72979982D01*
X109581427Y-73031985D01*
X109643170Y-73063264D01*
X109709776Y-73072672D01*
X109776798Y-73059060D01*
X109798032Y-73049434D01*
X109848864Y-73022939D01*
X109848864Y-73438132D01*
X109811765Y-73418948D01*
X109762883Y-73404105D01*
X109702801Y-73400302D01*
X109642804Y-73407323D01*
X109597496Y-73423093D01*
X109559915Y-73453127D01*
X109527804Y-73496104D01*
X109525390Y-73500516D01*
X109515207Y-73521301D01*
X109507770Y-73542250D01*
X109502651Y-73567628D01*
X109499421Y-73601698D01*
X109497653Y-73648721D01*
X109496917Y-73712962D01*
X109496784Y-73785256D01*
X109496784Y-74015902D01*
X109635101Y-74015902D01*
X109635101Y-73590613D01*
X109673789Y-73558059D01*
X109713978Y-73532020D01*
X109752037Y-73527285D01*
X109790306Y-73539469D01*
X109810702Y-73551400D01*
X109825882Y-73568393D01*
X109836678Y-73594075D01*
X109843923Y-73632071D01*
X109848448Y-73686006D01*
X109851084Y-73759505D01*
X109852012Y-73808427D01*
X109855151Y-74009615D01*
X109921166Y-74013416D01*
X109987180Y-74017216D01*
X109987180Y-72768730D01*
X109848864Y-72768730D01*
X109845337Y-72838334D01*
X109833455Y-72886649D01*
X109811260Y-72916711D01*
X109776799Y-72931551D01*
X109741982Y-72934516D01*
X109702569Y-72931108D01*
X109676411Y-72917697D01*
X109660054Y-72899976D01*
X109647177Y-72880915D01*
X109639512Y-72859681D01*
X109636101Y-72829929D01*
X109635989Y-72785316D01*
X109637137Y-72747960D01*
X109639772Y-72691684D01*
X109643696Y-72654738D01*
X109650303Y-72631303D01*
X109660989Y-72615560D01*
X109671073Y-72606460D01*
X109713210Y-72586617D01*
X109763080Y-72583412D01*
X109791716Y-72590248D01*
X109820068Y-72614544D01*
X109838849Y-72661808D01*
X109847952Y-72731704D01*
X109848864Y-72768730D01*
X109987180Y-72768730D01*
X109987180Y-72456694D01*
X109918022Y-72456694D01*
X109876500Y-72458336D01*
X109855078Y-72464167D01*
X109848866Y-72475541D01*
X109848864Y-72475878D01*
X109845982Y-72487018D01*
X109833270Y-72485753D01*
X109807997Y-72473513D01*
X109749109Y-72454787D01*
X109682855Y-72452819D01*
X109619999Y-72467264D01*
G36*
X109095450Y-73404635D02*
X109036295Y-73420419D01*
X108991263Y-73449028D01*
X108959486Y-73486499D01*
X108949606Y-73502491D01*
X108942313Y-73519243D01*
X108937214Y-73540672D01*
X108933919Y-73570696D01*
X108932037Y-73613234D01*
X108931177Y-73672202D01*
X108930947Y-73751520D01*
X108930943Y-73772564D01*
X108930943Y-74015902D01*
X108991299Y-74015902D01*
X109029797Y-74013206D01*
X109058263Y-74006375D01*
X109065395Y-74002163D01*
X109084892Y-73994893D01*
X109104806Y-74002163D01*
X109137593Y-74011240D01*
X109185218Y-74014893D01*
X109238004Y-74013308D01*
X109286276Y-74006669D01*
X109314458Y-73998152D01*
X109368993Y-73963143D01*
X109403075Y-73914559D01*
X109418397Y-73849962D01*
X109418539Y-73848303D01*
X109417195Y-73819646D01*
X109295596Y-73819646D01*
X109284966Y-73852241D01*
X109267650Y-73870585D01*
X109232892Y-73884459D01*
X109187013Y-73889997D01*
X109140228Y-73887271D01*
X109102754Y-73876354D01*
X109092255Y-73869349D01*
X109073908Y-73836984D01*
X109069260Y-73800191D01*
X109069260Y-73751843D01*
X109138822Y-73751843D01*
X109204907Y-73756930D01*
X109255004Y-73771343D01*
X109286169Y-73793809D01*
X109295596Y-73819646D01*
X109417195Y-73819646D01*
X109415227Y-73777727D01*
X109391950Y-73721925D01*
X109348188Y-73679727D01*
X109342139Y-73675888D01*
X109316147Y-73663389D01*
X109283975Y-73655820D01*
X109239000Y-73652141D01*
X109185571Y-73651296D01*
X109069260Y-73651249D01*
X109069260Y-73602491D01*
X109074193Y-73564661D01*
X109086783Y-73539316D01*
X109088257Y-73537967D01*
X109116274Y-73526880D01*
X109158566Y-73522583D01*
X109205304Y-73524695D01*
X109246658Y-73532836D01*
X109271197Y-73545045D01*
X109284493Y-73554826D01*
X109298534Y-73556693D01*
X109317911Y-73548680D01*
X109347216Y-73528819D01*
X109391043Y-73495143D01*
X109395065Y-73491989D01*
X109393004Y-73480316D01*
X109375808Y-73460902D01*
X109349673Y-73439328D01*
X109320792Y-73421176D01*
X109311718Y-73416889D01*
X109278620Y-73408336D01*
X109230120Y-73402235D01*
X109175935Y-73399788D01*
X109173401Y-73399783D01*
X109095450Y-73404635D01*
X109095450Y-73404635D01*
G37*
X109095450Y-73404635D02*
X109036295Y-73420419D01*
X108991263Y-73449028D01*
X108959486Y-73486499D01*
X108949606Y-73502491D01*
X108942313Y-73519243D01*
X108937214Y-73540672D01*
X108933919Y-73570696D01*
X108932037Y-73613234D01*
X108931177Y-73672202D01*
X108930947Y-73751520D01*
X108930943Y-73772564D01*
X108930943Y-74015902D01*
X108991299Y-74015902D01*
X109029797Y-74013206D01*
X109058263Y-74006375D01*
X109065395Y-74002163D01*
X109084892Y-73994893D01*
X109104806Y-74002163D01*
X109137593Y-74011240D01*
X109185218Y-74014893D01*
X109238004Y-74013308D01*
X109286276Y-74006669D01*
X109314458Y-73998152D01*
X109368993Y-73963143D01*
X109403075Y-73914559D01*
X109418397Y-73849962D01*
X109418539Y-73848303D01*
X109417195Y-73819646D01*
X109295596Y-73819646D01*
X109284966Y-73852241D01*
X109267650Y-73870585D01*
X109232892Y-73884459D01*
X109187013Y-73889997D01*
X109140228Y-73887271D01*
X109102754Y-73876354D01*
X109092255Y-73869349D01*
X109073908Y-73836984D01*
X109069260Y-73800191D01*
X109069260Y-73751843D01*
X109138822Y-73751843D01*
X109204907Y-73756930D01*
X109255004Y-73771343D01*
X109286169Y-73793809D01*
X109295596Y-73819646D01*
X109417195Y-73819646D01*
X109415227Y-73777727D01*
X109391950Y-73721925D01*
X109348188Y-73679727D01*
X109342139Y-73675888D01*
X109316147Y-73663389D01*
X109283975Y-73655820D01*
X109239000Y-73652141D01*
X109185571Y-73651296D01*
X109069260Y-73651249D01*
X109069260Y-73602491D01*
X109074193Y-73564661D01*
X109086783Y-73539316D01*
X109088257Y-73537967D01*
X109116274Y-73526880D01*
X109158566Y-73522583D01*
X109205304Y-73524695D01*
X109246658Y-73532836D01*
X109271197Y-73545045D01*
X109284493Y-73554826D01*
X109298534Y-73556693D01*
X109317911Y-73548680D01*
X109347216Y-73528819D01*
X109391043Y-73495143D01*
X109395065Y-73491989D01*
X109393004Y-73480316D01*
X109375808Y-73460902D01*
X109349673Y-73439328D01*
X109320792Y-73421176D01*
X109311718Y-73416889D01*
X109278620Y-73408336D01*
X109230120Y-73402235D01*
X109175935Y-73399788D01*
X109173401Y-73399783D01*
X109095450Y-73404635D01*
G36*
X108704596Y-73401100D02*
X108685779Y-73406740D01*
X108679713Y-73419133D01*
X108679458Y-73424727D01*
X108678369Y-73440310D01*
X108670872Y-73442756D01*
X108650621Y-73432073D01*
X108638591Y-73424774D01*
X108600640Y-73409143D01*
X108555312Y-73401414D01*
X108507784Y-73400820D01*
X108463235Y-73406593D01*
X108426842Y-73417964D01*
X108403783Y-73434168D01*
X108399236Y-73454435D01*
X108401531Y-73459923D01*
X108418260Y-73482706D01*
X108444203Y-73510727D01*
X108448895Y-73515257D01*
X108473623Y-73536085D01*
X108494958Y-73542815D01*
X108524795Y-73538118D01*
X108536748Y-73534997D01*
X108573945Y-73527501D01*
X108600099Y-73530872D01*
X108622186Y-73542761D01*
X108642418Y-73558715D01*
X108657319Y-73578780D01*
X108667674Y-73606782D01*
X108674269Y-73646547D01*
X108677889Y-73701903D01*
X108679318Y-73776674D01*
X108679458Y-73821820D01*
X108679458Y-74015902D01*
X108805200Y-74015902D01*
X108805200Y-73399763D01*
X108742329Y-73399763D01*
X108704596Y-73401100D01*
X108704596Y-73401100D01*
G37*
X108704596Y-73401100D02*
X108685779Y-73406740D01*
X108679713Y-73419133D01*
X108679458Y-73424727D01*
X108678369Y-73440310D01*
X108670872Y-73442756D01*
X108650621Y-73432073D01*
X108638591Y-73424774D01*
X108600640Y-73409143D01*
X108555312Y-73401414D01*
X108507784Y-73400820D01*
X108463235Y-73406593D01*
X108426842Y-73417964D01*
X108403783Y-73434168D01*
X108399236Y-73454435D01*
X108401531Y-73459923D01*
X108418260Y-73482706D01*
X108444203Y-73510727D01*
X108448895Y-73515257D01*
X108473623Y-73536085D01*
X108494958Y-73542815D01*
X108524795Y-73538118D01*
X108536748Y-73534997D01*
X108573945Y-73527501D01*
X108600099Y-73530872D01*
X108622186Y-73542761D01*
X108642418Y-73558715D01*
X108657319Y-73578780D01*
X108667674Y-73606782D01*
X108674269Y-73646547D01*
X108677889Y-73701903D01*
X108679318Y-73776674D01*
X108679458Y-73821820D01*
X108679458Y-74015902D01*
X108805200Y-74015902D01*
X108805200Y-73399763D01*
X108742329Y-73399763D01*
X108704596Y-73401100D01*
G36*
X107912428Y-74015902D02*
X107981586Y-74015902D01*
X108021728Y-74014725D01*
X108042634Y-74009852D01*
X108050162Y-73999266D01*
X108050745Y-73992109D01*
X108052014Y-73977756D01*
X108060019Y-73975003D01*
X108081055Y-73983851D01*
X108097413Y-73992109D01*
X108160217Y-74011677D01*
X108228488Y-74012809D01*
X108283992Y-73998215D01*
X108335678Y-73962957D01*
X108375078Y-73910915D01*
X108396653Y-73849530D01*
X108397202Y-73846098D01*
X108400407Y-73808651D01*
X108402001Y-73754893D01*
X108401873Y-73714235D01*
X108264519Y-73714235D01*
X108261337Y-73768274D01*
X108254099Y-73812815D01*
X108244300Y-73837968D01*
X108207229Y-73872340D01*
X108163214Y-73884662D01*
X108117824Y-73874698D01*
X108079037Y-73844975D01*
X108064348Y-73824985D01*
X108055759Y-73801130D01*
X108051736Y-73766310D01*
X108050745Y-73714010D01*
X108052518Y-73662219D01*
X108057203Y-73616714D01*
X108063843Y-73586261D01*
X108064950Y-73583532D01*
X108091731Y-73551080D01*
X108130819Y-73533263D01*
X108174555Y-73530386D01*
X108215278Y-73542754D01*
X108245327Y-73570673D01*
X108248444Y-73576228D01*
X108258201Y-73610102D01*
X108263517Y-73658808D01*
X108264519Y-73714235D01*
X108401873Y-73714235D01*
X108401808Y-73693620D01*
X108400904Y-73660643D01*
X108394754Y-73579061D01*
X108381973Y-73517810D01*
X108360711Y-73472529D01*
X108329118Y-73438859D01*
X108298447Y-73419094D01*
X108255594Y-73405200D01*
X108202296Y-73400434D01*
X108147720Y-73404316D01*
X108101032Y-73416362D01*
X108076364Y-73430773D01*
X108050745Y-73453958D01*
X108050745Y-73160853D01*
X107912428Y-73160853D01*
X107912428Y-74015902D01*
X107912428Y-74015902D01*
G37*
X107912428Y-74015902D02*
X107981586Y-74015902D01*
X108021728Y-74014725D01*
X108042634Y-74009852D01*
X108050162Y-73999266D01*
X108050745Y-73992109D01*
X108052014Y-73977756D01*
X108060019Y-73975003D01*
X108081055Y-73983851D01*
X108097413Y-73992109D01*
X108160217Y-74011677D01*
X108228488Y-74012809D01*
X108283992Y-73998215D01*
X108335678Y-73962957D01*
X108375078Y-73910915D01*
X108396653Y-73849530D01*
X108397202Y-73846098D01*
X108400407Y-73808651D01*
X108402001Y-73754893D01*
X108401873Y-73714235D01*
X108264519Y-73714235D01*
X108261337Y-73768274D01*
X108254099Y-73812815D01*
X108244300Y-73837968D01*
X108207229Y-73872340D01*
X108163214Y-73884662D01*
X108117824Y-73874698D01*
X108079037Y-73844975D01*
X108064348Y-73824985D01*
X108055759Y-73801130D01*
X108051736Y-73766310D01*
X108050745Y-73714010D01*
X108052518Y-73662219D01*
X108057203Y-73616714D01*
X108063843Y-73586261D01*
X108064950Y-73583532D01*
X108091731Y-73551080D01*
X108130819Y-73533263D01*
X108174555Y-73530386D01*
X108215278Y-73542754D01*
X108245327Y-73570673D01*
X108248444Y-73576228D01*
X108258201Y-73610102D01*
X108263517Y-73658808D01*
X108264519Y-73714235D01*
X108401873Y-73714235D01*
X108401808Y-73693620D01*
X108400904Y-73660643D01*
X108394754Y-73579061D01*
X108381973Y-73517810D01*
X108360711Y-73472529D01*
X108329118Y-73438859D01*
X108298447Y-73419094D01*
X108255594Y-73405200D01*
X108202296Y-73400434D01*
X108147720Y-73404316D01*
X108101032Y-73416362D01*
X108076364Y-73430773D01*
X108050745Y-73453958D01*
X108050745Y-73160853D01*
X107912428Y-73160853D01*
X107912428Y-74015902D01*
G36*
X107429716Y-73402317D02*
X107379985Y-73406051D01*
X107249949Y-73795853D01*
X107229562Y-73726694D01*
X107217294Y-73683954D01*
X107201155Y-73626195D01*
X107183728Y-73562705D01*
X107174514Y-73528650D01*
X107139852Y-73399763D01*
X106996849Y-73399763D01*
X107039594Y-73534937D01*
X107060644Y-73601422D01*
X107086073Y-73681619D01*
X107112630Y-73765273D01*
X107136338Y-73839862D01*
X107190338Y-74009615D01*
X107248642Y-74013408D01*
X107306945Y-74017202D01*
X107338561Y-73912814D01*
X107358058Y-73847969D01*
X107379336Y-73776480D01*
X107397932Y-73713343D01*
X107398666Y-73710830D01*
X107412556Y-73668049D01*
X107424811Y-73638859D01*
X107433394Y-73627821D01*
X107435158Y-73629098D01*
X107441349Y-73646210D01*
X107453112Y-73682867D01*
X107469015Y-73734458D01*
X107487626Y-73796374D01*
X107497697Y-73830432D01*
X107552233Y-74015902D01*
X107667976Y-74015902D01*
X107760503Y-73723551D01*
X107786496Y-73641542D01*
X107810174Y-73567067D01*
X107830420Y-73503624D01*
X107846114Y-73454712D01*
X107856138Y-73423829D01*
X107859185Y-73414806D01*
X107856773Y-73405567D01*
X107837832Y-73401521D01*
X107798417Y-73401926D01*
X107792247Y-73402232D01*
X107719154Y-73406051D01*
X107671283Y-73582090D01*
X107653687Y-73646291D01*
X107637963Y-73702729D01*
X107625494Y-73746502D01*
X107617666Y-73772710D01*
X107616220Y-73776983D01*
X107610226Y-73772070D01*
X107598139Y-73746612D01*
X107581347Y-73704077D01*
X107561237Y-73647930D01*
X107544237Y-73597210D01*
X107479446Y-73398584D01*
X107429716Y-73402317D01*
X107429716Y-73402317D01*
G37*
X107429716Y-73402317D02*
X107379985Y-73406051D01*
X107249949Y-73795853D01*
X107229562Y-73726694D01*
X107217294Y-73683954D01*
X107201155Y-73626195D01*
X107183728Y-73562705D01*
X107174514Y-73528650D01*
X107139852Y-73399763D01*
X106996849Y-73399763D01*
X107039594Y-73534937D01*
X107060644Y-73601422D01*
X107086073Y-73681619D01*
X107112630Y-73765273D01*
X107136338Y-73839862D01*
X107190338Y-74009615D01*
X107248642Y-74013408D01*
X107306945Y-74017202D01*
X107338561Y-73912814D01*
X107358058Y-73847969D01*
X107379336Y-73776480D01*
X107397932Y-73713343D01*
X107398666Y-73710830D01*
X107412556Y-73668049D01*
X107424811Y-73638859D01*
X107433394Y-73627821D01*
X107435158Y-73629098D01*
X107441349Y-73646210D01*
X107453112Y-73682867D01*
X107469015Y-73734458D01*
X107487626Y-73796374D01*
X107497697Y-73830432D01*
X107552233Y-74015902D01*
X107667976Y-74015902D01*
X107760503Y-73723551D01*
X107786496Y-73641542D01*
X107810174Y-73567067D01*
X107830420Y-73503624D01*
X107846114Y-73454712D01*
X107856138Y-73423829D01*
X107859185Y-73414806D01*
X107856773Y-73405567D01*
X107837832Y-73401521D01*
X107798417Y-73401926D01*
X107792247Y-73402232D01*
X107719154Y-73406051D01*
X107671283Y-73582090D01*
X107653687Y-73646291D01*
X107637963Y-73702729D01*
X107625494Y-73746502D01*
X107617666Y-73772710D01*
X107616220Y-73776983D01*
X107610226Y-73772070D01*
X107598139Y-73746612D01*
X107581347Y-73704077D01*
X107561237Y-73647930D01*
X107544237Y-73597210D01*
X107479446Y-73398584D01*
X107429716Y-73402317D01*
G36*
X106672829Y-73403497D02*
X106619829Y-73416370D01*
X106604509Y-73423190D01*
X106574812Y-73441054D01*
X106552020Y-73461173D01*
X106535157Y-73487042D01*
X106523242Y-73522153D01*
X106515298Y-73570000D01*
X106510346Y-73634076D01*
X106507409Y-73717874D01*
X106506293Y-73773848D01*
X106502188Y-74015902D01*
X106572308Y-74015902D01*
X106614847Y-74014118D01*
X106636764Y-74008022D01*
X106642428Y-73997786D01*
X106645419Y-73986717D01*
X106658789Y-73988834D01*
X106677007Y-73997709D01*
X106722616Y-74011313D01*
X106781233Y-74014979D01*
X106842886Y-74008983D01*
X106897602Y-73993601D01*
X106902510Y-73991466D01*
X106952517Y-73956335D01*
X106985484Y-73907499D01*
X107000653Y-73850413D01*
X106999494Y-73829904D01*
X106875732Y-73829904D01*
X106864827Y-73857505D01*
X106832495Y-73877284D01*
X106780330Y-73887899D01*
X106752453Y-73889308D01*
X106705993Y-73885700D01*
X106675111Y-73871677D01*
X106667576Y-73865011D01*
X106647164Y-73828746D01*
X106642428Y-73795853D01*
X106642428Y-73751843D01*
X106703727Y-73751843D01*
X106774984Y-73755475D01*
X106824964Y-73766898D01*
X106856544Y-73786904D01*
X106863614Y-73795823D01*
X106875732Y-73829904D01*
X106999494Y-73829904D01*
X106997269Y-73790536D01*
X106974577Y-73733324D01*
X106943616Y-73694660D01*
X106924864Y-73677944D01*
X106906507Y-73666958D01*
X106882621Y-73660260D01*
X106847283Y-73656406D01*
X106794571Y-73653953D01*
X106773663Y-73653248D01*
X106642428Y-73648959D01*
X106642620Y-73609238D01*
X106647703Y-73567485D01*
X106666078Y-73542238D01*
X106703201Y-73526110D01*
X106704197Y-73525822D01*
X106756830Y-73519480D01*
X106808334Y-73527764D01*
X106846610Y-73547907D01*
X106861968Y-73557853D01*
X106878510Y-73556477D01*
X106903965Y-73542067D01*
X106918912Y-73531897D01*
X106948149Y-73510168D01*
X106966260Y-73493880D01*
X106969166Y-73489217D01*
X106957200Y-73465085D01*
X106921844Y-73436265D01*
X106906487Y-73426541D01*
X106862339Y-73409794D01*
X106802842Y-73400307D01*
X106736753Y-73398175D01*
X106672829Y-73403497D01*
X106672829Y-73403497D01*
G37*
X106672829Y-73403497D02*
X106619829Y-73416370D01*
X106604509Y-73423190D01*
X106574812Y-73441054D01*
X106552020Y-73461173D01*
X106535157Y-73487042D01*
X106523242Y-73522153D01*
X106515298Y-73570000D01*
X106510346Y-73634076D01*
X106507409Y-73717874D01*
X106506293Y-73773848D01*
X106502188Y-74015902D01*
X106572308Y-74015902D01*
X106614847Y-74014118D01*
X106636764Y-74008022D01*
X106642428Y-73997786D01*
X106645419Y-73986717D01*
X106658789Y-73988834D01*
X106677007Y-73997709D01*
X106722616Y-74011313D01*
X106781233Y-74014979D01*
X106842886Y-74008983D01*
X106897602Y-73993601D01*
X106902510Y-73991466D01*
X106952517Y-73956335D01*
X106985484Y-73907499D01*
X107000653Y-73850413D01*
X106999494Y-73829904D01*
X106875732Y-73829904D01*
X106864827Y-73857505D01*
X106832495Y-73877284D01*
X106780330Y-73887899D01*
X106752453Y-73889308D01*
X106705993Y-73885700D01*
X106675111Y-73871677D01*
X106667576Y-73865011D01*
X106647164Y-73828746D01*
X106642428Y-73795853D01*
X106642428Y-73751843D01*
X106703727Y-73751843D01*
X106774984Y-73755475D01*
X106824964Y-73766898D01*
X106856544Y-73786904D01*
X106863614Y-73795823D01*
X106875732Y-73829904D01*
X106999494Y-73829904D01*
X106997269Y-73790536D01*
X106974577Y-73733324D01*
X106943616Y-73694660D01*
X106924864Y-73677944D01*
X106906507Y-73666958D01*
X106882621Y-73660260D01*
X106847283Y-73656406D01*
X106794571Y-73653953D01*
X106773663Y-73653248D01*
X106642428Y-73648959D01*
X106642620Y-73609238D01*
X106647703Y-73567485D01*
X106666078Y-73542238D01*
X106703201Y-73526110D01*
X106704197Y-73525822D01*
X106756830Y-73519480D01*
X106808334Y-73527764D01*
X106846610Y-73547907D01*
X106861968Y-73557853D01*
X106878510Y-73556477D01*
X106903965Y-73542067D01*
X106918912Y-73531897D01*
X106948149Y-73510168D01*
X106966260Y-73493880D01*
X106969166Y-73489217D01*
X106957200Y-73465085D01*
X106921844Y-73436265D01*
X106906487Y-73426541D01*
X106862339Y-73409794D01*
X106802842Y-73400307D01*
X106736753Y-73398175D01*
X106672829Y-73403497D01*
G36*
X106075985Y-73399566D02*
X106027645Y-73409095D01*
X106000126Y-73423205D01*
X105971176Y-73446648D01*
X106012364Y-73498651D01*
X106037758Y-73530144D01*
X106055002Y-73545508D01*
X106072138Y-73547856D01*
X106097213Y-73540297D01*
X106108983Y-73536021D01*
X106156970Y-73529711D01*
X106200916Y-73543236D01*
X106233180Y-73573790D01*
X106238421Y-73583532D01*
X106244128Y-73609338D01*
X106248534Y-73656897D01*
X106251429Y-73722838D01*
X106252609Y-73803790D01*
X106252626Y-73815306D01*
X106252626Y-74015902D01*
X106390943Y-74015902D01*
X106390943Y-73399763D01*
X106321784Y-73399763D01*
X106281907Y-73400805D01*
X106261133Y-73405438D01*
X106253451Y-73415929D01*
X106252626Y-73425825D01*
X106252626Y-73451886D01*
X106219495Y-73425825D01*
X106181505Y-73408045D01*
X106130470Y-73399254D01*
X106075985Y-73399566D01*
X106075985Y-73399566D01*
G37*
X106075985Y-73399566D02*
X106027645Y-73409095D01*
X106000126Y-73423205D01*
X105971176Y-73446648D01*
X106012364Y-73498651D01*
X106037758Y-73530144D01*
X106055002Y-73545508D01*
X106072138Y-73547856D01*
X106097213Y-73540297D01*
X106108983Y-73536021D01*
X106156970Y-73529711D01*
X106200916Y-73543236D01*
X106233180Y-73573790D01*
X106238421Y-73583532D01*
X106244128Y-73609338D01*
X106248534Y-73656897D01*
X106251429Y-73722838D01*
X106252609Y-73803790D01*
X106252626Y-73815306D01*
X106252626Y-74015902D01*
X106390943Y-74015902D01*
X106390943Y-73399763D01*
X106321784Y-73399763D01*
X106281907Y-73400805D01*
X106261133Y-73405438D01*
X106253451Y-73415929D01*
X106252626Y-73425825D01*
X106252626Y-73451886D01*
X106219495Y-73425825D01*
X106181505Y-73408045D01*
X106130470Y-73399254D01*
X106075985Y-73399566D01*
G36*
X105678659Y-73403050D02*
X105618555Y-73418677D01*
X105568219Y-73450928D01*
X105543847Y-73475020D01*
X105503895Y-73531975D01*
X105480998Y-73598045D01*
X105473132Y-73679262D01*
X105473092Y-73685828D01*
X105473022Y-73751843D01*
X105852976Y-73751843D01*
X105844877Y-73786422D01*
X105830253Y-73817739D01*
X105804659Y-73850371D01*
X105799305Y-73855580D01*
X105753297Y-73883774D01*
X105700830Y-73888555D01*
X105640437Y-73870006D01*
X105630200Y-73865011D01*
X105598801Y-73849825D01*
X105577770Y-73841174D01*
X105574101Y-73840373D01*
X105561292Y-73848143D01*
X105536862Y-73867152D01*
X105524461Y-73877540D01*
X105498764Y-73901401D01*
X105490325Y-73917157D01*
X105496182Y-73931651D01*
X105499312Y-73935614D01*
X105520515Y-73952959D01*
X105555502Y-73974039D01*
X105579903Y-73986345D01*
X105649168Y-74008026D01*
X105725852Y-74015051D01*
X105798475Y-74006727D01*
X105818814Y-74000766D01*
X105881764Y-73967032D01*
X105928425Y-73915125D01*
X105959067Y-73844539D01*
X105973958Y-73754772D01*
X105975593Y-73707833D01*
X105970819Y-73639493D01*
X105850250Y-73639493D01*
X105838588Y-73644545D01*
X105807242Y-73648509D01*
X105761669Y-73650848D01*
X105730794Y-73651249D01*
X105675259Y-73650863D01*
X105640207Y-73649055D01*
X105620978Y-73644853D01*
X105612910Y-73637283D01*
X105611339Y-73626298D01*
X105622119Y-73592461D01*
X105649260Y-73559020D01*
X105684963Y-73533352D01*
X105720680Y-73522852D01*
X105769192Y-73532166D01*
X105811187Y-73559093D01*
X105840304Y-73597907D01*
X105850250Y-73639493D01*
X105970819Y-73639493D01*
X105968641Y-73608316D01*
X105947185Y-73529029D01*
X105910770Y-73469343D01*
X105858943Y-73428629D01*
X105791250Y-73406259D01*
X105754578Y-73401951D01*
X105678659Y-73403050D01*
X105678659Y-73403050D01*
G37*
X105678659Y-73403050D02*
X105618555Y-73418677D01*
X105568219Y-73450928D01*
X105543847Y-73475020D01*
X105503895Y-73531975D01*
X105480998Y-73598045D01*
X105473132Y-73679262D01*
X105473092Y-73685828D01*
X105473022Y-73751843D01*
X105852976Y-73751843D01*
X105844877Y-73786422D01*
X105830253Y-73817739D01*
X105804659Y-73850371D01*
X105799305Y-73855580D01*
X105753297Y-73883774D01*
X105700830Y-73888555D01*
X105640437Y-73870006D01*
X105630200Y-73865011D01*
X105598801Y-73849825D01*
X105577770Y-73841174D01*
X105574101Y-73840373D01*
X105561292Y-73848143D01*
X105536862Y-73867152D01*
X105524461Y-73877540D01*
X105498764Y-73901401D01*
X105490325Y-73917157D01*
X105496182Y-73931651D01*
X105499312Y-73935614D01*
X105520515Y-73952959D01*
X105555502Y-73974039D01*
X105579903Y-73986345D01*
X105649168Y-74008026D01*
X105725852Y-74015051D01*
X105798475Y-74006727D01*
X105818814Y-74000766D01*
X105881764Y-73967032D01*
X105928425Y-73915125D01*
X105959067Y-73844539D01*
X105973958Y-73754772D01*
X105975593Y-73707833D01*
X105970819Y-73639493D01*
X105850250Y-73639493D01*
X105838588Y-73644545D01*
X105807242Y-73648509D01*
X105761669Y-73650848D01*
X105730794Y-73651249D01*
X105675259Y-73650863D01*
X105640207Y-73649055D01*
X105620978Y-73644853D01*
X105612910Y-73637283D01*
X105611339Y-73626298D01*
X105622119Y-73592461D01*
X105649260Y-73559020D01*
X105684963Y-73533352D01*
X105720680Y-73522852D01*
X105769192Y-73532166D01*
X105811187Y-73559093D01*
X105840304Y-73597907D01*
X105850250Y-73639493D01*
X105970819Y-73639493D01*
X105968641Y-73608316D01*
X105947185Y-73529029D01*
X105910770Y-73469343D01*
X105858943Y-73428629D01*
X105791250Y-73406259D01*
X105754578Y-73401951D01*
X105678659Y-73403050D01*
G36*
X110249501Y-72463228D02*
X110183719Y-72492311D01*
X110133780Y-72540873D01*
X110099614Y-72608988D01*
X110081147Y-72696731D01*
X110079823Y-72710431D01*
X110078786Y-72807019D01*
X110092233Y-72891682D01*
X110119348Y-72960301D01*
X110133867Y-72982374D01*
X110184441Y-73029091D01*
X110248849Y-73059348D01*
X110320906Y-73071904D01*
X110394425Y-73065519D01*
X110450312Y-73045852D01*
X110498372Y-73012709D01*
X110537652Y-72969255D01*
X110538332Y-72968238D01*
X110554284Y-72941418D01*
X110564650Y-72914448D01*
X110570928Y-72880412D01*
X110574613Y-72832390D01*
X110576237Y-72793011D01*
X110576912Y-72757299D01*
X110451195Y-72757299D01*
X110449966Y-72792850D01*
X110445506Y-72840174D01*
X110437637Y-72870545D01*
X110423447Y-72892152D01*
X110410157Y-72904774D01*
X110363042Y-72931202D01*
X110313745Y-72934733D01*
X110267833Y-72915719D01*
X110244878Y-72894411D01*
X110228336Y-72872939D01*
X110218661Y-72852393D01*
X110214414Y-72825654D01*
X110214160Y-72785603D01*
X110215468Y-72748718D01*
X110218283Y-72696027D01*
X110222745Y-72661852D01*
X110230788Y-72639560D01*
X110244343Y-72622522D01*
X110255085Y-72612783D01*
X110300017Y-72587203D01*
X110348489Y-72585927D01*
X110389134Y-72601079D01*
X110423807Y-72632722D01*
X110444464Y-72684700D01*
X110451195Y-72757299D01*
X110576912Y-72757299D01*
X110577719Y-72714701D01*
X110575188Y-72656136D01*
X110567602Y-72612087D01*
X110553921Y-72577328D01*
X110533105Y-72546631D01*
X110525387Y-72537516D01*
X110477129Y-72492101D01*
X110425368Y-72465573D01*
X110362068Y-72454459D01*
X110331201Y-72453551D01*
X110249501Y-72463228D01*
X110249501Y-72463228D01*
G37*
X110249501Y-72463228D02*
X110183719Y-72492311D01*
X110133780Y-72540873D01*
X110099614Y-72608988D01*
X110081147Y-72696731D01*
X110079823Y-72710431D01*
X110078786Y-72807019D01*
X110092233Y-72891682D01*
X110119348Y-72960301D01*
X110133867Y-72982374D01*
X110184441Y-73029091D01*
X110248849Y-73059348D01*
X110320906Y-73071904D01*
X110394425Y-73065519D01*
X110450312Y-73045852D01*
X110498372Y-73012709D01*
X110537652Y-72969255D01*
X110538332Y-72968238D01*
X110554284Y-72941418D01*
X110564650Y-72914448D01*
X110570928Y-72880412D01*
X110574613Y-72832390D01*
X110576237Y-72793011D01*
X110576912Y-72757299D01*
X110451195Y-72757299D01*
X110449966Y-72792850D01*
X110445506Y-72840174D01*
X110437637Y-72870545D01*
X110423447Y-72892152D01*
X110410157Y-72904774D01*
X110363042Y-72931202D01*
X110313745Y-72934733D01*
X110267833Y-72915719D01*
X110244878Y-72894411D01*
X110228336Y-72872939D01*
X110218661Y-72852393D01*
X110214414Y-72825654D01*
X110214160Y-72785603D01*
X110215468Y-72748718D01*
X110218283Y-72696027D01*
X110222745Y-72661852D01*
X110230788Y-72639560D01*
X110244343Y-72622522D01*
X110255085Y-72612783D01*
X110300017Y-72587203D01*
X110348489Y-72585927D01*
X110389134Y-72601079D01*
X110423807Y-72632722D01*
X110444464Y-72684700D01*
X110451195Y-72757299D01*
X110576912Y-72757299D01*
X110577719Y-72714701D01*
X110575188Y-72656136D01*
X110567602Y-72612087D01*
X110553921Y-72577328D01*
X110533105Y-72546631D01*
X110525387Y-72537516D01*
X110477129Y-72492101D01*
X110425368Y-72465573D01*
X110362068Y-72454459D01*
X110331201Y-72453551D01*
X110249501Y-72463228D01*
G36*
X109067939Y-72470694D02*
X109055408Y-72476594D01*
X109012039Y-72508363D01*
X108971030Y-72554726D01*
X108940408Y-72605776D01*
X108931699Y-72629246D01*
X108923752Y-72671171D01*
X108919014Y-72721837D01*
X108918439Y-72742759D01*
X108918369Y-72808773D01*
X109298323Y-72808773D01*
X109290223Y-72843353D01*
X109270344Y-72884250D01*
X109235587Y-72919594D01*
X109194238Y-72942362D01*
X109167889Y-72947090D01*
X109132156Y-72941353D01*
X109089522Y-72926962D01*
X109075039Y-72920342D01*
X109021480Y-72893593D01*
X108975773Y-72928456D01*
X108949398Y-72952035D01*
X108935364Y-72971497D01*
X108934654Y-72977209D01*
X108947191Y-72991053D01*
X108974668Y-73012092D01*
X108999606Y-73028505D01*
X109066904Y-73058010D01*
X109142350Y-73071364D01*
X109217128Y-73067892D01*
X109276735Y-73049743D01*
X109338181Y-73010864D01*
X109381848Y-72959675D01*
X109409166Y-72893447D01*
X109421562Y-72809451D01*
X109422661Y-72771016D01*
X109418262Y-72682941D01*
X109417722Y-72680379D01*
X109291822Y-72680379D01*
X109288355Y-72688638D01*
X109274103Y-72693193D01*
X109244710Y-72695145D01*
X109195815Y-72695597D01*
X109176988Y-72695605D01*
X109119707Y-72694923D01*
X109083381Y-72692444D01*
X109063844Y-72687523D01*
X109056930Y-72679514D01*
X109056685Y-72676942D01*
X109064576Y-72656503D01*
X109084325Y-72627869D01*
X109092815Y-72617843D01*
X109124334Y-72589488D01*
X109157189Y-72578339D01*
X109174891Y-72577407D01*
X109222779Y-72589061D01*
X109262939Y-72620365D01*
X109288413Y-72665832D01*
X109288865Y-72667313D01*
X109291822Y-72680379D01*
X109417722Y-72680379D01*
X109403632Y-72613590D01*
X109377278Y-72558105D01*
X109345047Y-72518719D01*
X109285457Y-72476011D01*
X109215408Y-72453189D01*
X109140901Y-72451126D01*
X109067939Y-72470694D01*
X109067939Y-72470694D01*
G37*
X109067939Y-72470694D02*
X109055408Y-72476594D01*
X109012039Y-72508363D01*
X108971030Y-72554726D01*
X108940408Y-72605776D01*
X108931699Y-72629246D01*
X108923752Y-72671171D01*
X108919014Y-72721837D01*
X108918439Y-72742759D01*
X108918369Y-72808773D01*
X109298323Y-72808773D01*
X109290223Y-72843353D01*
X109270344Y-72884250D01*
X109235587Y-72919594D01*
X109194238Y-72942362D01*
X109167889Y-72947090D01*
X109132156Y-72941353D01*
X109089522Y-72926962D01*
X109075039Y-72920342D01*
X109021480Y-72893593D01*
X108975773Y-72928456D01*
X108949398Y-72952035D01*
X108935364Y-72971497D01*
X108934654Y-72977209D01*
X108947191Y-72991053D01*
X108974668Y-73012092D01*
X108999606Y-73028505D01*
X109066904Y-73058010D01*
X109142350Y-73071364D01*
X109217128Y-73067892D01*
X109276735Y-73049743D01*
X109338181Y-73010864D01*
X109381848Y-72959675D01*
X109409166Y-72893447D01*
X109421562Y-72809451D01*
X109422661Y-72771016D01*
X109418262Y-72682941D01*
X109417722Y-72680379D01*
X109291822Y-72680379D01*
X109288355Y-72688638D01*
X109274103Y-72693193D01*
X109244710Y-72695145D01*
X109195815Y-72695597D01*
X109176988Y-72695605D01*
X109119707Y-72694923D01*
X109083381Y-72692444D01*
X109063844Y-72687523D01*
X109056930Y-72679514D01*
X109056685Y-72676942D01*
X109064576Y-72656503D01*
X109084325Y-72627869D01*
X109092815Y-72617843D01*
X109124334Y-72589488D01*
X109157189Y-72578339D01*
X109174891Y-72577407D01*
X109222779Y-72589061D01*
X109262939Y-72620365D01*
X109288413Y-72665832D01*
X109288865Y-72667313D01*
X109291822Y-72680379D01*
X109417722Y-72680379D01*
X109403632Y-72613590D01*
X109377278Y-72558105D01*
X109345047Y-72518719D01*
X109285457Y-72476011D01*
X109215408Y-72453189D01*
X109140901Y-72451126D01*
X109067939Y-72470694D01*
G36*
X107697223Y-72454532D02*
X107649606Y-72463562D01*
X107600206Y-72482450D01*
X107594928Y-72484857D01*
X107557466Y-72504556D01*
X107531523Y-72522861D01*
X107523137Y-72534588D01*
X107531123Y-72553712D01*
X107550520Y-72581930D01*
X107559130Y-72592464D01*
X107594612Y-72633927D01*
X107640355Y-72606938D01*
X107683890Y-72588958D01*
X107734190Y-72579347D01*
X107782428Y-72578740D01*
X107819773Y-72587771D01*
X107828735Y-72593407D01*
X107845803Y-72619251D01*
X107847877Y-72649021D01*
X107835106Y-72672277D01*
X107827552Y-72676788D01*
X107804915Y-72682389D01*
X107765125Y-72688972D01*
X107716074Y-72695263D01*
X107707025Y-72696250D01*
X107628244Y-72709878D01*
X107571104Y-72733026D01*
X107533210Y-72767832D01*
X107512161Y-72816434D01*
X107505605Y-72875798D01*
X107514663Y-72943278D01*
X107544076Y-72996268D01*
X107593962Y-73034863D01*
X107664440Y-73059161D01*
X107742675Y-73068747D01*
X107806474Y-73068632D01*
X107858224Y-73059925D01*
X107893567Y-73047905D01*
X107938223Y-73026960D01*
X107979493Y-73002654D01*
X107994161Y-72991956D01*
X108031883Y-72961164D01*
X107986388Y-72915129D01*
X107940893Y-72869093D01*
X107889168Y-72903323D01*
X107837288Y-72929032D01*
X107781889Y-72942479D01*
X107728635Y-72943898D01*
X107683191Y-72933523D01*
X107651224Y-72911587D01*
X107640902Y-72893078D01*
X107642451Y-72863394D01*
X107668100Y-72840695D01*
X107717780Y-72825020D01*
X107772209Y-72817775D01*
X107855976Y-72803953D01*
X107918207Y-72777876D01*
X107959733Y-72738779D01*
X107981387Y-72685900D01*
X107984387Y-72623206D01*
X107969569Y-72557722D01*
X107935786Y-72508224D01*
X107882735Y-72474488D01*
X107810114Y-72456287D01*
X107756312Y-72452719D01*
X107697223Y-72454532D01*
X107697223Y-72454532D01*
G37*
X107697223Y-72454532D02*
X107649606Y-72463562D01*
X107600206Y-72482450D01*
X107594928Y-72484857D01*
X107557466Y-72504556D01*
X107531523Y-72522861D01*
X107523137Y-72534588D01*
X107531123Y-72553712D01*
X107550520Y-72581930D01*
X107559130Y-72592464D01*
X107594612Y-72633927D01*
X107640355Y-72606938D01*
X107683890Y-72588958D01*
X107734190Y-72579347D01*
X107782428Y-72578740D01*
X107819773Y-72587771D01*
X107828735Y-72593407D01*
X107845803Y-72619251D01*
X107847877Y-72649021D01*
X107835106Y-72672277D01*
X107827552Y-72676788D01*
X107804915Y-72682389D01*
X107765125Y-72688972D01*
X107716074Y-72695263D01*
X107707025Y-72696250D01*
X107628244Y-72709878D01*
X107571104Y-72733026D01*
X107533210Y-72767832D01*
X107512161Y-72816434D01*
X107505605Y-72875798D01*
X107514663Y-72943278D01*
X107544076Y-72996268D01*
X107593962Y-73034863D01*
X107664440Y-73059161D01*
X107742675Y-73068747D01*
X107806474Y-73068632D01*
X107858224Y-73059925D01*
X107893567Y-73047905D01*
X107938223Y-73026960D01*
X107979493Y-73002654D01*
X107994161Y-72991956D01*
X108031883Y-72961164D01*
X107986388Y-72915129D01*
X107940893Y-72869093D01*
X107889168Y-72903323D01*
X107837288Y-72929032D01*
X107781889Y-72942479D01*
X107728635Y-72943898D01*
X107683191Y-72933523D01*
X107651224Y-72911587D01*
X107640902Y-72893078D01*
X107642451Y-72863394D01*
X107668100Y-72840695D01*
X107717780Y-72825020D01*
X107772209Y-72817775D01*
X107855976Y-72803953D01*
X107918207Y-72777876D01*
X107959733Y-72738779D01*
X107981387Y-72685900D01*
X107984387Y-72623206D01*
X107969569Y-72557722D01*
X107935786Y-72508224D01*
X107882735Y-72474488D01*
X107810114Y-72456287D01*
X107756312Y-72452719D01*
X107697223Y-72454532D01*
G36*
X107100478Y-72464135D02*
X107036877Y-72498772D01*
X106987117Y-72553452D01*
X106963672Y-72597922D01*
X106953606Y-72637201D01*
X106947084Y-72693196D01*
X106944289Y-72757701D01*
X106945404Y-72822509D01*
X106950614Y-72879414D01*
X106956699Y-72909807D01*
X106977226Y-72951386D01*
X107012777Y-72995548D01*
X107055621Y-73034167D01*
X107098029Y-73059114D01*
X107099063Y-73059510D01*
X107151687Y-73070411D01*
X107214052Y-73070681D01*
X107273316Y-73060756D01*
X107296200Y-73052802D01*
X107355138Y-73019380D01*
X107397350Y-72975591D01*
X107425084Y-72917618D01*
X107440589Y-72841645D01*
X107444097Y-72801851D01*
X107443650Y-72751846D01*
X107308864Y-72751846D01*
X107304323Y-72824812D01*
X107291254Y-72880414D01*
X107270484Y-72915941D01*
X107255688Y-72926100D01*
X107217776Y-72933184D01*
X107172713Y-72931087D01*
X107133753Y-72920892D01*
X107123536Y-72915284D01*
X107096581Y-72882618D01*
X107078789Y-72832625D01*
X107071216Y-72771785D01*
X107074915Y-72706577D01*
X107083183Y-72667333D01*
X107106920Y-72621885D01*
X107144391Y-72593476D01*
X107189520Y-72583653D01*
X107236229Y-72593967D01*
X107272108Y-72619192D01*
X107290963Y-72640005D01*
X107301968Y-72660519D01*
X107307214Y-72688283D01*
X107308791Y-72730842D01*
X107308864Y-72751846D01*
X107443650Y-72751846D01*
X107443146Y-72695660D01*
X107425852Y-72608581D01*
X107392211Y-72540610D01*
X107342222Y-72491744D01*
X107275884Y-72461979D01*
X107261639Y-72458528D01*
X107176030Y-72450425D01*
X107100478Y-72464135D01*
X107100478Y-72464135D01*
G37*
X107100478Y-72464135D02*
X107036877Y-72498772D01*
X106987117Y-72553452D01*
X106963672Y-72597922D01*
X106953606Y-72637201D01*
X106947084Y-72693196D01*
X106944289Y-72757701D01*
X106945404Y-72822509D01*
X106950614Y-72879414D01*
X106956699Y-72909807D01*
X106977226Y-72951386D01*
X107012777Y-72995548D01*
X107055621Y-73034167D01*
X107098029Y-73059114D01*
X107099063Y-73059510D01*
X107151687Y-73070411D01*
X107214052Y-73070681D01*
X107273316Y-73060756D01*
X107296200Y-73052802D01*
X107355138Y-73019380D01*
X107397350Y-72975591D01*
X107425084Y-72917618D01*
X107440589Y-72841645D01*
X107444097Y-72801851D01*
X107443650Y-72751846D01*
X107308864Y-72751846D01*
X107304323Y-72824812D01*
X107291254Y-72880414D01*
X107270484Y-72915941D01*
X107255688Y-72926100D01*
X107217776Y-72933184D01*
X107172713Y-72931087D01*
X107133753Y-72920892D01*
X107123536Y-72915284D01*
X107096581Y-72882618D01*
X107078789Y-72832625D01*
X107071216Y-72771785D01*
X107074915Y-72706577D01*
X107083183Y-72667333D01*
X107106920Y-72621885D01*
X107144391Y-72593476D01*
X107189520Y-72583653D01*
X107236229Y-72593967D01*
X107272108Y-72619192D01*
X107290963Y-72640005D01*
X107301968Y-72660519D01*
X107307214Y-72688283D01*
X107308791Y-72730842D01*
X107308864Y-72751846D01*
X107443650Y-72751846D01*
X107443146Y-72695660D01*
X107425852Y-72608581D01*
X107392211Y-72540610D01*
X107342222Y-72491744D01*
X107275884Y-72461979D01*
X107261639Y-72458528D01*
X107176030Y-72450425D01*
X107100478Y-72464135D01*
G36*
X106717873Y-72652422D02*
X106716685Y-72744643D01*
X106712343Y-72814690D01*
X106703682Y-72865461D01*
X106689536Y-72899852D01*
X106668740Y-72920759D01*
X106640130Y-72931080D01*
X106604705Y-72933716D01*
X106567604Y-72930762D01*
X106539422Y-72919969D01*
X106518997Y-72898440D01*
X106505161Y-72863279D01*
X106496749Y-72811590D01*
X106492597Y-72740474D01*
X106491537Y-72652422D01*
X106491537Y-72456694D01*
X106353220Y-72456694D01*
X106353220Y-73060259D01*
X106422378Y-73060259D01*
X106464070Y-73058569D01*
X106485539Y-73052636D01*
X106491537Y-73041373D01*
X106495149Y-73031341D01*
X106509526Y-73033463D01*
X106538504Y-73047660D01*
X106604921Y-73069560D01*
X106675365Y-73068008D01*
X106742863Y-73044227D01*
X106775007Y-73025442D01*
X106799525Y-73005102D01*
X106817436Y-72979653D01*
X106829761Y-72945538D01*
X106837517Y-72899201D01*
X106841724Y-72837087D01*
X106843400Y-72755641D01*
X106843616Y-72692658D01*
X106843616Y-72456694D01*
X106717873Y-72456694D01*
X106717873Y-72652422D01*
X106717873Y-72652422D01*
G37*
X106717873Y-72652422D02*
X106716685Y-72744643D01*
X106712343Y-72814690D01*
X106703682Y-72865461D01*
X106689536Y-72899852D01*
X106668740Y-72920759D01*
X106640130Y-72931080D01*
X106604705Y-72933716D01*
X106567604Y-72930762D01*
X106539422Y-72919969D01*
X106518997Y-72898440D01*
X106505161Y-72863279D01*
X106496749Y-72811590D01*
X106492597Y-72740474D01*
X106491537Y-72652422D01*
X106491537Y-72456694D01*
X106353220Y-72456694D01*
X106353220Y-73060259D01*
X106422378Y-73060259D01*
X106464070Y-73058569D01*
X106485539Y-73052636D01*
X106491537Y-73041373D01*
X106495149Y-73031341D01*
X106509526Y-73033463D01*
X106538504Y-73047660D01*
X106604921Y-73069560D01*
X106675365Y-73068008D01*
X106742863Y-73044227D01*
X106775007Y-73025442D01*
X106799525Y-73005102D01*
X106817436Y-72979653D01*
X106829761Y-72945538D01*
X106837517Y-72899201D01*
X106841724Y-72837087D01*
X106843400Y-72755641D01*
X106843616Y-72692658D01*
X106843616Y-72456694D01*
X106717873Y-72456694D01*
X106717873Y-72652422D01*
G36*
X105494014Y-72461960D02*
X105421160Y-72492910D01*
X105398213Y-72507975D01*
X105368886Y-72531128D01*
X105350476Y-72549333D01*
X105347279Y-72555263D01*
X105356305Y-72568420D01*
X105379403Y-72590747D01*
X105397896Y-72606330D01*
X105448512Y-72647006D01*
X105488480Y-72613375D01*
X105519366Y-72591664D01*
X105549481Y-72584170D01*
X105583948Y-72586000D01*
X105638679Y-72599608D01*
X105676354Y-72627852D01*
X105699249Y-72673513D01*
X105709643Y-72739369D01*
X105709645Y-72739411D01*
X105708746Y-72813019D01*
X105694777Y-72867026D01*
X105666912Y-72903796D01*
X105647915Y-72916248D01*
X105597464Y-72931753D01*
X105543577Y-72931763D01*
X105496694Y-72916718D01*
X105485596Y-72909367D01*
X105457764Y-72890591D01*
X105436004Y-72887514D01*
X105412536Y-72901489D01*
X105386591Y-72926590D01*
X105345524Y-72968960D01*
X105391119Y-73006544D01*
X105461566Y-73048962D01*
X105541007Y-73069865D01*
X105624025Y-73068352D01*
X105678546Y-73054491D01*
X105742270Y-73020215D01*
X105793235Y-72966292D01*
X105816389Y-72928229D01*
X105835141Y-72873616D01*
X105844525Y-72804449D01*
X105844597Y-72729487D01*
X105835416Y-72657489D01*
X105817041Y-72597217D01*
X105814147Y-72591038D01*
X105771288Y-72530431D01*
X105713261Y-72486304D01*
X105644649Y-72459573D01*
X105570039Y-72451153D01*
X105494014Y-72461960D01*
X105494014Y-72461960D01*
G37*
X105494014Y-72461960D02*
X105421160Y-72492910D01*
X105398213Y-72507975D01*
X105368886Y-72531128D01*
X105350476Y-72549333D01*
X105347279Y-72555263D01*
X105356305Y-72568420D01*
X105379403Y-72590747D01*
X105397896Y-72606330D01*
X105448512Y-72647006D01*
X105488480Y-72613375D01*
X105519366Y-72591664D01*
X105549481Y-72584170D01*
X105583948Y-72586000D01*
X105638679Y-72599608D01*
X105676354Y-72627852D01*
X105699249Y-72673513D01*
X105709643Y-72739369D01*
X105709645Y-72739411D01*
X105708746Y-72813019D01*
X105694777Y-72867026D01*
X105666912Y-72903796D01*
X105647915Y-72916248D01*
X105597464Y-72931753D01*
X105543577Y-72931763D01*
X105496694Y-72916718D01*
X105485596Y-72909367D01*
X105457764Y-72890591D01*
X105436004Y-72887514D01*
X105412536Y-72901489D01*
X105386591Y-72926590D01*
X105345524Y-72968960D01*
X105391119Y-73006544D01*
X105461566Y-73048962D01*
X105541007Y-73069865D01*
X105624025Y-73068352D01*
X105678546Y-73054491D01*
X105742270Y-73020215D01*
X105793235Y-72966292D01*
X105816389Y-72928229D01*
X105835141Y-72873616D01*
X105844525Y-72804449D01*
X105844597Y-72729487D01*
X105835416Y-72657489D01*
X105817041Y-72597217D01*
X105814147Y-72591038D01*
X105771288Y-72530431D01*
X105713261Y-72486304D01*
X105644649Y-72459573D01*
X105570039Y-72451153D01*
X105494014Y-72461960D01*
G36*
X105033342Y-72454537D02*
X105001144Y-72462359D01*
X104939415Y-72491001D01*
X104886630Y-72534747D01*
X104850099Y-72587197D01*
X104845080Y-72598973D01*
X104838195Y-72629820D01*
X104833376Y-72675451D01*
X104831735Y-72721572D01*
X104831735Y-72808773D01*
X105014062Y-72808773D01*
X105089261Y-72809058D01*
X105142237Y-72810784D01*
X105175915Y-72815261D01*
X105193220Y-72823800D01*
X105197077Y-72837710D01*
X105190411Y-72858302D01*
X105178470Y-72882395D01*
X105145160Y-72922605D01*
X105098872Y-72942638D01*
X105042296Y-72941985D01*
X104978209Y-72920181D01*
X104922823Y-72893273D01*
X104876865Y-72929612D01*
X104830907Y-72965952D01*
X104874144Y-73005899D01*
X104931866Y-73043643D01*
X105002854Y-73066400D01*
X105079211Y-73072768D01*
X105153041Y-73061348D01*
X105164953Y-73057473D01*
X105229841Y-73023586D01*
X105278110Y-72973066D01*
X105310775Y-72904405D01*
X105328855Y-72816094D01*
X105329065Y-72814201D01*
X105330684Y-72717958D01*
X105324140Y-72683622D01*
X105196388Y-72683622D01*
X105184656Y-72688902D01*
X105152802Y-72692947D01*
X105105843Y-72695256D01*
X105076086Y-72695605D01*
X105020592Y-72695386D01*
X104985894Y-72693996D01*
X104967639Y-72690331D01*
X104961474Y-72683290D01*
X104963045Y-72671770D01*
X104964362Y-72667313D01*
X104986858Y-72625435D01*
X105022237Y-72591684D01*
X105053460Y-72576853D01*
X105094939Y-72577748D01*
X105136971Y-72596244D01*
X105172228Y-72626866D01*
X105193386Y-72664142D01*
X105196388Y-72683622D01*
X105324140Y-72683622D01*
X105314550Y-72633309D01*
X105282542Y-72562271D01*
X105236539Y-72506859D01*
X105178419Y-72469089D01*
X105110060Y-72450976D01*
X105033342Y-72454537D01*
X105033342Y-72454537D01*
G37*
X105033342Y-72454537D02*
X105001144Y-72462359D01*
X104939415Y-72491001D01*
X104886630Y-72534747D01*
X104850099Y-72587197D01*
X104845080Y-72598973D01*
X104838195Y-72629820D01*
X104833376Y-72675451D01*
X104831735Y-72721572D01*
X104831735Y-72808773D01*
X105014062Y-72808773D01*
X105089261Y-72809058D01*
X105142237Y-72810784D01*
X105175915Y-72815261D01*
X105193220Y-72823800D01*
X105197077Y-72837710D01*
X105190411Y-72858302D01*
X105178470Y-72882395D01*
X105145160Y-72922605D01*
X105098872Y-72942638D01*
X105042296Y-72941985D01*
X104978209Y-72920181D01*
X104922823Y-72893273D01*
X104876865Y-72929612D01*
X104830907Y-72965952D01*
X104874144Y-73005899D01*
X104931866Y-73043643D01*
X105002854Y-73066400D01*
X105079211Y-73072768D01*
X105153041Y-73061348D01*
X105164953Y-73057473D01*
X105229841Y-73023586D01*
X105278110Y-72973066D01*
X105310775Y-72904405D01*
X105328855Y-72816094D01*
X105329065Y-72814201D01*
X105330684Y-72717958D01*
X105324140Y-72683622D01*
X105196388Y-72683622D01*
X105184656Y-72688902D01*
X105152802Y-72692947D01*
X105105843Y-72695256D01*
X105076086Y-72695605D01*
X105020592Y-72695386D01*
X104985894Y-72693996D01*
X104967639Y-72690331D01*
X104961474Y-72683290D01*
X104963045Y-72671770D01*
X104964362Y-72667313D01*
X104986858Y-72625435D01*
X105022237Y-72591684D01*
X105053460Y-72576853D01*
X105094939Y-72577748D01*
X105136971Y-72596244D01*
X105172228Y-72626866D01*
X105193386Y-72664142D01*
X105196388Y-72683622D01*
X105324140Y-72683622D01*
X105314550Y-72633309D01*
X105282542Y-72562271D01*
X105236539Y-72506859D01*
X105178419Y-72469089D01*
X105110060Y-72450976D01*
X105033342Y-72454537D01*
G36*
X108465252Y-72467082D02*
X108433957Y-72482030D01*
X108403649Y-72503621D01*
X108380558Y-72528471D01*
X108363740Y-72560167D01*
X108352246Y-72602294D01*
X108345131Y-72658438D01*
X108341447Y-72732186D01*
X108340248Y-72827124D01*
X108340229Y-72837065D01*
X108339953Y-73060259D01*
X108478270Y-73060259D01*
X108478270Y-72854498D01*
X108478368Y-72778269D01*
X108479049Y-72723019D01*
X108480891Y-72684581D01*
X108484473Y-72658786D01*
X108490372Y-72641464D01*
X108499167Y-72628448D01*
X108511420Y-72615587D01*
X108554287Y-72587953D01*
X108601083Y-72582825D01*
X108645664Y-72600297D01*
X108661168Y-72613301D01*
X108672550Y-72625527D01*
X108680721Y-72638620D01*
X108686214Y-72656695D01*
X108689560Y-72683867D01*
X108691291Y-72724250D01*
X108691937Y-72781959D01*
X108692032Y-72852212D01*
X108692032Y-73060259D01*
X108830349Y-73060259D01*
X108830349Y-72456694D01*
X108761190Y-72456694D01*
X108719668Y-72458336D01*
X108698246Y-72464167D01*
X108692035Y-72475541D01*
X108692032Y-72475878D01*
X108689150Y-72487018D01*
X108676439Y-72485754D01*
X108651166Y-72473514D01*
X108593845Y-72455504D01*
X108528277Y-72453501D01*
X108465252Y-72467082D01*
X108465252Y-72467082D01*
G37*
X108465252Y-72467082D02*
X108433957Y-72482030D01*
X108403649Y-72503621D01*
X108380558Y-72528471D01*
X108363740Y-72560167D01*
X108352246Y-72602294D01*
X108345131Y-72658438D01*
X108341447Y-72732186D01*
X108340248Y-72827124D01*
X108340229Y-72837065D01*
X108339953Y-73060259D01*
X108478270Y-73060259D01*
X108478270Y-72854498D01*
X108478368Y-72778269D01*
X108479049Y-72723019D01*
X108480891Y-72684581D01*
X108484473Y-72658786D01*
X108490372Y-72641464D01*
X108499167Y-72628448D01*
X108511420Y-72615587D01*
X108554287Y-72587953D01*
X108601083Y-72582825D01*
X108645664Y-72600297D01*
X108661168Y-72613301D01*
X108672550Y-72625527D01*
X108680721Y-72638620D01*
X108686214Y-72656695D01*
X108689560Y-72683867D01*
X108691291Y-72724250D01*
X108691937Y-72781959D01*
X108692032Y-72852212D01*
X108692032Y-73060259D01*
X108830349Y-73060259D01*
X108830349Y-72456694D01*
X108761190Y-72456694D01*
X108719668Y-72458336D01*
X108698246Y-72464167D01*
X108692035Y-72475541D01*
X108692032Y-72475878D01*
X108689150Y-72487018D01*
X108676439Y-72485754D01*
X108651166Y-72473514D01*
X108593845Y-72455504D01*
X108528277Y-72453501D01*
X108465252Y-72467082D01*
G36*
X105911780Y-72456110D02*
X105868529Y-72469325D01*
X105840682Y-72486021D01*
X105831611Y-72499225D01*
X105834108Y-72514877D01*
X105850309Y-72539465D01*
X105864008Y-72556880D01*
X105892248Y-72588363D01*
X105913465Y-72601609D01*
X105931552Y-72600744D01*
X105985205Y-72587090D01*
X106024610Y-72587710D01*
X106056608Y-72603184D01*
X106067350Y-72612241D01*
X106101735Y-72644107D01*
X106101735Y-73060259D01*
X106240052Y-73060259D01*
X106240052Y-72456694D01*
X106170893Y-72456694D01*
X106129371Y-72458336D01*
X106107949Y-72464167D01*
X106101738Y-72475541D01*
X106101735Y-72475878D01*
X106098801Y-72487793D01*
X106085536Y-72486239D01*
X106067156Y-72477643D01*
X106029194Y-72461648D01*
X105998368Y-72452025D01*
X105958704Y-72449558D01*
X105911780Y-72456110D01*
X105911780Y-72456110D01*
G37*
X105911780Y-72456110D02*
X105868529Y-72469325D01*
X105840682Y-72486021D01*
X105831611Y-72499225D01*
X105834108Y-72514877D01*
X105850309Y-72539465D01*
X105864008Y-72556880D01*
X105892248Y-72588363D01*
X105913465Y-72601609D01*
X105931552Y-72600744D01*
X105985205Y-72587090D01*
X106024610Y-72587710D01*
X106056608Y-72603184D01*
X106067350Y-72612241D01*
X106101735Y-72644107D01*
X106101735Y-73060259D01*
X106240052Y-73060259D01*
X106240052Y-72456694D01*
X106170893Y-72456694D01*
X106129371Y-72458336D01*
X106107949Y-72464167D01*
X106101738Y-72475541D01*
X106101735Y-72475878D01*
X106098801Y-72487793D01*
X106085536Y-72486239D01*
X106067156Y-72477643D01*
X106029194Y-72461648D01*
X105998368Y-72452025D01*
X105958704Y-72449558D01*
X105911780Y-72456110D01*
G36*
X107334276Y-68288098D02*
X107277428Y-68589650D01*
X106857902Y-68762592D01*
X106606256Y-68591475D01*
X106535782Y-68543830D01*
X106472077Y-68501290D01*
X106418114Y-68465795D01*
X106376867Y-68439290D01*
X106351306Y-68423716D01*
X106344345Y-68420358D01*
X106331805Y-68428994D01*
X106305009Y-68452872D01*
X106266960Y-68488939D01*
X106220661Y-68534147D01*
X106169117Y-68585444D01*
X106115331Y-68639781D01*
X106062305Y-68694108D01*
X106013045Y-68745375D01*
X105970553Y-68790531D01*
X105937833Y-68826526D01*
X105917889Y-68850310D01*
X105913121Y-68858270D01*
X105919983Y-68872945D01*
X105939220Y-68905094D01*
X105968810Y-68951572D01*
X106006730Y-69009236D01*
X106050958Y-69074940D01*
X106076586Y-69112416D01*
X106123299Y-69180848D01*
X106164808Y-69242600D01*
X106199100Y-69294599D01*
X106224160Y-69333772D01*
X106237976Y-69357045D01*
X106240052Y-69361935D01*
X106235345Y-69375835D01*
X106222517Y-69408230D01*
X106203502Y-69454565D01*
X106180237Y-69510286D01*
X106154656Y-69570838D01*
X106128695Y-69631666D01*
X106104290Y-69688216D01*
X106083377Y-69735932D01*
X106067891Y-69770261D01*
X106059768Y-69786648D01*
X106059288Y-69787292D01*
X106046533Y-69790421D01*
X106012563Y-69797401D01*
X105960900Y-69807547D01*
X105895064Y-69820172D01*
X105818576Y-69834589D01*
X105773950Y-69842903D01*
X105692219Y-69858464D01*
X105618397Y-69873272D01*
X105556219Y-69886516D01*
X105509418Y-69897385D01*
X105481731Y-69905069D01*
X105476166Y-69907507D01*
X105470714Y-69924010D01*
X105466316Y-69961280D01*
X105462968Y-70014960D01*
X105460666Y-70080692D01*
X105459408Y-70154117D01*
X105459192Y-70230876D01*
X105460013Y-70306612D01*
X105461869Y-70376966D01*
X105464758Y-70437580D01*
X105468675Y-70484096D01*
X105473618Y-70512155D01*
X105476583Y-70517996D01*
X105494306Y-70524997D01*
X105531859Y-70535007D01*
X105584276Y-70546849D01*
X105646588Y-70559347D01*
X105668340Y-70563390D01*
X105773216Y-70582600D01*
X105856060Y-70598071D01*
X105919610Y-70610417D01*
X105966603Y-70620253D01*
X105999777Y-70628194D01*
X106021869Y-70634856D01*
X106035616Y-70640853D01*
X106043756Y-70646799D01*
X106044895Y-70647974D01*
X106056263Y-70666906D01*
X106073605Y-70703749D01*
X106095190Y-70753993D01*
X106119286Y-70813126D01*
X106144161Y-70876636D01*
X106168083Y-70940012D01*
X106189321Y-70998742D01*
X106206143Y-71048315D01*
X106216818Y-71084219D01*
X106219613Y-71101942D01*
X106219380Y-71102563D01*
X106209909Y-71117050D01*
X106188422Y-71148924D01*
X106157177Y-71194869D01*
X106118433Y-71251565D01*
X106074447Y-71315697D01*
X106061921Y-71333922D01*
X106017256Y-71399994D01*
X105977952Y-71460280D01*
X105946152Y-71511315D01*
X105923995Y-71549640D01*
X105913623Y-71571791D01*
X105913121Y-71574512D01*
X105921835Y-71588816D01*
X105945915Y-71617152D01*
X105982264Y-71656476D01*
X106027787Y-71703741D01*
X106079388Y-71755903D01*
X106133973Y-71809915D01*
X106188446Y-71862733D01*
X106239711Y-71911311D01*
X106284673Y-71952603D01*
X106320236Y-71983565D01*
X106343305Y-72001150D01*
X106349686Y-72004021D01*
X106364541Y-71997258D01*
X106394954Y-71979019D01*
X106435972Y-71952377D01*
X106467531Y-71930932D01*
X106524715Y-71891583D01*
X106592434Y-71845251D01*
X106660360Y-71798993D01*
X106696879Y-71774235D01*
X106820488Y-71690627D01*
X106924249Y-71746730D01*
X106971520Y-71771308D01*
X107011717Y-71790411D01*
X107038914Y-71801307D01*
X107045838Y-71802823D01*
X107054163Y-71791629D01*
X107070586Y-71759997D01*
X107093883Y-71710845D01*
X107122826Y-71647090D01*
X107156190Y-71571651D01*
X107192749Y-71487444D01*
X107231276Y-71397388D01*
X107270546Y-71304401D01*
X107309332Y-71211400D01*
X107346410Y-71121303D01*
X107380551Y-71037028D01*
X107410532Y-70961493D01*
X107435124Y-70897614D01*
X107453104Y-70848311D01*
X107463243Y-70816501D01*
X107464874Y-70805576D01*
X107451949Y-70791641D01*
X107423651Y-70769020D01*
X107385894Y-70742413D01*
X107382725Y-70740308D01*
X107285140Y-70662194D01*
X107206454Y-70571062D01*
X107147349Y-70469825D01*
X107108508Y-70361398D01*
X107090612Y-70248694D01*
X107094343Y-70134628D01*
X107120383Y-70022114D01*
X107169415Y-69914065D01*
X107183840Y-69890425D01*
X107258871Y-69794967D01*
X107347510Y-69718312D01*
X107446691Y-69660860D01*
X107553345Y-69623009D01*
X107664404Y-69605158D01*
X107776801Y-69607705D01*
X107887467Y-69631050D01*
X107993334Y-69675590D01*
X108091335Y-69741725D01*
X108121650Y-69768567D01*
X108198802Y-69852592D01*
X108255022Y-69941046D01*
X108293587Y-70040195D01*
X108315066Y-70138383D01*
X108320368Y-70248777D01*
X108302688Y-70359720D01*
X108263821Y-70467461D01*
X108205563Y-70568249D01*
X108129709Y-70658336D01*
X108038057Y-70733972D01*
X108026012Y-70741944D01*
X107987851Y-70768054D01*
X107958841Y-70790675D01*
X107944972Y-70805119D01*
X107944771Y-70805576D01*
X107947748Y-70821201D01*
X107959551Y-70856662D01*
X107978954Y-70909042D01*
X108004728Y-70975425D01*
X108035649Y-71052894D01*
X108070489Y-71138530D01*
X108108023Y-71229417D01*
X108147023Y-71322639D01*
X108186263Y-71415277D01*
X108224516Y-71504415D01*
X108260557Y-71587135D01*
X108293157Y-71660521D01*
X108321092Y-71721655D01*
X108343135Y-71767621D01*
X108358058Y-71795501D01*
X108364068Y-71802823D01*
X108382431Y-71797121D01*
X108416792Y-71781829D01*
X108461224Y-71759679D01*
X108485657Y-71746730D01*
X108589418Y-71690627D01*
X108713027Y-71774235D01*
X108776126Y-71817067D01*
X108845210Y-71864202D01*
X108909947Y-71908583D01*
X108942374Y-71930932D01*
X108987981Y-71961557D01*
X109026600Y-71985827D01*
X109053192Y-72000667D01*
X109061830Y-72003804D01*
X109074401Y-71995341D01*
X109102224Y-71971716D01*
X109142601Y-71935382D01*
X109192835Y-71888791D01*
X109250228Y-71834397D01*
X109286526Y-71799472D01*
X109350030Y-71737076D01*
X109404913Y-71681268D01*
X109448954Y-71634434D01*
X109479935Y-71598962D01*
X109495638Y-71577241D01*
X109497145Y-71572832D01*
X109490154Y-71556065D01*
X109470834Y-71522162D01*
X109441331Y-71474556D01*
X109403785Y-71416679D01*
X109360340Y-71351964D01*
X109347985Y-71333922D01*
X109302967Y-71268347D01*
X109262580Y-71209308D01*
X109229080Y-71160122D01*
X109204726Y-71124108D01*
X109191776Y-71104582D01*
X109190525Y-71102563D01*
X109192396Y-71087002D01*
X109202327Y-71052789D01*
X109218587Y-71004435D01*
X109239445Y-70946451D01*
X109263167Y-70883350D01*
X109288024Y-70819643D01*
X109312282Y-70759841D01*
X109334211Y-70708456D01*
X109352078Y-70669999D01*
X109364153Y-70648982D01*
X109365011Y-70647974D01*
X109372394Y-70641968D01*
X109384865Y-70636028D01*
X109405160Y-70629540D01*
X109436018Y-70621889D01*
X109480174Y-70612460D01*
X109540366Y-70600639D01*
X109619333Y-70585809D01*
X109719810Y-70567357D01*
X109741565Y-70563390D01*
X109806042Y-70550933D01*
X109862251Y-70538746D01*
X109905227Y-70528006D01*
X109930000Y-70519889D01*
X109933322Y-70517996D01*
X109938796Y-70501218D01*
X109943246Y-70463725D01*
X109946668Y-70409874D01*
X109949059Y-70344024D01*
X109950417Y-70270533D01*
X109950739Y-70193760D01*
X109950021Y-70118063D01*
X109948261Y-70047800D01*
X109945456Y-69987330D01*
X109941602Y-69941010D01*
X109936697Y-69913199D01*
X109933740Y-69907507D01*
X109917277Y-69901766D01*
X109879791Y-69892425D01*
X109825015Y-69880295D01*
X109756685Y-69866187D01*
X109678534Y-69850910D01*
X109635956Y-69842903D01*
X109555169Y-69827801D01*
X109483127Y-69814120D01*
X109423351Y-69802547D01*
X109379361Y-69793767D01*
X109354679Y-69788467D01*
X109350617Y-69787292D01*
X109343751Y-69774045D01*
X109329238Y-69742137D01*
X109309011Y-69696127D01*
X109285006Y-69640572D01*
X109259158Y-69580033D01*
X109233400Y-69519066D01*
X109209667Y-69462231D01*
X109189894Y-69414086D01*
X109176016Y-69379190D01*
X109169966Y-69362101D01*
X109169854Y-69361354D01*
X109176712Y-69347873D01*
X109195938Y-69316850D01*
X109225512Y-69271369D01*
X109263413Y-69214512D01*
X109307620Y-69149363D01*
X109333319Y-69111942D01*
X109380147Y-69043327D01*
X109421739Y-68981032D01*
X109456065Y-68928209D01*
X109481097Y-68888007D01*
X109494805Y-68863580D01*
X109496784Y-68858104D01*
X109488274Y-68845358D01*
X109464747Y-68818143D01*
X109429208Y-68779508D01*
X109384663Y-68732503D01*
X109334117Y-68680175D01*
X109280576Y-68625575D01*
X109227045Y-68571750D01*
X109176529Y-68521750D01*
X109132034Y-68478623D01*
X109096565Y-68445419D01*
X109073127Y-68425186D01*
X109065286Y-68420358D01*
X109052520Y-68427147D01*
X109021984Y-68446222D01*
X108976650Y-68475641D01*
X108919484Y-68513461D01*
X108853456Y-68557741D01*
X108803650Y-68591475D01*
X108552004Y-68762592D01*
X108342241Y-68676121D01*
X108132477Y-68589650D01*
X108075629Y-68288098D01*
X108018780Y-67986546D01*
X107391125Y-67986546D01*
X107334276Y-68288098D01*
X107334276Y-68288098D01*
G37*
X107334276Y-68288098D02*
X107277428Y-68589650D01*
X106857902Y-68762592D01*
X106606256Y-68591475D01*
X106535782Y-68543830D01*
X106472077Y-68501290D01*
X106418114Y-68465795D01*
X106376867Y-68439290D01*
X106351306Y-68423716D01*
X106344345Y-68420358D01*
X106331805Y-68428994D01*
X106305009Y-68452872D01*
X106266960Y-68488939D01*
X106220661Y-68534147D01*
X106169117Y-68585444D01*
X106115331Y-68639781D01*
X106062305Y-68694108D01*
X106013045Y-68745375D01*
X105970553Y-68790531D01*
X105937833Y-68826526D01*
X105917889Y-68850310D01*
X105913121Y-68858270D01*
X105919983Y-68872945D01*
X105939220Y-68905094D01*
X105968810Y-68951572D01*
X106006730Y-69009236D01*
X106050958Y-69074940D01*
X106076586Y-69112416D01*
X106123299Y-69180848D01*
X106164808Y-69242600D01*
X106199100Y-69294599D01*
X106224160Y-69333772D01*
X106237976Y-69357045D01*
X106240052Y-69361935D01*
X106235345Y-69375835D01*
X106222517Y-69408230D01*
X106203502Y-69454565D01*
X106180237Y-69510286D01*
X106154656Y-69570838D01*
X106128695Y-69631666D01*
X106104290Y-69688216D01*
X106083377Y-69735932D01*
X106067891Y-69770261D01*
X106059768Y-69786648D01*
X106059288Y-69787292D01*
X106046533Y-69790421D01*
X106012563Y-69797401D01*
X105960900Y-69807547D01*
X105895064Y-69820172D01*
X105818576Y-69834589D01*
X105773950Y-69842903D01*
X105692219Y-69858464D01*
X105618397Y-69873272D01*
X105556219Y-69886516D01*
X105509418Y-69897385D01*
X105481731Y-69905069D01*
X105476166Y-69907507D01*
X105470714Y-69924010D01*
X105466316Y-69961280D01*
X105462968Y-70014960D01*
X105460666Y-70080692D01*
X105459408Y-70154117D01*
X105459192Y-70230876D01*
X105460013Y-70306612D01*
X105461869Y-70376966D01*
X105464758Y-70437580D01*
X105468675Y-70484096D01*
X105473618Y-70512155D01*
X105476583Y-70517996D01*
X105494306Y-70524997D01*
X105531859Y-70535007D01*
X105584276Y-70546849D01*
X105646588Y-70559347D01*
X105668340Y-70563390D01*
X105773216Y-70582600D01*
X105856060Y-70598071D01*
X105919610Y-70610417D01*
X105966603Y-70620253D01*
X105999777Y-70628194D01*
X106021869Y-70634856D01*
X106035616Y-70640853D01*
X106043756Y-70646799D01*
X106044895Y-70647974D01*
X106056263Y-70666906D01*
X106073605Y-70703749D01*
X106095190Y-70753993D01*
X106119286Y-70813126D01*
X106144161Y-70876636D01*
X106168083Y-70940012D01*
X106189321Y-70998742D01*
X106206143Y-71048315D01*
X106216818Y-71084219D01*
X106219613Y-71101942D01*
X106219380Y-71102563D01*
X106209909Y-71117050D01*
X106188422Y-71148924D01*
X106157177Y-71194869D01*
X106118433Y-71251565D01*
X106074447Y-71315697D01*
X106061921Y-71333922D01*
X106017256Y-71399994D01*
X105977952Y-71460280D01*
X105946152Y-71511315D01*
X105923995Y-71549640D01*
X105913623Y-71571791D01*
X105913121Y-71574512D01*
X105921835Y-71588816D01*
X105945915Y-71617152D01*
X105982264Y-71656476D01*
X106027787Y-71703741D01*
X106079388Y-71755903D01*
X106133973Y-71809915D01*
X106188446Y-71862733D01*
X106239711Y-71911311D01*
X106284673Y-71952603D01*
X106320236Y-71983565D01*
X106343305Y-72001150D01*
X106349686Y-72004021D01*
X106364541Y-71997258D01*
X106394954Y-71979019D01*
X106435972Y-71952377D01*
X106467531Y-71930932D01*
X106524715Y-71891583D01*
X106592434Y-71845251D01*
X106660360Y-71798993D01*
X106696879Y-71774235D01*
X106820488Y-71690627D01*
X106924249Y-71746730D01*
X106971520Y-71771308D01*
X107011717Y-71790411D01*
X107038914Y-71801307D01*
X107045838Y-71802823D01*
X107054163Y-71791629D01*
X107070586Y-71759997D01*
X107093883Y-71710845D01*
X107122826Y-71647090D01*
X107156190Y-71571651D01*
X107192749Y-71487444D01*
X107231276Y-71397388D01*
X107270546Y-71304401D01*
X107309332Y-71211400D01*
X107346410Y-71121303D01*
X107380551Y-71037028D01*
X107410532Y-70961493D01*
X107435124Y-70897614D01*
X107453104Y-70848311D01*
X107463243Y-70816501D01*
X107464874Y-70805576D01*
X107451949Y-70791641D01*
X107423651Y-70769020D01*
X107385894Y-70742413D01*
X107382725Y-70740308D01*
X107285140Y-70662194D01*
X107206454Y-70571062D01*
X107147349Y-70469825D01*
X107108508Y-70361398D01*
X107090612Y-70248694D01*
X107094343Y-70134628D01*
X107120383Y-70022114D01*
X107169415Y-69914065D01*
X107183840Y-69890425D01*
X107258871Y-69794967D01*
X107347510Y-69718312D01*
X107446691Y-69660860D01*
X107553345Y-69623009D01*
X107664404Y-69605158D01*
X107776801Y-69607705D01*
X107887467Y-69631050D01*
X107993334Y-69675590D01*
X108091335Y-69741725D01*
X108121650Y-69768567D01*
X108198802Y-69852592D01*
X108255022Y-69941046D01*
X108293587Y-70040195D01*
X108315066Y-70138383D01*
X108320368Y-70248777D01*
X108302688Y-70359720D01*
X108263821Y-70467461D01*
X108205563Y-70568249D01*
X108129709Y-70658336D01*
X108038057Y-70733972D01*
X108026012Y-70741944D01*
X107987851Y-70768054D01*
X107958841Y-70790675D01*
X107944972Y-70805119D01*
X107944771Y-70805576D01*
X107947748Y-70821201D01*
X107959551Y-70856662D01*
X107978954Y-70909042D01*
X108004728Y-70975425D01*
X108035649Y-71052894D01*
X108070489Y-71138530D01*
X108108023Y-71229417D01*
X108147023Y-71322639D01*
X108186263Y-71415277D01*
X108224516Y-71504415D01*
X108260557Y-71587135D01*
X108293157Y-71660521D01*
X108321092Y-71721655D01*
X108343135Y-71767621D01*
X108358058Y-71795501D01*
X108364068Y-71802823D01*
X108382431Y-71797121D01*
X108416792Y-71781829D01*
X108461224Y-71759679D01*
X108485657Y-71746730D01*
X108589418Y-71690627D01*
X108713027Y-71774235D01*
X108776126Y-71817067D01*
X108845210Y-71864202D01*
X108909947Y-71908583D01*
X108942374Y-71930932D01*
X108987981Y-71961557D01*
X109026600Y-71985827D01*
X109053192Y-72000667D01*
X109061830Y-72003804D01*
X109074401Y-71995341D01*
X109102224Y-71971716D01*
X109142601Y-71935382D01*
X109192835Y-71888791D01*
X109250228Y-71834397D01*
X109286526Y-71799472D01*
X109350030Y-71737076D01*
X109404913Y-71681268D01*
X109448954Y-71634434D01*
X109479935Y-71598962D01*
X109495638Y-71577241D01*
X109497145Y-71572832D01*
X109490154Y-71556065D01*
X109470834Y-71522162D01*
X109441331Y-71474556D01*
X109403785Y-71416679D01*
X109360340Y-71351964D01*
X109347985Y-71333922D01*
X109302967Y-71268347D01*
X109262580Y-71209308D01*
X109229080Y-71160122D01*
X109204726Y-71124108D01*
X109191776Y-71104582D01*
X109190525Y-71102563D01*
X109192396Y-71087002D01*
X109202327Y-71052789D01*
X109218587Y-71004435D01*
X109239445Y-70946451D01*
X109263167Y-70883350D01*
X109288024Y-70819643D01*
X109312282Y-70759841D01*
X109334211Y-70708456D01*
X109352078Y-70669999D01*
X109364153Y-70648982D01*
X109365011Y-70647974D01*
X109372394Y-70641968D01*
X109384865Y-70636028D01*
X109405160Y-70629540D01*
X109436018Y-70621889D01*
X109480174Y-70612460D01*
X109540366Y-70600639D01*
X109619333Y-70585809D01*
X109719810Y-70567357D01*
X109741565Y-70563390D01*
X109806042Y-70550933D01*
X109862251Y-70538746D01*
X109905227Y-70528006D01*
X109930000Y-70519889D01*
X109933322Y-70517996D01*
X109938796Y-70501218D01*
X109943246Y-70463725D01*
X109946668Y-70409874D01*
X109949059Y-70344024D01*
X109950417Y-70270533D01*
X109950739Y-70193760D01*
X109950021Y-70118063D01*
X109948261Y-70047800D01*
X109945456Y-69987330D01*
X109941602Y-69941010D01*
X109936697Y-69913199D01*
X109933740Y-69907507D01*
X109917277Y-69901766D01*
X109879791Y-69892425D01*
X109825015Y-69880295D01*
X109756685Y-69866187D01*
X109678534Y-69850910D01*
X109635956Y-69842903D01*
X109555169Y-69827801D01*
X109483127Y-69814120D01*
X109423351Y-69802547D01*
X109379361Y-69793767D01*
X109354679Y-69788467D01*
X109350617Y-69787292D01*
X109343751Y-69774045D01*
X109329238Y-69742137D01*
X109309011Y-69696127D01*
X109285006Y-69640572D01*
X109259158Y-69580033D01*
X109233400Y-69519066D01*
X109209667Y-69462231D01*
X109189894Y-69414086D01*
X109176016Y-69379190D01*
X109169966Y-69362101D01*
X109169854Y-69361354D01*
X109176712Y-69347873D01*
X109195938Y-69316850D01*
X109225512Y-69271369D01*
X109263413Y-69214512D01*
X109307620Y-69149363D01*
X109333319Y-69111942D01*
X109380147Y-69043327D01*
X109421739Y-68981032D01*
X109456065Y-68928209D01*
X109481097Y-68888007D01*
X109494805Y-68863580D01*
X109496784Y-68858104D01*
X109488274Y-68845358D01*
X109464747Y-68818143D01*
X109429208Y-68779508D01*
X109384663Y-68732503D01*
X109334117Y-68680175D01*
X109280576Y-68625575D01*
X109227045Y-68571750D01*
X109176529Y-68521750D01*
X109132034Y-68478623D01*
X109096565Y-68445419D01*
X109073127Y-68425186D01*
X109065286Y-68420358D01*
X109052520Y-68427147D01*
X109021984Y-68446222D01*
X108976650Y-68475641D01*
X108919484Y-68513461D01*
X108853456Y-68557741D01*
X108803650Y-68591475D01*
X108552004Y-68762592D01*
X108342241Y-68676121D01*
X108132477Y-68589650D01*
X108075629Y-68288098D01*
X108018780Y-67986546D01*
X107391125Y-67986546D01*
X107334276Y-68288098D01*
D15*
X166055642Y-69421357D02*
X166074690Y-69440405D01*
X166131833Y-69459452D01*
X166169928Y-69459452D01*
X166227071Y-69440405D01*
X166265166Y-69402310D01*
X166284214Y-69364214D01*
X166303262Y-69288024D01*
X166303262Y-69230881D01*
X166284214Y-69154690D01*
X166265166Y-69116595D01*
X166227071Y-69078500D01*
X166169928Y-69059452D01*
X166131833Y-69059452D01*
X166074690Y-69078500D01*
X166055642Y-69097548D01*
X165674690Y-69459452D02*
X165903262Y-69459452D01*
X165788976Y-69459452D02*
X165788976Y-69059452D01*
X165827071Y-69116595D01*
X165865166Y-69154690D01*
X165903262Y-69173738D01*
X165522310Y-69097548D02*
X165503262Y-69078500D01*
X165465167Y-69059452D01*
X165369929Y-69059452D01*
X165331833Y-69078500D01*
X165312786Y-69097548D01*
X165293738Y-69135643D01*
X165293738Y-69173738D01*
X165312786Y-69230881D01*
X165541357Y-69459452D01*
X165293738Y-69459452D01*
X171453142Y-69167357D02*
X171472190Y-69186405D01*
X171529333Y-69205452D01*
X171567428Y-69205452D01*
X171624571Y-69186405D01*
X171662666Y-69148310D01*
X171681714Y-69110214D01*
X171700762Y-69034024D01*
X171700762Y-68976881D01*
X171681714Y-68900690D01*
X171662666Y-68862595D01*
X171624571Y-68824500D01*
X171567428Y-68805452D01*
X171529333Y-68805452D01*
X171472190Y-68824500D01*
X171453142Y-68843548D01*
X171072190Y-69205452D02*
X171300762Y-69205452D01*
X171186476Y-69205452D02*
X171186476Y-68805452D01*
X171224571Y-68862595D01*
X171262666Y-68900690D01*
X171300762Y-68919738D01*
X170938857Y-68805452D02*
X170691238Y-68805452D01*
X170824571Y-68957833D01*
X170767429Y-68957833D01*
X170729333Y-68976881D01*
X170710286Y-68995929D01*
X170691238Y-69034024D01*
X170691238Y-69129262D01*
X170710286Y-69167357D01*
X170729333Y-69186405D01*
X170767429Y-69205452D01*
X170881714Y-69205452D01*
X170919810Y-69186405D01*
X170938857Y-69167357D01*
X195110952Y-69616667D02*
X195396667Y-69616667D01*
X195453810Y-69597619D01*
X195491905Y-69559524D01*
X195510952Y-69502381D01*
X195510952Y-69464286D01*
X195510952Y-70016667D02*
X195510952Y-69788095D01*
X195510952Y-69902381D02*
X195110952Y-69902381D01*
X195168095Y-69864286D01*
X195206190Y-69826191D01*
X195225238Y-69788095D01*
X181450952Y-75866667D02*
X181736667Y-75866667D01*
X181793810Y-75847619D01*
X181831905Y-75809524D01*
X181850952Y-75752381D01*
X181850952Y-75714286D01*
X181489048Y-76038095D02*
X181470000Y-76057143D01*
X181450952Y-76095238D01*
X181450952Y-76190476D01*
X181470000Y-76228572D01*
X181489048Y-76247619D01*
X181527143Y-76266667D01*
X181565238Y-76266667D01*
X181622381Y-76247619D01*
X181850952Y-76019048D01*
X181850952Y-76266667D01*
X189816666Y-74380952D02*
X189950000Y-74190476D01*
X190045238Y-74380952D02*
X190045238Y-73980952D01*
X189892857Y-73980952D01*
X189854762Y-74000000D01*
X189835714Y-74019048D01*
X189816666Y-74057143D01*
X189816666Y-74114286D01*
X189835714Y-74152381D01*
X189854762Y-74171429D01*
X189892857Y-74190476D01*
X190045238Y-74190476D01*
X189664286Y-74019048D02*
X189645238Y-74000000D01*
X189607143Y-73980952D01*
X189511905Y-73980952D01*
X189473809Y-74000000D01*
X189454762Y-74019048D01*
X189435714Y-74057143D01*
X189435714Y-74095238D01*
X189454762Y-74152381D01*
X189683333Y-74380952D01*
X189435714Y-74380952D01*
X184566666Y-74380952D02*
X184700000Y-74190476D01*
X184795238Y-74380952D02*
X184795238Y-73980952D01*
X184642857Y-73980952D01*
X184604762Y-74000000D01*
X184585714Y-74019048D01*
X184566666Y-74057143D01*
X184566666Y-74114286D01*
X184585714Y-74152381D01*
X184604762Y-74171429D01*
X184642857Y-74190476D01*
X184795238Y-74190476D01*
X184433333Y-73980952D02*
X184185714Y-73980952D01*
X184319047Y-74133333D01*
X184261905Y-74133333D01*
X184223809Y-74152381D01*
X184204762Y-74171429D01*
X184185714Y-74209524D01*
X184185714Y-74304762D01*
X184204762Y-74342857D01*
X184223809Y-74361905D01*
X184261905Y-74380952D01*
X184376190Y-74380952D01*
X184414286Y-74361905D01*
X184433333Y-74342857D01*
X168900452Y-72259834D02*
X168709976Y-72126500D01*
X168900452Y-72031262D02*
X168500452Y-72031262D01*
X168500452Y-72183643D01*
X168519500Y-72221738D01*
X168538548Y-72240786D01*
X168576643Y-72259834D01*
X168633786Y-72259834D01*
X168671881Y-72240786D01*
X168690929Y-72221738D01*
X168709976Y-72183643D01*
X168709976Y-72031262D01*
X168671881Y-72488405D02*
X168652833Y-72450310D01*
X168633786Y-72431262D01*
X168595690Y-72412214D01*
X168576643Y-72412214D01*
X168538548Y-72431262D01*
X168519500Y-72450310D01*
X168500452Y-72488405D01*
X168500452Y-72564595D01*
X168519500Y-72602691D01*
X168538548Y-72621738D01*
X168576643Y-72640786D01*
X168595690Y-72640786D01*
X168633786Y-72621738D01*
X168652833Y-72602691D01*
X168671881Y-72564595D01*
X168671881Y-72488405D01*
X168690929Y-72450310D01*
X168709976Y-72431262D01*
X168748071Y-72412214D01*
X168824262Y-72412214D01*
X168862357Y-72431262D01*
X168881405Y-72450310D01*
X168900452Y-72488405D01*
X168900452Y-72564595D01*
X168881405Y-72602691D01*
X168862357Y-72621738D01*
X168824262Y-72640786D01*
X168748071Y-72640786D01*
X168709976Y-72621738D01*
X168690929Y-72602691D01*
X168671881Y-72564595D01*
X169217952Y-66608334D02*
X169027476Y-66475000D01*
X169217952Y-66379762D02*
X168817952Y-66379762D01*
X168817952Y-66532143D01*
X168837000Y-66570238D01*
X168856048Y-66589286D01*
X168894143Y-66608334D01*
X168951286Y-66608334D01*
X168989381Y-66589286D01*
X169008429Y-66570238D01*
X169027476Y-66532143D01*
X169027476Y-66379762D01*
X169217952Y-66798810D02*
X169217952Y-66875000D01*
X169198905Y-66913095D01*
X169179857Y-66932143D01*
X169122714Y-66970238D01*
X169046524Y-66989286D01*
X168894143Y-66989286D01*
X168856048Y-66970238D01*
X168837000Y-66951191D01*
X168817952Y-66913095D01*
X168817952Y-66836905D01*
X168837000Y-66798810D01*
X168856048Y-66779762D01*
X168894143Y-66760714D01*
X168989381Y-66760714D01*
X169027476Y-66779762D01*
X169046524Y-66798810D01*
X169065571Y-66836905D01*
X169065571Y-66913095D01*
X169046524Y-66951191D01*
X169027476Y-66970238D01*
X168989381Y-66989286D01*
X166614452Y-66417858D02*
X166423976Y-66284524D01*
X166614452Y-66189286D02*
X166214452Y-66189286D01*
X166214452Y-66341667D01*
X166233500Y-66379762D01*
X166252548Y-66398810D01*
X166290643Y-66417858D01*
X166347786Y-66417858D01*
X166385881Y-66398810D01*
X166404929Y-66379762D01*
X166423976Y-66341667D01*
X166423976Y-66189286D01*
X166614452Y-66798810D02*
X166614452Y-66570238D01*
X166614452Y-66684524D02*
X166214452Y-66684524D01*
X166271595Y-66646429D01*
X166309690Y-66608334D01*
X166328738Y-66570238D01*
X166214452Y-67046429D02*
X166214452Y-67084524D01*
X166233500Y-67122619D01*
X166252548Y-67141667D01*
X166290643Y-67160714D01*
X166366833Y-67179762D01*
X166462071Y-67179762D01*
X166538262Y-67160714D01*
X166576357Y-67141667D01*
X166595405Y-67122619D01*
X166614452Y-67084524D01*
X166614452Y-67046429D01*
X166595405Y-67008333D01*
X166576357Y-66989286D01*
X166538262Y-66970238D01*
X166462071Y-66951190D01*
X166366833Y-66951190D01*
X166290643Y-66970238D01*
X166252548Y-66989286D01*
X166233500Y-67008333D01*
X166214452Y-67046429D01*
X171056262Y-70837452D02*
X171056262Y-71161262D01*
X171037214Y-71199357D01*
X171018167Y-71218405D01*
X170980071Y-71237452D01*
X170903881Y-71237452D01*
X170865786Y-71218405D01*
X170846738Y-71199357D01*
X170827690Y-71161262D01*
X170827690Y-70837452D01*
X170465785Y-70970786D02*
X170465785Y-71237452D01*
X170561023Y-70818405D02*
X170656262Y-71104119D01*
X170408642Y-71104119D01*
M02*
