G04 #@! TF.FileFunction,Copper,L2,Bot,Signal*
%FSLAX46Y46*%
G04 Gerber Fmt 4.6, Leading zero omitted, Abs format (unit mm)*
G04 Created by KiCad (PCBNEW 4.0.6) date 09/09/17 21:27:57*
%MOMM*%
%LPD*%
G01*
G04 APERTURE LIST*
%ADD10C,0.100000*%
%ADD11C,3.000000*%
%ADD12R,0.750000X0.800000*%
%ADD13R,1.700000X1.700000*%
%ADD14O,1.700000X1.700000*%
%ADD15R,0.500000X0.900000*%
%ADD16R,0.200000X0.550000*%
%ADD17R,0.550000X0.200000*%
%ADD18R,0.800000X0.875000*%
%ADD19C,0.600000*%
%ADD20C,0.152400*%
%ADD21C,0.250000*%
%ADD22C,0.203200*%
%ADD23C,0.152000*%
G04 APERTURE END LIST*
D10*
D11*
X161770000Y-69500000D03*
X175230000Y-69500000D03*
D12*
X165800000Y-70050000D03*
X165800000Y-68550000D03*
X171196000Y-68274500D03*
X171196000Y-69774500D03*
D13*
X193000000Y-69750000D03*
D14*
X190460000Y-69750000D03*
X187920000Y-69750000D03*
X185380000Y-69750000D03*
X182840000Y-69750000D03*
D13*
X184000000Y-76000000D03*
D14*
X186540000Y-76000000D03*
X189080000Y-76000000D03*
X191620000Y-76000000D03*
D15*
X189000000Y-72750000D03*
X190500000Y-72750000D03*
X183750000Y-72750000D03*
X185250000Y-72750000D03*
X169450000Y-72300000D03*
X167950000Y-72300000D03*
X169750000Y-66700000D03*
X168250000Y-66700000D03*
X167150000Y-66700000D03*
X165650000Y-66700000D03*
D16*
X167500000Y-68000000D03*
X167900000Y-68000000D03*
X168300000Y-68000000D03*
X168700000Y-68000000D03*
X169100000Y-68000000D03*
X169500000Y-68000000D03*
D17*
X170000000Y-68500000D03*
X170000000Y-68900000D03*
X170000000Y-69300000D03*
X170000000Y-69700000D03*
X170000000Y-70100000D03*
X170000000Y-70500000D03*
D16*
X169500000Y-71000000D03*
X169100000Y-71000000D03*
X168700000Y-71000000D03*
X168300000Y-71000000D03*
X167900000Y-71000000D03*
X167500000Y-71000000D03*
D17*
X167000000Y-70500000D03*
X167000000Y-70100000D03*
X167000000Y-69700000D03*
X167000000Y-69300000D03*
X167000000Y-68900000D03*
X167000000Y-68500000D03*
D18*
X168900000Y-69935000D03*
X168100000Y-69935000D03*
X168900000Y-69065000D03*
X168100000Y-69065000D03*
D19*
X172021500Y-72136000D03*
X163258500Y-72009000D03*
X156200000Y-69900000D03*
X151100000Y-69800000D03*
X144700000Y-74700000D03*
X182400000Y-64300000D03*
X176800000Y-66600000D03*
X163703000Y-71374000D03*
X164973000Y-73342500D03*
X143700500Y-78295500D03*
X171196000Y-68084000D03*
X165798500Y-70866000D03*
X195400000Y-68200000D03*
X170325000Y-78000000D03*
X150939500Y-72390000D03*
X149000000Y-64600000D03*
X153400000Y-67000000D03*
X157300000Y-67900000D03*
X160200000Y-67200000D03*
X156500000Y-73200000D03*
X149400000Y-78250000D03*
X151000000Y-78400000D03*
X160300000Y-73300000D03*
X161950000Y-74700000D03*
X174000000Y-77200000D03*
X175050000Y-74000000D03*
X176800000Y-63800000D03*
X179800000Y-66500000D03*
X191200000Y-64800000D03*
X193475000Y-64000000D03*
X164338000Y-68643500D03*
X162115500Y-71755000D03*
X163639500Y-73279000D03*
X146875500Y-76390500D03*
X146050000Y-70739000D03*
X161500000Y-65100000D03*
X180100000Y-67800000D03*
X149400000Y-76750000D03*
X155600000Y-77200000D03*
X191250000Y-63250000D03*
X196700000Y-63700000D03*
X156950000Y-64300000D03*
X155800000Y-67100000D03*
X167275000Y-78000000D03*
X184050000Y-64200000D03*
X188700000Y-63000000D03*
X154500000Y-67100000D03*
X158500000Y-75350000D03*
X164500000Y-76300000D03*
X171200000Y-73300000D03*
X155600000Y-73200000D03*
X162052000Y-76708000D03*
X166100000Y-73400000D03*
X168338500Y-66548000D03*
X166370000Y-65722500D03*
X165671500Y-66675000D03*
X163385500Y-67183000D03*
X159829500Y-68199000D03*
X151638000Y-68326000D03*
X141986000Y-67564000D03*
X140800000Y-67550000D03*
X151300000Y-69000000D03*
X148717000Y-72898000D03*
X152527000Y-72517000D03*
X155003500Y-72517000D03*
X154940000Y-71120000D03*
X152590500Y-70675500D03*
X146875500Y-66230500D03*
X145400000Y-66250000D03*
X152082500Y-66865500D03*
X152019000Y-67627500D03*
X142367000Y-66738500D03*
X143900000Y-66250000D03*
X150114000Y-67183000D03*
X148200000Y-69900000D03*
X151100000Y-71400000D03*
X147900000Y-75500000D03*
X145200000Y-71100000D03*
X149400000Y-75350000D03*
X151193500Y-73152000D03*
X193900000Y-76400000D03*
X157100000Y-71200000D03*
X156900000Y-70300000D03*
X181100000Y-77300000D03*
X165900000Y-75900000D03*
X144800000Y-76800000D03*
X175300000Y-64100000D03*
X180800000Y-64200000D03*
X174300000Y-64100000D03*
X161417000Y-66230500D03*
X153200000Y-73100000D03*
X175500000Y-65400000D03*
X152400000Y-73279000D03*
X172400000Y-76500000D03*
X140800000Y-69050000D03*
X138770360Y-68676520D03*
X140800000Y-71750000D03*
X139374880Y-70485000D03*
X139019280Y-76575920D03*
X139532360Y-65532000D03*
X142300000Y-64850000D03*
X139242800Y-77551280D03*
X143900000Y-64750000D03*
X139491720Y-74945240D03*
X141091920Y-75585320D03*
X141787880Y-69565520D03*
D20*
X138317303Y-78187837D02*
X140604240Y-78160880D01*
X137747465Y-64821116D02*
X138419840Y-65288160D01*
X136694786Y-64868493D02*
X138222552Y-65798850D01*
X135313994Y-64930637D02*
X137834123Y-66632205D01*
X137834123Y-66632205D02*
X137834123Y-66632206D01*
X133948005Y-64992114D02*
X137390517Y-67512146D01*
X132569951Y-65054134D02*
X137275310Y-68611159D01*
X131126496Y-65119098D02*
X137366001Y-69883726D01*
X137366001Y-69883726D02*
X137366001Y-69883732D01*
X129946668Y-65172197D02*
X137473912Y-71397963D01*
X137473912Y-71397963D02*
X137473912Y-71397967D01*
X128580857Y-65233667D02*
X137555808Y-72547149D01*
X127299178Y-65291350D02*
X137564401Y-73905967D01*
X125806851Y-65358514D02*
X137762554Y-75448262D01*
X137762554Y-75448262D02*
X137762554Y-75448267D01*
X136690554Y-78118126D02*
X137749280Y-76484480D01*
X124329278Y-65425013D02*
X137932160Y-77236320D01*
X122831704Y-65492413D02*
X137017760Y-78049120D01*
X121230581Y-65564473D02*
X135722360Y-77978000D01*
X119217492Y-65655074D02*
X134279732Y-78014815D01*
X135149282Y-78052078D02*
X137730926Y-75004449D01*
X137730926Y-75004449D02*
X137730926Y-75004455D01*
X133725795Y-77991077D02*
X137564401Y-73905967D01*
X137564401Y-73905967D02*
X137646422Y-73818679D01*
X137646422Y-73818679D02*
X137646422Y-73818673D01*
X132260222Y-77928273D02*
X137521819Y-72070214D01*
X137521819Y-72070214D02*
X137521819Y-72070211D01*
X131000953Y-77874310D02*
X137376626Y-70032831D01*
X137376626Y-70032831D02*
X137376626Y-70032825D01*
X129700249Y-77818571D02*
X137275310Y-68611159D01*
X137275310Y-68611159D02*
X137275312Y-68611157D01*
X137275312Y-68611157D02*
X137275312Y-68611161D01*
X128178173Y-77753346D02*
X138222552Y-65798850D01*
X138222552Y-65798850D02*
X138301783Y-65704552D01*
X138301783Y-65704552D02*
X138301784Y-65704551D01*
X138301784Y-65704551D02*
X138301784Y-65704550D01*
X126979680Y-77622400D02*
X137688320Y-64922400D01*
X125291938Y-77629662D02*
X136469120Y-64963040D01*
X123501841Y-77552951D02*
X135146253Y-64938186D01*
X121615545Y-77472118D02*
X133746451Y-65001185D01*
X120110275Y-77407613D02*
X132019040Y-65166240D01*
X118728440Y-77348397D02*
X130661530Y-65140024D01*
X117267213Y-77285779D02*
X129022611Y-65213785D01*
X115722247Y-77219573D02*
X127834815Y-65267244D01*
X127834815Y-65267244D02*
X127834816Y-65267243D01*
X114256674Y-77156769D02*
X126346508Y-65334226D01*
X117529778Y-65731031D02*
X132445760Y-77825600D01*
X115764599Y-65810474D02*
X130576320Y-77764640D01*
X114158913Y-65882739D02*
X128645920Y-77683360D01*
X112674400Y-65979040D02*
X126573280Y-77602080D01*
X110782100Y-66118740D02*
X124703840Y-77500480D01*
X109164120Y-66136520D02*
X122937415Y-77454381D01*
X107544433Y-66180428D02*
X120859742Y-77422154D01*
X105752358Y-66261082D02*
X118935645Y-77337375D01*
X103909536Y-66344020D02*
X117089787Y-77260860D01*
X103822500Y-67940125D02*
X114852580Y-77167437D01*
X103845360Y-69702680D02*
X112349280Y-76977240D01*
X103776463Y-71302903D02*
X110403717Y-76980549D01*
X103779216Y-73177696D02*
X108031271Y-76889991D01*
X103784140Y-74869300D02*
X103784140Y-75028850D01*
X103784140Y-75028850D02*
X105477285Y-76721995D01*
X112764370Y-77092819D02*
X112873781Y-77092819D01*
X112873781Y-77092819D02*
X124551592Y-65415008D01*
X110809765Y-77009058D02*
X110809765Y-77002915D01*
X110809765Y-77002915D02*
X122209560Y-65603120D01*
X109078270Y-76934858D02*
X109078270Y-76920850D01*
X109078270Y-76920850D02*
X120397137Y-65601983D01*
X107234133Y-76855831D02*
X107268769Y-76855831D01*
X107268769Y-76855831D02*
X118434277Y-65690323D01*
X105477285Y-76780545D02*
X105477285Y-76721995D01*
X105477285Y-76721995D02*
X116418223Y-65781057D01*
X103784094Y-76499614D02*
X103784273Y-76621707D01*
X103784273Y-76621707D02*
X114604306Y-65862694D01*
X103781700Y-74869300D02*
X103784140Y-74869300D01*
X103784140Y-74869300D02*
X112674400Y-65979040D01*
X112674400Y-65979040D02*
X112705279Y-65948161D01*
X103779066Y-73075546D02*
X103825294Y-73075546D01*
X103825294Y-73075546D02*
X110782100Y-66118740D01*
X110782100Y-66118740D02*
X110870085Y-66030755D01*
X103776717Y-71475877D02*
X103824763Y-71475877D01*
X103824763Y-71475877D02*
X109164120Y-66136520D01*
X109164120Y-66136520D02*
X109194473Y-66106167D01*
X103774203Y-69763843D02*
X103784197Y-69763843D01*
X103784197Y-69763843D02*
X103845360Y-69702680D01*
X103845360Y-69702680D02*
X107359279Y-66188761D01*
X103771525Y-67940125D02*
X103822500Y-67940125D01*
X103822500Y-67940125D02*
X103774035Y-67940125D01*
X103774035Y-67940125D02*
X105438974Y-66275186D01*
X103784400Y-76708000D02*
X105477285Y-76780545D01*
X105477285Y-76780545D02*
X107234133Y-76855831D01*
X107234133Y-76855831D02*
X108031271Y-76889991D01*
X108031271Y-76889991D02*
X109078270Y-76934858D01*
X109078270Y-76934858D02*
X110809765Y-77009058D01*
X110809765Y-77009058D02*
X112764370Y-77092819D01*
X112764370Y-77092819D02*
X114256674Y-77156769D01*
X114256674Y-77156769D02*
X115722247Y-77219573D01*
X115722247Y-77219573D02*
X117267213Y-77285779D01*
X117267213Y-77285779D02*
X118728440Y-77348397D01*
X118728440Y-77348397D02*
X120110275Y-77407613D01*
X120110275Y-77407613D02*
X121615545Y-77472118D01*
X121615545Y-77472118D02*
X123501841Y-77552951D01*
X123501841Y-77552951D02*
X125291938Y-77629662D01*
X125291938Y-77629662D02*
X128178173Y-77753346D01*
X128178173Y-77753346D02*
X129700249Y-77818571D01*
X129700249Y-77818571D02*
X131000953Y-77874310D01*
X131000953Y-77874310D02*
X132260222Y-77928273D01*
X132260222Y-77928273D02*
X133725795Y-77991077D01*
X133725795Y-77991077D02*
X134279732Y-78014815D01*
X134279732Y-78014815D02*
X135149282Y-78052078D01*
X135149282Y-78052078D02*
X136690554Y-78118126D01*
X136690554Y-78118126D02*
X138235610Y-78184336D01*
X138235610Y-78184336D02*
X138317303Y-78187837D01*
X138317303Y-78187837D02*
X138399520Y-78191360D01*
X138399520Y-78191360D02*
X137850880Y-76687680D01*
X137850880Y-76687680D02*
X137762554Y-75448267D01*
X137762554Y-75448267D02*
X137730926Y-75004455D01*
X137730926Y-75004455D02*
X137646422Y-73818673D01*
X137646422Y-73818673D02*
X137521819Y-72070211D01*
X137521819Y-72070211D02*
X137473912Y-71397967D01*
X137473912Y-71397967D02*
X137376626Y-70032825D01*
X137376626Y-70032825D02*
X137366001Y-69883732D01*
X137366001Y-69883732D02*
X137275312Y-68611161D01*
X137275312Y-68611161D02*
X137220960Y-67848480D01*
X137220960Y-67848480D02*
X137390517Y-67512146D01*
X137390517Y-67512146D02*
X137834123Y-66632206D01*
X137834123Y-66632206D02*
X138301784Y-65704550D01*
X138301784Y-65704550D02*
X138770360Y-64775080D01*
X138770360Y-64775080D02*
X137747465Y-64821116D01*
X137747465Y-64821116D02*
X136694786Y-64868493D01*
X136694786Y-64868493D02*
X135313994Y-64930637D01*
X135313994Y-64930637D02*
X135146253Y-64938186D01*
X135146253Y-64938186D02*
X133948005Y-64992114D01*
X133948005Y-64992114D02*
X133746451Y-65001185D01*
X133746451Y-65001185D02*
X132569951Y-65054134D01*
X132569951Y-65054134D02*
X131126496Y-65119098D01*
X131126496Y-65119098D02*
X130661530Y-65140024D01*
X130661530Y-65140024D02*
X129946668Y-65172197D01*
X129946668Y-65172197D02*
X129022611Y-65213785D01*
X129022611Y-65213785D02*
X128580857Y-65233667D01*
X128580857Y-65233667D02*
X127834816Y-65267243D01*
X127834816Y-65267243D02*
X127299178Y-65291350D01*
X127299178Y-65291350D02*
X126346508Y-65334226D01*
X126346508Y-65334226D02*
X125806851Y-65358514D01*
X125806851Y-65358514D02*
X124551592Y-65415008D01*
X124551592Y-65415008D02*
X124329278Y-65425013D01*
X124329278Y-65425013D02*
X122831704Y-65492413D01*
X122831704Y-65492413D02*
X121230581Y-65564473D01*
X121230581Y-65564473D02*
X120397137Y-65601983D01*
X120397137Y-65601983D02*
X119217492Y-65655074D01*
X119217492Y-65655074D02*
X118434277Y-65690323D01*
X118434277Y-65690323D02*
X117529778Y-65731031D01*
X117529778Y-65731031D02*
X116418223Y-65781057D01*
X116418223Y-65781057D02*
X115764599Y-65810474D01*
X115764599Y-65810474D02*
X114604306Y-65862694D01*
X114604306Y-65862694D02*
X114158913Y-65882739D01*
X114158913Y-65882739D02*
X112705279Y-65948161D01*
X112705279Y-65948161D02*
X110870085Y-66030755D01*
X110870085Y-66030755D02*
X109194473Y-66106167D01*
X109194473Y-66106167D02*
X107544433Y-66180428D01*
X107544433Y-66180428D02*
X107359279Y-66188761D01*
X107359279Y-66188761D02*
X105752358Y-66261082D01*
X105752358Y-66261082D02*
X105438974Y-66275186D01*
X105438974Y-66275186D02*
X103909536Y-66344020D01*
X103909536Y-66344020D02*
X103779320Y-66349880D01*
X103769160Y-66329560D02*
X103771525Y-67940125D01*
X103771525Y-67940125D02*
X103774203Y-69763843D01*
X103774203Y-69763843D02*
X103776463Y-71302903D01*
X103776463Y-71302903D02*
X103776717Y-71475877D01*
X103776717Y-71475877D02*
X103779066Y-73075546D01*
X103779066Y-73075546D02*
X103779216Y-73177696D01*
X103779216Y-73177696D02*
X103781700Y-74869300D01*
X103781700Y-74869300D02*
X103784094Y-76499614D01*
X103784094Y-76499614D02*
X103784400Y-76708000D01*
X161770000Y-69500000D02*
X161770000Y-70520500D01*
X161770000Y-70520500D02*
X163258500Y-72009000D01*
X172721000Y-72009000D02*
X175230000Y-69500000D01*
X172148500Y-72009000D02*
X172721000Y-72009000D01*
X172021500Y-72136000D02*
X172148500Y-72009000D01*
D21*
X156600000Y-69500000D02*
X161770000Y-69500000D01*
X156200000Y-69900000D02*
X156600000Y-69500000D01*
X149400000Y-69800000D02*
X151100000Y-69800000D01*
X148800000Y-69200000D02*
X149400000Y-69800000D01*
X147800000Y-69200000D02*
X148800000Y-69200000D01*
X147400000Y-69600000D02*
X147800000Y-69200000D01*
X147400000Y-72000000D02*
X147400000Y-69600000D01*
X144700000Y-74700000D02*
X147400000Y-72000000D01*
X182400000Y-64900000D02*
X182400000Y-64300000D01*
X182000000Y-65300000D02*
X182400000Y-64900000D01*
X178100000Y-65300000D02*
X182000000Y-65300000D01*
X176800000Y-66600000D02*
X178100000Y-65300000D01*
D20*
X170000000Y-69300000D02*
X169135000Y-69300000D01*
X169135000Y-69300000D02*
X168900000Y-69065000D01*
X170000000Y-69300000D02*
X170525490Y-69300000D01*
X170525490Y-69300000D02*
X171196000Y-68629490D01*
X171196000Y-68629490D02*
X171196000Y-68274500D01*
X164020500Y-72390000D02*
X164973000Y-73342500D01*
X164020500Y-72390000D02*
X164020500Y-71691500D01*
X164020500Y-71691500D02*
X163703000Y-71374000D01*
X143700500Y-78295500D02*
X143700500Y-78232000D01*
X165800000Y-70050000D02*
X166506500Y-70050000D01*
X166556500Y-70100000D02*
X167000000Y-70100000D01*
X166506500Y-70050000D02*
X166556500Y-70100000D01*
X165800000Y-70050000D02*
X165800000Y-70864500D01*
X165800000Y-70864500D02*
X165798500Y-70866000D01*
D21*
X191200000Y-64800000D02*
X191200000Y-65100000D01*
X194300000Y-68200000D02*
X195400000Y-68200000D01*
X191200000Y-65100000D02*
X194300000Y-68200000D01*
X170325000Y-78000000D02*
X170300000Y-78000000D01*
X149400000Y-78250000D02*
X149400000Y-78200000D01*
X161950000Y-74700000D02*
X162000000Y-74700000D01*
X175050000Y-74000000D02*
X175100000Y-74000000D01*
X191300000Y-64800000D02*
X191200000Y-64800000D01*
X193475000Y-64000000D02*
X193500000Y-64000000D01*
D20*
X169450000Y-72300000D02*
X170587500Y-72300000D01*
X172529500Y-70548500D02*
X172529500Y-66700000D01*
X171704000Y-71374000D02*
X172529500Y-70548500D01*
X171513500Y-71374000D02*
X171704000Y-71374000D01*
X170587500Y-72300000D02*
X171513500Y-71374000D01*
X164431500Y-68550000D02*
X165800000Y-68550000D01*
X164338000Y-68643500D02*
X164431500Y-68550000D01*
X163639500Y-73279000D02*
X162115500Y-71755000D01*
D22*
X146875500Y-76390500D02*
X146685000Y-76200000D01*
X146685000Y-76200000D02*
X143764000Y-76200000D01*
X143764000Y-76200000D02*
X142176500Y-74612500D01*
X142176500Y-74612500D02*
X142176500Y-71945500D01*
X142176500Y-71945500D02*
X143954500Y-70167500D01*
X143954500Y-70167500D02*
X145478500Y-70167500D01*
X145478500Y-70167500D02*
X146050000Y-70739000D01*
D20*
X165800000Y-68550000D02*
X165578000Y-68550000D01*
X165578000Y-68550000D02*
X164400000Y-67372000D01*
X164400000Y-67372000D02*
X164400000Y-65100000D01*
X170000000Y-68900000D02*
X170495000Y-68900000D01*
X170495000Y-68900000D02*
X170561000Y-68834000D01*
X170561000Y-68834000D02*
X170561000Y-67511000D01*
X170561000Y-67511000D02*
X169750000Y-66700000D01*
X169500000Y-71000000D02*
X169500000Y-72250000D01*
X169500000Y-72250000D02*
X169450000Y-72300000D01*
X167500000Y-68000000D02*
X167500000Y-67678000D01*
X167150000Y-67328000D02*
X167150000Y-66700000D01*
X167500000Y-67678000D02*
X167150000Y-67328000D01*
D21*
X169750000Y-66700000D02*
X169750000Y-65250000D01*
X169650000Y-65150000D02*
X167150000Y-65150000D01*
X169750000Y-65250000D02*
X169650000Y-65150000D01*
X161500000Y-65100000D02*
X164400000Y-65100000D01*
X164400000Y-65100000D02*
X167100000Y-65100000D01*
X167100000Y-65100000D02*
X167150000Y-65150000D01*
X167150000Y-65150000D02*
X167150000Y-66700000D01*
X180100000Y-67800000D02*
X177700000Y-67800000D01*
X177700000Y-67800000D02*
X177398595Y-67997860D01*
X177398595Y-67997860D02*
X176500000Y-68000000D01*
X176500000Y-68000000D02*
X175200000Y-66700000D01*
X175200000Y-66700000D02*
X172529500Y-66700000D01*
X172529500Y-66700000D02*
X169750000Y-66700000D01*
X154600000Y-76200000D02*
X155600000Y-77200000D01*
X149900000Y-76200000D02*
X154600000Y-76200000D01*
X149400000Y-76700000D02*
X149900000Y-76200000D01*
X149400000Y-76750000D02*
X149400000Y-76700000D01*
X196700000Y-63700000D02*
X196700000Y-68700000D01*
X195650000Y-69750000D02*
X193000000Y-69750000D01*
X196700000Y-68700000D02*
X195650000Y-69750000D01*
X196300000Y-63300000D02*
X196700000Y-63700000D01*
X191300000Y-63300000D02*
X196300000Y-63300000D01*
X191300000Y-63300000D02*
X191250000Y-63250000D01*
X155800000Y-65800000D02*
X155800000Y-67100000D01*
X156900000Y-64300000D02*
X155800000Y-65800000D01*
X156950000Y-64300000D02*
X156900000Y-64300000D01*
X188700000Y-63700000D02*
X188700000Y-63000000D01*
X191700000Y-66700000D02*
X188700000Y-63700000D01*
X191700000Y-71300000D02*
X191700000Y-66700000D01*
X194700000Y-74300000D02*
X191700000Y-71300000D01*
X194700000Y-78100000D02*
X194700000Y-74300000D01*
X193800000Y-79000000D02*
X194700000Y-78100000D01*
X168275000Y-79000000D02*
X193800000Y-79000000D01*
X167275000Y-78000000D02*
X168275000Y-79000000D01*
X184100000Y-64200000D02*
X184050000Y-64200000D01*
X184100000Y-64200000D02*
X184900000Y-63400000D01*
X184900000Y-63400000D02*
X188300000Y-63400000D01*
X188300000Y-63400000D02*
X188700000Y-63000000D01*
D20*
X170000000Y-69700000D02*
X171080000Y-69700000D01*
X171080000Y-69700000D02*
X171196000Y-69584000D01*
D21*
X190500000Y-72750000D02*
X190500000Y-69790000D01*
X190500000Y-69790000D02*
X190460000Y-69750000D01*
X185250000Y-72750000D02*
X185250000Y-69880000D01*
X185250000Y-69880000D02*
X185380000Y-69750000D01*
X182840000Y-67740000D02*
X182840000Y-69750000D01*
X180900000Y-65800000D02*
X182840000Y-67740000D01*
X179100000Y-65800000D02*
X180900000Y-65800000D01*
X177600000Y-67300000D02*
X179100000Y-65800000D01*
X176600000Y-67300000D02*
X177600000Y-67300000D01*
X175400000Y-66100000D02*
X176600000Y-67300000D01*
X175100000Y-66100000D02*
X175400000Y-66100000D01*
X173100000Y-64100000D02*
X175100000Y-66100000D01*
X159800000Y-64100000D02*
X173100000Y-64100000D01*
X156000000Y-67900000D02*
X159800000Y-64100000D01*
X155300000Y-67900000D02*
X156000000Y-67900000D01*
X154500000Y-67100000D02*
X155300000Y-67900000D01*
X182840000Y-69750000D02*
X182840000Y-69240000D01*
X164000000Y-75800000D02*
X164500000Y-76300000D01*
X159000000Y-75800000D02*
X164000000Y-75800000D01*
X158500000Y-75300000D02*
X159000000Y-75800000D01*
X158500000Y-75300000D02*
X158500000Y-75350000D01*
X189000000Y-72750000D02*
X189000000Y-73400000D01*
X175400000Y-73300000D02*
X171200000Y-73300000D01*
X176400000Y-74300000D02*
X175400000Y-73300000D01*
X188100000Y-74300000D02*
X176400000Y-74300000D01*
X189000000Y-73400000D02*
X188100000Y-74300000D01*
X183750000Y-72750000D02*
X171550000Y-72750000D01*
X155900000Y-73500000D02*
X155600000Y-73200000D01*
X155900000Y-75500000D02*
X155900000Y-73500000D01*
X157100000Y-76700000D02*
X155900000Y-75500000D01*
X160900000Y-76700000D02*
X157100000Y-76700000D01*
X162052000Y-76708000D02*
X160900000Y-76700000D01*
X166300000Y-73200000D02*
X166100000Y-73400000D01*
X170200000Y-73200000D02*
X166300000Y-73200000D01*
X170800000Y-72600000D02*
X170200000Y-73200000D01*
X171400000Y-72600000D02*
X170800000Y-72600000D01*
X171550000Y-72750000D02*
X171400000Y-72600000D01*
D20*
X167950000Y-72300000D02*
X165264000Y-72300000D01*
X164761000Y-69300000D02*
X167000000Y-69300000D01*
X164274500Y-69786500D02*
X164761000Y-69300000D01*
X164293767Y-71311059D02*
X164274500Y-69786500D01*
X165264000Y-72300000D02*
X164293767Y-71311059D01*
X167000000Y-68900000D02*
X166563000Y-68900000D01*
X168338500Y-66548000D02*
X168250000Y-66636500D01*
X164973000Y-65722500D02*
X166370000Y-65722500D01*
X164909500Y-65786000D02*
X164973000Y-65722500D01*
X164909500Y-67310000D02*
X164909500Y-65786000D01*
X165100000Y-67500500D02*
X164909500Y-67310000D01*
X165925500Y-67500500D02*
X165100000Y-67500500D01*
X166433500Y-68008500D02*
X165925500Y-67500500D01*
X166433500Y-68770500D02*
X166433500Y-68008500D01*
X166563000Y-68900000D02*
X166433500Y-68770500D01*
X168250000Y-66636500D02*
X168250000Y-66700000D01*
X165671500Y-66675000D02*
X165650000Y-66696500D01*
X163385500Y-67183000D02*
X163385500Y-67183000D01*
X161607500Y-67183000D02*
X163385500Y-67183000D01*
X160845500Y-67945000D02*
X161607500Y-67183000D01*
X160083500Y-67945000D02*
X160845500Y-67945000D01*
X159829500Y-68199000D02*
X160083500Y-67945000D01*
X165650000Y-66696500D02*
X165650000Y-66700000D01*
X165650000Y-66700000D02*
X165650000Y-66717000D01*
X165650000Y-66717000D02*
X167000000Y-68067000D01*
X167000000Y-68067000D02*
X167000000Y-68500000D01*
D22*
X151633398Y-68321398D02*
X151638000Y-68326000D01*
X142743398Y-68321398D02*
X151633398Y-68321398D01*
X141986000Y-67564000D02*
X142743398Y-68321398D01*
D21*
X151000000Y-68700000D02*
X151300000Y-69000000D01*
X142000000Y-68700000D02*
X151000000Y-68700000D01*
X140800000Y-67500000D02*
X142000000Y-68700000D01*
X140800000Y-67500000D02*
X140800000Y-67550000D01*
D22*
X150812500Y-74485500D02*
X151828500Y-73469500D01*
X148717000Y-72898000D02*
X148526500Y-73088500D01*
X148526500Y-73088500D02*
X148526500Y-75628500D01*
X148526500Y-75628500D02*
X148913788Y-76015788D01*
X148913788Y-76015788D02*
X149536212Y-76015788D01*
X149536212Y-76015788D02*
X150812500Y-74739500D01*
X150812500Y-74739500D02*
X150812500Y-74485500D01*
X152209500Y-72517000D02*
X152527000Y-72517000D01*
X151828500Y-72898000D02*
X152209500Y-72517000D01*
X151828500Y-73469500D02*
X151828500Y-72898000D01*
X155003500Y-71183500D02*
X155003500Y-72517000D01*
X154940000Y-71120000D02*
X155003500Y-71183500D01*
X152781000Y-70485000D02*
X152590500Y-70675500D01*
X152781000Y-66548000D02*
X152781000Y-70485000D01*
X152400000Y-66167000D02*
X152781000Y-66548000D01*
X149415500Y-66167000D02*
X152400000Y-66167000D01*
X149161500Y-66421000D02*
X149415500Y-66167000D01*
X147066000Y-66421000D02*
X149161500Y-66421000D01*
X146875500Y-66230500D02*
X147066000Y-66421000D01*
X151828500Y-66611500D02*
X152082500Y-66865500D01*
X149479000Y-66611500D02*
X151828500Y-66611500D01*
X148907500Y-67183000D02*
X149479000Y-66611500D01*
X145732500Y-67183000D02*
X148907500Y-67183000D01*
X145415000Y-66865500D02*
X145732500Y-67183000D01*
X145415000Y-66235000D02*
X145415000Y-66865500D01*
X145415000Y-66235000D02*
X145400000Y-66250000D01*
X151447500Y-67627500D02*
X152019000Y-67627500D01*
X151108804Y-67966196D02*
X151447500Y-67627500D01*
X142890528Y-67966196D02*
X151108804Y-67966196D01*
X142557500Y-67633168D02*
X142890528Y-67966196D01*
X142557500Y-66929000D02*
X142557500Y-67633168D01*
X142367000Y-66738500D02*
X142557500Y-66929000D01*
X150114000Y-67183000D02*
X149542500Y-67183000D01*
X149161500Y-67564000D02*
X149542500Y-67183000D01*
X144335500Y-67564000D02*
X149161500Y-67564000D01*
X143891000Y-67119500D02*
X144335500Y-67564000D01*
X143891000Y-66259000D02*
X143891000Y-67119500D01*
X143891000Y-66259000D02*
X143900000Y-66250000D01*
D21*
X149200000Y-70900000D02*
X148200000Y-69900000D01*
X150600000Y-70900000D02*
X149200000Y-70900000D01*
X151100000Y-71400000D02*
X150600000Y-70900000D01*
X147900000Y-75500000D02*
X147600000Y-75800000D01*
X147600000Y-75800000D02*
X144200000Y-75800000D01*
X144200000Y-75800000D02*
X143600000Y-75200000D01*
X143600000Y-75200000D02*
X143600000Y-74300000D01*
X143600000Y-74300000D02*
X145200000Y-72700000D01*
X145200000Y-72700000D02*
X145200000Y-71100000D01*
X150993500Y-73152000D02*
X151193500Y-73152000D01*
X150200000Y-74200000D02*
X150993500Y-73152000D01*
X150200000Y-74500000D02*
X150200000Y-74200000D01*
X149400000Y-75300000D02*
X150200000Y-74500000D01*
X149400000Y-75300000D02*
X149400000Y-75350000D01*
X163413604Y-74650002D02*
X174013604Y-74650002D01*
X192200000Y-78100000D02*
X193900000Y-76400000D01*
X180000000Y-78100000D02*
X192200000Y-78100000D01*
X177550002Y-75650002D02*
X180000000Y-78100000D01*
X175013604Y-75650002D02*
X177550002Y-75650002D01*
X174013604Y-74650002D02*
X175013604Y-75650002D01*
X159163606Y-70400004D02*
X163413604Y-74650002D01*
X157899996Y-70400004D02*
X159163606Y-70400004D01*
X157100000Y-71200000D02*
X157899996Y-70400004D01*
X163600000Y-74200000D02*
X174200000Y-74200000D01*
X159350002Y-69950002D02*
X163600000Y-74200000D01*
X157149998Y-69950002D02*
X159350002Y-69950002D01*
X156900000Y-70200000D02*
X157149998Y-69950002D01*
X156900000Y-70300000D02*
X156900000Y-70200000D01*
X179000000Y-75200000D02*
X181100000Y-77300000D01*
X175200000Y-75200000D02*
X179000000Y-75200000D01*
X174200000Y-74200000D02*
X175200000Y-75200000D01*
X181000000Y-77300000D02*
X181100000Y-77300000D01*
X165900000Y-77200000D02*
X165900000Y-75900000D01*
X164300000Y-78800000D02*
X165900000Y-77200000D01*
X153000000Y-78800000D02*
X164300000Y-78800000D01*
X151700000Y-77500000D02*
X153000000Y-78800000D01*
X148900000Y-77500000D02*
X151700000Y-77500000D01*
X147800000Y-78600000D02*
X148900000Y-77500000D01*
X145500000Y-78600000D02*
X147800000Y-78600000D01*
X144900000Y-78000000D02*
X145500000Y-78600000D01*
X144900000Y-76900000D02*
X144900000Y-78000000D01*
X144800000Y-76800000D02*
X144900000Y-76900000D01*
X175300000Y-64100000D02*
X176100000Y-64900000D01*
X176100000Y-64900000D02*
X177700000Y-64900000D01*
X177700000Y-64900000D02*
X178400000Y-64200000D01*
X178400000Y-64200000D02*
X180800000Y-64200000D01*
X174300000Y-64100000D02*
X175500000Y-65300000D01*
X159900000Y-66400000D02*
X161417000Y-66230500D01*
X159100000Y-67200000D02*
X159900000Y-66400000D01*
X159100000Y-67700000D02*
X159100000Y-67200000D01*
X158100000Y-68700000D02*
X159100000Y-67700000D01*
X154000000Y-68700000D02*
X158100000Y-68700000D01*
X153200000Y-69500000D02*
X154000000Y-68700000D01*
X153200000Y-73100000D02*
X153200000Y-69500000D01*
X175500000Y-65300000D02*
X175500000Y-65400000D01*
X152400000Y-75400000D02*
X152400000Y-73279000D01*
X152700000Y-75700000D02*
X152400000Y-75400000D01*
X155100000Y-75700000D02*
X152700000Y-75700000D01*
X157100000Y-77700000D02*
X155100000Y-75700000D01*
X164100000Y-77700000D02*
X157100000Y-77700000D01*
X165200000Y-76600000D02*
X164100000Y-77700000D01*
X165200000Y-75400000D02*
X165200000Y-76600000D01*
X165400000Y-75200000D02*
X165200000Y-75400000D01*
X171100000Y-75200000D02*
X165400000Y-75200000D01*
X172400000Y-76500000D02*
X171100000Y-75200000D01*
D20*
X139537360Y-69052360D02*
X138770360Y-68676520D01*
X140802360Y-69052360D02*
X139537360Y-69052360D01*
X140800000Y-69050000D02*
X140802360Y-69052360D01*
X139385040Y-71084440D02*
X139374880Y-70485000D01*
X139867640Y-71744840D02*
X139385040Y-71084440D01*
X140794840Y-71744840D02*
X139867640Y-71744840D01*
X140794840Y-71744840D02*
X140800000Y-71750000D01*
X138912618Y-74762658D02*
X139019280Y-76575920D01*
X138186160Y-69118480D02*
X138912618Y-74762658D01*
X138120120Y-68498720D02*
X138186160Y-69118480D01*
X139532360Y-65532000D02*
X138120120Y-68498720D01*
X139232640Y-77551280D02*
X139242800Y-77551280D01*
X138465560Y-76814680D02*
X139232640Y-77551280D01*
X137769600Y-68463160D02*
X138465560Y-76814680D01*
X139161520Y-64871600D02*
X137769600Y-68463160D01*
X142303800Y-64846200D02*
X139161520Y-64871600D01*
X142303800Y-64846200D02*
X142300000Y-64850000D01*
X139410440Y-71927720D02*
X139491720Y-74945240D01*
X138866880Y-71084440D02*
X139410440Y-71927720D01*
X138709400Y-70109080D02*
X138866880Y-71084440D01*
X139161520Y-69656960D02*
X138709400Y-70109080D01*
X140985240Y-69656960D02*
X139161520Y-69656960D01*
X141315440Y-69326760D02*
X140985240Y-69656960D01*
X141315440Y-69215000D02*
X141315440Y-69326760D01*
X141422120Y-69108320D02*
X141315440Y-69215000D01*
X141422120Y-68707000D02*
X141422120Y-69108320D01*
X140975080Y-68259960D02*
X141422120Y-68707000D01*
X140568680Y-68259960D02*
X140975080Y-68259960D01*
X140004800Y-67696080D02*
X140568680Y-68259960D01*
X140004800Y-67137280D02*
X140004800Y-67696080D01*
X141000480Y-66141600D02*
X140004800Y-67137280D01*
X143037560Y-66141600D02*
X141000480Y-66141600D01*
X143900320Y-65278840D02*
X143037560Y-66141600D01*
X143900320Y-64749680D02*
X143900320Y-65278840D01*
X143900320Y-64749680D02*
X143900000Y-64750000D01*
X141091920Y-72511920D02*
X141091920Y-75585320D01*
X141686280Y-71917560D02*
X141091920Y-72511920D01*
X141686280Y-69667120D02*
X141686280Y-71917560D01*
X141787880Y-69565520D02*
X141686280Y-69667120D01*
D23*
G36*
X197924425Y-80720654D02*
X161742976Y-79153000D01*
X164300000Y-79153000D01*
X164435087Y-79126129D01*
X164549609Y-79049609D01*
X166149606Y-77449611D01*
X166149609Y-77449609D01*
X166226129Y-77335087D01*
X166232017Y-77305486D01*
X166253001Y-77200000D01*
X166253000Y-77199995D01*
X166253000Y-76293670D01*
X166347356Y-76199478D01*
X166427908Y-76005486D01*
X166428091Y-75795435D01*
X166347878Y-75601303D01*
X166299659Y-75553000D01*
X170953782Y-75553000D01*
X171872025Y-76471242D01*
X171871909Y-76604565D01*
X171952122Y-76798697D01*
X172100522Y-76947356D01*
X172294514Y-77027908D01*
X172504565Y-77028091D01*
X172698697Y-76947878D01*
X172847356Y-76799478D01*
X172927908Y-76605486D01*
X172928091Y-76395435D01*
X172847878Y-76201303D01*
X172699478Y-76052644D01*
X172505486Y-75972092D01*
X172371192Y-75971975D01*
X171402220Y-75003002D01*
X173867386Y-75003002D01*
X174763993Y-75899608D01*
X174763995Y-75899611D01*
X174872198Y-75971909D01*
X174878517Y-75976131D01*
X175013604Y-76003003D01*
X175013609Y-76003002D01*
X177403784Y-76003002D01*
X179750389Y-78349606D01*
X179750391Y-78349609D01*
X179864913Y-78426129D01*
X180000000Y-78453000D01*
X192200000Y-78453000D01*
X192335087Y-78426129D01*
X192449609Y-78349609D01*
X193871243Y-76927975D01*
X194004565Y-76928091D01*
X194198697Y-76847878D01*
X194347000Y-76699833D01*
X194347000Y-77953782D01*
X193653782Y-78647000D01*
X168421217Y-78647000D01*
X167802975Y-78028757D01*
X167803091Y-77895435D01*
X167722878Y-77701303D01*
X167574478Y-77552644D01*
X167380486Y-77472092D01*
X167170435Y-77471909D01*
X166976303Y-77552122D01*
X166827644Y-77700522D01*
X166747092Y-77894514D01*
X166746909Y-78104565D01*
X166827122Y-78298697D01*
X166975522Y-78447356D01*
X167169514Y-78527908D01*
X167303807Y-78528025D01*
X168025389Y-79249606D01*
X168025391Y-79249609D01*
X168139913Y-79326129D01*
X168275000Y-79353001D01*
X168275005Y-79353000D01*
X193800000Y-79353000D01*
X193935087Y-79326129D01*
X194049609Y-79249609D01*
X194949609Y-78349609D01*
X195026129Y-78235087D01*
X195053000Y-78100000D01*
X195053000Y-74300005D01*
X195053001Y-74300000D01*
X195026129Y-74164913D01*
X195014159Y-74146999D01*
X194949609Y-74050391D01*
X194949606Y-74050389D01*
X192053000Y-71153782D01*
X192053000Y-70809670D01*
X192059558Y-70814151D01*
X192150000Y-70832466D01*
X193850000Y-70832466D01*
X193934491Y-70816568D01*
X194012092Y-70766633D01*
X194064151Y-70690442D01*
X194082466Y-70600000D01*
X194082466Y-70103000D01*
X195650000Y-70103000D01*
X195785087Y-70076129D01*
X195899609Y-69999609D01*
X196949609Y-68949609D01*
X197026129Y-68835087D01*
X197053000Y-68700000D01*
X197053000Y-64093670D01*
X197147356Y-63999478D01*
X197227908Y-63805486D01*
X197228091Y-63595435D01*
X197147878Y-63401303D01*
X196999478Y-63252644D01*
X196805486Y-63172092D01*
X196671193Y-63171975D01*
X196549609Y-63050391D01*
X196435087Y-62973871D01*
X196300000Y-62947000D01*
X191693582Y-62947000D01*
X191549478Y-62802644D01*
X191355486Y-62722092D01*
X191145435Y-62721909D01*
X190951303Y-62802122D01*
X190802644Y-62950522D01*
X190722092Y-63144514D01*
X190721909Y-63354565D01*
X190802122Y-63548697D01*
X190950522Y-63697356D01*
X191144514Y-63777908D01*
X191354565Y-63778091D01*
X191548697Y-63697878D01*
X191593653Y-63653000D01*
X196153782Y-63653000D01*
X196172025Y-63671243D01*
X196171909Y-63804565D01*
X196252122Y-63998697D01*
X196347000Y-64093741D01*
X196347000Y-68553782D01*
X195503782Y-69397000D01*
X194082466Y-69397000D01*
X194082466Y-68900000D01*
X194066568Y-68815509D01*
X194016633Y-68737908D01*
X193940442Y-68685849D01*
X193850000Y-68667534D01*
X192150000Y-68667534D01*
X192065509Y-68683432D01*
X192053000Y-68691481D01*
X192053000Y-66700005D01*
X192053001Y-66700000D01*
X192026129Y-66564913D01*
X192006200Y-66535087D01*
X191949609Y-66450391D01*
X191949606Y-66450389D01*
X189053000Y-63553782D01*
X189053000Y-63393670D01*
X189147356Y-63299478D01*
X189227908Y-63105486D01*
X189228091Y-62895435D01*
X189147878Y-62701303D01*
X189141162Y-62694575D01*
X198023571Y-62279653D01*
X197924425Y-80720654D01*
X197924425Y-80720654D01*
G37*
X197924425Y-80720654D02*
X161742976Y-79153000D01*
X164300000Y-79153000D01*
X164435087Y-79126129D01*
X164549609Y-79049609D01*
X166149606Y-77449611D01*
X166149609Y-77449609D01*
X166226129Y-77335087D01*
X166232017Y-77305486D01*
X166253001Y-77200000D01*
X166253000Y-77199995D01*
X166253000Y-76293670D01*
X166347356Y-76199478D01*
X166427908Y-76005486D01*
X166428091Y-75795435D01*
X166347878Y-75601303D01*
X166299659Y-75553000D01*
X170953782Y-75553000D01*
X171872025Y-76471242D01*
X171871909Y-76604565D01*
X171952122Y-76798697D01*
X172100522Y-76947356D01*
X172294514Y-77027908D01*
X172504565Y-77028091D01*
X172698697Y-76947878D01*
X172847356Y-76799478D01*
X172927908Y-76605486D01*
X172928091Y-76395435D01*
X172847878Y-76201303D01*
X172699478Y-76052644D01*
X172505486Y-75972092D01*
X172371192Y-75971975D01*
X171402220Y-75003002D01*
X173867386Y-75003002D01*
X174763993Y-75899608D01*
X174763995Y-75899611D01*
X174872198Y-75971909D01*
X174878517Y-75976131D01*
X175013604Y-76003003D01*
X175013609Y-76003002D01*
X177403784Y-76003002D01*
X179750389Y-78349606D01*
X179750391Y-78349609D01*
X179864913Y-78426129D01*
X180000000Y-78453000D01*
X192200000Y-78453000D01*
X192335087Y-78426129D01*
X192449609Y-78349609D01*
X193871243Y-76927975D01*
X194004565Y-76928091D01*
X194198697Y-76847878D01*
X194347000Y-76699833D01*
X194347000Y-77953782D01*
X193653782Y-78647000D01*
X168421217Y-78647000D01*
X167802975Y-78028757D01*
X167803091Y-77895435D01*
X167722878Y-77701303D01*
X167574478Y-77552644D01*
X167380486Y-77472092D01*
X167170435Y-77471909D01*
X166976303Y-77552122D01*
X166827644Y-77700522D01*
X166747092Y-77894514D01*
X166746909Y-78104565D01*
X166827122Y-78298697D01*
X166975522Y-78447356D01*
X167169514Y-78527908D01*
X167303807Y-78528025D01*
X168025389Y-79249606D01*
X168025391Y-79249609D01*
X168139913Y-79326129D01*
X168275000Y-79353001D01*
X168275005Y-79353000D01*
X193800000Y-79353000D01*
X193935087Y-79326129D01*
X194049609Y-79249609D01*
X194949609Y-78349609D01*
X195026129Y-78235087D01*
X195053000Y-78100000D01*
X195053000Y-74300005D01*
X195053001Y-74300000D01*
X195026129Y-74164913D01*
X195014159Y-74146999D01*
X194949609Y-74050391D01*
X194949606Y-74050389D01*
X192053000Y-71153782D01*
X192053000Y-70809670D01*
X192059558Y-70814151D01*
X192150000Y-70832466D01*
X193850000Y-70832466D01*
X193934491Y-70816568D01*
X194012092Y-70766633D01*
X194064151Y-70690442D01*
X194082466Y-70600000D01*
X194082466Y-70103000D01*
X195650000Y-70103000D01*
X195785087Y-70076129D01*
X195899609Y-69999609D01*
X196949609Y-68949609D01*
X197026129Y-68835087D01*
X197053000Y-68700000D01*
X197053000Y-64093670D01*
X197147356Y-63999478D01*
X197227908Y-63805486D01*
X197228091Y-63595435D01*
X197147878Y-63401303D01*
X196999478Y-63252644D01*
X196805486Y-63172092D01*
X196671193Y-63171975D01*
X196549609Y-63050391D01*
X196435087Y-62973871D01*
X196300000Y-62947000D01*
X191693582Y-62947000D01*
X191549478Y-62802644D01*
X191355486Y-62722092D01*
X191145435Y-62721909D01*
X190951303Y-62802122D01*
X190802644Y-62950522D01*
X190722092Y-63144514D01*
X190721909Y-63354565D01*
X190802122Y-63548697D01*
X190950522Y-63697356D01*
X191144514Y-63777908D01*
X191354565Y-63778091D01*
X191548697Y-63697878D01*
X191593653Y-63653000D01*
X196153782Y-63653000D01*
X196172025Y-63671243D01*
X196171909Y-63804565D01*
X196252122Y-63998697D01*
X196347000Y-64093741D01*
X196347000Y-68553782D01*
X195503782Y-69397000D01*
X194082466Y-69397000D01*
X194082466Y-68900000D01*
X194066568Y-68815509D01*
X194016633Y-68737908D01*
X193940442Y-68685849D01*
X193850000Y-68667534D01*
X192150000Y-68667534D01*
X192065509Y-68683432D01*
X192053000Y-68691481D01*
X192053000Y-66700005D01*
X192053001Y-66700000D01*
X192026129Y-66564913D01*
X192006200Y-66535087D01*
X191949609Y-66450391D01*
X191949606Y-66450389D01*
X189053000Y-63553782D01*
X189053000Y-63393670D01*
X189147356Y-63299478D01*
X189227908Y-63105486D01*
X189228091Y-62895435D01*
X189147878Y-62701303D01*
X189141162Y-62694575D01*
X198023571Y-62279653D01*
X197924425Y-80720654D01*
G36*
X152451192Y-78750410D02*
X148327479Y-78571739D01*
X149046218Y-77853000D01*
X151553782Y-77853000D01*
X152451192Y-78750410D01*
X152451192Y-78750410D01*
G37*
X152451192Y-78750410D02*
X148327479Y-78571739D01*
X149046218Y-77853000D01*
X151553782Y-77853000D01*
X152451192Y-78750410D01*
G36*
X140500522Y-72197356D02*
X140694514Y-72277908D01*
X140895553Y-72278083D01*
X140876818Y-72296818D01*
X140810876Y-72395508D01*
X140787720Y-72511920D01*
X140787720Y-75142935D01*
X140644564Y-75285842D01*
X140564012Y-75479834D01*
X140563829Y-75689885D01*
X140644042Y-75884017D01*
X140792442Y-76032676D01*
X140986434Y-76113228D01*
X141196485Y-76113411D01*
X141390617Y-76033198D01*
X141539276Y-75884798D01*
X141619828Y-75690806D01*
X141620011Y-75480755D01*
X141539798Y-75286623D01*
X141396120Y-75142694D01*
X141396120Y-72637924D01*
X141846900Y-72187144D01*
X141846900Y-74612500D01*
X141864305Y-74700000D01*
X141871989Y-74738633D01*
X141943438Y-74845562D01*
X143530938Y-76433062D01*
X143637867Y-76504511D01*
X143658794Y-76508673D01*
X143764000Y-76529600D01*
X144340570Y-76529600D01*
X144272092Y-76694514D01*
X144271909Y-76904565D01*
X144352122Y-77098697D01*
X144500522Y-77247356D01*
X144547000Y-77266655D01*
X144547000Y-78000000D01*
X144573871Y-78135087D01*
X144650391Y-78249609D01*
X144820576Y-78419794D01*
X140376000Y-78227221D01*
X140376000Y-72072617D01*
X140500522Y-72197356D01*
X140500522Y-72197356D01*
G37*
X140500522Y-72197356D02*
X140694514Y-72277908D01*
X140895553Y-72278083D01*
X140876818Y-72296818D01*
X140810876Y-72395508D01*
X140787720Y-72511920D01*
X140787720Y-75142935D01*
X140644564Y-75285842D01*
X140564012Y-75479834D01*
X140563829Y-75689885D01*
X140644042Y-75884017D01*
X140792442Y-76032676D01*
X140986434Y-76113228D01*
X141196485Y-76113411D01*
X141390617Y-76033198D01*
X141539276Y-75884798D01*
X141619828Y-75690806D01*
X141620011Y-75480755D01*
X141539798Y-75286623D01*
X141396120Y-75142694D01*
X141396120Y-72637924D01*
X141846900Y-72187144D01*
X141846900Y-74612500D01*
X141864305Y-74700000D01*
X141871989Y-74738633D01*
X141943438Y-74845562D01*
X143530938Y-76433062D01*
X143637867Y-76504511D01*
X143658794Y-76508673D01*
X143764000Y-76529600D01*
X144340570Y-76529600D01*
X144272092Y-76694514D01*
X144271909Y-76904565D01*
X144352122Y-77098697D01*
X144500522Y-77247356D01*
X144547000Y-77266655D01*
X144547000Y-78000000D01*
X144573871Y-78135087D01*
X144650391Y-78249609D01*
X144820576Y-78419794D01*
X140376000Y-78227221D01*
X140376000Y-72072617D01*
X140500522Y-72197356D01*
G36*
X188172092Y-62894514D02*
X188171975Y-63028807D01*
X188153782Y-63047000D01*
X184900005Y-63047000D01*
X184900000Y-63046999D01*
X184764913Y-63073871D01*
X184650391Y-63150391D01*
X184128713Y-63672069D01*
X183945435Y-63671909D01*
X183751303Y-63752122D01*
X183602644Y-63900522D01*
X183522092Y-64094514D01*
X183521909Y-64304565D01*
X183602122Y-64498697D01*
X183750522Y-64647356D01*
X183944514Y-64727908D01*
X184154565Y-64728091D01*
X184348697Y-64647878D01*
X184497356Y-64499478D01*
X184577908Y-64305486D01*
X184577981Y-64221237D01*
X185046218Y-63753000D01*
X188300000Y-63753000D01*
X188355352Y-63741990D01*
X188373871Y-63835087D01*
X188450391Y-63949609D01*
X191347000Y-66846217D01*
X191347000Y-69153305D01*
X191222261Y-68966620D01*
X190872533Y-68732939D01*
X190460000Y-68650881D01*
X190047467Y-68732939D01*
X189697739Y-68966620D01*
X189464058Y-69316348D01*
X189382000Y-69728881D01*
X189382000Y-69771119D01*
X189464058Y-70183652D01*
X189697739Y-70533380D01*
X190047467Y-70767061D01*
X190147000Y-70786859D01*
X190147000Y-72095342D01*
X190087908Y-72133367D01*
X190035849Y-72209558D01*
X190017534Y-72300000D01*
X190017534Y-73200000D01*
X190033432Y-73284491D01*
X190083367Y-73362092D01*
X190159558Y-73414151D01*
X190250000Y-73432466D01*
X190750000Y-73432466D01*
X190834491Y-73416568D01*
X190912092Y-73366633D01*
X190964151Y-73290442D01*
X190982466Y-73200000D01*
X190982466Y-72300000D01*
X190966568Y-72215509D01*
X190916633Y-72137908D01*
X190853000Y-72094430D01*
X190853000Y-70770946D01*
X190872533Y-70767061D01*
X191222261Y-70533380D01*
X191347000Y-70346695D01*
X191347000Y-71300000D01*
X191373871Y-71435087D01*
X191450391Y-71549609D01*
X194347000Y-74446217D01*
X194347000Y-76100423D01*
X194199478Y-75952644D01*
X194005486Y-75872092D01*
X193795435Y-75871909D01*
X193601303Y-75952122D01*
X193452644Y-76100522D01*
X193372092Y-76294514D01*
X193371975Y-76428807D01*
X192053782Y-77747000D01*
X181399577Y-77747000D01*
X181547356Y-77599478D01*
X181627908Y-77405486D01*
X181628091Y-77195435D01*
X181547878Y-77001303D01*
X181399478Y-76852644D01*
X181205486Y-76772092D01*
X181071192Y-76771975D01*
X179449218Y-75150000D01*
X182917534Y-75150000D01*
X182917534Y-76850000D01*
X182933432Y-76934491D01*
X182983367Y-77012092D01*
X183059558Y-77064151D01*
X183150000Y-77082466D01*
X184850000Y-77082466D01*
X184934491Y-77066568D01*
X185012092Y-77016633D01*
X185064151Y-76940442D01*
X185082466Y-76850000D01*
X185082466Y-75978881D01*
X185462000Y-75978881D01*
X185462000Y-76021119D01*
X185544058Y-76433652D01*
X185777739Y-76783380D01*
X186127467Y-77017061D01*
X186540000Y-77099119D01*
X186952533Y-77017061D01*
X187302261Y-76783380D01*
X187535942Y-76433652D01*
X187618000Y-76021119D01*
X187618000Y-75978881D01*
X188002000Y-75978881D01*
X188002000Y-76021119D01*
X188084058Y-76433652D01*
X188317739Y-76783380D01*
X188667467Y-77017061D01*
X189080000Y-77099119D01*
X189492533Y-77017061D01*
X189842261Y-76783380D01*
X190075942Y-76433652D01*
X190158000Y-76021119D01*
X190158000Y-75978881D01*
X190542000Y-75978881D01*
X190542000Y-76021119D01*
X190624058Y-76433652D01*
X190857739Y-76783380D01*
X191207467Y-77017061D01*
X191620000Y-77099119D01*
X192032533Y-77017061D01*
X192382261Y-76783380D01*
X192615942Y-76433652D01*
X192698000Y-76021119D01*
X192698000Y-75978881D01*
X192615942Y-75566348D01*
X192382261Y-75216620D01*
X192032533Y-74982939D01*
X191620000Y-74900881D01*
X191207467Y-74982939D01*
X190857739Y-75216620D01*
X190624058Y-75566348D01*
X190542000Y-75978881D01*
X190158000Y-75978881D01*
X190075942Y-75566348D01*
X189842261Y-75216620D01*
X189492533Y-74982939D01*
X189080000Y-74900881D01*
X188667467Y-74982939D01*
X188317739Y-75216620D01*
X188084058Y-75566348D01*
X188002000Y-75978881D01*
X187618000Y-75978881D01*
X187535942Y-75566348D01*
X187302261Y-75216620D01*
X186952533Y-74982939D01*
X186540000Y-74900881D01*
X186127467Y-74982939D01*
X185777739Y-75216620D01*
X185544058Y-75566348D01*
X185462000Y-75978881D01*
X185082466Y-75978881D01*
X185082466Y-75150000D01*
X185066568Y-75065509D01*
X185016633Y-74987908D01*
X184940442Y-74935849D01*
X184850000Y-74917534D01*
X183150000Y-74917534D01*
X183065509Y-74933432D01*
X182987908Y-74983367D01*
X182935849Y-75059558D01*
X182917534Y-75150000D01*
X179449218Y-75150000D01*
X179249609Y-74950391D01*
X179135087Y-74873871D01*
X179000000Y-74847000D01*
X175346217Y-74847000D01*
X174449609Y-73950391D01*
X174335087Y-73873871D01*
X174200000Y-73847000D01*
X166399577Y-73847000D01*
X166547356Y-73699478D01*
X166608179Y-73553000D01*
X170200000Y-73553000D01*
X170335087Y-73526129D01*
X170449609Y-73449609D01*
X170672064Y-73227154D01*
X170671909Y-73404565D01*
X170752122Y-73598697D01*
X170900522Y-73747356D01*
X171094514Y-73827908D01*
X171304565Y-73828091D01*
X171498697Y-73747878D01*
X171593741Y-73653000D01*
X175253782Y-73653000D01*
X176150389Y-74549606D01*
X176150391Y-74549609D01*
X176245813Y-74613367D01*
X176264913Y-74626129D01*
X176400000Y-74653001D01*
X176400005Y-74653000D01*
X188100000Y-74653000D01*
X188235087Y-74626129D01*
X188349609Y-74549609D01*
X189249609Y-73649609D01*
X189326129Y-73535087D01*
X189351937Y-73405341D01*
X189412092Y-73366633D01*
X189464151Y-73290442D01*
X189482466Y-73200000D01*
X189482466Y-72300000D01*
X189466568Y-72215509D01*
X189416633Y-72137908D01*
X189340442Y-72085849D01*
X189250000Y-72067534D01*
X188750000Y-72067534D01*
X188665509Y-72083432D01*
X188587908Y-72133367D01*
X188535849Y-72209558D01*
X188517534Y-72300000D01*
X188517534Y-73200000D01*
X188533432Y-73284491D01*
X188565874Y-73334908D01*
X187953782Y-73947000D01*
X176546217Y-73947000D01*
X175702218Y-73103000D01*
X183267534Y-73103000D01*
X183267534Y-73200000D01*
X183283432Y-73284491D01*
X183333367Y-73362092D01*
X183409558Y-73414151D01*
X183500000Y-73432466D01*
X184000000Y-73432466D01*
X184084491Y-73416568D01*
X184162092Y-73366633D01*
X184214151Y-73290442D01*
X184232466Y-73200000D01*
X184232466Y-72300000D01*
X184216568Y-72215509D01*
X184166633Y-72137908D01*
X184090442Y-72085849D01*
X184000000Y-72067534D01*
X183500000Y-72067534D01*
X183415509Y-72083432D01*
X183337908Y-72133367D01*
X183285849Y-72209558D01*
X183267534Y-72300000D01*
X183267534Y-72397000D01*
X172484833Y-72397000D01*
X172519630Y-72313200D01*
X172721000Y-72313200D01*
X172837412Y-72290044D01*
X172936102Y-72224102D01*
X174223033Y-70937171D01*
X174249888Y-70964073D01*
X174884772Y-71227700D01*
X175572213Y-71228300D01*
X176207555Y-70965782D01*
X176694073Y-70480112D01*
X176957700Y-69845228D01*
X176958300Y-69157787D01*
X176695782Y-68522445D01*
X176526570Y-68352938D01*
X177399436Y-68350859D01*
X177431716Y-68344358D01*
X177464639Y-68344626D01*
X177498573Y-68330893D01*
X177534459Y-68323666D01*
X177561791Y-68305309D01*
X177592314Y-68292957D01*
X177805514Y-68153000D01*
X179706330Y-68153000D01*
X179800522Y-68247356D01*
X179994514Y-68327908D01*
X180204565Y-68328091D01*
X180398697Y-68247878D01*
X180547356Y-68099478D01*
X180627908Y-67905486D01*
X180628091Y-67695435D01*
X180547878Y-67501303D01*
X180399478Y-67352644D01*
X180205486Y-67272092D01*
X179995435Y-67271909D01*
X179801303Y-67352122D01*
X179706259Y-67447000D01*
X177952218Y-67447000D01*
X179246217Y-66153000D01*
X180753782Y-66153000D01*
X182487000Y-67886217D01*
X182487000Y-68721097D01*
X182427467Y-68732939D01*
X182077739Y-68966620D01*
X181844058Y-69316348D01*
X181762000Y-69728881D01*
X181762000Y-69771119D01*
X181844058Y-70183652D01*
X182077739Y-70533380D01*
X182427467Y-70767061D01*
X182840000Y-70849119D01*
X183252533Y-70767061D01*
X183602261Y-70533380D01*
X183835942Y-70183652D01*
X183918000Y-69771119D01*
X183918000Y-69728881D01*
X184302000Y-69728881D01*
X184302000Y-69771119D01*
X184384058Y-70183652D01*
X184617739Y-70533380D01*
X184897000Y-70719976D01*
X184897000Y-72095342D01*
X184837908Y-72133367D01*
X184785849Y-72209558D01*
X184767534Y-72300000D01*
X184767534Y-73200000D01*
X184783432Y-73284491D01*
X184833367Y-73362092D01*
X184909558Y-73414151D01*
X185000000Y-73432466D01*
X185500000Y-73432466D01*
X185584491Y-73416568D01*
X185662092Y-73366633D01*
X185714151Y-73290442D01*
X185732466Y-73200000D01*
X185732466Y-72300000D01*
X185716568Y-72215509D01*
X185666633Y-72137908D01*
X185603000Y-72094430D01*
X185603000Y-70804761D01*
X185792533Y-70767061D01*
X186142261Y-70533380D01*
X186375942Y-70183652D01*
X186382953Y-70148403D01*
X186542440Y-70148403D01*
X186799763Y-70645246D01*
X187227632Y-71005796D01*
X187521599Y-71127546D01*
X187742000Y-71025641D01*
X187742000Y-69928000D01*
X188098000Y-69928000D01*
X188098000Y-71025641D01*
X188318401Y-71127546D01*
X188612368Y-71005796D01*
X189040237Y-70645246D01*
X189297560Y-70148403D01*
X189196924Y-69928000D01*
X188098000Y-69928000D01*
X187742000Y-69928000D01*
X186643076Y-69928000D01*
X186542440Y-70148403D01*
X186382953Y-70148403D01*
X186458000Y-69771119D01*
X186458000Y-69728881D01*
X186382954Y-69351597D01*
X186542440Y-69351597D01*
X186643076Y-69572000D01*
X187742000Y-69572000D01*
X187742000Y-68474359D01*
X188098000Y-68474359D01*
X188098000Y-69572000D01*
X189196924Y-69572000D01*
X189297560Y-69351597D01*
X189040237Y-68854754D01*
X188612368Y-68494204D01*
X188318401Y-68372454D01*
X188098000Y-68474359D01*
X187742000Y-68474359D01*
X187521599Y-68372454D01*
X187227632Y-68494204D01*
X186799763Y-68854754D01*
X186542440Y-69351597D01*
X186382954Y-69351597D01*
X186375942Y-69316348D01*
X186142261Y-68966620D01*
X185792533Y-68732939D01*
X185380000Y-68650881D01*
X184967467Y-68732939D01*
X184617739Y-68966620D01*
X184384058Y-69316348D01*
X184302000Y-69728881D01*
X183918000Y-69728881D01*
X183835942Y-69316348D01*
X183602261Y-68966620D01*
X183252533Y-68732939D01*
X183193000Y-68721097D01*
X183193000Y-67740000D01*
X183166129Y-67604913D01*
X183089609Y-67490391D01*
X183089606Y-67490389D01*
X181252218Y-65653000D01*
X182000000Y-65653000D01*
X182135087Y-65626129D01*
X182249609Y-65549609D01*
X182249610Y-65549608D01*
X182649606Y-65149611D01*
X182649609Y-65149609D01*
X182726129Y-65035087D01*
X182753000Y-64900000D01*
X182753000Y-64693670D01*
X182847356Y-64599478D01*
X182927908Y-64405486D01*
X182928091Y-64195435D01*
X182847878Y-64001303D01*
X182699478Y-63852644D01*
X182505486Y-63772092D01*
X182295435Y-63771909D01*
X182101303Y-63852122D01*
X181952644Y-64000522D01*
X181872092Y-64194514D01*
X181871909Y-64404565D01*
X181952122Y-64598697D01*
X182047000Y-64693741D01*
X182047000Y-64753783D01*
X181853782Y-64947000D01*
X178152218Y-64947000D01*
X178546217Y-64553000D01*
X180406330Y-64553000D01*
X180500522Y-64647356D01*
X180694514Y-64727908D01*
X180904565Y-64728091D01*
X181098697Y-64647878D01*
X181247356Y-64499478D01*
X181327908Y-64305486D01*
X181328091Y-64095435D01*
X181247878Y-63901303D01*
X181099478Y-63752644D01*
X180905486Y-63672092D01*
X180695435Y-63671909D01*
X180501303Y-63752122D01*
X180406259Y-63847000D01*
X178400000Y-63847000D01*
X178264913Y-63873871D01*
X178150391Y-63950391D01*
X178150389Y-63950394D01*
X177553782Y-64547000D01*
X176246218Y-64547000D01*
X175827975Y-64128757D01*
X175828091Y-63995435D01*
X175747878Y-63801303D01*
X175599478Y-63652644D01*
X175405486Y-63572092D01*
X175195435Y-63571909D01*
X175001303Y-63652122D01*
X174852644Y-63800522D01*
X174799970Y-63927376D01*
X174747878Y-63801303D01*
X174599478Y-63652644D01*
X174405486Y-63572092D01*
X174195435Y-63571909D01*
X174001303Y-63652122D01*
X173852644Y-63800522D01*
X173772092Y-63994514D01*
X173771909Y-64204565D01*
X173819878Y-64320660D01*
X173349609Y-63850391D01*
X173235087Y-63773871D01*
X173100000Y-63747000D01*
X166611469Y-63747000D01*
X188237587Y-62736784D01*
X188172092Y-62894514D01*
X188172092Y-62894514D01*
G37*
X188172092Y-62894514D02*
X188171975Y-63028807D01*
X188153782Y-63047000D01*
X184900005Y-63047000D01*
X184900000Y-63046999D01*
X184764913Y-63073871D01*
X184650391Y-63150391D01*
X184128713Y-63672069D01*
X183945435Y-63671909D01*
X183751303Y-63752122D01*
X183602644Y-63900522D01*
X183522092Y-64094514D01*
X183521909Y-64304565D01*
X183602122Y-64498697D01*
X183750522Y-64647356D01*
X183944514Y-64727908D01*
X184154565Y-64728091D01*
X184348697Y-64647878D01*
X184497356Y-64499478D01*
X184577908Y-64305486D01*
X184577981Y-64221237D01*
X185046218Y-63753000D01*
X188300000Y-63753000D01*
X188355352Y-63741990D01*
X188373871Y-63835087D01*
X188450391Y-63949609D01*
X191347000Y-66846217D01*
X191347000Y-69153305D01*
X191222261Y-68966620D01*
X190872533Y-68732939D01*
X190460000Y-68650881D01*
X190047467Y-68732939D01*
X189697739Y-68966620D01*
X189464058Y-69316348D01*
X189382000Y-69728881D01*
X189382000Y-69771119D01*
X189464058Y-70183652D01*
X189697739Y-70533380D01*
X190047467Y-70767061D01*
X190147000Y-70786859D01*
X190147000Y-72095342D01*
X190087908Y-72133367D01*
X190035849Y-72209558D01*
X190017534Y-72300000D01*
X190017534Y-73200000D01*
X190033432Y-73284491D01*
X190083367Y-73362092D01*
X190159558Y-73414151D01*
X190250000Y-73432466D01*
X190750000Y-73432466D01*
X190834491Y-73416568D01*
X190912092Y-73366633D01*
X190964151Y-73290442D01*
X190982466Y-73200000D01*
X190982466Y-72300000D01*
X190966568Y-72215509D01*
X190916633Y-72137908D01*
X190853000Y-72094430D01*
X190853000Y-70770946D01*
X190872533Y-70767061D01*
X191222261Y-70533380D01*
X191347000Y-70346695D01*
X191347000Y-71300000D01*
X191373871Y-71435087D01*
X191450391Y-71549609D01*
X194347000Y-74446217D01*
X194347000Y-76100423D01*
X194199478Y-75952644D01*
X194005486Y-75872092D01*
X193795435Y-75871909D01*
X193601303Y-75952122D01*
X193452644Y-76100522D01*
X193372092Y-76294514D01*
X193371975Y-76428807D01*
X192053782Y-77747000D01*
X181399577Y-77747000D01*
X181547356Y-77599478D01*
X181627908Y-77405486D01*
X181628091Y-77195435D01*
X181547878Y-77001303D01*
X181399478Y-76852644D01*
X181205486Y-76772092D01*
X181071192Y-76771975D01*
X179449218Y-75150000D01*
X182917534Y-75150000D01*
X182917534Y-76850000D01*
X182933432Y-76934491D01*
X182983367Y-77012092D01*
X183059558Y-77064151D01*
X183150000Y-77082466D01*
X184850000Y-77082466D01*
X184934491Y-77066568D01*
X185012092Y-77016633D01*
X185064151Y-76940442D01*
X185082466Y-76850000D01*
X185082466Y-75978881D01*
X185462000Y-75978881D01*
X185462000Y-76021119D01*
X185544058Y-76433652D01*
X185777739Y-76783380D01*
X186127467Y-77017061D01*
X186540000Y-77099119D01*
X186952533Y-77017061D01*
X187302261Y-76783380D01*
X187535942Y-76433652D01*
X187618000Y-76021119D01*
X187618000Y-75978881D01*
X188002000Y-75978881D01*
X188002000Y-76021119D01*
X188084058Y-76433652D01*
X188317739Y-76783380D01*
X188667467Y-77017061D01*
X189080000Y-77099119D01*
X189492533Y-77017061D01*
X189842261Y-76783380D01*
X190075942Y-76433652D01*
X190158000Y-76021119D01*
X190158000Y-75978881D01*
X190542000Y-75978881D01*
X190542000Y-76021119D01*
X190624058Y-76433652D01*
X190857739Y-76783380D01*
X191207467Y-77017061D01*
X191620000Y-77099119D01*
X192032533Y-77017061D01*
X192382261Y-76783380D01*
X192615942Y-76433652D01*
X192698000Y-76021119D01*
X192698000Y-75978881D01*
X192615942Y-75566348D01*
X192382261Y-75216620D01*
X192032533Y-74982939D01*
X191620000Y-74900881D01*
X191207467Y-74982939D01*
X190857739Y-75216620D01*
X190624058Y-75566348D01*
X190542000Y-75978881D01*
X190158000Y-75978881D01*
X190075942Y-75566348D01*
X189842261Y-75216620D01*
X189492533Y-74982939D01*
X189080000Y-74900881D01*
X188667467Y-74982939D01*
X188317739Y-75216620D01*
X188084058Y-75566348D01*
X188002000Y-75978881D01*
X187618000Y-75978881D01*
X187535942Y-75566348D01*
X187302261Y-75216620D01*
X186952533Y-74982939D01*
X186540000Y-74900881D01*
X186127467Y-74982939D01*
X185777739Y-75216620D01*
X185544058Y-75566348D01*
X185462000Y-75978881D01*
X185082466Y-75978881D01*
X185082466Y-75150000D01*
X185066568Y-75065509D01*
X185016633Y-74987908D01*
X184940442Y-74935849D01*
X184850000Y-74917534D01*
X183150000Y-74917534D01*
X183065509Y-74933432D01*
X182987908Y-74983367D01*
X182935849Y-75059558D01*
X182917534Y-75150000D01*
X179449218Y-75150000D01*
X179249609Y-74950391D01*
X179135087Y-74873871D01*
X179000000Y-74847000D01*
X175346217Y-74847000D01*
X174449609Y-73950391D01*
X174335087Y-73873871D01*
X174200000Y-73847000D01*
X166399577Y-73847000D01*
X166547356Y-73699478D01*
X166608179Y-73553000D01*
X170200000Y-73553000D01*
X170335087Y-73526129D01*
X170449609Y-73449609D01*
X170672064Y-73227154D01*
X170671909Y-73404565D01*
X170752122Y-73598697D01*
X170900522Y-73747356D01*
X171094514Y-73827908D01*
X171304565Y-73828091D01*
X171498697Y-73747878D01*
X171593741Y-73653000D01*
X175253782Y-73653000D01*
X176150389Y-74549606D01*
X176150391Y-74549609D01*
X176245813Y-74613367D01*
X176264913Y-74626129D01*
X176400000Y-74653001D01*
X176400005Y-74653000D01*
X188100000Y-74653000D01*
X188235087Y-74626129D01*
X188349609Y-74549609D01*
X189249609Y-73649609D01*
X189326129Y-73535087D01*
X189351937Y-73405341D01*
X189412092Y-73366633D01*
X189464151Y-73290442D01*
X189482466Y-73200000D01*
X189482466Y-72300000D01*
X189466568Y-72215509D01*
X189416633Y-72137908D01*
X189340442Y-72085849D01*
X189250000Y-72067534D01*
X188750000Y-72067534D01*
X188665509Y-72083432D01*
X188587908Y-72133367D01*
X188535849Y-72209558D01*
X188517534Y-72300000D01*
X188517534Y-73200000D01*
X188533432Y-73284491D01*
X188565874Y-73334908D01*
X187953782Y-73947000D01*
X176546217Y-73947000D01*
X175702218Y-73103000D01*
X183267534Y-73103000D01*
X183267534Y-73200000D01*
X183283432Y-73284491D01*
X183333367Y-73362092D01*
X183409558Y-73414151D01*
X183500000Y-73432466D01*
X184000000Y-73432466D01*
X184084491Y-73416568D01*
X184162092Y-73366633D01*
X184214151Y-73290442D01*
X184232466Y-73200000D01*
X184232466Y-72300000D01*
X184216568Y-72215509D01*
X184166633Y-72137908D01*
X184090442Y-72085849D01*
X184000000Y-72067534D01*
X183500000Y-72067534D01*
X183415509Y-72083432D01*
X183337908Y-72133367D01*
X183285849Y-72209558D01*
X183267534Y-72300000D01*
X183267534Y-72397000D01*
X172484833Y-72397000D01*
X172519630Y-72313200D01*
X172721000Y-72313200D01*
X172837412Y-72290044D01*
X172936102Y-72224102D01*
X174223033Y-70937171D01*
X174249888Y-70964073D01*
X174884772Y-71227700D01*
X175572213Y-71228300D01*
X176207555Y-70965782D01*
X176694073Y-70480112D01*
X176957700Y-69845228D01*
X176958300Y-69157787D01*
X176695782Y-68522445D01*
X176526570Y-68352938D01*
X177399436Y-68350859D01*
X177431716Y-68344358D01*
X177464639Y-68344626D01*
X177498573Y-68330893D01*
X177534459Y-68323666D01*
X177561791Y-68305309D01*
X177592314Y-68292957D01*
X177805514Y-68153000D01*
X179706330Y-68153000D01*
X179800522Y-68247356D01*
X179994514Y-68327908D01*
X180204565Y-68328091D01*
X180398697Y-68247878D01*
X180547356Y-68099478D01*
X180627908Y-67905486D01*
X180628091Y-67695435D01*
X180547878Y-67501303D01*
X180399478Y-67352644D01*
X180205486Y-67272092D01*
X179995435Y-67271909D01*
X179801303Y-67352122D01*
X179706259Y-67447000D01*
X177952218Y-67447000D01*
X179246217Y-66153000D01*
X180753782Y-66153000D01*
X182487000Y-67886217D01*
X182487000Y-68721097D01*
X182427467Y-68732939D01*
X182077739Y-68966620D01*
X181844058Y-69316348D01*
X181762000Y-69728881D01*
X181762000Y-69771119D01*
X181844058Y-70183652D01*
X182077739Y-70533380D01*
X182427467Y-70767061D01*
X182840000Y-70849119D01*
X183252533Y-70767061D01*
X183602261Y-70533380D01*
X183835942Y-70183652D01*
X183918000Y-69771119D01*
X183918000Y-69728881D01*
X184302000Y-69728881D01*
X184302000Y-69771119D01*
X184384058Y-70183652D01*
X184617739Y-70533380D01*
X184897000Y-70719976D01*
X184897000Y-72095342D01*
X184837908Y-72133367D01*
X184785849Y-72209558D01*
X184767534Y-72300000D01*
X184767534Y-73200000D01*
X184783432Y-73284491D01*
X184833367Y-73362092D01*
X184909558Y-73414151D01*
X185000000Y-73432466D01*
X185500000Y-73432466D01*
X185584491Y-73416568D01*
X185662092Y-73366633D01*
X185714151Y-73290442D01*
X185732466Y-73200000D01*
X185732466Y-72300000D01*
X185716568Y-72215509D01*
X185666633Y-72137908D01*
X185603000Y-72094430D01*
X185603000Y-70804761D01*
X185792533Y-70767061D01*
X186142261Y-70533380D01*
X186375942Y-70183652D01*
X186382953Y-70148403D01*
X186542440Y-70148403D01*
X186799763Y-70645246D01*
X187227632Y-71005796D01*
X187521599Y-71127546D01*
X187742000Y-71025641D01*
X187742000Y-69928000D01*
X188098000Y-69928000D01*
X188098000Y-71025641D01*
X188318401Y-71127546D01*
X188612368Y-71005796D01*
X189040237Y-70645246D01*
X189297560Y-70148403D01*
X189196924Y-69928000D01*
X188098000Y-69928000D01*
X187742000Y-69928000D01*
X186643076Y-69928000D01*
X186542440Y-70148403D01*
X186382953Y-70148403D01*
X186458000Y-69771119D01*
X186458000Y-69728881D01*
X186382954Y-69351597D01*
X186542440Y-69351597D01*
X186643076Y-69572000D01*
X187742000Y-69572000D01*
X187742000Y-68474359D01*
X188098000Y-68474359D01*
X188098000Y-69572000D01*
X189196924Y-69572000D01*
X189297560Y-69351597D01*
X189040237Y-68854754D01*
X188612368Y-68494204D01*
X188318401Y-68372454D01*
X188098000Y-68474359D01*
X187742000Y-68474359D01*
X187521599Y-68372454D01*
X187227632Y-68494204D01*
X186799763Y-68854754D01*
X186542440Y-69351597D01*
X186382954Y-69351597D01*
X186375942Y-69316348D01*
X186142261Y-68966620D01*
X185792533Y-68732939D01*
X185380000Y-68650881D01*
X184967467Y-68732939D01*
X184617739Y-68966620D01*
X184384058Y-69316348D01*
X184302000Y-69728881D01*
X183918000Y-69728881D01*
X183835942Y-69316348D01*
X183602261Y-68966620D01*
X183252533Y-68732939D01*
X183193000Y-68721097D01*
X183193000Y-67740000D01*
X183166129Y-67604913D01*
X183089609Y-67490391D01*
X183089606Y-67490389D01*
X181252218Y-65653000D01*
X182000000Y-65653000D01*
X182135087Y-65626129D01*
X182249609Y-65549609D01*
X182249610Y-65549608D01*
X182649606Y-65149611D01*
X182649609Y-65149609D01*
X182726129Y-65035087D01*
X182753000Y-64900000D01*
X182753000Y-64693670D01*
X182847356Y-64599478D01*
X182927908Y-64405486D01*
X182928091Y-64195435D01*
X182847878Y-64001303D01*
X182699478Y-63852644D01*
X182505486Y-63772092D01*
X182295435Y-63771909D01*
X182101303Y-63852122D01*
X181952644Y-64000522D01*
X181872092Y-64194514D01*
X181871909Y-64404565D01*
X181952122Y-64598697D01*
X182047000Y-64693741D01*
X182047000Y-64753783D01*
X181853782Y-64947000D01*
X178152218Y-64947000D01*
X178546217Y-64553000D01*
X180406330Y-64553000D01*
X180500522Y-64647356D01*
X180694514Y-64727908D01*
X180904565Y-64728091D01*
X181098697Y-64647878D01*
X181247356Y-64499478D01*
X181327908Y-64305486D01*
X181328091Y-64095435D01*
X181247878Y-63901303D01*
X181099478Y-63752644D01*
X180905486Y-63672092D01*
X180695435Y-63671909D01*
X180501303Y-63752122D01*
X180406259Y-63847000D01*
X178400000Y-63847000D01*
X178264913Y-63873871D01*
X178150391Y-63950391D01*
X178150389Y-63950394D01*
X177553782Y-64547000D01*
X176246218Y-64547000D01*
X175827975Y-64128757D01*
X175828091Y-63995435D01*
X175747878Y-63801303D01*
X175599478Y-63652644D01*
X175405486Y-63572092D01*
X175195435Y-63571909D01*
X175001303Y-63652122D01*
X174852644Y-63800522D01*
X174799970Y-63927376D01*
X174747878Y-63801303D01*
X174599478Y-63652644D01*
X174405486Y-63572092D01*
X174195435Y-63571909D01*
X174001303Y-63652122D01*
X173852644Y-63800522D01*
X173772092Y-63994514D01*
X173771909Y-64204565D01*
X173819878Y-64320660D01*
X173349609Y-63850391D01*
X173235087Y-63773871D01*
X173100000Y-63747000D01*
X166611469Y-63747000D01*
X188237587Y-62736784D01*
X188172092Y-62894514D01*
G36*
X159301592Y-68093514D02*
X159301409Y-68303565D01*
X159381622Y-68497697D01*
X159530022Y-68646356D01*
X159724014Y-68726908D01*
X159934065Y-68727091D01*
X160128197Y-68646878D01*
X160276856Y-68498478D01*
X160357408Y-68304486D01*
X160357456Y-68249200D01*
X160577088Y-68249200D01*
X160305927Y-68519888D01*
X160045527Y-69147000D01*
X156600000Y-69147000D01*
X156464913Y-69173871D01*
X156350391Y-69250391D01*
X156350389Y-69250394D01*
X156228758Y-69372025D01*
X156095435Y-69371909D01*
X155901303Y-69452122D01*
X155752644Y-69600522D01*
X155672092Y-69794514D01*
X155671909Y-70004565D01*
X155752122Y-70198697D01*
X155900522Y-70347356D01*
X156094514Y-70427908D01*
X156304565Y-70428091D01*
X156371913Y-70400264D01*
X156371909Y-70404565D01*
X156452122Y-70598697D01*
X156600522Y-70747356D01*
X156745692Y-70807636D01*
X156652644Y-70900522D01*
X156572092Y-71094514D01*
X156571909Y-71304565D01*
X156652122Y-71498697D01*
X156800522Y-71647356D01*
X156994514Y-71727908D01*
X157204565Y-71728091D01*
X157398697Y-71647878D01*
X157547356Y-71499478D01*
X157627908Y-71305486D01*
X157628025Y-71171193D01*
X158046214Y-70753004D01*
X159017388Y-70753004D01*
X163163995Y-74899611D01*
X163278517Y-74976131D01*
X163413604Y-75003003D01*
X163413609Y-75003002D01*
X165097781Y-75003002D01*
X164950391Y-75150391D01*
X164873871Y-75264913D01*
X164847000Y-75400000D01*
X164847000Y-75900249D01*
X164799478Y-75852644D01*
X164605486Y-75772092D01*
X164471193Y-75771975D01*
X164249609Y-75550391D01*
X164135087Y-75473871D01*
X164000000Y-75447000D01*
X159146218Y-75447000D01*
X159028018Y-75328800D01*
X159028091Y-75245435D01*
X158947878Y-75051303D01*
X158799478Y-74902644D01*
X158605486Y-74822092D01*
X158395435Y-74821909D01*
X158201303Y-74902122D01*
X158052644Y-75050522D01*
X157972092Y-75244514D01*
X157971909Y-75454565D01*
X158052122Y-75648697D01*
X158200522Y-75797356D01*
X158394514Y-75877908D01*
X158578851Y-75878069D01*
X158750391Y-76049609D01*
X158864913Y-76126129D01*
X159000000Y-76153001D01*
X159000005Y-76153000D01*
X163853782Y-76153000D01*
X163972025Y-76271243D01*
X163971909Y-76404565D01*
X164052122Y-76598697D01*
X164200522Y-76747356D01*
X164394514Y-76827908D01*
X164472806Y-76827976D01*
X163953782Y-77347000D01*
X157246218Y-77347000D01*
X155349609Y-75450391D01*
X155235087Y-75373871D01*
X155100000Y-75347000D01*
X152846218Y-75347000D01*
X152753000Y-75253782D01*
X152753000Y-73672670D01*
X152847356Y-73578478D01*
X152872101Y-73518885D01*
X152900522Y-73547356D01*
X153094514Y-73627908D01*
X153304565Y-73628091D01*
X153498697Y-73547878D01*
X153647356Y-73399478D01*
X153727908Y-73205486D01*
X153728091Y-72995435D01*
X153647878Y-72801303D01*
X153553000Y-72706259D01*
X153553000Y-71224565D01*
X154411909Y-71224565D01*
X154492122Y-71418697D01*
X154640522Y-71567356D01*
X154673900Y-71581216D01*
X154673900Y-72099971D01*
X154556144Y-72217522D01*
X154475592Y-72411514D01*
X154475409Y-72621565D01*
X154555622Y-72815697D01*
X154704022Y-72964356D01*
X154898014Y-73044908D01*
X155092620Y-73045078D01*
X155072092Y-73094514D01*
X155071909Y-73304565D01*
X155152122Y-73498697D01*
X155300522Y-73647356D01*
X155494514Y-73727908D01*
X155547000Y-73727954D01*
X155547000Y-75500000D01*
X155573871Y-75635087D01*
X155650391Y-75749609D01*
X156850389Y-76949606D01*
X156850391Y-76949609D01*
X156964913Y-77026129D01*
X157100000Y-77053000D01*
X160898845Y-77053000D01*
X161655590Y-77058255D01*
X161752522Y-77155356D01*
X161946514Y-77235908D01*
X162156565Y-77236091D01*
X162350697Y-77155878D01*
X162499356Y-77007478D01*
X162579908Y-76813486D01*
X162580091Y-76603435D01*
X162499878Y-76409303D01*
X162351478Y-76260644D01*
X162157486Y-76180092D01*
X161947435Y-76179909D01*
X161753303Y-76260122D01*
X161660988Y-76352277D01*
X160902451Y-76347009D01*
X160901226Y-76347244D01*
X160900000Y-76347000D01*
X157246217Y-76347000D01*
X156253000Y-75353782D01*
X156253000Y-73500000D01*
X156226129Y-73364913D01*
X156149609Y-73250391D01*
X156127975Y-73228757D01*
X156128091Y-73095435D01*
X156047878Y-72901303D01*
X155899478Y-72752644D01*
X155705486Y-72672092D01*
X155510880Y-72671922D01*
X155531408Y-72622486D01*
X155531591Y-72412435D01*
X155451378Y-72218303D01*
X155333100Y-72099819D01*
X155333100Y-71473639D01*
X155387356Y-71419478D01*
X155467908Y-71225486D01*
X155468091Y-71015435D01*
X155387878Y-70821303D01*
X155239478Y-70672644D01*
X155045486Y-70592092D01*
X154835435Y-70591909D01*
X154641303Y-70672122D01*
X154492644Y-70820522D01*
X154412092Y-71014514D01*
X154411909Y-71224565D01*
X153553000Y-71224565D01*
X153553000Y-69646218D01*
X154146218Y-69053000D01*
X158100000Y-69053000D01*
X158235087Y-69026129D01*
X158349609Y-68949609D01*
X158349610Y-68949608D01*
X159349606Y-67949611D01*
X159349609Y-67949609D01*
X159380615Y-67903205D01*
X159301592Y-68093514D01*
X159301592Y-68093514D01*
G37*
X159301592Y-68093514D02*
X159301409Y-68303565D01*
X159381622Y-68497697D01*
X159530022Y-68646356D01*
X159724014Y-68726908D01*
X159934065Y-68727091D01*
X160128197Y-68646878D01*
X160276856Y-68498478D01*
X160357408Y-68304486D01*
X160357456Y-68249200D01*
X160577088Y-68249200D01*
X160305927Y-68519888D01*
X160045527Y-69147000D01*
X156600000Y-69147000D01*
X156464913Y-69173871D01*
X156350391Y-69250391D01*
X156350389Y-69250394D01*
X156228758Y-69372025D01*
X156095435Y-69371909D01*
X155901303Y-69452122D01*
X155752644Y-69600522D01*
X155672092Y-69794514D01*
X155671909Y-70004565D01*
X155752122Y-70198697D01*
X155900522Y-70347356D01*
X156094514Y-70427908D01*
X156304565Y-70428091D01*
X156371913Y-70400264D01*
X156371909Y-70404565D01*
X156452122Y-70598697D01*
X156600522Y-70747356D01*
X156745692Y-70807636D01*
X156652644Y-70900522D01*
X156572092Y-71094514D01*
X156571909Y-71304565D01*
X156652122Y-71498697D01*
X156800522Y-71647356D01*
X156994514Y-71727908D01*
X157204565Y-71728091D01*
X157398697Y-71647878D01*
X157547356Y-71499478D01*
X157627908Y-71305486D01*
X157628025Y-71171193D01*
X158046214Y-70753004D01*
X159017388Y-70753004D01*
X163163995Y-74899611D01*
X163278517Y-74976131D01*
X163413604Y-75003003D01*
X163413609Y-75003002D01*
X165097781Y-75003002D01*
X164950391Y-75150391D01*
X164873871Y-75264913D01*
X164847000Y-75400000D01*
X164847000Y-75900249D01*
X164799478Y-75852644D01*
X164605486Y-75772092D01*
X164471193Y-75771975D01*
X164249609Y-75550391D01*
X164135087Y-75473871D01*
X164000000Y-75447000D01*
X159146218Y-75447000D01*
X159028018Y-75328800D01*
X159028091Y-75245435D01*
X158947878Y-75051303D01*
X158799478Y-74902644D01*
X158605486Y-74822092D01*
X158395435Y-74821909D01*
X158201303Y-74902122D01*
X158052644Y-75050522D01*
X157972092Y-75244514D01*
X157971909Y-75454565D01*
X158052122Y-75648697D01*
X158200522Y-75797356D01*
X158394514Y-75877908D01*
X158578851Y-75878069D01*
X158750391Y-76049609D01*
X158864913Y-76126129D01*
X159000000Y-76153001D01*
X159000005Y-76153000D01*
X163853782Y-76153000D01*
X163972025Y-76271243D01*
X163971909Y-76404565D01*
X164052122Y-76598697D01*
X164200522Y-76747356D01*
X164394514Y-76827908D01*
X164472806Y-76827976D01*
X163953782Y-77347000D01*
X157246218Y-77347000D01*
X155349609Y-75450391D01*
X155235087Y-75373871D01*
X155100000Y-75347000D01*
X152846218Y-75347000D01*
X152753000Y-75253782D01*
X152753000Y-73672670D01*
X152847356Y-73578478D01*
X152872101Y-73518885D01*
X152900522Y-73547356D01*
X153094514Y-73627908D01*
X153304565Y-73628091D01*
X153498697Y-73547878D01*
X153647356Y-73399478D01*
X153727908Y-73205486D01*
X153728091Y-72995435D01*
X153647878Y-72801303D01*
X153553000Y-72706259D01*
X153553000Y-71224565D01*
X154411909Y-71224565D01*
X154492122Y-71418697D01*
X154640522Y-71567356D01*
X154673900Y-71581216D01*
X154673900Y-72099971D01*
X154556144Y-72217522D01*
X154475592Y-72411514D01*
X154475409Y-72621565D01*
X154555622Y-72815697D01*
X154704022Y-72964356D01*
X154898014Y-73044908D01*
X155092620Y-73045078D01*
X155072092Y-73094514D01*
X155071909Y-73304565D01*
X155152122Y-73498697D01*
X155300522Y-73647356D01*
X155494514Y-73727908D01*
X155547000Y-73727954D01*
X155547000Y-75500000D01*
X155573871Y-75635087D01*
X155650391Y-75749609D01*
X156850389Y-76949606D01*
X156850391Y-76949609D01*
X156964913Y-77026129D01*
X157100000Y-77053000D01*
X160898845Y-77053000D01*
X161655590Y-77058255D01*
X161752522Y-77155356D01*
X161946514Y-77235908D01*
X162156565Y-77236091D01*
X162350697Y-77155878D01*
X162499356Y-77007478D01*
X162579908Y-76813486D01*
X162580091Y-76603435D01*
X162499878Y-76409303D01*
X162351478Y-76260644D01*
X162157486Y-76180092D01*
X161947435Y-76179909D01*
X161753303Y-76260122D01*
X161660988Y-76352277D01*
X160902451Y-76347009D01*
X160901226Y-76347244D01*
X160900000Y-76347000D01*
X157246217Y-76347000D01*
X156253000Y-75353782D01*
X156253000Y-73500000D01*
X156226129Y-73364913D01*
X156149609Y-73250391D01*
X156127975Y-73228757D01*
X156128091Y-73095435D01*
X156047878Y-72901303D01*
X155899478Y-72752644D01*
X155705486Y-72672092D01*
X155510880Y-72671922D01*
X155531408Y-72622486D01*
X155531591Y-72412435D01*
X155451378Y-72218303D01*
X155333100Y-72099819D01*
X155333100Y-71473639D01*
X155387356Y-71419478D01*
X155467908Y-71225486D01*
X155468091Y-71015435D01*
X155387878Y-70821303D01*
X155239478Y-70672644D01*
X155045486Y-70592092D01*
X154835435Y-70591909D01*
X154641303Y-70672122D01*
X154492644Y-70820522D01*
X154412092Y-71014514D01*
X154411909Y-71224565D01*
X153553000Y-71224565D01*
X153553000Y-69646218D01*
X154146218Y-69053000D01*
X158100000Y-69053000D01*
X158235087Y-69026129D01*
X158349609Y-68949609D01*
X158349610Y-68949608D01*
X159349606Y-67949611D01*
X159349609Y-67949609D01*
X159380615Y-67903205D01*
X159301592Y-68093514D01*
G36*
X152451400Y-70161678D02*
X152291803Y-70227622D01*
X152143144Y-70376022D01*
X152062592Y-70570014D01*
X152062409Y-70780065D01*
X152142622Y-70974197D01*
X152291022Y-71122856D01*
X152485014Y-71203408D01*
X152695065Y-71203591D01*
X152847000Y-71140813D01*
X152847000Y-72090202D01*
X152826478Y-72069644D01*
X152632486Y-71989092D01*
X152422435Y-71988909D01*
X152228303Y-72069122D01*
X152085014Y-72212162D01*
X152083368Y-72212489D01*
X152075836Y-72217522D01*
X151976437Y-72283938D01*
X151595438Y-72664938D01*
X151538462Y-72750207D01*
X151492978Y-72704644D01*
X151298986Y-72624092D01*
X151088935Y-72623909D01*
X150894803Y-72704122D01*
X150746144Y-72852522D01*
X150708088Y-72944173D01*
X149918570Y-73986913D01*
X149898903Y-74027450D01*
X149873871Y-74064913D01*
X149869107Y-74088862D01*
X149858448Y-74110832D01*
X149855790Y-74155810D01*
X149847000Y-74200000D01*
X149847000Y-74353782D01*
X149378800Y-74821982D01*
X149295435Y-74821909D01*
X149101303Y-74902122D01*
X148952644Y-75050522D01*
X148872092Y-75244514D01*
X148871909Y-75454565D01*
X148909382Y-75545258D01*
X148856100Y-75491976D01*
X148856100Y-73411822D01*
X149015697Y-73345878D01*
X149164356Y-73197478D01*
X149244908Y-73003486D01*
X149245091Y-72793435D01*
X149164878Y-72599303D01*
X149016478Y-72450644D01*
X148822486Y-72370092D01*
X148612435Y-72369909D01*
X148418303Y-72450122D01*
X148269644Y-72598522D01*
X148189092Y-72792514D01*
X148188909Y-73002565D01*
X148205842Y-73043546D01*
X148196900Y-73088500D01*
X148196900Y-75051574D01*
X148005486Y-74972092D01*
X147795435Y-74971909D01*
X147601303Y-75052122D01*
X147452644Y-75200522D01*
X147372092Y-75394514D01*
X147372046Y-75447000D01*
X144346218Y-75447000D01*
X143953000Y-75053782D01*
X143953000Y-74446218D01*
X145449606Y-72949611D01*
X145449609Y-72949609D01*
X145526129Y-72835087D01*
X145527962Y-72825871D01*
X145553001Y-72700000D01*
X145553000Y-72699995D01*
X145553000Y-71493670D01*
X145647356Y-71399478D01*
X145727908Y-71205486D01*
X145727944Y-71163739D01*
X145750522Y-71186356D01*
X145944514Y-71266908D01*
X146154565Y-71267091D01*
X146348697Y-71186878D01*
X146497356Y-71038478D01*
X146577908Y-70844486D01*
X146578091Y-70634435D01*
X146497878Y-70440303D01*
X146349478Y-70291644D01*
X146155486Y-70211092D01*
X145988070Y-70210946D01*
X145711562Y-69934438D01*
X145604633Y-69862989D01*
X145583706Y-69858827D01*
X145478500Y-69837900D01*
X143954500Y-69837900D01*
X143828367Y-69862989D01*
X143721438Y-69934437D01*
X141990480Y-71665396D01*
X141990480Y-70053104D01*
X142086577Y-70013398D01*
X142235236Y-69864998D01*
X142315788Y-69671006D01*
X142315971Y-69460955D01*
X142235758Y-69266823D01*
X142087358Y-69118164D01*
X141893366Y-69037612D01*
X141726320Y-69037466D01*
X141726320Y-68925537D01*
X141750389Y-68949606D01*
X141750391Y-68949609D01*
X141864913Y-69026129D01*
X142000000Y-69053000D01*
X147447783Y-69053000D01*
X147150391Y-69350391D01*
X147073871Y-69464913D01*
X147047000Y-69600000D01*
X147047000Y-71853783D01*
X144728757Y-74172025D01*
X144595435Y-74171909D01*
X144401303Y-74252122D01*
X144252644Y-74400522D01*
X144172092Y-74594514D01*
X144171909Y-74804565D01*
X144252122Y-74998697D01*
X144400522Y-75147356D01*
X144594514Y-75227908D01*
X144804565Y-75228091D01*
X144998697Y-75147878D01*
X145147356Y-74999478D01*
X145227908Y-74805486D01*
X145228025Y-74671193D01*
X147649606Y-72249611D01*
X147649609Y-72249609D01*
X147726129Y-72135087D01*
X147735702Y-72086962D01*
X147753001Y-72000000D01*
X147753000Y-71999995D01*
X147753000Y-70199577D01*
X147900522Y-70347356D01*
X148094514Y-70427908D01*
X148228807Y-70428025D01*
X148950389Y-71149606D01*
X148950391Y-71149609D01*
X149005388Y-71186356D01*
X149064913Y-71226129D01*
X149200000Y-71253001D01*
X149200005Y-71253000D01*
X150453782Y-71253000D01*
X150572025Y-71371243D01*
X150571909Y-71504565D01*
X150652122Y-71698697D01*
X150800522Y-71847356D01*
X150994514Y-71927908D01*
X151204565Y-71928091D01*
X151398697Y-71847878D01*
X151547356Y-71699478D01*
X151627908Y-71505486D01*
X151628091Y-71295435D01*
X151547878Y-71101303D01*
X151399478Y-70952644D01*
X151205486Y-70872092D01*
X151071193Y-70871975D01*
X150849609Y-70650391D01*
X150735087Y-70573871D01*
X150600000Y-70547000D01*
X149346217Y-70547000D01*
X148727975Y-69928757D01*
X148728091Y-69795435D01*
X148647878Y-69601303D01*
X148599659Y-69553000D01*
X148653782Y-69553000D01*
X149150391Y-70049609D01*
X149264913Y-70126129D01*
X149400000Y-70153000D01*
X150706330Y-70153000D01*
X150800522Y-70247356D01*
X150994514Y-70327908D01*
X151204565Y-70328091D01*
X151398697Y-70247878D01*
X151547356Y-70099478D01*
X151627908Y-69905486D01*
X151628091Y-69695435D01*
X151547878Y-69501303D01*
X151524960Y-69478345D01*
X151598697Y-69447878D01*
X151747356Y-69299478D01*
X151827908Y-69105486D01*
X151828091Y-68895435D01*
X151801027Y-68829935D01*
X151936697Y-68773878D01*
X152085356Y-68625478D01*
X152165908Y-68431486D01*
X152166091Y-68221435D01*
X152136651Y-68150184D01*
X152317697Y-68075378D01*
X152451400Y-67941908D01*
X152451400Y-70161678D01*
X152451400Y-70161678D01*
G37*
X152451400Y-70161678D02*
X152291803Y-70227622D01*
X152143144Y-70376022D01*
X152062592Y-70570014D01*
X152062409Y-70780065D01*
X152142622Y-70974197D01*
X152291022Y-71122856D01*
X152485014Y-71203408D01*
X152695065Y-71203591D01*
X152847000Y-71140813D01*
X152847000Y-72090202D01*
X152826478Y-72069644D01*
X152632486Y-71989092D01*
X152422435Y-71988909D01*
X152228303Y-72069122D01*
X152085014Y-72212162D01*
X152083368Y-72212489D01*
X152075836Y-72217522D01*
X151976437Y-72283938D01*
X151595438Y-72664938D01*
X151538462Y-72750207D01*
X151492978Y-72704644D01*
X151298986Y-72624092D01*
X151088935Y-72623909D01*
X150894803Y-72704122D01*
X150746144Y-72852522D01*
X150708088Y-72944173D01*
X149918570Y-73986913D01*
X149898903Y-74027450D01*
X149873871Y-74064913D01*
X149869107Y-74088862D01*
X149858448Y-74110832D01*
X149855790Y-74155810D01*
X149847000Y-74200000D01*
X149847000Y-74353782D01*
X149378800Y-74821982D01*
X149295435Y-74821909D01*
X149101303Y-74902122D01*
X148952644Y-75050522D01*
X148872092Y-75244514D01*
X148871909Y-75454565D01*
X148909382Y-75545258D01*
X148856100Y-75491976D01*
X148856100Y-73411822D01*
X149015697Y-73345878D01*
X149164356Y-73197478D01*
X149244908Y-73003486D01*
X149245091Y-72793435D01*
X149164878Y-72599303D01*
X149016478Y-72450644D01*
X148822486Y-72370092D01*
X148612435Y-72369909D01*
X148418303Y-72450122D01*
X148269644Y-72598522D01*
X148189092Y-72792514D01*
X148188909Y-73002565D01*
X148205842Y-73043546D01*
X148196900Y-73088500D01*
X148196900Y-75051574D01*
X148005486Y-74972092D01*
X147795435Y-74971909D01*
X147601303Y-75052122D01*
X147452644Y-75200522D01*
X147372092Y-75394514D01*
X147372046Y-75447000D01*
X144346218Y-75447000D01*
X143953000Y-75053782D01*
X143953000Y-74446218D01*
X145449606Y-72949611D01*
X145449609Y-72949609D01*
X145526129Y-72835087D01*
X145527962Y-72825871D01*
X145553001Y-72700000D01*
X145553000Y-72699995D01*
X145553000Y-71493670D01*
X145647356Y-71399478D01*
X145727908Y-71205486D01*
X145727944Y-71163739D01*
X145750522Y-71186356D01*
X145944514Y-71266908D01*
X146154565Y-71267091D01*
X146348697Y-71186878D01*
X146497356Y-71038478D01*
X146577908Y-70844486D01*
X146578091Y-70634435D01*
X146497878Y-70440303D01*
X146349478Y-70291644D01*
X146155486Y-70211092D01*
X145988070Y-70210946D01*
X145711562Y-69934438D01*
X145604633Y-69862989D01*
X145583706Y-69858827D01*
X145478500Y-69837900D01*
X143954500Y-69837900D01*
X143828367Y-69862989D01*
X143721438Y-69934437D01*
X141990480Y-71665396D01*
X141990480Y-70053104D01*
X142086577Y-70013398D01*
X142235236Y-69864998D01*
X142315788Y-69671006D01*
X142315971Y-69460955D01*
X142235758Y-69266823D01*
X142087358Y-69118164D01*
X141893366Y-69037612D01*
X141726320Y-69037466D01*
X141726320Y-68925537D01*
X141750389Y-68949606D01*
X141750391Y-68949609D01*
X141864913Y-69026129D01*
X142000000Y-69053000D01*
X147447783Y-69053000D01*
X147150391Y-69350391D01*
X147073871Y-69464913D01*
X147047000Y-69600000D01*
X147047000Y-71853783D01*
X144728757Y-74172025D01*
X144595435Y-74171909D01*
X144401303Y-74252122D01*
X144252644Y-74400522D01*
X144172092Y-74594514D01*
X144171909Y-74804565D01*
X144252122Y-74998697D01*
X144400522Y-75147356D01*
X144594514Y-75227908D01*
X144804565Y-75228091D01*
X144998697Y-75147878D01*
X145147356Y-74999478D01*
X145227908Y-74805486D01*
X145228025Y-74671193D01*
X147649606Y-72249611D01*
X147649609Y-72249609D01*
X147726129Y-72135087D01*
X147735702Y-72086962D01*
X147753001Y-72000000D01*
X147753000Y-71999995D01*
X147753000Y-70199577D01*
X147900522Y-70347356D01*
X148094514Y-70427908D01*
X148228807Y-70428025D01*
X148950389Y-71149606D01*
X148950391Y-71149609D01*
X149005388Y-71186356D01*
X149064913Y-71226129D01*
X149200000Y-71253001D01*
X149200005Y-71253000D01*
X150453782Y-71253000D01*
X150572025Y-71371243D01*
X150571909Y-71504565D01*
X150652122Y-71698697D01*
X150800522Y-71847356D01*
X150994514Y-71927908D01*
X151204565Y-71928091D01*
X151398697Y-71847878D01*
X151547356Y-71699478D01*
X151627908Y-71505486D01*
X151628091Y-71295435D01*
X151547878Y-71101303D01*
X151399478Y-70952644D01*
X151205486Y-70872092D01*
X151071193Y-70871975D01*
X150849609Y-70650391D01*
X150735087Y-70573871D01*
X150600000Y-70547000D01*
X149346217Y-70547000D01*
X148727975Y-69928757D01*
X148728091Y-69795435D01*
X148647878Y-69601303D01*
X148599659Y-69553000D01*
X148653782Y-69553000D01*
X149150391Y-70049609D01*
X149264913Y-70126129D01*
X149400000Y-70153000D01*
X150706330Y-70153000D01*
X150800522Y-70247356D01*
X150994514Y-70327908D01*
X151204565Y-70328091D01*
X151398697Y-70247878D01*
X151547356Y-70099478D01*
X151627908Y-69905486D01*
X151628091Y-69695435D01*
X151547878Y-69501303D01*
X151524960Y-69478345D01*
X151598697Y-69447878D01*
X151747356Y-69299478D01*
X151827908Y-69105486D01*
X151828091Y-68895435D01*
X151801027Y-68829935D01*
X151936697Y-68773878D01*
X152085356Y-68625478D01*
X152165908Y-68431486D01*
X152166091Y-68221435D01*
X152136651Y-68150184D01*
X152317697Y-68075378D01*
X152451400Y-67941908D01*
X152451400Y-70161678D01*
G36*
X156421952Y-64354957D02*
X155515339Y-65591249D01*
X155497421Y-65629667D01*
X155473871Y-65664913D01*
X155468582Y-65691502D01*
X155457122Y-65716074D01*
X155455270Y-65758426D01*
X155447000Y-65800000D01*
X155447000Y-66706330D01*
X155352644Y-66800522D01*
X155272092Y-66994514D01*
X155271909Y-67204565D01*
X155352122Y-67398697D01*
X155500167Y-67547000D01*
X155446218Y-67547000D01*
X155027975Y-67128757D01*
X155028091Y-66995435D01*
X154947878Y-66801303D01*
X154799478Y-66652644D01*
X154605486Y-66572092D01*
X154395435Y-66571909D01*
X154201303Y-66652122D01*
X154052644Y-66800522D01*
X153972092Y-66994514D01*
X153971909Y-67204565D01*
X154052122Y-67398697D01*
X154200522Y-67547356D01*
X154394514Y-67627908D01*
X154528807Y-67628025D01*
X155050391Y-68149609D01*
X155164913Y-68226129D01*
X155300000Y-68253001D01*
X155300005Y-68253000D01*
X156000000Y-68253000D01*
X156135087Y-68226129D01*
X156249609Y-68149609D01*
X159946217Y-64453000D01*
X172953782Y-64453000D01*
X174847782Y-66347000D01*
X170232466Y-66347000D01*
X170232466Y-66250000D01*
X170216568Y-66165509D01*
X170166633Y-66087908D01*
X170103000Y-66044430D01*
X170103000Y-65250000D01*
X170076129Y-65114913D01*
X169999609Y-65000391D01*
X169999606Y-65000389D01*
X169899609Y-64900391D01*
X169785087Y-64823871D01*
X169650000Y-64797000D01*
X167269703Y-64797000D01*
X167235087Y-64773871D01*
X167100000Y-64747000D01*
X161893670Y-64747000D01*
X161799478Y-64652644D01*
X161605486Y-64572092D01*
X161395435Y-64571909D01*
X161201303Y-64652122D01*
X161052644Y-64800522D01*
X160972092Y-64994514D01*
X160971909Y-65204565D01*
X161052122Y-65398697D01*
X161200522Y-65547356D01*
X161394514Y-65627908D01*
X161604565Y-65628091D01*
X161798697Y-65547878D01*
X161893741Y-65453000D01*
X164095800Y-65453000D01*
X164095800Y-67372000D01*
X164118956Y-67488412D01*
X164184898Y-67587102D01*
X164843596Y-68245800D01*
X164687047Y-68245800D01*
X164637478Y-68196144D01*
X164443486Y-68115592D01*
X164233435Y-68115409D01*
X164039303Y-68195622D01*
X163890644Y-68344022D01*
X163810092Y-68538014D01*
X163809909Y-68748065D01*
X163890122Y-68942197D01*
X164038522Y-69090856D01*
X164232514Y-69171408D01*
X164442565Y-69171591D01*
X164470922Y-69159874D01*
X164059398Y-69571398D01*
X164058311Y-69573025D01*
X164056697Y-69574133D01*
X164025371Y-69622324D01*
X163993456Y-69670088D01*
X163993074Y-69672007D01*
X163992007Y-69673649D01*
X163981505Y-69730167D01*
X163970300Y-69786500D01*
X163970682Y-69788419D01*
X163970324Y-69790344D01*
X163989591Y-71314903D01*
X164001215Y-71369711D01*
X164011624Y-71424783D01*
X164013505Y-71427658D01*
X164014217Y-71431013D01*
X164045926Y-71477196D01*
X164076621Y-71524097D01*
X165046854Y-72513038D01*
X165048076Y-72513871D01*
X165048898Y-72515102D01*
X165097076Y-72547293D01*
X165144909Y-72579919D01*
X165146357Y-72580221D01*
X165147588Y-72581044D01*
X165204422Y-72592349D01*
X165261095Y-72604186D01*
X165262548Y-72603911D01*
X165264000Y-72604200D01*
X167467534Y-72604200D01*
X167467534Y-72750000D01*
X167483432Y-72834491D01*
X167491481Y-72847000D01*
X166300005Y-72847000D01*
X166300000Y-72846999D01*
X166174776Y-72871909D01*
X166173994Y-72872065D01*
X165995435Y-72871909D01*
X165801303Y-72952122D01*
X165652644Y-73100522D01*
X165572092Y-73294514D01*
X165571909Y-73504565D01*
X165652122Y-73698697D01*
X165800167Y-73847000D01*
X163746218Y-73847000D01*
X163706276Y-73807058D01*
X163744065Y-73807091D01*
X163938197Y-73726878D01*
X164086856Y-73578478D01*
X164167408Y-73384486D01*
X164167591Y-73174435D01*
X164087378Y-72980303D01*
X163938978Y-72831644D01*
X163744986Y-72751092D01*
X163541619Y-72750915D01*
X163327764Y-72537060D01*
X163363065Y-72537091D01*
X163557197Y-72456878D01*
X163705856Y-72308478D01*
X163786408Y-72114486D01*
X163786591Y-71904435D01*
X163706378Y-71710303D01*
X163557978Y-71561644D01*
X163363986Y-71481092D01*
X163160619Y-71480915D01*
X162675329Y-70995625D01*
X162747555Y-70965782D01*
X163234073Y-70480112D01*
X163497700Y-69845228D01*
X163498300Y-69157787D01*
X163235782Y-68522445D01*
X162750112Y-68035927D01*
X162115228Y-67772300D01*
X161448985Y-67771719D01*
X161733504Y-67487200D01*
X162943115Y-67487200D01*
X163086022Y-67630356D01*
X163280014Y-67710908D01*
X163490065Y-67711091D01*
X163684197Y-67630878D01*
X163832856Y-67482478D01*
X163913408Y-67288486D01*
X163913591Y-67078435D01*
X163833378Y-66884303D01*
X163684978Y-66735644D01*
X163490986Y-66655092D01*
X163280935Y-66654909D01*
X163086803Y-66735122D01*
X162942874Y-66878800D01*
X161607500Y-66878800D01*
X161491088Y-66901956D01*
X161392398Y-66967898D01*
X160719496Y-67640800D01*
X160083500Y-67640800D01*
X159967087Y-67663956D01*
X159948197Y-67676578D01*
X159934986Y-67671092D01*
X159724935Y-67670909D01*
X159530803Y-67751122D01*
X159384942Y-67896729D01*
X159426129Y-67835087D01*
X159430624Y-67812492D01*
X159453001Y-67700000D01*
X159453000Y-67699995D01*
X159453000Y-67346218D01*
X160062137Y-66737081D01*
X161064807Y-66625049D01*
X161117522Y-66677856D01*
X161311514Y-66758408D01*
X161521565Y-66758591D01*
X161715697Y-66678378D01*
X161864356Y-66529978D01*
X161944908Y-66335986D01*
X161945091Y-66125935D01*
X161864878Y-65931803D01*
X161716478Y-65783144D01*
X161522486Y-65702592D01*
X161312435Y-65702409D01*
X161118303Y-65782622D01*
X160976112Y-65924565D01*
X159860802Y-66049183D01*
X159813545Y-66064197D01*
X159764913Y-66073871D01*
X159748430Y-66084885D01*
X159729534Y-66090888D01*
X159691619Y-66122844D01*
X159650391Y-66150391D01*
X158850391Y-66950391D01*
X158773871Y-67064913D01*
X158747000Y-67200000D01*
X158747000Y-67553783D01*
X157953782Y-68347000D01*
X154000005Y-68347000D01*
X154000000Y-68346999D01*
X153864913Y-68373871D01*
X153750391Y-68450391D01*
X153110600Y-69090182D01*
X153110600Y-66548000D01*
X153085511Y-66421868D01*
X153037229Y-66349609D01*
X153014062Y-66314937D01*
X152633062Y-65933938D01*
X152526133Y-65862489D01*
X152505206Y-65858327D01*
X152400000Y-65837400D01*
X149415500Y-65837400D01*
X149289368Y-65862489D01*
X149289366Y-65862490D01*
X149289367Y-65862490D01*
X149182437Y-65933938D01*
X149024976Y-66091400D01*
X147389322Y-66091400D01*
X147323378Y-65931803D01*
X147174978Y-65783144D01*
X146980986Y-65702592D01*
X146770935Y-65702409D01*
X146576803Y-65782622D01*
X146428144Y-65931022D01*
X146347592Y-66125014D01*
X146347409Y-66335065D01*
X146427622Y-66529197D01*
X146576022Y-66677856D01*
X146770014Y-66758408D01*
X146980065Y-66758591D01*
X147021046Y-66741658D01*
X147066000Y-66750600D01*
X148873776Y-66750600D01*
X148770976Y-66853400D01*
X145869025Y-66853400D01*
X145744600Y-66728976D01*
X145744600Y-66652055D01*
X145847356Y-66549478D01*
X145927908Y-66355486D01*
X145928091Y-66145435D01*
X145847878Y-65951303D01*
X145699478Y-65802644D01*
X145505486Y-65722092D01*
X145295435Y-65721909D01*
X145101303Y-65802122D01*
X144952644Y-65950522D01*
X144872092Y-66144514D01*
X144871909Y-66354565D01*
X144952122Y-66548697D01*
X145085400Y-66682208D01*
X145085400Y-66865500D01*
X145096674Y-66922178D01*
X145110489Y-66991633D01*
X145181938Y-67098562D01*
X145317776Y-67234400D01*
X144472024Y-67234400D01*
X144220600Y-66982976D01*
X144220600Y-66676013D01*
X144347356Y-66549478D01*
X144427908Y-66355486D01*
X144428091Y-66145435D01*
X144347878Y-65951303D01*
X144199478Y-65802644D01*
X144005486Y-65722092D01*
X143887375Y-65721989D01*
X144115422Y-65493942D01*
X144181364Y-65395252D01*
X144204520Y-65278840D01*
X144204520Y-65192065D01*
X144347356Y-65049478D01*
X144427908Y-64855486D01*
X144427971Y-64783253D01*
X156422067Y-64222975D01*
X156421952Y-64354957D01*
X156421952Y-64354957D01*
G37*
X156421952Y-64354957D02*
X155515339Y-65591249D01*
X155497421Y-65629667D01*
X155473871Y-65664913D01*
X155468582Y-65691502D01*
X155457122Y-65716074D01*
X155455270Y-65758426D01*
X155447000Y-65800000D01*
X155447000Y-66706330D01*
X155352644Y-66800522D01*
X155272092Y-66994514D01*
X155271909Y-67204565D01*
X155352122Y-67398697D01*
X155500167Y-67547000D01*
X155446218Y-67547000D01*
X155027975Y-67128757D01*
X155028091Y-66995435D01*
X154947878Y-66801303D01*
X154799478Y-66652644D01*
X154605486Y-66572092D01*
X154395435Y-66571909D01*
X154201303Y-66652122D01*
X154052644Y-66800522D01*
X153972092Y-66994514D01*
X153971909Y-67204565D01*
X154052122Y-67398697D01*
X154200522Y-67547356D01*
X154394514Y-67627908D01*
X154528807Y-67628025D01*
X155050391Y-68149609D01*
X155164913Y-68226129D01*
X155300000Y-68253001D01*
X155300005Y-68253000D01*
X156000000Y-68253000D01*
X156135087Y-68226129D01*
X156249609Y-68149609D01*
X159946217Y-64453000D01*
X172953782Y-64453000D01*
X174847782Y-66347000D01*
X170232466Y-66347000D01*
X170232466Y-66250000D01*
X170216568Y-66165509D01*
X170166633Y-66087908D01*
X170103000Y-66044430D01*
X170103000Y-65250000D01*
X170076129Y-65114913D01*
X169999609Y-65000391D01*
X169999606Y-65000389D01*
X169899609Y-64900391D01*
X169785087Y-64823871D01*
X169650000Y-64797000D01*
X167269703Y-64797000D01*
X167235087Y-64773871D01*
X167100000Y-64747000D01*
X161893670Y-64747000D01*
X161799478Y-64652644D01*
X161605486Y-64572092D01*
X161395435Y-64571909D01*
X161201303Y-64652122D01*
X161052644Y-64800522D01*
X160972092Y-64994514D01*
X160971909Y-65204565D01*
X161052122Y-65398697D01*
X161200522Y-65547356D01*
X161394514Y-65627908D01*
X161604565Y-65628091D01*
X161798697Y-65547878D01*
X161893741Y-65453000D01*
X164095800Y-65453000D01*
X164095800Y-67372000D01*
X164118956Y-67488412D01*
X164184898Y-67587102D01*
X164843596Y-68245800D01*
X164687047Y-68245800D01*
X164637478Y-68196144D01*
X164443486Y-68115592D01*
X164233435Y-68115409D01*
X164039303Y-68195622D01*
X163890644Y-68344022D01*
X163810092Y-68538014D01*
X163809909Y-68748065D01*
X163890122Y-68942197D01*
X164038522Y-69090856D01*
X164232514Y-69171408D01*
X164442565Y-69171591D01*
X164470922Y-69159874D01*
X164059398Y-69571398D01*
X164058311Y-69573025D01*
X164056697Y-69574133D01*
X164025371Y-69622324D01*
X163993456Y-69670088D01*
X163993074Y-69672007D01*
X163992007Y-69673649D01*
X163981505Y-69730167D01*
X163970300Y-69786500D01*
X163970682Y-69788419D01*
X163970324Y-69790344D01*
X163989591Y-71314903D01*
X164001215Y-71369711D01*
X164011624Y-71424783D01*
X164013505Y-71427658D01*
X164014217Y-71431013D01*
X164045926Y-71477196D01*
X164076621Y-71524097D01*
X165046854Y-72513038D01*
X165048076Y-72513871D01*
X165048898Y-72515102D01*
X165097076Y-72547293D01*
X165144909Y-72579919D01*
X165146357Y-72580221D01*
X165147588Y-72581044D01*
X165204422Y-72592349D01*
X165261095Y-72604186D01*
X165262548Y-72603911D01*
X165264000Y-72604200D01*
X167467534Y-72604200D01*
X167467534Y-72750000D01*
X167483432Y-72834491D01*
X167491481Y-72847000D01*
X166300005Y-72847000D01*
X166300000Y-72846999D01*
X166174776Y-72871909D01*
X166173994Y-72872065D01*
X165995435Y-72871909D01*
X165801303Y-72952122D01*
X165652644Y-73100522D01*
X165572092Y-73294514D01*
X165571909Y-73504565D01*
X165652122Y-73698697D01*
X165800167Y-73847000D01*
X163746218Y-73847000D01*
X163706276Y-73807058D01*
X163744065Y-73807091D01*
X163938197Y-73726878D01*
X164086856Y-73578478D01*
X164167408Y-73384486D01*
X164167591Y-73174435D01*
X164087378Y-72980303D01*
X163938978Y-72831644D01*
X163744986Y-72751092D01*
X163541619Y-72750915D01*
X163327764Y-72537060D01*
X163363065Y-72537091D01*
X163557197Y-72456878D01*
X163705856Y-72308478D01*
X163786408Y-72114486D01*
X163786591Y-71904435D01*
X163706378Y-71710303D01*
X163557978Y-71561644D01*
X163363986Y-71481092D01*
X163160619Y-71480915D01*
X162675329Y-70995625D01*
X162747555Y-70965782D01*
X163234073Y-70480112D01*
X163497700Y-69845228D01*
X163498300Y-69157787D01*
X163235782Y-68522445D01*
X162750112Y-68035927D01*
X162115228Y-67772300D01*
X161448985Y-67771719D01*
X161733504Y-67487200D01*
X162943115Y-67487200D01*
X163086022Y-67630356D01*
X163280014Y-67710908D01*
X163490065Y-67711091D01*
X163684197Y-67630878D01*
X163832856Y-67482478D01*
X163913408Y-67288486D01*
X163913591Y-67078435D01*
X163833378Y-66884303D01*
X163684978Y-66735644D01*
X163490986Y-66655092D01*
X163280935Y-66654909D01*
X163086803Y-66735122D01*
X162942874Y-66878800D01*
X161607500Y-66878800D01*
X161491088Y-66901956D01*
X161392398Y-66967898D01*
X160719496Y-67640800D01*
X160083500Y-67640800D01*
X159967087Y-67663956D01*
X159948197Y-67676578D01*
X159934986Y-67671092D01*
X159724935Y-67670909D01*
X159530803Y-67751122D01*
X159384942Y-67896729D01*
X159426129Y-67835087D01*
X159430624Y-67812492D01*
X159453001Y-67700000D01*
X159453000Y-67699995D01*
X159453000Y-67346218D01*
X160062137Y-66737081D01*
X161064807Y-66625049D01*
X161117522Y-66677856D01*
X161311514Y-66758408D01*
X161521565Y-66758591D01*
X161715697Y-66678378D01*
X161864356Y-66529978D01*
X161944908Y-66335986D01*
X161945091Y-66125935D01*
X161864878Y-65931803D01*
X161716478Y-65783144D01*
X161522486Y-65702592D01*
X161312435Y-65702409D01*
X161118303Y-65782622D01*
X160976112Y-65924565D01*
X159860802Y-66049183D01*
X159813545Y-66064197D01*
X159764913Y-66073871D01*
X159748430Y-66084885D01*
X159729534Y-66090888D01*
X159691619Y-66122844D01*
X159650391Y-66150391D01*
X158850391Y-66950391D01*
X158773871Y-67064913D01*
X158747000Y-67200000D01*
X158747000Y-67553783D01*
X157953782Y-68347000D01*
X154000005Y-68347000D01*
X154000000Y-68346999D01*
X153864913Y-68373871D01*
X153750391Y-68450391D01*
X153110600Y-69090182D01*
X153110600Y-66548000D01*
X153085511Y-66421868D01*
X153037229Y-66349609D01*
X153014062Y-66314937D01*
X152633062Y-65933938D01*
X152526133Y-65862489D01*
X152505206Y-65858327D01*
X152400000Y-65837400D01*
X149415500Y-65837400D01*
X149289368Y-65862489D01*
X149289366Y-65862490D01*
X149289367Y-65862490D01*
X149182437Y-65933938D01*
X149024976Y-66091400D01*
X147389322Y-66091400D01*
X147323378Y-65931803D01*
X147174978Y-65783144D01*
X146980986Y-65702592D01*
X146770935Y-65702409D01*
X146576803Y-65782622D01*
X146428144Y-65931022D01*
X146347592Y-66125014D01*
X146347409Y-66335065D01*
X146427622Y-66529197D01*
X146576022Y-66677856D01*
X146770014Y-66758408D01*
X146980065Y-66758591D01*
X147021046Y-66741658D01*
X147066000Y-66750600D01*
X148873776Y-66750600D01*
X148770976Y-66853400D01*
X145869025Y-66853400D01*
X145744600Y-66728976D01*
X145744600Y-66652055D01*
X145847356Y-66549478D01*
X145927908Y-66355486D01*
X145928091Y-66145435D01*
X145847878Y-65951303D01*
X145699478Y-65802644D01*
X145505486Y-65722092D01*
X145295435Y-65721909D01*
X145101303Y-65802122D01*
X144952644Y-65950522D01*
X144872092Y-66144514D01*
X144871909Y-66354565D01*
X144952122Y-66548697D01*
X145085400Y-66682208D01*
X145085400Y-66865500D01*
X145096674Y-66922178D01*
X145110489Y-66991633D01*
X145181938Y-67098562D01*
X145317776Y-67234400D01*
X144472024Y-67234400D01*
X144220600Y-66982976D01*
X144220600Y-66676013D01*
X144347356Y-66549478D01*
X144427908Y-66355486D01*
X144428091Y-66145435D01*
X144347878Y-65951303D01*
X144199478Y-65802644D01*
X144005486Y-65722092D01*
X143887375Y-65721989D01*
X144115422Y-65493942D01*
X144181364Y-65395252D01*
X144204520Y-65278840D01*
X144204520Y-65192065D01*
X144347356Y-65049478D01*
X144427908Y-64855486D01*
X144427971Y-64783253D01*
X156422067Y-64222975D01*
X156421952Y-64354957D01*
G36*
X164841000Y-69726000D02*
X164987000Y-69872000D01*
X165622000Y-69872000D01*
X165622000Y-69852000D01*
X165978000Y-69852000D01*
X165978000Y-69872000D01*
X166145902Y-69872000D01*
X166141000Y-69883835D01*
X166141000Y-69904000D01*
X166287000Y-70050000D01*
X166862500Y-70050000D01*
X166862500Y-70032466D01*
X167137500Y-70032466D01*
X167137500Y-70050000D01*
X167198000Y-70050000D01*
X167198000Y-70150000D01*
X167137500Y-70150000D01*
X167137500Y-70167534D01*
X166862500Y-70167534D01*
X166862500Y-70150000D01*
X166287000Y-70150000D01*
X166209000Y-70228000D01*
X165978000Y-70228000D01*
X165978000Y-70888000D01*
X166124000Y-71034000D01*
X166291165Y-71034000D01*
X166505809Y-70945091D01*
X166636381Y-70814520D01*
X166725000Y-70832466D01*
X166931966Y-70832466D01*
X166962000Y-70862500D01*
X167450000Y-70862500D01*
X167450000Y-70802000D01*
X167550000Y-70802000D01*
X167550000Y-70862500D01*
X167567534Y-70862500D01*
X167567534Y-71137500D01*
X167550000Y-71137500D01*
X167550000Y-71198000D01*
X167450000Y-71198000D01*
X167450000Y-71137500D01*
X166962000Y-71137500D01*
X166816000Y-71283500D01*
X166816000Y-71391165D01*
X166904909Y-71605810D01*
X167069191Y-71770091D01*
X167283835Y-71859000D01*
X167304000Y-71859000D01*
X167321998Y-71841002D01*
X167321998Y-71859000D01*
X167467534Y-71859000D01*
X167467534Y-71995800D01*
X165391709Y-71995800D01*
X164596400Y-71185157D01*
X164586150Y-70374000D01*
X164841000Y-70374000D01*
X164841000Y-70566165D01*
X164929909Y-70780810D01*
X165094191Y-70945091D01*
X165308835Y-71034000D01*
X165476000Y-71034000D01*
X165622000Y-70888000D01*
X165622000Y-70228000D01*
X164987000Y-70228000D01*
X164841000Y-70374000D01*
X164586150Y-70374000D01*
X164580297Y-69910907D01*
X164841000Y-69650204D01*
X164841000Y-69726000D01*
X164841000Y-69726000D01*
G37*
X164841000Y-69726000D02*
X164987000Y-69872000D01*
X165622000Y-69872000D01*
X165622000Y-69852000D01*
X165978000Y-69852000D01*
X165978000Y-69872000D01*
X166145902Y-69872000D01*
X166141000Y-69883835D01*
X166141000Y-69904000D01*
X166287000Y-70050000D01*
X166862500Y-70050000D01*
X166862500Y-70032466D01*
X167137500Y-70032466D01*
X167137500Y-70050000D01*
X167198000Y-70050000D01*
X167198000Y-70150000D01*
X167137500Y-70150000D01*
X167137500Y-70167534D01*
X166862500Y-70167534D01*
X166862500Y-70150000D01*
X166287000Y-70150000D01*
X166209000Y-70228000D01*
X165978000Y-70228000D01*
X165978000Y-70888000D01*
X166124000Y-71034000D01*
X166291165Y-71034000D01*
X166505809Y-70945091D01*
X166636381Y-70814520D01*
X166725000Y-70832466D01*
X166931966Y-70832466D01*
X166962000Y-70862500D01*
X167450000Y-70862500D01*
X167450000Y-70802000D01*
X167550000Y-70802000D01*
X167550000Y-70862500D01*
X167567534Y-70862500D01*
X167567534Y-71137500D01*
X167550000Y-71137500D01*
X167550000Y-71198000D01*
X167450000Y-71198000D01*
X167450000Y-71137500D01*
X166962000Y-71137500D01*
X166816000Y-71283500D01*
X166816000Y-71391165D01*
X166904909Y-71605810D01*
X167069191Y-71770091D01*
X167283835Y-71859000D01*
X167304000Y-71859000D01*
X167321998Y-71841002D01*
X167321998Y-71859000D01*
X167467534Y-71859000D01*
X167467534Y-71995800D01*
X165391709Y-71995800D01*
X164596400Y-71185157D01*
X164586150Y-70374000D01*
X164841000Y-70374000D01*
X164841000Y-70566165D01*
X164929909Y-70780810D01*
X165094191Y-70945091D01*
X165308835Y-71034000D01*
X165476000Y-71034000D01*
X165622000Y-70888000D01*
X165622000Y-70228000D01*
X164987000Y-70228000D01*
X164841000Y-70374000D01*
X164586150Y-70374000D01*
X164580297Y-69910907D01*
X164841000Y-69650204D01*
X164841000Y-69726000D01*
G36*
X172225300Y-70422496D02*
X171577996Y-71069800D01*
X171513500Y-71069800D01*
X171397088Y-71092956D01*
X171298398Y-71158898D01*
X170461496Y-71995800D01*
X169932466Y-71995800D01*
X169932466Y-71850000D01*
X169916568Y-71765509D01*
X169866633Y-71687908D01*
X169804200Y-71645249D01*
X169804200Y-71380006D01*
X169814151Y-71365442D01*
X169832466Y-71275000D01*
X169832466Y-70832466D01*
X170275000Y-70832466D01*
X170359491Y-70816568D01*
X170437092Y-70766633D01*
X170489151Y-70690442D01*
X170507466Y-70600000D01*
X170507466Y-70400000D01*
X170491568Y-70315509D01*
X170482089Y-70300778D01*
X170489151Y-70290442D01*
X170507466Y-70200000D01*
X170507466Y-70004200D01*
X170588534Y-70004200D01*
X170588534Y-70174500D01*
X170604432Y-70258991D01*
X170654367Y-70336592D01*
X170730558Y-70388651D01*
X170821000Y-70406966D01*
X171571000Y-70406966D01*
X171655491Y-70391068D01*
X171733092Y-70341133D01*
X171785151Y-70264942D01*
X171803466Y-70174500D01*
X171803466Y-69374500D01*
X171787568Y-69290009D01*
X171750430Y-69232295D01*
X171901809Y-69169591D01*
X172066091Y-69005310D01*
X172155000Y-68790665D01*
X172155000Y-68598500D01*
X172009000Y-68452500D01*
X171374000Y-68452500D01*
X171374000Y-68472500D01*
X171018000Y-68472500D01*
X171018000Y-68452500D01*
X170998000Y-68452500D01*
X170998000Y-68096500D01*
X171018000Y-68096500D01*
X171018000Y-67436500D01*
X171374000Y-67436500D01*
X171374000Y-68096500D01*
X172009000Y-68096500D01*
X172155000Y-67950500D01*
X172155000Y-67758335D01*
X172066091Y-67543690D01*
X171901809Y-67379409D01*
X171687165Y-67290500D01*
X171520000Y-67290500D01*
X171374000Y-67436500D01*
X171018000Y-67436500D01*
X170872000Y-67290500D01*
X170770704Y-67290500D01*
X170533204Y-67053000D01*
X172225300Y-67053000D01*
X172225300Y-70422496D01*
X172225300Y-70422496D01*
G37*
X172225300Y-70422496D02*
X171577996Y-71069800D01*
X171513500Y-71069800D01*
X171397088Y-71092956D01*
X171298398Y-71158898D01*
X170461496Y-71995800D01*
X169932466Y-71995800D01*
X169932466Y-71850000D01*
X169916568Y-71765509D01*
X169866633Y-71687908D01*
X169804200Y-71645249D01*
X169804200Y-71380006D01*
X169814151Y-71365442D01*
X169832466Y-71275000D01*
X169832466Y-70832466D01*
X170275000Y-70832466D01*
X170359491Y-70816568D01*
X170437092Y-70766633D01*
X170489151Y-70690442D01*
X170507466Y-70600000D01*
X170507466Y-70400000D01*
X170491568Y-70315509D01*
X170482089Y-70300778D01*
X170489151Y-70290442D01*
X170507466Y-70200000D01*
X170507466Y-70004200D01*
X170588534Y-70004200D01*
X170588534Y-70174500D01*
X170604432Y-70258991D01*
X170654367Y-70336592D01*
X170730558Y-70388651D01*
X170821000Y-70406966D01*
X171571000Y-70406966D01*
X171655491Y-70391068D01*
X171733092Y-70341133D01*
X171785151Y-70264942D01*
X171803466Y-70174500D01*
X171803466Y-69374500D01*
X171787568Y-69290009D01*
X171750430Y-69232295D01*
X171901809Y-69169591D01*
X172066091Y-69005310D01*
X172155000Y-68790665D01*
X172155000Y-68598500D01*
X172009000Y-68452500D01*
X171374000Y-68452500D01*
X171374000Y-68472500D01*
X171018000Y-68472500D01*
X171018000Y-68452500D01*
X170998000Y-68452500D01*
X170998000Y-68096500D01*
X171018000Y-68096500D01*
X171018000Y-67436500D01*
X171374000Y-67436500D01*
X171374000Y-68096500D01*
X172009000Y-68096500D01*
X172155000Y-67950500D01*
X172155000Y-67758335D01*
X172066091Y-67543690D01*
X171901809Y-67379409D01*
X171687165Y-67290500D01*
X171520000Y-67290500D01*
X171374000Y-67436500D01*
X171018000Y-67436500D01*
X170872000Y-67290500D01*
X170770704Y-67290500D01*
X170533204Y-67053000D01*
X172225300Y-67053000D01*
X172225300Y-70422496D01*
G36*
X170137500Y-69250000D02*
X170198000Y-69250000D01*
X170198000Y-69350000D01*
X170137500Y-69350000D01*
X170137500Y-69367534D01*
X169862500Y-69367534D01*
X169862500Y-69350000D01*
X169802000Y-69350000D01*
X169802000Y-69250000D01*
X169862500Y-69250000D01*
X169862500Y-69232466D01*
X170137500Y-69232466D01*
X170137500Y-69250000D01*
X170137500Y-69250000D01*
G37*
X170137500Y-69250000D02*
X170198000Y-69250000D01*
X170198000Y-69350000D01*
X170137500Y-69350000D01*
X170137500Y-69367534D01*
X169862500Y-69367534D01*
X169862500Y-69350000D01*
X169802000Y-69350000D01*
X169802000Y-69250000D01*
X169862500Y-69250000D01*
X169862500Y-69232466D01*
X170137500Y-69232466D01*
X170137500Y-69250000D01*
M02*
