G04 #@! TF.FileFunction,Copper,L1,Top,Signal*
%FSLAX46Y46*%
G04 Gerber Fmt 4.6, Leading zero omitted, Abs format (unit mm)*
G04 Created by KiCad (PCBNEW 4.0.6) date 09/09/17 21:27:57*
%MOMM*%
%LPD*%
G01*
G04 APERTURE LIST*
%ADD10C,0.100000*%
%ADD11R,1.300000X1.000000*%
%ADD12R,1.000000X1.300000*%
%ADD13C,3.000000*%
%ADD14R,7.000000X4.000000*%
%ADD15R,0.750000X0.800000*%
%ADD16R,0.800000X0.750000*%
%ADD17R,1.950000X2.500000*%
%ADD18R,1.200000X0.900000*%
%ADD19R,0.900000X1.200000*%
%ADD20R,1.700000X1.700000*%
%ADD21O,1.700000X1.700000*%
%ADD22R,0.900000X0.500000*%
%ADD23R,0.800000X0.900000*%
%ADD24R,0.500000X0.900000*%
%ADD25R,1.700000X1.000000*%
%ADD26R,0.250000X1.300000*%
%ADD27R,1.300000X0.250000*%
%ADD28R,1.150000X0.600000*%
%ADD29R,0.700000X1.300000*%
%ADD30C,0.600000*%
%ADD31C,0.152400*%
%ADD32C,0.250000*%
%ADD33C,0.203200*%
%ADD34C,0.152000*%
%ADD35C,0.254000*%
G04 APERTURE END LIST*
D10*
D11*
X178000000Y-72250000D03*
X178000000Y-67750000D03*
X178000000Y-69250000D03*
X178000000Y-70750000D03*
X178000000Y-73750000D03*
X178000000Y-75250000D03*
X178000000Y-76750000D03*
X178000000Y-78250000D03*
D12*
X179800000Y-79500000D03*
X181300000Y-79500000D03*
X182800000Y-79500000D03*
X184300000Y-79500000D03*
X185800000Y-79500000D03*
X187300000Y-79500000D03*
X188800000Y-79500000D03*
X190300000Y-79500000D03*
X191800000Y-79500000D03*
X193300000Y-79500000D03*
X194800000Y-79500000D03*
X196300000Y-79500000D03*
X197800000Y-79500000D03*
X197800000Y-66500000D03*
X196300000Y-66500000D03*
X194800000Y-66500000D03*
X193300000Y-66500000D03*
X191800000Y-66500000D03*
X190300000Y-66500000D03*
X188800000Y-66500000D03*
X187300000Y-66500000D03*
X185800000Y-66500000D03*
X184300000Y-66500000D03*
X182800000Y-66500000D03*
X181300000Y-66500000D03*
X179800000Y-66500000D03*
D13*
X161770000Y-69500000D03*
X175230000Y-69500000D03*
D14*
X168500000Y-69500000D03*
D15*
X160200000Y-67150000D03*
X160200000Y-65650000D03*
X149400000Y-78250000D03*
X149400000Y-76750000D03*
D16*
X161950000Y-74700000D03*
X160450000Y-74700000D03*
X155450000Y-64300000D03*
X156950000Y-64300000D03*
D15*
X191250000Y-64750000D03*
X191250000Y-63250000D03*
D17*
X196525000Y-64000000D03*
X193475000Y-64000000D03*
X167275000Y-78000000D03*
X170325000Y-78000000D03*
X156025000Y-77300000D03*
X152975000Y-77300000D03*
D15*
X151000000Y-76850000D03*
X151000000Y-78350000D03*
X149700000Y-66150000D03*
X149700000Y-64650000D03*
X148300000Y-66150000D03*
X148300000Y-64650000D03*
D18*
X158500000Y-78650000D03*
X158500000Y-75350000D03*
D19*
X184050000Y-64200000D03*
X180750000Y-64200000D03*
D18*
X175800000Y-79050000D03*
X175800000Y-75750000D03*
D20*
X193000000Y-69750000D03*
D21*
X190460000Y-69750000D03*
X187920000Y-69750000D03*
X185380000Y-69750000D03*
X182840000Y-69750000D03*
D20*
X184000000Y-76000000D03*
D21*
X186540000Y-76000000D03*
X189080000Y-76000000D03*
X191620000Y-76000000D03*
D22*
X158400000Y-65750000D03*
X158400000Y-64250000D03*
X165000000Y-78950000D03*
X165000000Y-77450000D03*
D23*
X187800000Y-65000000D03*
X189700000Y-65000000D03*
X188750000Y-63000000D03*
X178750000Y-63800000D03*
X176850000Y-63800000D03*
X177800000Y-65800000D03*
D22*
X160300000Y-71850000D03*
X160300000Y-73350000D03*
X185800000Y-64750000D03*
X185800000Y-63250000D03*
D24*
X175050000Y-74000000D03*
X176550000Y-74000000D03*
X172450000Y-79200000D03*
X173950000Y-79200000D03*
X173950000Y-77200000D03*
X172450000Y-77200000D03*
D22*
X140800000Y-64950000D03*
X140800000Y-66450000D03*
X140800000Y-69050000D03*
X140800000Y-67550000D03*
X140800000Y-71750000D03*
X140800000Y-70250000D03*
X146900000Y-64750000D03*
X146900000Y-66250000D03*
X145400000Y-64750000D03*
X145400000Y-66250000D03*
X142300000Y-64850000D03*
X142300000Y-66350000D03*
X143900000Y-64750000D03*
X143900000Y-66250000D03*
D24*
X146750000Y-67800000D03*
X148250000Y-67800000D03*
X146750000Y-69800000D03*
X148250000Y-69800000D03*
X146750000Y-71700000D03*
X148250000Y-71700000D03*
D22*
X149400000Y-73850000D03*
X149400000Y-75350000D03*
D25*
X147450000Y-77500000D03*
X141150000Y-77500000D03*
X147450000Y-73700000D03*
X141150000Y-73700000D03*
D26*
X156950000Y-65750000D03*
X156450000Y-65750000D03*
X155950000Y-65750000D03*
X155450000Y-65750000D03*
X154950000Y-65750000D03*
X154450000Y-65750000D03*
X153950000Y-65750000D03*
X153450000Y-65750000D03*
X152950000Y-65750000D03*
X152450000Y-65750000D03*
X151950000Y-65750000D03*
X151450000Y-65750000D03*
D27*
X149850000Y-67350000D03*
X149850000Y-67850000D03*
X149850000Y-68350000D03*
X149850000Y-68850000D03*
X149850000Y-69350000D03*
X149850000Y-69850000D03*
X149850000Y-70350000D03*
X149850000Y-70850000D03*
X149850000Y-71350000D03*
X149850000Y-71850000D03*
X149850000Y-72350000D03*
X149850000Y-72850000D03*
D26*
X151450000Y-74450000D03*
X151950000Y-74450000D03*
X152450000Y-74450000D03*
X152950000Y-74450000D03*
X153450000Y-74450000D03*
X153950000Y-74450000D03*
X154450000Y-74450000D03*
X154950000Y-74450000D03*
X155450000Y-74450000D03*
X155950000Y-74450000D03*
X156450000Y-74450000D03*
X156950000Y-74450000D03*
D27*
X158550000Y-72850000D03*
X158550000Y-72350000D03*
X158550000Y-71850000D03*
X158550000Y-71350000D03*
X158550000Y-70850000D03*
X158550000Y-70350000D03*
X158550000Y-69850000D03*
X158550000Y-69350000D03*
X158550000Y-68850000D03*
X158550000Y-68350000D03*
X158550000Y-67850000D03*
X158550000Y-67350000D03*
D28*
X160600000Y-76750000D03*
X160600000Y-77700000D03*
X160600000Y-78650000D03*
X163200000Y-78650000D03*
X163200000Y-76750000D03*
D29*
X142900000Y-71150000D03*
X144000000Y-71150000D03*
X145100000Y-71150000D03*
X145100000Y-68050000D03*
X144000000Y-68050000D03*
X142900000Y-68050000D03*
D30*
X172021500Y-72136000D03*
X163258500Y-72009000D03*
X156200000Y-69900000D03*
X151100000Y-69800000D03*
X144700000Y-74700000D03*
X182400000Y-64300000D03*
X176800000Y-66600000D03*
X163703000Y-71374000D03*
X164973000Y-73342500D03*
X143700500Y-78295500D03*
X171196000Y-68084000D03*
X165798500Y-70866000D03*
X195400000Y-68200000D03*
X170325000Y-78000000D03*
X150939500Y-72390000D03*
X149000000Y-64600000D03*
X153400000Y-67000000D03*
X157300000Y-67900000D03*
X160200000Y-67200000D03*
X156500000Y-73200000D03*
X149400000Y-78250000D03*
X151000000Y-78400000D03*
X160300000Y-73300000D03*
X161950000Y-74700000D03*
X174000000Y-77200000D03*
X175050000Y-74000000D03*
X176800000Y-63800000D03*
X179800000Y-66500000D03*
X191200000Y-64800000D03*
X193475000Y-64000000D03*
X164338000Y-68643500D03*
X162115500Y-71755000D03*
X163639500Y-73279000D03*
X146875500Y-76390500D03*
X146050000Y-70739000D03*
X161500000Y-65100000D03*
X180100000Y-67800000D03*
X149400000Y-76750000D03*
X155600000Y-77200000D03*
X191250000Y-63250000D03*
X196700000Y-63700000D03*
X156950000Y-64300000D03*
X155800000Y-67100000D03*
X167275000Y-78000000D03*
X184050000Y-64200000D03*
X188700000Y-63000000D03*
X154500000Y-67100000D03*
X158500000Y-75350000D03*
X164500000Y-76300000D03*
X171200000Y-73300000D03*
X155600000Y-73200000D03*
X162052000Y-76708000D03*
X166100000Y-73400000D03*
X168338500Y-66548000D03*
X166370000Y-65722500D03*
X165671500Y-66675000D03*
X163385500Y-67183000D03*
X159829500Y-68199000D03*
X151638000Y-68326000D03*
X141986000Y-67564000D03*
X140800000Y-67550000D03*
X151300000Y-69000000D03*
X148717000Y-72898000D03*
X152527000Y-72517000D03*
X155003500Y-72517000D03*
X154940000Y-71120000D03*
X152590500Y-70675500D03*
X146875500Y-66230500D03*
X145400000Y-66250000D03*
X152082500Y-66865500D03*
X152019000Y-67627500D03*
X142367000Y-66738500D03*
X143900000Y-66250000D03*
X150114000Y-67183000D03*
X148200000Y-69900000D03*
X151100000Y-71400000D03*
X147900000Y-75500000D03*
X145200000Y-71100000D03*
X149400000Y-75350000D03*
X151193500Y-73152000D03*
X193900000Y-76400000D03*
X157100000Y-71200000D03*
X156900000Y-70300000D03*
X181100000Y-77300000D03*
X165900000Y-75900000D03*
X144800000Y-76800000D03*
X175300000Y-64100000D03*
X180800000Y-64200000D03*
X174300000Y-64100000D03*
X161417000Y-66230500D03*
X153200000Y-73100000D03*
X175500000Y-65400000D03*
X152400000Y-73279000D03*
X172400000Y-76500000D03*
X140800000Y-69050000D03*
X138770360Y-68676520D03*
X140800000Y-71750000D03*
X139374880Y-70485000D03*
X139019280Y-76575920D03*
X139532360Y-65532000D03*
X142300000Y-64850000D03*
X139242800Y-77551280D03*
X143900000Y-64750000D03*
X139491720Y-74945240D03*
X141091920Y-75585320D03*
X141787880Y-69565520D03*
D31*
X163385500Y-72136000D02*
X172021500Y-72136000D01*
X163258500Y-72009000D02*
X163385500Y-72136000D01*
D32*
X151100000Y-69800000D02*
X156100000Y-69800000D01*
X156100000Y-69800000D02*
X156200000Y-69900000D01*
X141150000Y-77500000D02*
X141900000Y-77500000D01*
X141900000Y-77500000D02*
X144700000Y-74700000D01*
X151050000Y-69850000D02*
X149850000Y-69850000D01*
X151100000Y-69800000D02*
X151050000Y-69850000D01*
X141150000Y-77500000D02*
X147450000Y-77500000D01*
X182400000Y-64300000D02*
X182400000Y-63700000D01*
X175230000Y-68170000D02*
X176800000Y-66600000D01*
X185450000Y-62900000D02*
X185800000Y-63250000D01*
X183200000Y-62900000D02*
X185450000Y-62900000D01*
X182400000Y-63700000D02*
X183200000Y-62900000D01*
X175230000Y-69500000D02*
X175230000Y-68170000D01*
X189700000Y-65000000D02*
X189600000Y-65000000D01*
X189600000Y-65000000D02*
X188600000Y-64000000D01*
X186550000Y-63250000D02*
X185800000Y-63250000D01*
X187300000Y-64000000D02*
X186550000Y-63250000D01*
X188600000Y-64000000D02*
X187300000Y-64000000D01*
D31*
X168500000Y-69500000D02*
X166148500Y-69500000D01*
X166148500Y-69500000D02*
X164592000Y-71056500D01*
X163703000Y-71374000D02*
X164020500Y-71056500D01*
X164592000Y-71056500D02*
X164020500Y-71056500D01*
X149400000Y-78250000D02*
X148572000Y-78250000D01*
X148526500Y-78295500D02*
X143700500Y-78295500D01*
X148572000Y-78250000D02*
X148526500Y-78295500D01*
X158550000Y-67850000D02*
X159226000Y-67850000D01*
X159226000Y-67850000D02*
X159926000Y-67150000D01*
X159926000Y-67150000D02*
X160200000Y-67150000D01*
X171196000Y-68084000D02*
X169780000Y-69500000D01*
X169780000Y-69500000D02*
X168500000Y-69500000D01*
X165798500Y-70866000D02*
X167164500Y-69500000D01*
X167164500Y-69500000D02*
X168500000Y-69500000D01*
D33*
X163766500Y-74676000D02*
X164973000Y-73342500D01*
X164973000Y-73342500D02*
X164973000Y-73342500D01*
X161950000Y-74700000D02*
X163766500Y-74676000D01*
X161950000Y-74700000D02*
X161950000Y-74714500D01*
X161950000Y-74714500D02*
X161480500Y-75184000D01*
X161480500Y-76930500D02*
X163200000Y-78650000D01*
X161480500Y-75184000D02*
X161480500Y-76930500D01*
D32*
X152975000Y-77300000D02*
X153078000Y-77300000D01*
X153078000Y-77300000D02*
X154940000Y-75438000D01*
X156450000Y-75424000D02*
X156450000Y-74450000D01*
X156464000Y-75438000D02*
X156450000Y-75424000D01*
X154940000Y-75438000D02*
X156464000Y-75438000D01*
X151000000Y-78350000D02*
X151925000Y-78350000D01*
X151925000Y-78350000D02*
X152975000Y-77300000D01*
X155450000Y-64300000D02*
X153800000Y-64300000D01*
X153450000Y-64650000D02*
X153450000Y-65750000D01*
X153800000Y-64300000D02*
X153450000Y-64650000D01*
X149850000Y-72350000D02*
X150889500Y-72440000D01*
X150889500Y-72440000D02*
X150939500Y-72390000D01*
X148300000Y-64650000D02*
X148950000Y-64650000D01*
X148950000Y-64650000D02*
X149000000Y-64600000D01*
X149700000Y-64650000D02*
X148300000Y-64650000D01*
X153450000Y-65750000D02*
X153450000Y-66950000D01*
X153450000Y-66950000D02*
X153400000Y-67000000D01*
X158550000Y-67850000D02*
X157350000Y-67850000D01*
X157350000Y-67850000D02*
X157300000Y-67900000D01*
X160200000Y-67200000D02*
X160200000Y-67150000D01*
X156450000Y-74450000D02*
X156450000Y-73250000D01*
X156450000Y-73250000D02*
X156500000Y-73200000D01*
X151000000Y-78400000D02*
X151000000Y-78350000D01*
X160300000Y-73300000D02*
X160300000Y-73350000D01*
X174000000Y-77200000D02*
X173950000Y-77200000D01*
X176800000Y-63800000D02*
X176850000Y-63800000D01*
X191200000Y-64800000D02*
X191250000Y-64750000D01*
D31*
X160450000Y-74700000D02*
X160504000Y-74700000D01*
X160504000Y-74700000D02*
X161925000Y-73279000D01*
X164401500Y-68707000D02*
X164338000Y-68643500D01*
X164401500Y-70612000D02*
X164401500Y-68707000D01*
X163004500Y-70929500D02*
X164401500Y-70612000D01*
X162496500Y-71374000D02*
X163004500Y-70929500D01*
X162115500Y-71755000D02*
X162496500Y-71374000D01*
X161925000Y-73279000D02*
X163639500Y-73279000D01*
D33*
X147447000Y-67183000D02*
X147447000Y-67119500D01*
X148886000Y-76750000D02*
X148526500Y-76390500D01*
X148526500Y-76390500D02*
X146875500Y-76390500D01*
X146050000Y-70739000D02*
X146113500Y-70675500D01*
X146113500Y-70675500D02*
X147256500Y-70675500D01*
X147256500Y-70675500D02*
X147447000Y-70485000D01*
X147447000Y-70485000D02*
X147447000Y-67183000D01*
X149400000Y-76750000D02*
X148886000Y-76750000D01*
X145100000Y-67117000D02*
X145100000Y-68050000D01*
X145288000Y-66929000D02*
X145100000Y-67117000D01*
X147256500Y-66929000D02*
X145288000Y-66929000D01*
X147447000Y-67119500D02*
X147256500Y-66929000D01*
X160600000Y-76750000D02*
X160600000Y-77700000D01*
D32*
X160200000Y-65650000D02*
X160950000Y-65650000D01*
X160950000Y-65650000D02*
X161500000Y-65100000D01*
X181300000Y-66500000D02*
X181300000Y-67400000D01*
X181300000Y-67400000D02*
X180900000Y-67800000D01*
X180900000Y-67800000D02*
X180100000Y-67800000D01*
X149450000Y-76750000D02*
X149400000Y-76750000D01*
X155600000Y-77200000D02*
X155525000Y-77275000D01*
X155525000Y-77275000D02*
X155525000Y-77300000D01*
X144000000Y-68050000D02*
X145100000Y-68050000D01*
X142900000Y-68050000D02*
X144000000Y-68050000D01*
X156950000Y-65750000D02*
X158400000Y-65750000D01*
X160200000Y-65650000D02*
X158500000Y-65650000D01*
X158500000Y-65650000D02*
X158400000Y-65750000D01*
X158400000Y-65750000D02*
X158400000Y-67200000D01*
X158400000Y-67200000D02*
X158550000Y-67350000D01*
X149450000Y-76750000D02*
X150500000Y-75700000D01*
X150500000Y-75700000D02*
X150500000Y-73000000D01*
X150500000Y-73000000D02*
X150350000Y-72850000D01*
X150350000Y-72850000D02*
X149850000Y-72850000D01*
X156950000Y-74450000D02*
X156950000Y-76375000D01*
X156950000Y-76375000D02*
X155525000Y-77300000D01*
X155525000Y-77300000D02*
X157150000Y-77300000D01*
X157150000Y-77300000D02*
X158500000Y-78650000D01*
X160600000Y-76750000D02*
X160600000Y-74850000D01*
X160600000Y-74850000D02*
X160450000Y-74700000D01*
X160600000Y-77700000D02*
X159450000Y-77700000D01*
X159450000Y-77700000D02*
X158500000Y-78650000D01*
X193000000Y-69750000D02*
X193000000Y-69000000D01*
X193000000Y-69000000D02*
X191700000Y-67700000D01*
X181300000Y-67500000D02*
X181300000Y-66500000D01*
X181500000Y-67700000D02*
X181300000Y-67500000D01*
X191700000Y-67700000D02*
X181500000Y-67700000D01*
X196525000Y-63875000D02*
X196700000Y-63700000D01*
X196525000Y-63875000D02*
X196525000Y-64000000D01*
X158350000Y-64300000D02*
X156950000Y-64300000D01*
X152950000Y-66550000D02*
X152950000Y-65750000D01*
X152700000Y-66800000D02*
X152950000Y-66550000D01*
X152700000Y-67300000D02*
X152700000Y-66800000D01*
X153200000Y-67800000D02*
X152700000Y-67300000D01*
X155800000Y-67800000D02*
X153200000Y-67800000D01*
X155800000Y-67100000D02*
X155800000Y-67800000D01*
X158350000Y-64300000D02*
X158400000Y-64250000D01*
X166325000Y-78950000D02*
X167275000Y-78000000D01*
X165000000Y-78950000D02*
X166325000Y-78950000D01*
X188750000Y-63000000D02*
X188700000Y-63000000D01*
X151000000Y-76850000D02*
X151000000Y-76000000D01*
X153950000Y-75450000D02*
X153950000Y-74450000D01*
X153800000Y-75600000D02*
X153950000Y-75450000D01*
X151400000Y-75600000D02*
X153800000Y-75600000D01*
X151000000Y-76000000D02*
X151400000Y-75600000D01*
X149850000Y-67850000D02*
X150750000Y-67850000D01*
X150350000Y-66150000D02*
X149700000Y-66150000D01*
X151000000Y-66800000D02*
X150350000Y-66150000D01*
X151000000Y-67600000D02*
X151000000Y-66800000D01*
X150750000Y-67850000D02*
X151000000Y-67600000D01*
D33*
X148300000Y-66150000D02*
X148300000Y-65885500D01*
X148300000Y-65885500D02*
X148844000Y-65341500D01*
X148844000Y-65341500D02*
X150431500Y-65341500D01*
X150431500Y-65341500D02*
X151003000Y-64770000D01*
X151003000Y-64770000D02*
X152400000Y-64770000D01*
X152400000Y-64770000D02*
X152450000Y-64820000D01*
X152450000Y-64820000D02*
X152450000Y-65750000D01*
D32*
X153950000Y-65750000D02*
X153950000Y-66650000D01*
X154400000Y-67100000D02*
X154500000Y-67100000D01*
X153950000Y-66650000D02*
X154400000Y-67100000D01*
X184000000Y-76000000D02*
X180100000Y-76000000D01*
X179350000Y-75250000D02*
X178000000Y-75250000D01*
X180100000Y-76000000D02*
X179350000Y-75250000D01*
X186540000Y-76000000D02*
X186540000Y-75940000D01*
X186540000Y-75940000D02*
X184900000Y-74300000D01*
X184900000Y-74300000D02*
X179800000Y-74300000D01*
X179800000Y-74300000D02*
X179250000Y-73750000D01*
X179250000Y-73750000D02*
X178000000Y-73750000D01*
X189080000Y-76000000D02*
X188600000Y-76000000D01*
X188600000Y-76000000D02*
X185600000Y-73000000D01*
X185600000Y-73000000D02*
X180000000Y-73000000D01*
X180000000Y-73000000D02*
X179250000Y-72250000D01*
X179250000Y-72250000D02*
X178000000Y-72250000D01*
X191620000Y-76000000D02*
X191620000Y-75820000D01*
X191620000Y-75820000D02*
X188100000Y-72300000D01*
X188100000Y-72300000D02*
X180600000Y-72300000D01*
X180600000Y-72300000D02*
X179000000Y-70700000D01*
X179000000Y-70700000D02*
X178050000Y-70700000D01*
X178050000Y-70700000D02*
X178000000Y-70750000D01*
X163200000Y-76750000D02*
X164050000Y-76750000D01*
X164050000Y-76750000D02*
X164500000Y-76300000D01*
X165000000Y-77450000D02*
X165000000Y-76800000D01*
X164500000Y-76300000D02*
X165000000Y-76800000D01*
X160300000Y-71850000D02*
X160300000Y-70900000D01*
X159450000Y-69350000D02*
X158550000Y-69350000D01*
X159800000Y-69700000D02*
X159450000Y-69350000D01*
X159800000Y-70400000D02*
X159800000Y-69700000D01*
X160300000Y-70900000D02*
X159800000Y-70400000D01*
X159350000Y-72850000D02*
X158550000Y-72850000D01*
X159600000Y-72600000D02*
X159350000Y-72850000D01*
X166600000Y-72600000D02*
X159600000Y-72600000D01*
X167700000Y-73700000D02*
X166600000Y-72600000D01*
X170800000Y-73700000D02*
X167700000Y-73700000D01*
X171200000Y-73300000D02*
X170800000Y-73700000D01*
X155950000Y-73550000D02*
X155950000Y-74450000D01*
X155600000Y-73200000D02*
X155950000Y-73550000D01*
X162000000Y-75900000D02*
X162052000Y-76708000D01*
X162100000Y-75800000D02*
X162000000Y-75900000D01*
X163700000Y-75800000D02*
X162100000Y-75800000D01*
X166100000Y-73400000D02*
X163700000Y-75800000D01*
D31*
X166370000Y-65722500D02*
X163703000Y-65722500D01*
X159940500Y-68850000D02*
X158550000Y-68850000D01*
X161353500Y-67437000D02*
X159940500Y-68850000D01*
X161988500Y-67437000D02*
X161353500Y-67437000D01*
X163703000Y-65722500D02*
X161988500Y-67437000D01*
X168338500Y-65849500D02*
X168338500Y-66548000D01*
X168148000Y-65659000D02*
X168338500Y-65849500D01*
X166433500Y-65659000D02*
X168148000Y-65659000D01*
X166370000Y-65722500D02*
X166433500Y-65659000D01*
X158550000Y-68350000D02*
X159678500Y-68350000D01*
X163449000Y-67119500D02*
X165671500Y-66675000D01*
X163385500Y-67183000D02*
X163449000Y-67119500D01*
X159678500Y-68350000D02*
X159829500Y-68199000D01*
D33*
X149850000Y-68850000D02*
X150606000Y-68850000D01*
X141986000Y-67564000D02*
X140872000Y-66450000D01*
X151130000Y-68326000D02*
X151638000Y-68326000D01*
X150606000Y-68850000D02*
X151130000Y-68326000D01*
X140800000Y-66450000D02*
X140872000Y-66450000D01*
D32*
X149850000Y-69350000D02*
X150650000Y-69350000D01*
X150900000Y-69100000D02*
X150650000Y-69350000D01*
X151200000Y-69100000D02*
X150900000Y-69100000D01*
X151300000Y-69000000D02*
X151200000Y-69100000D01*
D33*
X141306500Y-70250000D02*
X141922500Y-70866000D01*
X141922500Y-70866000D02*
X141922500Y-71882000D01*
X141922500Y-71882000D02*
X142748000Y-72707500D01*
X142748000Y-72707500D02*
X148526500Y-72707500D01*
X148526500Y-72707500D02*
X148717000Y-72898000D01*
X140800000Y-70250000D02*
X141306500Y-70250000D01*
X154450000Y-72789000D02*
X154450000Y-74450000D01*
X154114500Y-72453500D02*
X154450000Y-72789000D01*
X152590500Y-72453500D02*
X154114500Y-72453500D01*
X152527000Y-72517000D02*
X152590500Y-72453500D01*
X146900000Y-66250000D02*
X146900000Y-66206000D01*
X154950000Y-72570500D02*
X154950000Y-74450000D01*
X155003500Y-72517000D02*
X154950000Y-72570500D01*
X153035000Y-71120000D02*
X154940000Y-71120000D01*
X152590500Y-70675500D02*
X153035000Y-71120000D01*
X146900000Y-66206000D02*
X146875500Y-66230500D01*
X151950000Y-65750000D02*
X151950000Y-66733000D01*
X152082500Y-66865500D02*
X151950000Y-66733000D01*
X142300000Y-66350000D02*
X142300000Y-66671500D01*
X151450000Y-67058500D02*
X151450000Y-65750000D01*
X152019000Y-67627500D02*
X151450000Y-67058500D01*
X142300000Y-66671500D02*
X142367000Y-66738500D01*
X149850000Y-67350000D02*
X149947000Y-67350000D01*
X149947000Y-67350000D02*
X150114000Y-67183000D01*
D32*
X148250000Y-67800000D02*
X148250000Y-67950000D01*
X148250000Y-67950000D02*
X148650000Y-68350000D01*
X148650000Y-68350000D02*
X149850000Y-68350000D01*
X146750000Y-69800000D02*
X143200000Y-69800000D01*
X142900000Y-70100000D02*
X142900000Y-71150000D01*
X143200000Y-69800000D02*
X142900000Y-70100000D01*
X149850000Y-71850000D02*
X150650000Y-71850000D01*
X148200000Y-69900000D02*
X148250000Y-69850000D01*
X150650000Y-71850000D02*
X151100000Y-71400000D01*
X148250000Y-69850000D02*
X148250000Y-69800000D01*
X146750000Y-71700000D02*
X146750000Y-71850000D01*
X146750000Y-71850000D02*
X146300000Y-72300000D01*
X146300000Y-72300000D02*
X144000000Y-72300000D01*
X144000000Y-72300000D02*
X144000000Y-71150000D01*
X148250000Y-71700000D02*
X148500000Y-71700000D01*
X148500000Y-71700000D02*
X148850000Y-71350000D01*
X148850000Y-71350000D02*
X149850000Y-71350000D01*
X149400000Y-73850000D02*
X149350000Y-73850000D01*
X149350000Y-73850000D02*
X147900000Y-75300000D01*
X147900000Y-75300000D02*
X147900000Y-75500000D01*
X145200000Y-71100000D02*
X145150000Y-71150000D01*
X145150000Y-71150000D02*
X145100000Y-71150000D01*
X158550000Y-71850000D02*
X151892000Y-71882000D01*
X151193500Y-73152000D02*
X151892000Y-71882000D01*
X158550000Y-70350000D02*
X157650000Y-70350000D01*
X196300000Y-74000000D02*
X196300000Y-66500000D01*
X193900000Y-76400000D02*
X196300000Y-74000000D01*
X157500000Y-70800000D02*
X157100000Y-71200000D01*
X157500000Y-70500000D02*
X157500000Y-70800000D01*
X157650000Y-70350000D02*
X157500000Y-70500000D01*
X157350000Y-69850000D02*
X156900000Y-70300000D01*
X158550000Y-69850000D02*
X157350000Y-69850000D01*
X181100000Y-77300000D02*
X181900000Y-78100000D01*
X181900000Y-78100000D02*
X195400000Y-78100000D01*
X195400000Y-78100000D02*
X197800000Y-75700000D01*
X197800000Y-75700000D02*
X197800000Y-66500000D01*
X147450000Y-73700000D02*
X147450000Y-74750000D01*
X165950000Y-75950000D02*
X175800000Y-75750000D01*
X165900000Y-75900000D02*
X165950000Y-75950000D01*
X145400000Y-76800000D02*
X144800000Y-76800000D01*
X147450000Y-74750000D02*
X145400000Y-76800000D01*
X141150000Y-73700000D02*
X147450000Y-73700000D01*
X175800000Y-75750000D02*
X175050000Y-75750000D01*
X175050000Y-75750000D02*
X172700000Y-73400000D01*
X172700000Y-73400000D02*
X172700000Y-66700000D01*
X172700000Y-66700000D02*
X175300000Y-64100000D01*
X180800000Y-64200000D02*
X180750000Y-64200000D01*
X175800000Y-79050000D02*
X174100000Y-79050000D01*
X174100000Y-79050000D02*
X173950000Y-79200000D01*
X185800000Y-64750000D02*
X185550000Y-64750000D01*
X185550000Y-64750000D02*
X185000000Y-65300000D01*
X178300000Y-65300000D02*
X177800000Y-65800000D01*
X185000000Y-65300000D02*
X178300000Y-65300000D01*
X187800000Y-65000000D02*
X186050000Y-65000000D01*
X186050000Y-65000000D02*
X185800000Y-64750000D01*
X152950000Y-74450000D02*
X152950000Y-73550000D01*
X163700000Y-64100000D02*
X174300000Y-64100000D01*
X161417000Y-66230500D02*
X163700000Y-64100000D01*
X153200000Y-73300000D02*
X153200000Y-73100000D01*
X152950000Y-73550000D02*
X153200000Y-73300000D01*
X175500000Y-65400000D02*
X175450000Y-65350000D01*
X175450000Y-65350000D02*
X175500000Y-65400000D01*
X175500000Y-65400000D02*
X175500000Y-65300000D01*
X178750000Y-63800000D02*
X178700000Y-63800000D01*
X178700000Y-63800000D02*
X177600000Y-64900000D01*
X177600000Y-64900000D02*
X175900000Y-64900000D01*
X175900000Y-64900000D02*
X175500000Y-65300000D01*
X175500000Y-65300000D02*
X173200000Y-67600000D01*
X173200000Y-67600000D02*
X173200000Y-70400000D01*
X173200000Y-70400000D02*
X175400000Y-72600000D01*
X175400000Y-72600000D02*
X176400000Y-72600000D01*
X176400000Y-72600000D02*
X176550000Y-72750000D01*
X176550000Y-72750000D02*
X176550000Y-74000000D01*
X172450000Y-77200000D02*
X172450000Y-76550000D01*
X152450000Y-73329000D02*
X152450000Y-74450000D01*
X152400000Y-73279000D02*
X152450000Y-73329000D01*
X172450000Y-76550000D02*
X172400000Y-76500000D01*
X172450000Y-79200000D02*
X172450000Y-77200000D01*
D31*
X140800000Y-64950000D02*
X140800000Y-64467920D01*
X107010200Y-66075560D02*
X105074720Y-66822320D01*
X140299440Y-64485520D02*
X107010200Y-66075560D01*
X140800000Y-64467920D02*
X140299440Y-64485520D01*
X140373000Y-69050000D02*
X140800000Y-69050000D01*
X122880120Y-69011800D02*
X121818400Y-67950080D01*
X138770360Y-68676520D02*
X122880120Y-69011800D01*
X138770360Y-68676520D02*
X138770360Y-68676520D01*
X138135360Y-66202560D02*
X139425680Y-66603880D01*
X139334054Y-70075199D02*
X139425680Y-66603880D01*
X139390120Y-70469760D02*
X139334054Y-70075199D01*
X139374880Y-70485000D02*
X139390120Y-70469760D01*
X146900000Y-64750000D02*
X146900000Y-65469400D01*
X139217400Y-71536560D02*
X138394440Y-71536560D01*
X139918440Y-70794880D02*
X139217400Y-71536560D01*
X139837160Y-66060320D02*
X139918440Y-70794880D01*
X140050520Y-65846960D02*
X139837160Y-66060320D01*
X142488920Y-65846960D02*
X140050520Y-65846960D01*
X142631160Y-65704720D02*
X142488920Y-65846960D01*
X146664680Y-65704720D02*
X142631160Y-65704720D01*
X146900000Y-65469400D02*
X146664680Y-65704720D01*
X145400000Y-64750000D02*
X145400000Y-65181240D01*
X138963400Y-76520040D02*
X137566400Y-76520040D01*
X139019280Y-76575920D02*
X138963400Y-76520040D01*
X139532360Y-65542160D02*
X139532360Y-65532000D01*
X139740640Y-65481200D02*
X139532360Y-65542160D01*
X142367000Y-65481200D02*
X139740640Y-65481200D01*
X142473680Y-65374520D02*
X142367000Y-65481200D01*
X145206720Y-65374520D02*
X142473680Y-65374520D01*
X145400000Y-65181240D02*
X145206720Y-65374520D01*
X123078240Y-75895200D02*
X125567440Y-77845920D01*
X139288520Y-78465680D02*
X125567440Y-77845920D01*
X139242800Y-77551280D02*
X139288520Y-78465680D01*
X109646720Y-75123040D02*
X110383320Y-73700640D01*
X138932920Y-74386440D02*
X110383320Y-73700640D01*
X139491720Y-74945240D02*
X138932920Y-74386440D01*
X146750000Y-67800000D02*
X146750000Y-68164480D01*
X146750000Y-68164480D02*
X145623280Y-69291200D01*
X112215443Y-73355903D02*
X110505240Y-71836280D01*
X139292091Y-74035118D02*
X112215443Y-73355903D01*
X141091920Y-75585320D02*
X139292091Y-74035118D01*
X142062200Y-69291200D02*
X141787880Y-69565520D01*
X145623280Y-69291200D02*
X142062200Y-69291200D01*
D33*
X146750000Y-67800000D02*
X146750000Y-68070500D01*
D34*
G36*
X198005625Y-65617534D02*
X197300000Y-65617534D01*
X197215509Y-65633432D01*
X197137908Y-65683367D01*
X197085849Y-65759558D01*
X197067534Y-65850000D01*
X197067534Y-67150000D01*
X197083432Y-67234491D01*
X197133367Y-67312092D01*
X197209558Y-67364151D01*
X197300000Y-67382466D01*
X197447000Y-67382466D01*
X197447000Y-75553783D01*
X195253782Y-77747000D01*
X182046218Y-77747000D01*
X181627975Y-77328757D01*
X181628091Y-77195435D01*
X181547878Y-77001303D01*
X181399478Y-76852644D01*
X181205486Y-76772092D01*
X180995435Y-76771909D01*
X180801303Y-76852122D01*
X180652644Y-77000522D01*
X180572092Y-77194514D01*
X180571909Y-77404565D01*
X180652122Y-77598697D01*
X180800522Y-77747356D01*
X180994514Y-77827908D01*
X181128807Y-77828025D01*
X181650391Y-78349609D01*
X181764913Y-78426129D01*
X181900000Y-78453001D01*
X181900005Y-78453000D01*
X195400000Y-78453000D01*
X195535087Y-78426129D01*
X195649609Y-78349609D01*
X197949538Y-76049679D01*
X197935732Y-78617534D01*
X197300000Y-78617534D01*
X197215509Y-78633432D01*
X197137908Y-78683367D01*
X197085849Y-78759558D01*
X197067534Y-78850000D01*
X197067534Y-80150000D01*
X197083432Y-80234491D01*
X197133367Y-80312092D01*
X197209558Y-80364151D01*
X197300000Y-80382466D01*
X197926243Y-80382466D01*
X197924425Y-80720654D01*
X190119047Y-80382466D01*
X190800000Y-80382466D01*
X190884491Y-80366568D01*
X190962092Y-80316633D01*
X191014151Y-80240442D01*
X191032466Y-80150000D01*
X191032466Y-78850000D01*
X191067534Y-78850000D01*
X191067534Y-80150000D01*
X191083432Y-80234491D01*
X191133367Y-80312092D01*
X191209558Y-80364151D01*
X191300000Y-80382466D01*
X192300000Y-80382466D01*
X192384491Y-80366568D01*
X192462092Y-80316633D01*
X192514151Y-80240442D01*
X192532466Y-80150000D01*
X192532466Y-78850000D01*
X192567534Y-78850000D01*
X192567534Y-80150000D01*
X192583432Y-80234491D01*
X192633367Y-80312092D01*
X192709558Y-80364151D01*
X192800000Y-80382466D01*
X193800000Y-80382466D01*
X193884491Y-80366568D01*
X193962092Y-80316633D01*
X194014151Y-80240442D01*
X194032466Y-80150000D01*
X194032466Y-78850000D01*
X194067534Y-78850000D01*
X194067534Y-80150000D01*
X194083432Y-80234491D01*
X194133367Y-80312092D01*
X194209558Y-80364151D01*
X194300000Y-80382466D01*
X195300000Y-80382466D01*
X195384491Y-80366568D01*
X195462092Y-80316633D01*
X195514151Y-80240442D01*
X195532466Y-80150000D01*
X195532466Y-78850000D01*
X195567534Y-78850000D01*
X195567534Y-80150000D01*
X195583432Y-80234491D01*
X195633367Y-80312092D01*
X195709558Y-80364151D01*
X195800000Y-80382466D01*
X196800000Y-80382466D01*
X196884491Y-80366568D01*
X196962092Y-80316633D01*
X197014151Y-80240442D01*
X197032466Y-80150000D01*
X197032466Y-78850000D01*
X197016568Y-78765509D01*
X196966633Y-78687908D01*
X196890442Y-78635849D01*
X196800000Y-78617534D01*
X195800000Y-78617534D01*
X195715509Y-78633432D01*
X195637908Y-78683367D01*
X195585849Y-78759558D01*
X195567534Y-78850000D01*
X195532466Y-78850000D01*
X195516568Y-78765509D01*
X195466633Y-78687908D01*
X195390442Y-78635849D01*
X195300000Y-78617534D01*
X194300000Y-78617534D01*
X194215509Y-78633432D01*
X194137908Y-78683367D01*
X194085849Y-78759558D01*
X194067534Y-78850000D01*
X194032466Y-78850000D01*
X194016568Y-78765509D01*
X193966633Y-78687908D01*
X193890442Y-78635849D01*
X193800000Y-78617534D01*
X192800000Y-78617534D01*
X192715509Y-78633432D01*
X192637908Y-78683367D01*
X192585849Y-78759558D01*
X192567534Y-78850000D01*
X192532466Y-78850000D01*
X192516568Y-78765509D01*
X192466633Y-78687908D01*
X192390442Y-78635849D01*
X192300000Y-78617534D01*
X191300000Y-78617534D01*
X191215509Y-78633432D01*
X191137908Y-78683367D01*
X191085849Y-78759558D01*
X191067534Y-78850000D01*
X191032466Y-78850000D01*
X191016568Y-78765509D01*
X190966633Y-78687908D01*
X190890442Y-78635849D01*
X190800000Y-78617534D01*
X189800000Y-78617534D01*
X189715509Y-78633432D01*
X189637908Y-78683367D01*
X189585849Y-78759558D01*
X189567534Y-78850000D01*
X189567534Y-80150000D01*
X189583432Y-80234491D01*
X189633367Y-80312092D01*
X189709558Y-80364151D01*
X189713157Y-80364880D01*
X189407683Y-80351644D01*
X189462092Y-80316633D01*
X189514151Y-80240442D01*
X189532466Y-80150000D01*
X189532466Y-78850000D01*
X189516568Y-78765509D01*
X189466633Y-78687908D01*
X189390442Y-78635849D01*
X189300000Y-78617534D01*
X188300000Y-78617534D01*
X188215509Y-78633432D01*
X188137908Y-78683367D01*
X188085849Y-78759558D01*
X188067534Y-78850000D01*
X188067534Y-80150000D01*
X188083432Y-80234491D01*
X188123001Y-80295982D01*
X187980423Y-80289805D01*
X188014151Y-80240442D01*
X188032466Y-80150000D01*
X188032466Y-78850000D01*
X188016568Y-78765509D01*
X187966633Y-78687908D01*
X187890442Y-78635849D01*
X187800000Y-78617534D01*
X186800000Y-78617534D01*
X186715509Y-78633432D01*
X186637908Y-78683367D01*
X186585849Y-78759558D01*
X186567534Y-78850000D01*
X186567534Y-80150000D01*
X186582443Y-80229234D01*
X186516995Y-80226398D01*
X186532466Y-80150000D01*
X186532466Y-78850000D01*
X186516568Y-78765509D01*
X186466633Y-78687908D01*
X186390442Y-78635849D01*
X186300000Y-78617534D01*
X185300000Y-78617534D01*
X185215509Y-78633432D01*
X185137908Y-78683367D01*
X185085849Y-78759558D01*
X185067534Y-78850000D01*
X185067534Y-80150000D01*
X185070113Y-80163708D01*
X185030042Y-80161972D01*
X185032466Y-80150000D01*
X185032466Y-78850000D01*
X185016568Y-78765509D01*
X184966633Y-78687908D01*
X184890442Y-78635849D01*
X184800000Y-78617534D01*
X183800000Y-78617534D01*
X183715509Y-78633432D01*
X183637908Y-78683367D01*
X183585849Y-78759558D01*
X183567534Y-78850000D01*
X183567534Y-80098605D01*
X183532466Y-80097085D01*
X183532466Y-78850000D01*
X183516568Y-78765509D01*
X183466633Y-78687908D01*
X183390442Y-78635849D01*
X183300000Y-78617534D01*
X182300000Y-78617534D01*
X182215509Y-78633432D01*
X182137908Y-78683367D01*
X182085849Y-78759558D01*
X182067534Y-78850000D01*
X182067534Y-80033614D01*
X182032466Y-80032094D01*
X182032466Y-78850000D01*
X182016568Y-78765509D01*
X181966633Y-78687908D01*
X181890442Y-78635849D01*
X181800000Y-78617534D01*
X180800000Y-78617534D01*
X180715509Y-78633432D01*
X180637908Y-78683367D01*
X180585849Y-78759558D01*
X180567534Y-78850000D01*
X180567534Y-79968622D01*
X180532466Y-79967103D01*
X180532466Y-78850000D01*
X180516568Y-78765509D01*
X180466633Y-78687908D01*
X180390442Y-78635849D01*
X180300000Y-78617534D01*
X179300000Y-78617534D01*
X179215509Y-78633432D01*
X179137908Y-78683367D01*
X179085849Y-78759558D01*
X179067534Y-78850000D01*
X179067534Y-79903631D01*
X174421866Y-79702345D01*
X174432466Y-79650000D01*
X174432466Y-79403000D01*
X174967534Y-79403000D01*
X174967534Y-79500000D01*
X174983432Y-79584491D01*
X175033367Y-79662092D01*
X175109558Y-79714151D01*
X175200000Y-79732466D01*
X176400000Y-79732466D01*
X176484491Y-79716568D01*
X176562092Y-79666633D01*
X176614151Y-79590442D01*
X176632466Y-79500000D01*
X176632466Y-78600000D01*
X176616568Y-78515509D01*
X176566633Y-78437908D01*
X176490442Y-78385849D01*
X176400000Y-78367534D01*
X175200000Y-78367534D01*
X175115509Y-78383432D01*
X175037908Y-78433367D01*
X174985849Y-78509558D01*
X174967534Y-78600000D01*
X174967534Y-78697000D01*
X174422493Y-78697000D01*
X174416568Y-78665509D01*
X174366633Y-78587908D01*
X174290442Y-78535849D01*
X174200000Y-78517534D01*
X173700000Y-78517534D01*
X173615509Y-78533432D01*
X173537908Y-78583367D01*
X173485849Y-78659558D01*
X173467534Y-78750000D01*
X173467534Y-79650000D01*
X173469620Y-79661087D01*
X172932466Y-79637813D01*
X172932466Y-78750000D01*
X172916568Y-78665509D01*
X172866633Y-78587908D01*
X172803000Y-78544430D01*
X172803000Y-77854658D01*
X172862092Y-77816633D01*
X172914151Y-77740442D01*
X172932466Y-77650000D01*
X172932466Y-77524000D01*
X173116000Y-77524000D01*
X173116000Y-77766165D01*
X173204909Y-77980809D01*
X173369190Y-78145091D01*
X173583835Y-78234000D01*
X173679000Y-78234000D01*
X173825000Y-78088000D01*
X173825000Y-77378000D01*
X174075000Y-77378000D01*
X174075000Y-78088000D01*
X174221000Y-78234000D01*
X174316165Y-78234000D01*
X174530810Y-78145091D01*
X174695091Y-77980809D01*
X174784000Y-77766165D01*
X174784000Y-77750000D01*
X177117534Y-77750000D01*
X177117534Y-78750000D01*
X177133432Y-78834491D01*
X177183367Y-78912092D01*
X177259558Y-78964151D01*
X177350000Y-78982466D01*
X178650000Y-78982466D01*
X178734491Y-78966568D01*
X178812092Y-78916633D01*
X178864151Y-78840442D01*
X178882466Y-78750000D01*
X178882466Y-77750000D01*
X178866568Y-77665509D01*
X178816633Y-77587908D01*
X178740442Y-77535849D01*
X178650000Y-77517534D01*
X177350000Y-77517534D01*
X177265509Y-77533432D01*
X177187908Y-77583367D01*
X177135849Y-77659558D01*
X177117534Y-77750000D01*
X174784000Y-77750000D01*
X174784000Y-77524000D01*
X174638000Y-77378000D01*
X174075000Y-77378000D01*
X173825000Y-77378000D01*
X173262000Y-77378000D01*
X173116000Y-77524000D01*
X172932466Y-77524000D01*
X172932466Y-76750000D01*
X172916568Y-76665509D01*
X172908312Y-76652679D01*
X172916136Y-76633835D01*
X173116000Y-76633835D01*
X173116000Y-76876000D01*
X173262000Y-77022000D01*
X173825000Y-77022000D01*
X173825000Y-76312000D01*
X174075000Y-76312000D01*
X174075000Y-77022000D01*
X174638000Y-77022000D01*
X174784000Y-76876000D01*
X174784000Y-76633835D01*
X174695091Y-76419191D01*
X174530810Y-76254909D01*
X174316165Y-76166000D01*
X174221000Y-76166000D01*
X174075000Y-76312000D01*
X173825000Y-76312000D01*
X173679000Y-76166000D01*
X173583835Y-76166000D01*
X173369190Y-76254909D01*
X173204909Y-76419191D01*
X173116000Y-76633835D01*
X172916136Y-76633835D01*
X172927908Y-76605486D01*
X172928091Y-76395435D01*
X172847878Y-76201303D01*
X172810415Y-76163775D01*
X174967534Y-76119975D01*
X174967534Y-76200000D01*
X174983432Y-76284491D01*
X175033367Y-76362092D01*
X175109558Y-76414151D01*
X175200000Y-76432466D01*
X176400000Y-76432466D01*
X176484491Y-76416568D01*
X176562092Y-76366633D01*
X176614151Y-76290442D01*
X176622340Y-76250000D01*
X177117534Y-76250000D01*
X177117534Y-77250000D01*
X177133432Y-77334491D01*
X177183367Y-77412092D01*
X177259558Y-77464151D01*
X177350000Y-77482466D01*
X178650000Y-77482466D01*
X178734491Y-77466568D01*
X178812092Y-77416633D01*
X178864151Y-77340442D01*
X178882466Y-77250000D01*
X178882466Y-76250000D01*
X178866568Y-76165509D01*
X178816633Y-76087908D01*
X178740442Y-76035849D01*
X178650000Y-76017534D01*
X177350000Y-76017534D01*
X177265509Y-76033432D01*
X177187908Y-76083367D01*
X177135849Y-76159558D01*
X177117534Y-76250000D01*
X176622340Y-76250000D01*
X176632466Y-76200000D01*
X176632466Y-75300000D01*
X176616568Y-75215509D01*
X176566633Y-75137908D01*
X176490442Y-75085849D01*
X176400000Y-75067534D01*
X175200000Y-75067534D01*
X175115509Y-75083432D01*
X175037908Y-75133367D01*
X174995155Y-75195937D01*
X174806109Y-75006891D01*
X174925000Y-74888000D01*
X174925000Y-74178000D01*
X175175000Y-74178000D01*
X175175000Y-74888000D01*
X175321000Y-75034000D01*
X175416165Y-75034000D01*
X175630810Y-74945091D01*
X175795091Y-74780809D01*
X175807852Y-74750000D01*
X177117534Y-74750000D01*
X177117534Y-75750000D01*
X177133432Y-75834491D01*
X177183367Y-75912092D01*
X177259558Y-75964151D01*
X177350000Y-75982466D01*
X178650000Y-75982466D01*
X178734491Y-75966568D01*
X178812092Y-75916633D01*
X178864151Y-75840442D01*
X178882466Y-75750000D01*
X178882466Y-75603000D01*
X179203782Y-75603000D01*
X179850391Y-76249609D01*
X179964913Y-76326129D01*
X180100000Y-76353000D01*
X182917534Y-76353000D01*
X182917534Y-76850000D01*
X182933432Y-76934491D01*
X182983367Y-77012092D01*
X183059558Y-77064151D01*
X183150000Y-77082466D01*
X184850000Y-77082466D01*
X184934491Y-77066568D01*
X185012092Y-77016633D01*
X185064151Y-76940442D01*
X185082466Y-76850000D01*
X185082466Y-75150000D01*
X185066568Y-75065509D01*
X185016633Y-74987908D01*
X184940442Y-74935849D01*
X184850000Y-74917534D01*
X183150000Y-74917534D01*
X183065509Y-74933432D01*
X182987908Y-74983367D01*
X182935849Y-75059558D01*
X182917534Y-75150000D01*
X182917534Y-75647000D01*
X180246218Y-75647000D01*
X179599609Y-75000391D01*
X179485087Y-74923871D01*
X179350000Y-74897000D01*
X178882466Y-74897000D01*
X178882466Y-74750000D01*
X178866568Y-74665509D01*
X178816633Y-74587908D01*
X178740442Y-74535849D01*
X178650000Y-74517534D01*
X177350000Y-74517534D01*
X177265509Y-74533432D01*
X177187908Y-74583367D01*
X177135849Y-74659558D01*
X177117534Y-74750000D01*
X175807852Y-74750000D01*
X175884000Y-74566165D01*
X175884000Y-74324000D01*
X175738000Y-74178000D01*
X175175000Y-74178000D01*
X174925000Y-74178000D01*
X174362000Y-74178000D01*
X174216000Y-74324000D01*
X174216000Y-74416782D01*
X173233053Y-73433835D01*
X174216000Y-73433835D01*
X174216000Y-73676000D01*
X174362000Y-73822000D01*
X174925000Y-73822000D01*
X174925000Y-73112000D01*
X175175000Y-73112000D01*
X175175000Y-73822000D01*
X175738000Y-73822000D01*
X175884000Y-73676000D01*
X175884000Y-73433835D01*
X175795091Y-73219191D01*
X175630810Y-73054909D01*
X175416165Y-72966000D01*
X175321000Y-72966000D01*
X175175000Y-73112000D01*
X174925000Y-73112000D01*
X174779000Y-72966000D01*
X174683835Y-72966000D01*
X174469190Y-73054909D01*
X174304909Y-73219191D01*
X174216000Y-73433835D01*
X173233053Y-73433835D01*
X173053000Y-73253782D01*
X173053000Y-70752218D01*
X175150391Y-72849609D01*
X175264913Y-72926129D01*
X175400000Y-72953001D01*
X175400005Y-72953000D01*
X176197000Y-72953000D01*
X176197000Y-73345342D01*
X176137908Y-73383367D01*
X176085849Y-73459558D01*
X176067534Y-73550000D01*
X176067534Y-74450000D01*
X176083432Y-74534491D01*
X176133367Y-74612092D01*
X176209558Y-74664151D01*
X176300000Y-74682466D01*
X176800000Y-74682466D01*
X176884491Y-74666568D01*
X176962092Y-74616633D01*
X177014151Y-74540442D01*
X177032466Y-74450000D01*
X177032466Y-73550000D01*
X177016568Y-73465509D01*
X176966633Y-73387908D01*
X176903000Y-73344430D01*
X176903000Y-73250000D01*
X177117534Y-73250000D01*
X177117534Y-74250000D01*
X177133432Y-74334491D01*
X177183367Y-74412092D01*
X177259558Y-74464151D01*
X177350000Y-74482466D01*
X178650000Y-74482466D01*
X178734491Y-74466568D01*
X178812092Y-74416633D01*
X178864151Y-74340442D01*
X178882466Y-74250000D01*
X178882466Y-74103000D01*
X179103782Y-74103000D01*
X179550389Y-74549606D01*
X179550391Y-74549609D01*
X179626393Y-74600391D01*
X179664913Y-74626129D01*
X179800000Y-74653000D01*
X184753782Y-74653000D01*
X185593354Y-75492572D01*
X185544058Y-75566348D01*
X185462000Y-75978881D01*
X185462000Y-76021119D01*
X185544058Y-76433652D01*
X185777739Y-76783380D01*
X186127467Y-77017061D01*
X186540000Y-77099119D01*
X186952533Y-77017061D01*
X187302261Y-76783380D01*
X187535942Y-76433652D01*
X187618000Y-76021119D01*
X187618000Y-75978881D01*
X187535942Y-75566348D01*
X187302261Y-75216620D01*
X186952533Y-74982939D01*
X186540000Y-74900881D01*
X186127467Y-74982939D01*
X186100306Y-75001088D01*
X185149609Y-74050391D01*
X185035087Y-73973871D01*
X184900000Y-73947000D01*
X179946217Y-73947000D01*
X179499609Y-73500391D01*
X179385087Y-73423871D01*
X179250000Y-73397000D01*
X178882466Y-73397000D01*
X178882466Y-73250000D01*
X178866568Y-73165509D01*
X178816633Y-73087908D01*
X178740442Y-73035849D01*
X178650000Y-73017534D01*
X177350000Y-73017534D01*
X177265509Y-73033432D01*
X177187908Y-73083367D01*
X177135849Y-73159558D01*
X177117534Y-73250000D01*
X176903000Y-73250000D01*
X176903000Y-72750000D01*
X176876129Y-72614913D01*
X176799609Y-72500391D01*
X176649609Y-72350391D01*
X176535087Y-72273871D01*
X176400000Y-72247000D01*
X175546218Y-72247000D01*
X174272808Y-70973590D01*
X174884772Y-71227700D01*
X175572213Y-71228300D01*
X176207555Y-70965782D01*
X176694073Y-70480112D01*
X176789623Y-70250000D01*
X177117534Y-70250000D01*
X177117534Y-71250000D01*
X177133432Y-71334491D01*
X177183367Y-71412092D01*
X177259558Y-71464151D01*
X177350000Y-71482466D01*
X178650000Y-71482466D01*
X178734491Y-71466568D01*
X178812092Y-71416633D01*
X178864151Y-71340442D01*
X178882466Y-71250000D01*
X178882466Y-71081684D01*
X180350389Y-72549606D01*
X180350391Y-72549609D01*
X180461864Y-72624092D01*
X180464913Y-72626129D01*
X180569833Y-72647000D01*
X180146218Y-72647000D01*
X179499609Y-72000391D01*
X179385087Y-71923871D01*
X179250000Y-71897000D01*
X178882466Y-71897000D01*
X178882466Y-71750000D01*
X178866568Y-71665509D01*
X178816633Y-71587908D01*
X178740442Y-71535849D01*
X178650000Y-71517534D01*
X177350000Y-71517534D01*
X177265509Y-71533432D01*
X177187908Y-71583367D01*
X177135849Y-71659558D01*
X177117534Y-71750000D01*
X177117534Y-72750000D01*
X177133432Y-72834491D01*
X177183367Y-72912092D01*
X177259558Y-72964151D01*
X177350000Y-72982466D01*
X178650000Y-72982466D01*
X178734491Y-72966568D01*
X178812092Y-72916633D01*
X178864151Y-72840442D01*
X178882466Y-72750000D01*
X178882466Y-72603000D01*
X179103782Y-72603000D01*
X179750391Y-73249609D01*
X179864913Y-73326129D01*
X180000000Y-73353000D01*
X185453782Y-73353000D01*
X188014885Y-75914102D01*
X188002000Y-75978881D01*
X188002000Y-76021119D01*
X188084058Y-76433652D01*
X188317739Y-76783380D01*
X188667467Y-77017061D01*
X189080000Y-77099119D01*
X189492533Y-77017061D01*
X189842261Y-76783380D01*
X190075942Y-76433652D01*
X190158000Y-76021119D01*
X190158000Y-75978881D01*
X190075942Y-75566348D01*
X189842261Y-75216620D01*
X189492533Y-74982939D01*
X189080000Y-74900881D01*
X188667467Y-74982939D01*
X188317739Y-75216620D01*
X188316977Y-75217760D01*
X185849609Y-72750391D01*
X185735087Y-72673871D01*
X185630163Y-72653000D01*
X187953782Y-72653000D01*
X190721419Y-75420637D01*
X190624058Y-75566348D01*
X190542000Y-75978881D01*
X190542000Y-76021119D01*
X190624058Y-76433652D01*
X190857739Y-76783380D01*
X191207467Y-77017061D01*
X191620000Y-77099119D01*
X192032533Y-77017061D01*
X192382261Y-76783380D01*
X192568559Y-76504565D01*
X193371909Y-76504565D01*
X193452122Y-76698697D01*
X193600522Y-76847356D01*
X193794514Y-76927908D01*
X194004565Y-76928091D01*
X194198697Y-76847878D01*
X194347356Y-76699478D01*
X194427908Y-76505486D01*
X194428025Y-76371193D01*
X196549606Y-74249611D01*
X196549609Y-74249609D01*
X196626129Y-74135087D01*
X196628360Y-74123871D01*
X196653001Y-74000000D01*
X196653000Y-73999995D01*
X196653000Y-67382466D01*
X196800000Y-67382466D01*
X196884491Y-67366568D01*
X196962092Y-67316633D01*
X197014151Y-67240442D01*
X197032466Y-67150000D01*
X197032466Y-65850000D01*
X197016568Y-65765509D01*
X196966633Y-65687908D01*
X196890442Y-65635849D01*
X196800000Y-65617534D01*
X195800000Y-65617534D01*
X195715509Y-65633432D01*
X195637908Y-65683367D01*
X195585849Y-65759558D01*
X195567534Y-65850000D01*
X195567534Y-67150000D01*
X195583432Y-67234491D01*
X195633367Y-67312092D01*
X195709558Y-67364151D01*
X195800000Y-67382466D01*
X195947000Y-67382466D01*
X195947000Y-73853783D01*
X193928757Y-75872025D01*
X193795435Y-75871909D01*
X193601303Y-75952122D01*
X193452644Y-76100522D01*
X193372092Y-76294514D01*
X193371909Y-76504565D01*
X192568559Y-76504565D01*
X192615942Y-76433652D01*
X192698000Y-76021119D01*
X192698000Y-75978881D01*
X192615942Y-75566348D01*
X192382261Y-75216620D01*
X192032533Y-74982939D01*
X191620000Y-74900881D01*
X191269765Y-74970547D01*
X188349609Y-72050391D01*
X188235087Y-71973871D01*
X188100000Y-71947000D01*
X180746217Y-71947000D01*
X179249609Y-70450391D01*
X179135087Y-70373871D01*
X179000000Y-70347000D01*
X178882466Y-70347000D01*
X178882466Y-70250000D01*
X178866568Y-70165509D01*
X178816633Y-70087908D01*
X178740442Y-70035849D01*
X178650000Y-70017534D01*
X177350000Y-70017534D01*
X177265509Y-70033432D01*
X177187908Y-70083367D01*
X177135849Y-70159558D01*
X177117534Y-70250000D01*
X176789623Y-70250000D01*
X176957700Y-69845228D01*
X176958300Y-69157787D01*
X176789806Y-68750000D01*
X177117534Y-68750000D01*
X177117534Y-69750000D01*
X177133432Y-69834491D01*
X177183367Y-69912092D01*
X177259558Y-69964151D01*
X177350000Y-69982466D01*
X178650000Y-69982466D01*
X178734491Y-69966568D01*
X178812092Y-69916633D01*
X178864151Y-69840442D01*
X178882466Y-69750000D01*
X178882466Y-69728881D01*
X181762000Y-69728881D01*
X181762000Y-69771119D01*
X181844058Y-70183652D01*
X182077739Y-70533380D01*
X182427467Y-70767061D01*
X182840000Y-70849119D01*
X183252533Y-70767061D01*
X183602261Y-70533380D01*
X183835942Y-70183652D01*
X183918000Y-69771119D01*
X183918000Y-69728881D01*
X184302000Y-69728881D01*
X184302000Y-69771119D01*
X184384058Y-70183652D01*
X184617739Y-70533380D01*
X184967467Y-70767061D01*
X185380000Y-70849119D01*
X185792533Y-70767061D01*
X186142261Y-70533380D01*
X186375942Y-70183652D01*
X186382953Y-70148403D01*
X186542440Y-70148403D01*
X186799763Y-70645246D01*
X187227632Y-71005796D01*
X187521599Y-71127546D01*
X187742000Y-71025641D01*
X187742000Y-69928000D01*
X188098000Y-69928000D01*
X188098000Y-71025641D01*
X188318401Y-71127546D01*
X188612368Y-71005796D01*
X189040237Y-70645246D01*
X189297560Y-70148403D01*
X189196924Y-69928000D01*
X188098000Y-69928000D01*
X187742000Y-69928000D01*
X186643076Y-69928000D01*
X186542440Y-70148403D01*
X186382953Y-70148403D01*
X186458000Y-69771119D01*
X186458000Y-69728881D01*
X189382000Y-69728881D01*
X189382000Y-69771119D01*
X189464058Y-70183652D01*
X189697739Y-70533380D01*
X190047467Y-70767061D01*
X190460000Y-70849119D01*
X190872533Y-70767061D01*
X191222261Y-70533380D01*
X191455942Y-70183652D01*
X191538000Y-69771119D01*
X191538000Y-69728881D01*
X191455942Y-69316348D01*
X191222261Y-68966620D01*
X190872533Y-68732939D01*
X190460000Y-68650881D01*
X190047467Y-68732939D01*
X189697739Y-68966620D01*
X189464058Y-69316348D01*
X189382000Y-69728881D01*
X186458000Y-69728881D01*
X186382954Y-69351597D01*
X186542440Y-69351597D01*
X186643076Y-69572000D01*
X187742000Y-69572000D01*
X187742000Y-68474359D01*
X188098000Y-68474359D01*
X188098000Y-69572000D01*
X189196924Y-69572000D01*
X189297560Y-69351597D01*
X189040237Y-68854754D01*
X188612368Y-68494204D01*
X188318401Y-68372454D01*
X188098000Y-68474359D01*
X187742000Y-68474359D01*
X187521599Y-68372454D01*
X187227632Y-68494204D01*
X186799763Y-68854754D01*
X186542440Y-69351597D01*
X186382954Y-69351597D01*
X186375942Y-69316348D01*
X186142261Y-68966620D01*
X185792533Y-68732939D01*
X185380000Y-68650881D01*
X184967467Y-68732939D01*
X184617739Y-68966620D01*
X184384058Y-69316348D01*
X184302000Y-69728881D01*
X183918000Y-69728881D01*
X183835942Y-69316348D01*
X183602261Y-68966620D01*
X183252533Y-68732939D01*
X182840000Y-68650881D01*
X182427467Y-68732939D01*
X182077739Y-68966620D01*
X181844058Y-69316348D01*
X181762000Y-69728881D01*
X178882466Y-69728881D01*
X178882466Y-68750000D01*
X178866568Y-68665509D01*
X178816633Y-68587908D01*
X178740442Y-68535849D01*
X178650000Y-68517534D01*
X177350000Y-68517534D01*
X177265509Y-68533432D01*
X177187908Y-68583367D01*
X177135849Y-68659558D01*
X177117534Y-68750000D01*
X176789806Y-68750000D01*
X176695782Y-68522445D01*
X176210112Y-68035927D01*
X175965050Y-67934168D01*
X176771242Y-67127975D01*
X176904565Y-67128091D01*
X177098697Y-67047878D01*
X177247356Y-66899478D01*
X177327908Y-66705486D01*
X177328091Y-66495435D01*
X177315677Y-66465390D01*
X177400000Y-66482466D01*
X178200000Y-66482466D01*
X178284491Y-66466568D01*
X178362092Y-66416633D01*
X178414151Y-66340442D01*
X178432466Y-66250000D01*
X178432466Y-65666752D01*
X178446218Y-65653000D01*
X178749483Y-65653000D01*
X178716000Y-65733835D01*
X178716000Y-66176000D01*
X178862000Y-66322000D01*
X179622000Y-66322000D01*
X179622000Y-66302000D01*
X179978000Y-66302000D01*
X179978000Y-66322000D01*
X179998000Y-66322000D01*
X179998000Y-66678000D01*
X179978000Y-66678000D01*
X179978000Y-66698000D01*
X179622000Y-66698000D01*
X179622000Y-66678000D01*
X178862000Y-66678000D01*
X178716000Y-66824000D01*
X178716000Y-67030899D01*
X178650000Y-67017534D01*
X177350000Y-67017534D01*
X177265509Y-67033432D01*
X177187908Y-67083367D01*
X177135849Y-67159558D01*
X177117534Y-67250000D01*
X177117534Y-68250000D01*
X177133432Y-68334491D01*
X177183367Y-68412092D01*
X177259558Y-68464151D01*
X177350000Y-68482466D01*
X178650000Y-68482466D01*
X178734491Y-68466568D01*
X178812092Y-68416633D01*
X178864151Y-68340442D01*
X178882466Y-68250000D01*
X178882466Y-67558367D01*
X178969191Y-67645091D01*
X179183835Y-67734000D01*
X179476000Y-67734000D01*
X179612287Y-67597713D01*
X179572092Y-67694514D01*
X179571909Y-67904565D01*
X179652122Y-68098697D01*
X179800522Y-68247356D01*
X179994514Y-68327908D01*
X180204565Y-68328091D01*
X180398697Y-68247878D01*
X180493741Y-68153000D01*
X180900000Y-68153000D01*
X181035087Y-68126129D01*
X181149609Y-68049609D01*
X181250000Y-67949217D01*
X181250389Y-67949606D01*
X181250391Y-67949609D01*
X181350604Y-68016568D01*
X181364913Y-68026129D01*
X181500000Y-68053001D01*
X181500005Y-68053000D01*
X191553782Y-68053000D01*
X192168317Y-68667534D01*
X192150000Y-68667534D01*
X192065509Y-68683432D01*
X191987908Y-68733367D01*
X191935849Y-68809558D01*
X191917534Y-68900000D01*
X191917534Y-70600000D01*
X191933432Y-70684491D01*
X191983367Y-70762092D01*
X192059558Y-70814151D01*
X192150000Y-70832466D01*
X193850000Y-70832466D01*
X193934491Y-70816568D01*
X194012092Y-70766633D01*
X194064151Y-70690442D01*
X194082466Y-70600000D01*
X194082466Y-68900000D01*
X194066568Y-68815509D01*
X194016633Y-68737908D01*
X193940442Y-68685849D01*
X193850000Y-68667534D01*
X193166751Y-68667534D01*
X191949609Y-67450391D01*
X191847951Y-67382466D01*
X192300000Y-67382466D01*
X192384491Y-67366568D01*
X192462092Y-67316633D01*
X192514151Y-67240442D01*
X192532466Y-67150000D01*
X192532466Y-65850000D01*
X192529455Y-65834000D01*
X192570774Y-65834000D01*
X192567534Y-65850000D01*
X192567534Y-67150000D01*
X192583432Y-67234491D01*
X192633367Y-67312092D01*
X192709558Y-67364151D01*
X192800000Y-67382466D01*
X193800000Y-67382466D01*
X193884491Y-67366568D01*
X193962092Y-67316633D01*
X194014151Y-67240442D01*
X194032466Y-67150000D01*
X194032466Y-65850000D01*
X194029455Y-65834000D01*
X194070774Y-65834000D01*
X194067534Y-65850000D01*
X194067534Y-67150000D01*
X194083432Y-67234491D01*
X194133367Y-67312092D01*
X194209558Y-67364151D01*
X194300000Y-67382466D01*
X195300000Y-67382466D01*
X195384491Y-67366568D01*
X195462092Y-67316633D01*
X195514151Y-67240442D01*
X195532466Y-67150000D01*
X195532466Y-65850000D01*
X195516568Y-65765509D01*
X195466633Y-65687908D01*
X195390442Y-65635849D01*
X195300000Y-65617534D01*
X194908366Y-65617534D01*
X194945091Y-65580809D01*
X195034000Y-65366165D01*
X195034000Y-64324000D01*
X194888000Y-64178000D01*
X193653000Y-64178000D01*
X193653000Y-64198000D01*
X193297000Y-64198000D01*
X193297000Y-64178000D01*
X193277000Y-64178000D01*
X193277000Y-63822000D01*
X193297000Y-63822000D01*
X193297000Y-63802000D01*
X193653000Y-63802000D01*
X193653000Y-63822000D01*
X194888000Y-63822000D01*
X195034000Y-63676000D01*
X195034000Y-62750000D01*
X195317534Y-62750000D01*
X195317534Y-65250000D01*
X195333432Y-65334491D01*
X195383367Y-65412092D01*
X195459558Y-65464151D01*
X195550000Y-65482466D01*
X197500000Y-65482466D01*
X197584491Y-65466568D01*
X197662092Y-65416633D01*
X197714151Y-65340442D01*
X197732466Y-65250000D01*
X197732466Y-62750000D01*
X197716568Y-62665509D01*
X197666633Y-62587908D01*
X197590442Y-62535849D01*
X197500000Y-62517534D01*
X195550000Y-62517534D01*
X195465509Y-62533432D01*
X195387908Y-62583367D01*
X195335849Y-62659558D01*
X195317534Y-62750000D01*
X195034000Y-62750000D01*
X195034000Y-62633835D01*
X194946825Y-62423376D01*
X198023571Y-62279653D01*
X198005625Y-65617534D01*
X198005625Y-65617534D01*
G37*
X198005625Y-65617534D02*
X197300000Y-65617534D01*
X197215509Y-65633432D01*
X197137908Y-65683367D01*
X197085849Y-65759558D01*
X197067534Y-65850000D01*
X197067534Y-67150000D01*
X197083432Y-67234491D01*
X197133367Y-67312092D01*
X197209558Y-67364151D01*
X197300000Y-67382466D01*
X197447000Y-67382466D01*
X197447000Y-75553783D01*
X195253782Y-77747000D01*
X182046218Y-77747000D01*
X181627975Y-77328757D01*
X181628091Y-77195435D01*
X181547878Y-77001303D01*
X181399478Y-76852644D01*
X181205486Y-76772092D01*
X180995435Y-76771909D01*
X180801303Y-76852122D01*
X180652644Y-77000522D01*
X180572092Y-77194514D01*
X180571909Y-77404565D01*
X180652122Y-77598697D01*
X180800522Y-77747356D01*
X180994514Y-77827908D01*
X181128807Y-77828025D01*
X181650391Y-78349609D01*
X181764913Y-78426129D01*
X181900000Y-78453001D01*
X181900005Y-78453000D01*
X195400000Y-78453000D01*
X195535087Y-78426129D01*
X195649609Y-78349609D01*
X197949538Y-76049679D01*
X197935732Y-78617534D01*
X197300000Y-78617534D01*
X197215509Y-78633432D01*
X197137908Y-78683367D01*
X197085849Y-78759558D01*
X197067534Y-78850000D01*
X197067534Y-80150000D01*
X197083432Y-80234491D01*
X197133367Y-80312092D01*
X197209558Y-80364151D01*
X197300000Y-80382466D01*
X197926243Y-80382466D01*
X197924425Y-80720654D01*
X190119047Y-80382466D01*
X190800000Y-80382466D01*
X190884491Y-80366568D01*
X190962092Y-80316633D01*
X191014151Y-80240442D01*
X191032466Y-80150000D01*
X191032466Y-78850000D01*
X191067534Y-78850000D01*
X191067534Y-80150000D01*
X191083432Y-80234491D01*
X191133367Y-80312092D01*
X191209558Y-80364151D01*
X191300000Y-80382466D01*
X192300000Y-80382466D01*
X192384491Y-80366568D01*
X192462092Y-80316633D01*
X192514151Y-80240442D01*
X192532466Y-80150000D01*
X192532466Y-78850000D01*
X192567534Y-78850000D01*
X192567534Y-80150000D01*
X192583432Y-80234491D01*
X192633367Y-80312092D01*
X192709558Y-80364151D01*
X192800000Y-80382466D01*
X193800000Y-80382466D01*
X193884491Y-80366568D01*
X193962092Y-80316633D01*
X194014151Y-80240442D01*
X194032466Y-80150000D01*
X194032466Y-78850000D01*
X194067534Y-78850000D01*
X194067534Y-80150000D01*
X194083432Y-80234491D01*
X194133367Y-80312092D01*
X194209558Y-80364151D01*
X194300000Y-80382466D01*
X195300000Y-80382466D01*
X195384491Y-80366568D01*
X195462092Y-80316633D01*
X195514151Y-80240442D01*
X195532466Y-80150000D01*
X195532466Y-78850000D01*
X195567534Y-78850000D01*
X195567534Y-80150000D01*
X195583432Y-80234491D01*
X195633367Y-80312092D01*
X195709558Y-80364151D01*
X195800000Y-80382466D01*
X196800000Y-80382466D01*
X196884491Y-80366568D01*
X196962092Y-80316633D01*
X197014151Y-80240442D01*
X197032466Y-80150000D01*
X197032466Y-78850000D01*
X197016568Y-78765509D01*
X196966633Y-78687908D01*
X196890442Y-78635849D01*
X196800000Y-78617534D01*
X195800000Y-78617534D01*
X195715509Y-78633432D01*
X195637908Y-78683367D01*
X195585849Y-78759558D01*
X195567534Y-78850000D01*
X195532466Y-78850000D01*
X195516568Y-78765509D01*
X195466633Y-78687908D01*
X195390442Y-78635849D01*
X195300000Y-78617534D01*
X194300000Y-78617534D01*
X194215509Y-78633432D01*
X194137908Y-78683367D01*
X194085849Y-78759558D01*
X194067534Y-78850000D01*
X194032466Y-78850000D01*
X194016568Y-78765509D01*
X193966633Y-78687908D01*
X193890442Y-78635849D01*
X193800000Y-78617534D01*
X192800000Y-78617534D01*
X192715509Y-78633432D01*
X192637908Y-78683367D01*
X192585849Y-78759558D01*
X192567534Y-78850000D01*
X192532466Y-78850000D01*
X192516568Y-78765509D01*
X192466633Y-78687908D01*
X192390442Y-78635849D01*
X192300000Y-78617534D01*
X191300000Y-78617534D01*
X191215509Y-78633432D01*
X191137908Y-78683367D01*
X191085849Y-78759558D01*
X191067534Y-78850000D01*
X191032466Y-78850000D01*
X191016568Y-78765509D01*
X190966633Y-78687908D01*
X190890442Y-78635849D01*
X190800000Y-78617534D01*
X189800000Y-78617534D01*
X189715509Y-78633432D01*
X189637908Y-78683367D01*
X189585849Y-78759558D01*
X189567534Y-78850000D01*
X189567534Y-80150000D01*
X189583432Y-80234491D01*
X189633367Y-80312092D01*
X189709558Y-80364151D01*
X189713157Y-80364880D01*
X189407683Y-80351644D01*
X189462092Y-80316633D01*
X189514151Y-80240442D01*
X189532466Y-80150000D01*
X189532466Y-78850000D01*
X189516568Y-78765509D01*
X189466633Y-78687908D01*
X189390442Y-78635849D01*
X189300000Y-78617534D01*
X188300000Y-78617534D01*
X188215509Y-78633432D01*
X188137908Y-78683367D01*
X188085849Y-78759558D01*
X188067534Y-78850000D01*
X188067534Y-80150000D01*
X188083432Y-80234491D01*
X188123001Y-80295982D01*
X187980423Y-80289805D01*
X188014151Y-80240442D01*
X188032466Y-80150000D01*
X188032466Y-78850000D01*
X188016568Y-78765509D01*
X187966633Y-78687908D01*
X187890442Y-78635849D01*
X187800000Y-78617534D01*
X186800000Y-78617534D01*
X186715509Y-78633432D01*
X186637908Y-78683367D01*
X186585849Y-78759558D01*
X186567534Y-78850000D01*
X186567534Y-80150000D01*
X186582443Y-80229234D01*
X186516995Y-80226398D01*
X186532466Y-80150000D01*
X186532466Y-78850000D01*
X186516568Y-78765509D01*
X186466633Y-78687908D01*
X186390442Y-78635849D01*
X186300000Y-78617534D01*
X185300000Y-78617534D01*
X185215509Y-78633432D01*
X185137908Y-78683367D01*
X185085849Y-78759558D01*
X185067534Y-78850000D01*
X185067534Y-80150000D01*
X185070113Y-80163708D01*
X185030042Y-80161972D01*
X185032466Y-80150000D01*
X185032466Y-78850000D01*
X185016568Y-78765509D01*
X184966633Y-78687908D01*
X184890442Y-78635849D01*
X184800000Y-78617534D01*
X183800000Y-78617534D01*
X183715509Y-78633432D01*
X183637908Y-78683367D01*
X183585849Y-78759558D01*
X183567534Y-78850000D01*
X183567534Y-80098605D01*
X183532466Y-80097085D01*
X183532466Y-78850000D01*
X183516568Y-78765509D01*
X183466633Y-78687908D01*
X183390442Y-78635849D01*
X183300000Y-78617534D01*
X182300000Y-78617534D01*
X182215509Y-78633432D01*
X182137908Y-78683367D01*
X182085849Y-78759558D01*
X182067534Y-78850000D01*
X182067534Y-80033614D01*
X182032466Y-80032094D01*
X182032466Y-78850000D01*
X182016568Y-78765509D01*
X181966633Y-78687908D01*
X181890442Y-78635849D01*
X181800000Y-78617534D01*
X180800000Y-78617534D01*
X180715509Y-78633432D01*
X180637908Y-78683367D01*
X180585849Y-78759558D01*
X180567534Y-78850000D01*
X180567534Y-79968622D01*
X180532466Y-79967103D01*
X180532466Y-78850000D01*
X180516568Y-78765509D01*
X180466633Y-78687908D01*
X180390442Y-78635849D01*
X180300000Y-78617534D01*
X179300000Y-78617534D01*
X179215509Y-78633432D01*
X179137908Y-78683367D01*
X179085849Y-78759558D01*
X179067534Y-78850000D01*
X179067534Y-79903631D01*
X174421866Y-79702345D01*
X174432466Y-79650000D01*
X174432466Y-79403000D01*
X174967534Y-79403000D01*
X174967534Y-79500000D01*
X174983432Y-79584491D01*
X175033367Y-79662092D01*
X175109558Y-79714151D01*
X175200000Y-79732466D01*
X176400000Y-79732466D01*
X176484491Y-79716568D01*
X176562092Y-79666633D01*
X176614151Y-79590442D01*
X176632466Y-79500000D01*
X176632466Y-78600000D01*
X176616568Y-78515509D01*
X176566633Y-78437908D01*
X176490442Y-78385849D01*
X176400000Y-78367534D01*
X175200000Y-78367534D01*
X175115509Y-78383432D01*
X175037908Y-78433367D01*
X174985849Y-78509558D01*
X174967534Y-78600000D01*
X174967534Y-78697000D01*
X174422493Y-78697000D01*
X174416568Y-78665509D01*
X174366633Y-78587908D01*
X174290442Y-78535849D01*
X174200000Y-78517534D01*
X173700000Y-78517534D01*
X173615509Y-78533432D01*
X173537908Y-78583367D01*
X173485849Y-78659558D01*
X173467534Y-78750000D01*
X173467534Y-79650000D01*
X173469620Y-79661087D01*
X172932466Y-79637813D01*
X172932466Y-78750000D01*
X172916568Y-78665509D01*
X172866633Y-78587908D01*
X172803000Y-78544430D01*
X172803000Y-77854658D01*
X172862092Y-77816633D01*
X172914151Y-77740442D01*
X172932466Y-77650000D01*
X172932466Y-77524000D01*
X173116000Y-77524000D01*
X173116000Y-77766165D01*
X173204909Y-77980809D01*
X173369190Y-78145091D01*
X173583835Y-78234000D01*
X173679000Y-78234000D01*
X173825000Y-78088000D01*
X173825000Y-77378000D01*
X174075000Y-77378000D01*
X174075000Y-78088000D01*
X174221000Y-78234000D01*
X174316165Y-78234000D01*
X174530810Y-78145091D01*
X174695091Y-77980809D01*
X174784000Y-77766165D01*
X174784000Y-77750000D01*
X177117534Y-77750000D01*
X177117534Y-78750000D01*
X177133432Y-78834491D01*
X177183367Y-78912092D01*
X177259558Y-78964151D01*
X177350000Y-78982466D01*
X178650000Y-78982466D01*
X178734491Y-78966568D01*
X178812092Y-78916633D01*
X178864151Y-78840442D01*
X178882466Y-78750000D01*
X178882466Y-77750000D01*
X178866568Y-77665509D01*
X178816633Y-77587908D01*
X178740442Y-77535849D01*
X178650000Y-77517534D01*
X177350000Y-77517534D01*
X177265509Y-77533432D01*
X177187908Y-77583367D01*
X177135849Y-77659558D01*
X177117534Y-77750000D01*
X174784000Y-77750000D01*
X174784000Y-77524000D01*
X174638000Y-77378000D01*
X174075000Y-77378000D01*
X173825000Y-77378000D01*
X173262000Y-77378000D01*
X173116000Y-77524000D01*
X172932466Y-77524000D01*
X172932466Y-76750000D01*
X172916568Y-76665509D01*
X172908312Y-76652679D01*
X172916136Y-76633835D01*
X173116000Y-76633835D01*
X173116000Y-76876000D01*
X173262000Y-77022000D01*
X173825000Y-77022000D01*
X173825000Y-76312000D01*
X174075000Y-76312000D01*
X174075000Y-77022000D01*
X174638000Y-77022000D01*
X174784000Y-76876000D01*
X174784000Y-76633835D01*
X174695091Y-76419191D01*
X174530810Y-76254909D01*
X174316165Y-76166000D01*
X174221000Y-76166000D01*
X174075000Y-76312000D01*
X173825000Y-76312000D01*
X173679000Y-76166000D01*
X173583835Y-76166000D01*
X173369190Y-76254909D01*
X173204909Y-76419191D01*
X173116000Y-76633835D01*
X172916136Y-76633835D01*
X172927908Y-76605486D01*
X172928091Y-76395435D01*
X172847878Y-76201303D01*
X172810415Y-76163775D01*
X174967534Y-76119975D01*
X174967534Y-76200000D01*
X174983432Y-76284491D01*
X175033367Y-76362092D01*
X175109558Y-76414151D01*
X175200000Y-76432466D01*
X176400000Y-76432466D01*
X176484491Y-76416568D01*
X176562092Y-76366633D01*
X176614151Y-76290442D01*
X176622340Y-76250000D01*
X177117534Y-76250000D01*
X177117534Y-77250000D01*
X177133432Y-77334491D01*
X177183367Y-77412092D01*
X177259558Y-77464151D01*
X177350000Y-77482466D01*
X178650000Y-77482466D01*
X178734491Y-77466568D01*
X178812092Y-77416633D01*
X178864151Y-77340442D01*
X178882466Y-77250000D01*
X178882466Y-76250000D01*
X178866568Y-76165509D01*
X178816633Y-76087908D01*
X178740442Y-76035849D01*
X178650000Y-76017534D01*
X177350000Y-76017534D01*
X177265509Y-76033432D01*
X177187908Y-76083367D01*
X177135849Y-76159558D01*
X177117534Y-76250000D01*
X176622340Y-76250000D01*
X176632466Y-76200000D01*
X176632466Y-75300000D01*
X176616568Y-75215509D01*
X176566633Y-75137908D01*
X176490442Y-75085849D01*
X176400000Y-75067534D01*
X175200000Y-75067534D01*
X175115509Y-75083432D01*
X175037908Y-75133367D01*
X174995155Y-75195937D01*
X174806109Y-75006891D01*
X174925000Y-74888000D01*
X174925000Y-74178000D01*
X175175000Y-74178000D01*
X175175000Y-74888000D01*
X175321000Y-75034000D01*
X175416165Y-75034000D01*
X175630810Y-74945091D01*
X175795091Y-74780809D01*
X175807852Y-74750000D01*
X177117534Y-74750000D01*
X177117534Y-75750000D01*
X177133432Y-75834491D01*
X177183367Y-75912092D01*
X177259558Y-75964151D01*
X177350000Y-75982466D01*
X178650000Y-75982466D01*
X178734491Y-75966568D01*
X178812092Y-75916633D01*
X178864151Y-75840442D01*
X178882466Y-75750000D01*
X178882466Y-75603000D01*
X179203782Y-75603000D01*
X179850391Y-76249609D01*
X179964913Y-76326129D01*
X180100000Y-76353000D01*
X182917534Y-76353000D01*
X182917534Y-76850000D01*
X182933432Y-76934491D01*
X182983367Y-77012092D01*
X183059558Y-77064151D01*
X183150000Y-77082466D01*
X184850000Y-77082466D01*
X184934491Y-77066568D01*
X185012092Y-77016633D01*
X185064151Y-76940442D01*
X185082466Y-76850000D01*
X185082466Y-75150000D01*
X185066568Y-75065509D01*
X185016633Y-74987908D01*
X184940442Y-74935849D01*
X184850000Y-74917534D01*
X183150000Y-74917534D01*
X183065509Y-74933432D01*
X182987908Y-74983367D01*
X182935849Y-75059558D01*
X182917534Y-75150000D01*
X182917534Y-75647000D01*
X180246218Y-75647000D01*
X179599609Y-75000391D01*
X179485087Y-74923871D01*
X179350000Y-74897000D01*
X178882466Y-74897000D01*
X178882466Y-74750000D01*
X178866568Y-74665509D01*
X178816633Y-74587908D01*
X178740442Y-74535849D01*
X178650000Y-74517534D01*
X177350000Y-74517534D01*
X177265509Y-74533432D01*
X177187908Y-74583367D01*
X177135849Y-74659558D01*
X177117534Y-74750000D01*
X175807852Y-74750000D01*
X175884000Y-74566165D01*
X175884000Y-74324000D01*
X175738000Y-74178000D01*
X175175000Y-74178000D01*
X174925000Y-74178000D01*
X174362000Y-74178000D01*
X174216000Y-74324000D01*
X174216000Y-74416782D01*
X173233053Y-73433835D01*
X174216000Y-73433835D01*
X174216000Y-73676000D01*
X174362000Y-73822000D01*
X174925000Y-73822000D01*
X174925000Y-73112000D01*
X175175000Y-73112000D01*
X175175000Y-73822000D01*
X175738000Y-73822000D01*
X175884000Y-73676000D01*
X175884000Y-73433835D01*
X175795091Y-73219191D01*
X175630810Y-73054909D01*
X175416165Y-72966000D01*
X175321000Y-72966000D01*
X175175000Y-73112000D01*
X174925000Y-73112000D01*
X174779000Y-72966000D01*
X174683835Y-72966000D01*
X174469190Y-73054909D01*
X174304909Y-73219191D01*
X174216000Y-73433835D01*
X173233053Y-73433835D01*
X173053000Y-73253782D01*
X173053000Y-70752218D01*
X175150391Y-72849609D01*
X175264913Y-72926129D01*
X175400000Y-72953001D01*
X175400005Y-72953000D01*
X176197000Y-72953000D01*
X176197000Y-73345342D01*
X176137908Y-73383367D01*
X176085849Y-73459558D01*
X176067534Y-73550000D01*
X176067534Y-74450000D01*
X176083432Y-74534491D01*
X176133367Y-74612092D01*
X176209558Y-74664151D01*
X176300000Y-74682466D01*
X176800000Y-74682466D01*
X176884491Y-74666568D01*
X176962092Y-74616633D01*
X177014151Y-74540442D01*
X177032466Y-74450000D01*
X177032466Y-73550000D01*
X177016568Y-73465509D01*
X176966633Y-73387908D01*
X176903000Y-73344430D01*
X176903000Y-73250000D01*
X177117534Y-73250000D01*
X177117534Y-74250000D01*
X177133432Y-74334491D01*
X177183367Y-74412092D01*
X177259558Y-74464151D01*
X177350000Y-74482466D01*
X178650000Y-74482466D01*
X178734491Y-74466568D01*
X178812092Y-74416633D01*
X178864151Y-74340442D01*
X178882466Y-74250000D01*
X178882466Y-74103000D01*
X179103782Y-74103000D01*
X179550389Y-74549606D01*
X179550391Y-74549609D01*
X179626393Y-74600391D01*
X179664913Y-74626129D01*
X179800000Y-74653000D01*
X184753782Y-74653000D01*
X185593354Y-75492572D01*
X185544058Y-75566348D01*
X185462000Y-75978881D01*
X185462000Y-76021119D01*
X185544058Y-76433652D01*
X185777739Y-76783380D01*
X186127467Y-77017061D01*
X186540000Y-77099119D01*
X186952533Y-77017061D01*
X187302261Y-76783380D01*
X187535942Y-76433652D01*
X187618000Y-76021119D01*
X187618000Y-75978881D01*
X187535942Y-75566348D01*
X187302261Y-75216620D01*
X186952533Y-74982939D01*
X186540000Y-74900881D01*
X186127467Y-74982939D01*
X186100306Y-75001088D01*
X185149609Y-74050391D01*
X185035087Y-73973871D01*
X184900000Y-73947000D01*
X179946217Y-73947000D01*
X179499609Y-73500391D01*
X179385087Y-73423871D01*
X179250000Y-73397000D01*
X178882466Y-73397000D01*
X178882466Y-73250000D01*
X178866568Y-73165509D01*
X178816633Y-73087908D01*
X178740442Y-73035849D01*
X178650000Y-73017534D01*
X177350000Y-73017534D01*
X177265509Y-73033432D01*
X177187908Y-73083367D01*
X177135849Y-73159558D01*
X177117534Y-73250000D01*
X176903000Y-73250000D01*
X176903000Y-72750000D01*
X176876129Y-72614913D01*
X176799609Y-72500391D01*
X176649609Y-72350391D01*
X176535087Y-72273871D01*
X176400000Y-72247000D01*
X175546218Y-72247000D01*
X174272808Y-70973590D01*
X174884772Y-71227700D01*
X175572213Y-71228300D01*
X176207555Y-70965782D01*
X176694073Y-70480112D01*
X176789623Y-70250000D01*
X177117534Y-70250000D01*
X177117534Y-71250000D01*
X177133432Y-71334491D01*
X177183367Y-71412092D01*
X177259558Y-71464151D01*
X177350000Y-71482466D01*
X178650000Y-71482466D01*
X178734491Y-71466568D01*
X178812092Y-71416633D01*
X178864151Y-71340442D01*
X178882466Y-71250000D01*
X178882466Y-71081684D01*
X180350389Y-72549606D01*
X180350391Y-72549609D01*
X180461864Y-72624092D01*
X180464913Y-72626129D01*
X180569833Y-72647000D01*
X180146218Y-72647000D01*
X179499609Y-72000391D01*
X179385087Y-71923871D01*
X179250000Y-71897000D01*
X178882466Y-71897000D01*
X178882466Y-71750000D01*
X178866568Y-71665509D01*
X178816633Y-71587908D01*
X178740442Y-71535849D01*
X178650000Y-71517534D01*
X177350000Y-71517534D01*
X177265509Y-71533432D01*
X177187908Y-71583367D01*
X177135849Y-71659558D01*
X177117534Y-71750000D01*
X177117534Y-72750000D01*
X177133432Y-72834491D01*
X177183367Y-72912092D01*
X177259558Y-72964151D01*
X177350000Y-72982466D01*
X178650000Y-72982466D01*
X178734491Y-72966568D01*
X178812092Y-72916633D01*
X178864151Y-72840442D01*
X178882466Y-72750000D01*
X178882466Y-72603000D01*
X179103782Y-72603000D01*
X179750391Y-73249609D01*
X179864913Y-73326129D01*
X180000000Y-73353000D01*
X185453782Y-73353000D01*
X188014885Y-75914102D01*
X188002000Y-75978881D01*
X188002000Y-76021119D01*
X188084058Y-76433652D01*
X188317739Y-76783380D01*
X188667467Y-77017061D01*
X189080000Y-77099119D01*
X189492533Y-77017061D01*
X189842261Y-76783380D01*
X190075942Y-76433652D01*
X190158000Y-76021119D01*
X190158000Y-75978881D01*
X190075942Y-75566348D01*
X189842261Y-75216620D01*
X189492533Y-74982939D01*
X189080000Y-74900881D01*
X188667467Y-74982939D01*
X188317739Y-75216620D01*
X188316977Y-75217760D01*
X185849609Y-72750391D01*
X185735087Y-72673871D01*
X185630163Y-72653000D01*
X187953782Y-72653000D01*
X190721419Y-75420637D01*
X190624058Y-75566348D01*
X190542000Y-75978881D01*
X190542000Y-76021119D01*
X190624058Y-76433652D01*
X190857739Y-76783380D01*
X191207467Y-77017061D01*
X191620000Y-77099119D01*
X192032533Y-77017061D01*
X192382261Y-76783380D01*
X192568559Y-76504565D01*
X193371909Y-76504565D01*
X193452122Y-76698697D01*
X193600522Y-76847356D01*
X193794514Y-76927908D01*
X194004565Y-76928091D01*
X194198697Y-76847878D01*
X194347356Y-76699478D01*
X194427908Y-76505486D01*
X194428025Y-76371193D01*
X196549606Y-74249611D01*
X196549609Y-74249609D01*
X196626129Y-74135087D01*
X196628360Y-74123871D01*
X196653001Y-74000000D01*
X196653000Y-73999995D01*
X196653000Y-67382466D01*
X196800000Y-67382466D01*
X196884491Y-67366568D01*
X196962092Y-67316633D01*
X197014151Y-67240442D01*
X197032466Y-67150000D01*
X197032466Y-65850000D01*
X197016568Y-65765509D01*
X196966633Y-65687908D01*
X196890442Y-65635849D01*
X196800000Y-65617534D01*
X195800000Y-65617534D01*
X195715509Y-65633432D01*
X195637908Y-65683367D01*
X195585849Y-65759558D01*
X195567534Y-65850000D01*
X195567534Y-67150000D01*
X195583432Y-67234491D01*
X195633367Y-67312092D01*
X195709558Y-67364151D01*
X195800000Y-67382466D01*
X195947000Y-67382466D01*
X195947000Y-73853783D01*
X193928757Y-75872025D01*
X193795435Y-75871909D01*
X193601303Y-75952122D01*
X193452644Y-76100522D01*
X193372092Y-76294514D01*
X193371909Y-76504565D01*
X192568559Y-76504565D01*
X192615942Y-76433652D01*
X192698000Y-76021119D01*
X192698000Y-75978881D01*
X192615942Y-75566348D01*
X192382261Y-75216620D01*
X192032533Y-74982939D01*
X191620000Y-74900881D01*
X191269765Y-74970547D01*
X188349609Y-72050391D01*
X188235087Y-71973871D01*
X188100000Y-71947000D01*
X180746217Y-71947000D01*
X179249609Y-70450391D01*
X179135087Y-70373871D01*
X179000000Y-70347000D01*
X178882466Y-70347000D01*
X178882466Y-70250000D01*
X178866568Y-70165509D01*
X178816633Y-70087908D01*
X178740442Y-70035849D01*
X178650000Y-70017534D01*
X177350000Y-70017534D01*
X177265509Y-70033432D01*
X177187908Y-70083367D01*
X177135849Y-70159558D01*
X177117534Y-70250000D01*
X176789623Y-70250000D01*
X176957700Y-69845228D01*
X176958300Y-69157787D01*
X176789806Y-68750000D01*
X177117534Y-68750000D01*
X177117534Y-69750000D01*
X177133432Y-69834491D01*
X177183367Y-69912092D01*
X177259558Y-69964151D01*
X177350000Y-69982466D01*
X178650000Y-69982466D01*
X178734491Y-69966568D01*
X178812092Y-69916633D01*
X178864151Y-69840442D01*
X178882466Y-69750000D01*
X178882466Y-69728881D01*
X181762000Y-69728881D01*
X181762000Y-69771119D01*
X181844058Y-70183652D01*
X182077739Y-70533380D01*
X182427467Y-70767061D01*
X182840000Y-70849119D01*
X183252533Y-70767061D01*
X183602261Y-70533380D01*
X183835942Y-70183652D01*
X183918000Y-69771119D01*
X183918000Y-69728881D01*
X184302000Y-69728881D01*
X184302000Y-69771119D01*
X184384058Y-70183652D01*
X184617739Y-70533380D01*
X184967467Y-70767061D01*
X185380000Y-70849119D01*
X185792533Y-70767061D01*
X186142261Y-70533380D01*
X186375942Y-70183652D01*
X186382953Y-70148403D01*
X186542440Y-70148403D01*
X186799763Y-70645246D01*
X187227632Y-71005796D01*
X187521599Y-71127546D01*
X187742000Y-71025641D01*
X187742000Y-69928000D01*
X188098000Y-69928000D01*
X188098000Y-71025641D01*
X188318401Y-71127546D01*
X188612368Y-71005796D01*
X189040237Y-70645246D01*
X189297560Y-70148403D01*
X189196924Y-69928000D01*
X188098000Y-69928000D01*
X187742000Y-69928000D01*
X186643076Y-69928000D01*
X186542440Y-70148403D01*
X186382953Y-70148403D01*
X186458000Y-69771119D01*
X186458000Y-69728881D01*
X189382000Y-69728881D01*
X189382000Y-69771119D01*
X189464058Y-70183652D01*
X189697739Y-70533380D01*
X190047467Y-70767061D01*
X190460000Y-70849119D01*
X190872533Y-70767061D01*
X191222261Y-70533380D01*
X191455942Y-70183652D01*
X191538000Y-69771119D01*
X191538000Y-69728881D01*
X191455942Y-69316348D01*
X191222261Y-68966620D01*
X190872533Y-68732939D01*
X190460000Y-68650881D01*
X190047467Y-68732939D01*
X189697739Y-68966620D01*
X189464058Y-69316348D01*
X189382000Y-69728881D01*
X186458000Y-69728881D01*
X186382954Y-69351597D01*
X186542440Y-69351597D01*
X186643076Y-69572000D01*
X187742000Y-69572000D01*
X187742000Y-68474359D01*
X188098000Y-68474359D01*
X188098000Y-69572000D01*
X189196924Y-69572000D01*
X189297560Y-69351597D01*
X189040237Y-68854754D01*
X188612368Y-68494204D01*
X188318401Y-68372454D01*
X188098000Y-68474359D01*
X187742000Y-68474359D01*
X187521599Y-68372454D01*
X187227632Y-68494204D01*
X186799763Y-68854754D01*
X186542440Y-69351597D01*
X186382954Y-69351597D01*
X186375942Y-69316348D01*
X186142261Y-68966620D01*
X185792533Y-68732939D01*
X185380000Y-68650881D01*
X184967467Y-68732939D01*
X184617739Y-68966620D01*
X184384058Y-69316348D01*
X184302000Y-69728881D01*
X183918000Y-69728881D01*
X183835942Y-69316348D01*
X183602261Y-68966620D01*
X183252533Y-68732939D01*
X182840000Y-68650881D01*
X182427467Y-68732939D01*
X182077739Y-68966620D01*
X181844058Y-69316348D01*
X181762000Y-69728881D01*
X178882466Y-69728881D01*
X178882466Y-68750000D01*
X178866568Y-68665509D01*
X178816633Y-68587908D01*
X178740442Y-68535849D01*
X178650000Y-68517534D01*
X177350000Y-68517534D01*
X177265509Y-68533432D01*
X177187908Y-68583367D01*
X177135849Y-68659558D01*
X177117534Y-68750000D01*
X176789806Y-68750000D01*
X176695782Y-68522445D01*
X176210112Y-68035927D01*
X175965050Y-67934168D01*
X176771242Y-67127975D01*
X176904565Y-67128091D01*
X177098697Y-67047878D01*
X177247356Y-66899478D01*
X177327908Y-66705486D01*
X177328091Y-66495435D01*
X177315677Y-66465390D01*
X177400000Y-66482466D01*
X178200000Y-66482466D01*
X178284491Y-66466568D01*
X178362092Y-66416633D01*
X178414151Y-66340442D01*
X178432466Y-66250000D01*
X178432466Y-65666752D01*
X178446218Y-65653000D01*
X178749483Y-65653000D01*
X178716000Y-65733835D01*
X178716000Y-66176000D01*
X178862000Y-66322000D01*
X179622000Y-66322000D01*
X179622000Y-66302000D01*
X179978000Y-66302000D01*
X179978000Y-66322000D01*
X179998000Y-66322000D01*
X179998000Y-66678000D01*
X179978000Y-66678000D01*
X179978000Y-66698000D01*
X179622000Y-66698000D01*
X179622000Y-66678000D01*
X178862000Y-66678000D01*
X178716000Y-66824000D01*
X178716000Y-67030899D01*
X178650000Y-67017534D01*
X177350000Y-67017534D01*
X177265509Y-67033432D01*
X177187908Y-67083367D01*
X177135849Y-67159558D01*
X177117534Y-67250000D01*
X177117534Y-68250000D01*
X177133432Y-68334491D01*
X177183367Y-68412092D01*
X177259558Y-68464151D01*
X177350000Y-68482466D01*
X178650000Y-68482466D01*
X178734491Y-68466568D01*
X178812092Y-68416633D01*
X178864151Y-68340442D01*
X178882466Y-68250000D01*
X178882466Y-67558367D01*
X178969191Y-67645091D01*
X179183835Y-67734000D01*
X179476000Y-67734000D01*
X179612287Y-67597713D01*
X179572092Y-67694514D01*
X179571909Y-67904565D01*
X179652122Y-68098697D01*
X179800522Y-68247356D01*
X179994514Y-68327908D01*
X180204565Y-68328091D01*
X180398697Y-68247878D01*
X180493741Y-68153000D01*
X180900000Y-68153000D01*
X181035087Y-68126129D01*
X181149609Y-68049609D01*
X181250000Y-67949217D01*
X181250389Y-67949606D01*
X181250391Y-67949609D01*
X181350604Y-68016568D01*
X181364913Y-68026129D01*
X181500000Y-68053001D01*
X181500005Y-68053000D01*
X191553782Y-68053000D01*
X192168317Y-68667534D01*
X192150000Y-68667534D01*
X192065509Y-68683432D01*
X191987908Y-68733367D01*
X191935849Y-68809558D01*
X191917534Y-68900000D01*
X191917534Y-70600000D01*
X191933432Y-70684491D01*
X191983367Y-70762092D01*
X192059558Y-70814151D01*
X192150000Y-70832466D01*
X193850000Y-70832466D01*
X193934491Y-70816568D01*
X194012092Y-70766633D01*
X194064151Y-70690442D01*
X194082466Y-70600000D01*
X194082466Y-68900000D01*
X194066568Y-68815509D01*
X194016633Y-68737908D01*
X193940442Y-68685849D01*
X193850000Y-68667534D01*
X193166751Y-68667534D01*
X191949609Y-67450391D01*
X191847951Y-67382466D01*
X192300000Y-67382466D01*
X192384491Y-67366568D01*
X192462092Y-67316633D01*
X192514151Y-67240442D01*
X192532466Y-67150000D01*
X192532466Y-65850000D01*
X192529455Y-65834000D01*
X192570774Y-65834000D01*
X192567534Y-65850000D01*
X192567534Y-67150000D01*
X192583432Y-67234491D01*
X192633367Y-67312092D01*
X192709558Y-67364151D01*
X192800000Y-67382466D01*
X193800000Y-67382466D01*
X193884491Y-67366568D01*
X193962092Y-67316633D01*
X194014151Y-67240442D01*
X194032466Y-67150000D01*
X194032466Y-65850000D01*
X194029455Y-65834000D01*
X194070774Y-65834000D01*
X194067534Y-65850000D01*
X194067534Y-67150000D01*
X194083432Y-67234491D01*
X194133367Y-67312092D01*
X194209558Y-67364151D01*
X194300000Y-67382466D01*
X195300000Y-67382466D01*
X195384491Y-67366568D01*
X195462092Y-67316633D01*
X195514151Y-67240442D01*
X195532466Y-67150000D01*
X195532466Y-65850000D01*
X195516568Y-65765509D01*
X195466633Y-65687908D01*
X195390442Y-65635849D01*
X195300000Y-65617534D01*
X194908366Y-65617534D01*
X194945091Y-65580809D01*
X195034000Y-65366165D01*
X195034000Y-64324000D01*
X194888000Y-64178000D01*
X193653000Y-64178000D01*
X193653000Y-64198000D01*
X193297000Y-64198000D01*
X193297000Y-64178000D01*
X193277000Y-64178000D01*
X193277000Y-63822000D01*
X193297000Y-63822000D01*
X193297000Y-63802000D01*
X193653000Y-63802000D01*
X193653000Y-63822000D01*
X194888000Y-63822000D01*
X195034000Y-63676000D01*
X195034000Y-62750000D01*
X195317534Y-62750000D01*
X195317534Y-65250000D01*
X195333432Y-65334491D01*
X195383367Y-65412092D01*
X195459558Y-65464151D01*
X195550000Y-65482466D01*
X197500000Y-65482466D01*
X197584491Y-65466568D01*
X197662092Y-65416633D01*
X197714151Y-65340442D01*
X197732466Y-65250000D01*
X197732466Y-62750000D01*
X197716568Y-62665509D01*
X197666633Y-62587908D01*
X197590442Y-62535849D01*
X197500000Y-62517534D01*
X195550000Y-62517534D01*
X195465509Y-62533432D01*
X195387908Y-62583367D01*
X195335849Y-62659558D01*
X195317534Y-62750000D01*
X195034000Y-62750000D01*
X195034000Y-62633835D01*
X194946825Y-62423376D01*
X198023571Y-62279653D01*
X198005625Y-65617534D01*
G36*
X171722022Y-72583356D02*
X171916014Y-72663908D01*
X172126065Y-72664091D01*
X172320197Y-72583878D01*
X172347000Y-72557122D01*
X172347000Y-73400000D01*
X172373871Y-73535087D01*
X172450391Y-73649609D01*
X174229596Y-75428814D01*
X166335692Y-75589096D01*
X166199478Y-75452644D01*
X166005486Y-75372092D01*
X165795435Y-75371909D01*
X165601303Y-75452122D01*
X165452644Y-75600522D01*
X165372092Y-75794514D01*
X165371909Y-76004565D01*
X165452122Y-76198697D01*
X165600522Y-76347356D01*
X165794514Y-76427908D01*
X166004565Y-76428091D01*
X166198697Y-76347878D01*
X166249676Y-76296988D01*
X169055125Y-76240024D01*
X169019190Y-76254909D01*
X168854909Y-76419191D01*
X168766000Y-76633835D01*
X168766000Y-77676000D01*
X168912000Y-77822000D01*
X170147000Y-77822000D01*
X170147000Y-77802000D01*
X170503000Y-77802000D01*
X170503000Y-77822000D01*
X171738000Y-77822000D01*
X171884000Y-77676000D01*
X171884000Y-76633835D01*
X171795091Y-76419191D01*
X171630810Y-76254909D01*
X171476196Y-76190865D01*
X171972410Y-76180790D01*
X171952644Y-76200522D01*
X171872092Y-76394514D01*
X171871909Y-76604565D01*
X171952122Y-76798697D01*
X171967534Y-76814136D01*
X171967534Y-77650000D01*
X171983432Y-77734491D01*
X172033367Y-77812092D01*
X172097000Y-77855570D01*
X172097000Y-78545342D01*
X172037908Y-78583367D01*
X171985849Y-78659558D01*
X171967534Y-78750000D01*
X171967534Y-79596005D01*
X171787687Y-79588213D01*
X171795091Y-79580809D01*
X171884000Y-79366165D01*
X171884000Y-78324000D01*
X171738000Y-78178000D01*
X170503000Y-78178000D01*
X170503000Y-78198000D01*
X170147000Y-78198000D01*
X170147000Y-78178000D01*
X168912000Y-78178000D01*
X168766000Y-78324000D01*
X168766000Y-79366165D01*
X168804435Y-79458956D01*
X168375221Y-79440359D01*
X168412092Y-79416633D01*
X168464151Y-79340442D01*
X168482466Y-79250000D01*
X168482466Y-76750000D01*
X168466568Y-76665509D01*
X168416633Y-76587908D01*
X168340442Y-76535849D01*
X168250000Y-76517534D01*
X166300000Y-76517534D01*
X166215509Y-76533432D01*
X166137908Y-76583367D01*
X166085849Y-76659558D01*
X166067534Y-76750000D01*
X166067534Y-78597000D01*
X165654658Y-78597000D01*
X165616633Y-78537908D01*
X165540442Y-78485849D01*
X165450000Y-78467534D01*
X164550000Y-78467534D01*
X164465509Y-78483432D01*
X164387908Y-78533367D01*
X164359000Y-78575675D01*
X164359000Y-78471998D01*
X164241002Y-78471998D01*
X164359000Y-78354000D01*
X164359000Y-78233835D01*
X164270091Y-78019191D01*
X164105810Y-77854909D01*
X163891165Y-77766000D01*
X163524000Y-77766000D01*
X163378000Y-77912000D01*
X163378000Y-78500000D01*
X163398000Y-78500000D01*
X163398000Y-78800000D01*
X163378000Y-78800000D01*
X163378000Y-78848000D01*
X163022000Y-78848000D01*
X163022000Y-78800000D01*
X162187000Y-78800000D01*
X162041000Y-78946000D01*
X162041000Y-79066165D01*
X162083072Y-79167736D01*
X161309747Y-79134229D01*
X161337092Y-79116633D01*
X161389151Y-79040442D01*
X161407466Y-78950000D01*
X161407466Y-78350000D01*
X161391568Y-78265509D01*
X161371187Y-78233835D01*
X162041000Y-78233835D01*
X162041000Y-78354000D01*
X162187000Y-78500000D01*
X163022000Y-78500000D01*
X163022000Y-77912000D01*
X162876000Y-77766000D01*
X162508835Y-77766000D01*
X162294190Y-77854909D01*
X162129909Y-78019191D01*
X162041000Y-78233835D01*
X161371187Y-78233835D01*
X161341633Y-78187908D01*
X161323395Y-78175447D01*
X161337092Y-78166633D01*
X161389151Y-78090442D01*
X161407466Y-78000000D01*
X161407466Y-77400000D01*
X161391568Y-77315509D01*
X161341633Y-77237908D01*
X161323395Y-77225447D01*
X161337092Y-77216633D01*
X161389151Y-77140442D01*
X161407466Y-77050000D01*
X161407466Y-76450000D01*
X161391568Y-76365509D01*
X161341633Y-76287908D01*
X161265442Y-76235849D01*
X161175000Y-76217534D01*
X160953000Y-76217534D01*
X160953000Y-75279658D01*
X160992205Y-75254430D01*
X161054909Y-75405809D01*
X161219190Y-75570091D01*
X161433835Y-75659000D01*
X161626000Y-75659000D01*
X161771998Y-75513002D01*
X161771998Y-75628784D01*
X161750391Y-75650391D01*
X161744004Y-75659950D01*
X161734876Y-75666937D01*
X161705950Y-75716903D01*
X161673871Y-75764913D01*
X161671628Y-75776189D01*
X161665869Y-75786137D01*
X161658266Y-75843365D01*
X161647000Y-75900000D01*
X161649243Y-75911276D01*
X161647729Y-75922671D01*
X161674508Y-76338779D01*
X161604644Y-76408522D01*
X161524092Y-76602514D01*
X161523909Y-76812565D01*
X161604122Y-77006697D01*
X161752522Y-77155356D01*
X161946514Y-77235908D01*
X162156565Y-77236091D01*
X162350697Y-77155878D01*
X162402690Y-77103975D01*
X162408432Y-77134491D01*
X162458367Y-77212092D01*
X162534558Y-77264151D01*
X162625000Y-77282466D01*
X163775000Y-77282466D01*
X163859491Y-77266568D01*
X163937092Y-77216633D01*
X163989151Y-77140442D01*
X163996733Y-77103000D01*
X164050000Y-77103000D01*
X164185087Y-77076129D01*
X164299609Y-76999609D01*
X164471243Y-76827975D01*
X164528807Y-76828025D01*
X164647000Y-76946218D01*
X164647000Y-76967534D01*
X164550000Y-76967534D01*
X164465509Y-76983432D01*
X164387908Y-77033367D01*
X164335849Y-77109558D01*
X164317534Y-77200000D01*
X164317534Y-77700000D01*
X164333432Y-77784491D01*
X164383367Y-77862092D01*
X164459558Y-77914151D01*
X164550000Y-77932466D01*
X165450000Y-77932466D01*
X165534491Y-77916568D01*
X165612092Y-77866633D01*
X165664151Y-77790442D01*
X165682466Y-77700000D01*
X165682466Y-77200000D01*
X165666568Y-77115509D01*
X165616633Y-77037908D01*
X165540442Y-76985849D01*
X165450000Y-76967534D01*
X165353000Y-76967534D01*
X165353000Y-76800005D01*
X165353001Y-76800000D01*
X165326129Y-76664913D01*
X165249609Y-76550391D01*
X165027975Y-76328757D01*
X165028091Y-76195435D01*
X164947878Y-76001303D01*
X164799478Y-75852644D01*
X164605486Y-75772092D01*
X164395435Y-75771909D01*
X164201303Y-75852122D01*
X164052644Y-76000522D01*
X163972092Y-76194514D01*
X163971975Y-76328807D01*
X163969526Y-76331256D01*
X163941633Y-76287908D01*
X163865442Y-76235849D01*
X163775000Y-76217534D01*
X162625000Y-76217534D01*
X162540509Y-76233432D01*
X162462908Y-76283367D01*
X162426847Y-76336144D01*
X162378694Y-76287908D01*
X162370012Y-76153000D01*
X163700000Y-76153000D01*
X163835087Y-76126129D01*
X163949609Y-76049609D01*
X166071242Y-73927975D01*
X166204565Y-73928091D01*
X166398697Y-73847878D01*
X166547356Y-73699478D01*
X166627908Y-73505486D01*
X166628091Y-73295435D01*
X166547878Y-73101303D01*
X166399833Y-72953000D01*
X166453782Y-72953000D01*
X167450391Y-73949609D01*
X167564913Y-74026129D01*
X167700000Y-74053000D01*
X170800000Y-74053000D01*
X170935087Y-74026129D01*
X171049609Y-73949609D01*
X171171243Y-73827975D01*
X171304565Y-73828091D01*
X171498697Y-73747878D01*
X171647356Y-73599478D01*
X171727908Y-73405486D01*
X171728091Y-73195435D01*
X171647878Y-73001303D01*
X171499478Y-72852644D01*
X171305486Y-72772092D01*
X171095435Y-72771909D01*
X170901303Y-72852122D01*
X170752644Y-73000522D01*
X170672092Y-73194514D01*
X170671975Y-73328807D01*
X170653782Y-73347000D01*
X167846218Y-73347000D01*
X166939418Y-72440200D01*
X171579115Y-72440200D01*
X171722022Y-72583356D01*
X171722022Y-72583356D01*
G37*
X171722022Y-72583356D02*
X171916014Y-72663908D01*
X172126065Y-72664091D01*
X172320197Y-72583878D01*
X172347000Y-72557122D01*
X172347000Y-73400000D01*
X172373871Y-73535087D01*
X172450391Y-73649609D01*
X174229596Y-75428814D01*
X166335692Y-75589096D01*
X166199478Y-75452644D01*
X166005486Y-75372092D01*
X165795435Y-75371909D01*
X165601303Y-75452122D01*
X165452644Y-75600522D01*
X165372092Y-75794514D01*
X165371909Y-76004565D01*
X165452122Y-76198697D01*
X165600522Y-76347356D01*
X165794514Y-76427908D01*
X166004565Y-76428091D01*
X166198697Y-76347878D01*
X166249676Y-76296988D01*
X169055125Y-76240024D01*
X169019190Y-76254909D01*
X168854909Y-76419191D01*
X168766000Y-76633835D01*
X168766000Y-77676000D01*
X168912000Y-77822000D01*
X170147000Y-77822000D01*
X170147000Y-77802000D01*
X170503000Y-77802000D01*
X170503000Y-77822000D01*
X171738000Y-77822000D01*
X171884000Y-77676000D01*
X171884000Y-76633835D01*
X171795091Y-76419191D01*
X171630810Y-76254909D01*
X171476196Y-76190865D01*
X171972410Y-76180790D01*
X171952644Y-76200522D01*
X171872092Y-76394514D01*
X171871909Y-76604565D01*
X171952122Y-76798697D01*
X171967534Y-76814136D01*
X171967534Y-77650000D01*
X171983432Y-77734491D01*
X172033367Y-77812092D01*
X172097000Y-77855570D01*
X172097000Y-78545342D01*
X172037908Y-78583367D01*
X171985849Y-78659558D01*
X171967534Y-78750000D01*
X171967534Y-79596005D01*
X171787687Y-79588213D01*
X171795091Y-79580809D01*
X171884000Y-79366165D01*
X171884000Y-78324000D01*
X171738000Y-78178000D01*
X170503000Y-78178000D01*
X170503000Y-78198000D01*
X170147000Y-78198000D01*
X170147000Y-78178000D01*
X168912000Y-78178000D01*
X168766000Y-78324000D01*
X168766000Y-79366165D01*
X168804435Y-79458956D01*
X168375221Y-79440359D01*
X168412092Y-79416633D01*
X168464151Y-79340442D01*
X168482466Y-79250000D01*
X168482466Y-76750000D01*
X168466568Y-76665509D01*
X168416633Y-76587908D01*
X168340442Y-76535849D01*
X168250000Y-76517534D01*
X166300000Y-76517534D01*
X166215509Y-76533432D01*
X166137908Y-76583367D01*
X166085849Y-76659558D01*
X166067534Y-76750000D01*
X166067534Y-78597000D01*
X165654658Y-78597000D01*
X165616633Y-78537908D01*
X165540442Y-78485849D01*
X165450000Y-78467534D01*
X164550000Y-78467534D01*
X164465509Y-78483432D01*
X164387908Y-78533367D01*
X164359000Y-78575675D01*
X164359000Y-78471998D01*
X164241002Y-78471998D01*
X164359000Y-78354000D01*
X164359000Y-78233835D01*
X164270091Y-78019191D01*
X164105810Y-77854909D01*
X163891165Y-77766000D01*
X163524000Y-77766000D01*
X163378000Y-77912000D01*
X163378000Y-78500000D01*
X163398000Y-78500000D01*
X163398000Y-78800000D01*
X163378000Y-78800000D01*
X163378000Y-78848000D01*
X163022000Y-78848000D01*
X163022000Y-78800000D01*
X162187000Y-78800000D01*
X162041000Y-78946000D01*
X162041000Y-79066165D01*
X162083072Y-79167736D01*
X161309747Y-79134229D01*
X161337092Y-79116633D01*
X161389151Y-79040442D01*
X161407466Y-78950000D01*
X161407466Y-78350000D01*
X161391568Y-78265509D01*
X161371187Y-78233835D01*
X162041000Y-78233835D01*
X162041000Y-78354000D01*
X162187000Y-78500000D01*
X163022000Y-78500000D01*
X163022000Y-77912000D01*
X162876000Y-77766000D01*
X162508835Y-77766000D01*
X162294190Y-77854909D01*
X162129909Y-78019191D01*
X162041000Y-78233835D01*
X161371187Y-78233835D01*
X161341633Y-78187908D01*
X161323395Y-78175447D01*
X161337092Y-78166633D01*
X161389151Y-78090442D01*
X161407466Y-78000000D01*
X161407466Y-77400000D01*
X161391568Y-77315509D01*
X161341633Y-77237908D01*
X161323395Y-77225447D01*
X161337092Y-77216633D01*
X161389151Y-77140442D01*
X161407466Y-77050000D01*
X161407466Y-76450000D01*
X161391568Y-76365509D01*
X161341633Y-76287908D01*
X161265442Y-76235849D01*
X161175000Y-76217534D01*
X160953000Y-76217534D01*
X160953000Y-75279658D01*
X160992205Y-75254430D01*
X161054909Y-75405809D01*
X161219190Y-75570091D01*
X161433835Y-75659000D01*
X161626000Y-75659000D01*
X161771998Y-75513002D01*
X161771998Y-75628784D01*
X161750391Y-75650391D01*
X161744004Y-75659950D01*
X161734876Y-75666937D01*
X161705950Y-75716903D01*
X161673871Y-75764913D01*
X161671628Y-75776189D01*
X161665869Y-75786137D01*
X161658266Y-75843365D01*
X161647000Y-75900000D01*
X161649243Y-75911276D01*
X161647729Y-75922671D01*
X161674508Y-76338779D01*
X161604644Y-76408522D01*
X161524092Y-76602514D01*
X161523909Y-76812565D01*
X161604122Y-77006697D01*
X161752522Y-77155356D01*
X161946514Y-77235908D01*
X162156565Y-77236091D01*
X162350697Y-77155878D01*
X162402690Y-77103975D01*
X162408432Y-77134491D01*
X162458367Y-77212092D01*
X162534558Y-77264151D01*
X162625000Y-77282466D01*
X163775000Y-77282466D01*
X163859491Y-77266568D01*
X163937092Y-77216633D01*
X163989151Y-77140442D01*
X163996733Y-77103000D01*
X164050000Y-77103000D01*
X164185087Y-77076129D01*
X164299609Y-76999609D01*
X164471243Y-76827975D01*
X164528807Y-76828025D01*
X164647000Y-76946218D01*
X164647000Y-76967534D01*
X164550000Y-76967534D01*
X164465509Y-76983432D01*
X164387908Y-77033367D01*
X164335849Y-77109558D01*
X164317534Y-77200000D01*
X164317534Y-77700000D01*
X164333432Y-77784491D01*
X164383367Y-77862092D01*
X164459558Y-77914151D01*
X164550000Y-77932466D01*
X165450000Y-77932466D01*
X165534491Y-77916568D01*
X165612092Y-77866633D01*
X165664151Y-77790442D01*
X165682466Y-77700000D01*
X165682466Y-77200000D01*
X165666568Y-77115509D01*
X165616633Y-77037908D01*
X165540442Y-76985849D01*
X165450000Y-76967534D01*
X165353000Y-76967534D01*
X165353000Y-76800005D01*
X165353001Y-76800000D01*
X165326129Y-76664913D01*
X165249609Y-76550391D01*
X165027975Y-76328757D01*
X165028091Y-76195435D01*
X164947878Y-76001303D01*
X164799478Y-75852644D01*
X164605486Y-75772092D01*
X164395435Y-75771909D01*
X164201303Y-75852122D01*
X164052644Y-76000522D01*
X163972092Y-76194514D01*
X163971975Y-76328807D01*
X163969526Y-76331256D01*
X163941633Y-76287908D01*
X163865442Y-76235849D01*
X163775000Y-76217534D01*
X162625000Y-76217534D01*
X162540509Y-76233432D01*
X162462908Y-76283367D01*
X162426847Y-76336144D01*
X162378694Y-76287908D01*
X162370012Y-76153000D01*
X163700000Y-76153000D01*
X163835087Y-76126129D01*
X163949609Y-76049609D01*
X166071242Y-73927975D01*
X166204565Y-73928091D01*
X166398697Y-73847878D01*
X166547356Y-73699478D01*
X166627908Y-73505486D01*
X166628091Y-73295435D01*
X166547878Y-73101303D01*
X166399833Y-72953000D01*
X166453782Y-72953000D01*
X167450391Y-73949609D01*
X167564913Y-74026129D01*
X167700000Y-74053000D01*
X170800000Y-74053000D01*
X170935087Y-74026129D01*
X171049609Y-73949609D01*
X171171243Y-73827975D01*
X171304565Y-73828091D01*
X171498697Y-73747878D01*
X171647356Y-73599478D01*
X171727908Y-73405486D01*
X171728091Y-73195435D01*
X171647878Y-73001303D01*
X171499478Y-72852644D01*
X171305486Y-72772092D01*
X171095435Y-72771909D01*
X170901303Y-72852122D01*
X170752644Y-73000522D01*
X170672092Y-73194514D01*
X170671975Y-73328807D01*
X170653782Y-73347000D01*
X167846218Y-73347000D01*
X166939418Y-72440200D01*
X171579115Y-72440200D01*
X171722022Y-72583356D01*
G36*
X157667534Y-72225000D02*
X157667534Y-72475000D01*
X157683432Y-72559491D01*
X157709481Y-72599972D01*
X157685849Y-72634558D01*
X157667534Y-72725000D01*
X157667534Y-72975000D01*
X157683432Y-73059491D01*
X157733367Y-73137092D01*
X157809558Y-73189151D01*
X157900000Y-73207466D01*
X159200000Y-73207466D01*
X159223735Y-73203000D01*
X159350000Y-73203000D01*
X159383363Y-73196363D01*
X159412000Y-73225000D01*
X160122000Y-73225000D01*
X160122000Y-73152000D01*
X160478000Y-73152000D01*
X160478000Y-73225000D01*
X161188000Y-73225000D01*
X161334000Y-73079000D01*
X161334000Y-72983835D01*
X161321228Y-72953000D01*
X163218712Y-72953000D01*
X163196874Y-72974800D01*
X161925000Y-72974800D01*
X161808588Y-72997956D01*
X161748795Y-73037908D01*
X161709898Y-73063898D01*
X161243398Y-73530398D01*
X161188000Y-73475000D01*
X160478000Y-73475000D01*
X160478000Y-73548000D01*
X160122000Y-73548000D01*
X160122000Y-73475000D01*
X159412000Y-73475000D01*
X159266000Y-73621000D01*
X159266000Y-73716165D01*
X159354909Y-73930810D01*
X159519191Y-74095091D01*
X159733835Y-74184000D01*
X159870394Y-74184000D01*
X159835849Y-74234558D01*
X159817534Y-74325000D01*
X159817534Y-75075000D01*
X159833432Y-75159491D01*
X159883367Y-75237092D01*
X159959558Y-75289151D01*
X160050000Y-75307466D01*
X160247000Y-75307466D01*
X160247000Y-76217534D01*
X160025000Y-76217534D01*
X159940509Y-76233432D01*
X159862908Y-76283367D01*
X159810849Y-76359558D01*
X159792534Y-76450000D01*
X159792534Y-77050000D01*
X159808432Y-77134491D01*
X159858367Y-77212092D01*
X159876605Y-77224553D01*
X159862908Y-77233367D01*
X159810849Y-77309558D01*
X159803267Y-77347000D01*
X159450005Y-77347000D01*
X159450000Y-77346999D01*
X159314913Y-77373871D01*
X159200391Y-77450391D01*
X158683248Y-77967534D01*
X158316751Y-77967534D01*
X157399609Y-77050391D01*
X157285087Y-76973871D01*
X157232466Y-76963404D01*
X157232466Y-76583189D01*
X157240876Y-76574999D01*
X157255523Y-76540926D01*
X157276129Y-76510087D01*
X157282458Y-76478271D01*
X157295272Y-76448462D01*
X157295765Y-76411373D01*
X157303000Y-76375000D01*
X157303000Y-75122054D01*
X157307466Y-75100000D01*
X157307466Y-74900000D01*
X157667534Y-74900000D01*
X157667534Y-75800000D01*
X157683432Y-75884491D01*
X157733367Y-75962092D01*
X157809558Y-76014151D01*
X157900000Y-76032466D01*
X159100000Y-76032466D01*
X159184491Y-76016568D01*
X159262092Y-75966633D01*
X159314151Y-75890442D01*
X159332466Y-75800000D01*
X159332466Y-74900000D01*
X159316568Y-74815509D01*
X159266633Y-74737908D01*
X159190442Y-74685849D01*
X159100000Y-74667534D01*
X157900000Y-74667534D01*
X157815509Y-74683432D01*
X157737908Y-74733367D01*
X157685849Y-74809558D01*
X157667534Y-74900000D01*
X157307466Y-74900000D01*
X157307466Y-73800000D01*
X157291568Y-73715509D01*
X157241633Y-73637908D01*
X157165442Y-73585849D01*
X157114107Y-73575453D01*
X157070091Y-73469190D01*
X156905809Y-73304909D01*
X156691165Y-73216000D01*
X156658500Y-73216000D01*
X156512500Y-73362000D01*
X156512500Y-74272000D01*
X156575000Y-74272000D01*
X156575000Y-74628000D01*
X156512500Y-74628000D01*
X156512500Y-75538000D01*
X156597000Y-75622500D01*
X156597000Y-75817534D01*
X155050000Y-75817534D01*
X154965509Y-75833432D01*
X154887908Y-75883367D01*
X154835849Y-75959558D01*
X154817534Y-76050000D01*
X154817534Y-78550000D01*
X154833432Y-78634491D01*
X154883367Y-78712092D01*
X154959558Y-78764151D01*
X155050000Y-78782466D01*
X157000000Y-78782466D01*
X157084491Y-78766568D01*
X157162092Y-78716633D01*
X157214151Y-78640442D01*
X157232466Y-78550000D01*
X157232466Y-77881684D01*
X157667534Y-78316751D01*
X157667534Y-78976421D01*
X154462999Y-78837576D01*
X154534000Y-78666165D01*
X154534000Y-77624000D01*
X154388000Y-77478000D01*
X153153000Y-77478000D01*
X153153000Y-77498000D01*
X152797000Y-77498000D01*
X152797000Y-77478000D01*
X152777000Y-77478000D01*
X152777000Y-77122000D01*
X152797000Y-77122000D01*
X152797000Y-77102000D01*
X153153000Y-77102000D01*
X153153000Y-77122000D01*
X154388000Y-77122000D01*
X154534000Y-76976000D01*
X154534000Y-75933835D01*
X154445091Y-75719191D01*
X154281913Y-75556012D01*
X154303000Y-75450000D01*
X154303000Y-75328011D01*
X154325000Y-75332466D01*
X154575000Y-75332466D01*
X154659491Y-75316568D01*
X154699972Y-75290519D01*
X154734558Y-75314151D01*
X154825000Y-75332466D01*
X155075000Y-75332466D01*
X155159491Y-75316568D01*
X155199972Y-75290519D01*
X155234558Y-75314151D01*
X155325000Y-75332466D01*
X155575000Y-75332466D01*
X155659491Y-75316568D01*
X155699972Y-75290519D01*
X155734558Y-75314151D01*
X155785893Y-75324547D01*
X155829909Y-75430810D01*
X155994191Y-75595091D01*
X156208835Y-75684000D01*
X156241500Y-75684000D01*
X156387500Y-75538000D01*
X156387500Y-74628000D01*
X156325000Y-74628000D01*
X156325000Y-74272000D01*
X156387500Y-74272000D01*
X156387500Y-73362000D01*
X156241500Y-73216000D01*
X156208835Y-73216000D01*
X156142638Y-73243420D01*
X156127975Y-73228757D01*
X156128091Y-73095435D01*
X156047878Y-72901303D01*
X155899478Y-72752644D01*
X155705486Y-72672092D01*
X155510880Y-72671922D01*
X155531408Y-72622486D01*
X155531591Y-72412435D01*
X155451378Y-72218303D01*
X155450975Y-72217899D01*
X157671133Y-72207228D01*
X157667534Y-72225000D01*
X157667534Y-72225000D01*
G37*
X157667534Y-72225000D02*
X157667534Y-72475000D01*
X157683432Y-72559491D01*
X157709481Y-72599972D01*
X157685849Y-72634558D01*
X157667534Y-72725000D01*
X157667534Y-72975000D01*
X157683432Y-73059491D01*
X157733367Y-73137092D01*
X157809558Y-73189151D01*
X157900000Y-73207466D01*
X159200000Y-73207466D01*
X159223735Y-73203000D01*
X159350000Y-73203000D01*
X159383363Y-73196363D01*
X159412000Y-73225000D01*
X160122000Y-73225000D01*
X160122000Y-73152000D01*
X160478000Y-73152000D01*
X160478000Y-73225000D01*
X161188000Y-73225000D01*
X161334000Y-73079000D01*
X161334000Y-72983835D01*
X161321228Y-72953000D01*
X163218712Y-72953000D01*
X163196874Y-72974800D01*
X161925000Y-72974800D01*
X161808588Y-72997956D01*
X161748795Y-73037908D01*
X161709898Y-73063898D01*
X161243398Y-73530398D01*
X161188000Y-73475000D01*
X160478000Y-73475000D01*
X160478000Y-73548000D01*
X160122000Y-73548000D01*
X160122000Y-73475000D01*
X159412000Y-73475000D01*
X159266000Y-73621000D01*
X159266000Y-73716165D01*
X159354909Y-73930810D01*
X159519191Y-74095091D01*
X159733835Y-74184000D01*
X159870394Y-74184000D01*
X159835849Y-74234558D01*
X159817534Y-74325000D01*
X159817534Y-75075000D01*
X159833432Y-75159491D01*
X159883367Y-75237092D01*
X159959558Y-75289151D01*
X160050000Y-75307466D01*
X160247000Y-75307466D01*
X160247000Y-76217534D01*
X160025000Y-76217534D01*
X159940509Y-76233432D01*
X159862908Y-76283367D01*
X159810849Y-76359558D01*
X159792534Y-76450000D01*
X159792534Y-77050000D01*
X159808432Y-77134491D01*
X159858367Y-77212092D01*
X159876605Y-77224553D01*
X159862908Y-77233367D01*
X159810849Y-77309558D01*
X159803267Y-77347000D01*
X159450005Y-77347000D01*
X159450000Y-77346999D01*
X159314913Y-77373871D01*
X159200391Y-77450391D01*
X158683248Y-77967534D01*
X158316751Y-77967534D01*
X157399609Y-77050391D01*
X157285087Y-76973871D01*
X157232466Y-76963404D01*
X157232466Y-76583189D01*
X157240876Y-76574999D01*
X157255523Y-76540926D01*
X157276129Y-76510087D01*
X157282458Y-76478271D01*
X157295272Y-76448462D01*
X157295765Y-76411373D01*
X157303000Y-76375000D01*
X157303000Y-75122054D01*
X157307466Y-75100000D01*
X157307466Y-74900000D01*
X157667534Y-74900000D01*
X157667534Y-75800000D01*
X157683432Y-75884491D01*
X157733367Y-75962092D01*
X157809558Y-76014151D01*
X157900000Y-76032466D01*
X159100000Y-76032466D01*
X159184491Y-76016568D01*
X159262092Y-75966633D01*
X159314151Y-75890442D01*
X159332466Y-75800000D01*
X159332466Y-74900000D01*
X159316568Y-74815509D01*
X159266633Y-74737908D01*
X159190442Y-74685849D01*
X159100000Y-74667534D01*
X157900000Y-74667534D01*
X157815509Y-74683432D01*
X157737908Y-74733367D01*
X157685849Y-74809558D01*
X157667534Y-74900000D01*
X157307466Y-74900000D01*
X157307466Y-73800000D01*
X157291568Y-73715509D01*
X157241633Y-73637908D01*
X157165442Y-73585849D01*
X157114107Y-73575453D01*
X157070091Y-73469190D01*
X156905809Y-73304909D01*
X156691165Y-73216000D01*
X156658500Y-73216000D01*
X156512500Y-73362000D01*
X156512500Y-74272000D01*
X156575000Y-74272000D01*
X156575000Y-74628000D01*
X156512500Y-74628000D01*
X156512500Y-75538000D01*
X156597000Y-75622500D01*
X156597000Y-75817534D01*
X155050000Y-75817534D01*
X154965509Y-75833432D01*
X154887908Y-75883367D01*
X154835849Y-75959558D01*
X154817534Y-76050000D01*
X154817534Y-78550000D01*
X154833432Y-78634491D01*
X154883367Y-78712092D01*
X154959558Y-78764151D01*
X155050000Y-78782466D01*
X157000000Y-78782466D01*
X157084491Y-78766568D01*
X157162092Y-78716633D01*
X157214151Y-78640442D01*
X157232466Y-78550000D01*
X157232466Y-77881684D01*
X157667534Y-78316751D01*
X157667534Y-78976421D01*
X154462999Y-78837576D01*
X154534000Y-78666165D01*
X154534000Y-77624000D01*
X154388000Y-77478000D01*
X153153000Y-77478000D01*
X153153000Y-77498000D01*
X152797000Y-77498000D01*
X152797000Y-77478000D01*
X152777000Y-77478000D01*
X152777000Y-77122000D01*
X152797000Y-77122000D01*
X152797000Y-77102000D01*
X153153000Y-77102000D01*
X153153000Y-77122000D01*
X154388000Y-77122000D01*
X154534000Y-76976000D01*
X154534000Y-75933835D01*
X154445091Y-75719191D01*
X154281913Y-75556012D01*
X154303000Y-75450000D01*
X154303000Y-75328011D01*
X154325000Y-75332466D01*
X154575000Y-75332466D01*
X154659491Y-75316568D01*
X154699972Y-75290519D01*
X154734558Y-75314151D01*
X154825000Y-75332466D01*
X155075000Y-75332466D01*
X155159491Y-75316568D01*
X155199972Y-75290519D01*
X155234558Y-75314151D01*
X155325000Y-75332466D01*
X155575000Y-75332466D01*
X155659491Y-75316568D01*
X155699972Y-75290519D01*
X155734558Y-75314151D01*
X155785893Y-75324547D01*
X155829909Y-75430810D01*
X155994191Y-75595091D01*
X156208835Y-75684000D01*
X156241500Y-75684000D01*
X156387500Y-75538000D01*
X156387500Y-74628000D01*
X156325000Y-74628000D01*
X156325000Y-74272000D01*
X156387500Y-74272000D01*
X156387500Y-73362000D01*
X156241500Y-73216000D01*
X156208835Y-73216000D01*
X156142638Y-73243420D01*
X156127975Y-73228757D01*
X156128091Y-73095435D01*
X156047878Y-72901303D01*
X155899478Y-72752644D01*
X155705486Y-72672092D01*
X155510880Y-72671922D01*
X155531408Y-72622486D01*
X155531591Y-72412435D01*
X155451378Y-72218303D01*
X155450975Y-72217899D01*
X157671133Y-72207228D01*
X157667534Y-72225000D01*
G36*
X146367534Y-78000000D02*
X146383432Y-78084491D01*
X146433367Y-78162092D01*
X146509558Y-78214151D01*
X146600000Y-78232466D01*
X148300000Y-78232466D01*
X148384491Y-78216568D01*
X148462092Y-78166633D01*
X148514151Y-78090442D01*
X148529525Y-78014525D01*
X148587000Y-78072000D01*
X149222000Y-78072000D01*
X149222000Y-78052000D01*
X149578000Y-78052000D01*
X149578000Y-78072000D01*
X150087000Y-78072000D01*
X150187000Y-78172000D01*
X150822000Y-78172000D01*
X150822000Y-78152000D01*
X151178000Y-78152000D01*
X151178000Y-78172000D01*
X151198000Y-78172000D01*
X151198000Y-78528000D01*
X151178000Y-78528000D01*
X151178000Y-78548000D01*
X150822000Y-78548000D01*
X150822000Y-78528000D01*
X150313000Y-78528000D01*
X150213000Y-78428000D01*
X149578000Y-78428000D01*
X149578000Y-78448000D01*
X149222000Y-78448000D01*
X149222000Y-78428000D01*
X148587000Y-78428000D01*
X148441000Y-78574000D01*
X148441000Y-78576658D01*
X140497055Y-78232466D01*
X142000000Y-78232466D01*
X142084491Y-78216568D01*
X142162092Y-78166633D01*
X142214151Y-78090442D01*
X142232466Y-78000000D01*
X142232466Y-77853000D01*
X146367534Y-77853000D01*
X146367534Y-78000000D01*
X146367534Y-78000000D01*
G37*
X146367534Y-78000000D02*
X146383432Y-78084491D01*
X146433367Y-78162092D01*
X146509558Y-78214151D01*
X146600000Y-78232466D01*
X148300000Y-78232466D01*
X148384491Y-78216568D01*
X148462092Y-78166633D01*
X148514151Y-78090442D01*
X148529525Y-78014525D01*
X148587000Y-78072000D01*
X149222000Y-78072000D01*
X149222000Y-78052000D01*
X149578000Y-78052000D01*
X149578000Y-78072000D01*
X150087000Y-78072000D01*
X150187000Y-78172000D01*
X150822000Y-78172000D01*
X150822000Y-78152000D01*
X151178000Y-78152000D01*
X151178000Y-78172000D01*
X151198000Y-78172000D01*
X151198000Y-78528000D01*
X151178000Y-78528000D01*
X151178000Y-78548000D01*
X150822000Y-78548000D01*
X150822000Y-78528000D01*
X150313000Y-78528000D01*
X150213000Y-78428000D01*
X149578000Y-78428000D01*
X149578000Y-78448000D01*
X149222000Y-78448000D01*
X149222000Y-78428000D01*
X148587000Y-78428000D01*
X148441000Y-78574000D01*
X148441000Y-78576658D01*
X140497055Y-78232466D01*
X142000000Y-78232466D01*
X142084491Y-78216568D01*
X142162092Y-78166633D01*
X142214151Y-78090442D01*
X142232466Y-78000000D01*
X142232466Y-77853000D01*
X146367534Y-77853000D01*
X146367534Y-78000000D01*
G36*
X165652644Y-73100522D02*
X165572092Y-73294514D01*
X165571975Y-73428808D01*
X163553782Y-75447000D01*
X162803900Y-75447000D01*
X162845091Y-75405809D01*
X162934000Y-75191165D01*
X162934000Y-75024000D01*
X162788000Y-74878000D01*
X162128000Y-74878000D01*
X162128000Y-74898000D01*
X161772000Y-74898000D01*
X161772000Y-74878000D01*
X161752000Y-74878000D01*
X161752000Y-74522000D01*
X161772000Y-74522000D01*
X161772000Y-73887000D01*
X162128000Y-73887000D01*
X162128000Y-74522000D01*
X162788000Y-74522000D01*
X162934000Y-74376000D01*
X162934000Y-74208835D01*
X162845091Y-73994191D01*
X162680810Y-73829909D01*
X162466165Y-73741000D01*
X162274000Y-73741000D01*
X162128000Y-73887000D01*
X161772000Y-73887000D01*
X161759602Y-73874602D01*
X162051004Y-73583200D01*
X163197115Y-73583200D01*
X163340022Y-73726356D01*
X163534014Y-73806908D01*
X163744065Y-73807091D01*
X163938197Y-73726878D01*
X164086856Y-73578478D01*
X164167408Y-73384486D01*
X164167591Y-73174435D01*
X164087378Y-72980303D01*
X164060123Y-72953000D01*
X165800423Y-72953000D01*
X165652644Y-73100522D01*
X165652644Y-73100522D01*
G37*
X165652644Y-73100522D02*
X165572092Y-73294514D01*
X165571975Y-73428808D01*
X163553782Y-75447000D01*
X162803900Y-75447000D01*
X162845091Y-75405809D01*
X162934000Y-75191165D01*
X162934000Y-75024000D01*
X162788000Y-74878000D01*
X162128000Y-74878000D01*
X162128000Y-74898000D01*
X161772000Y-74898000D01*
X161772000Y-74878000D01*
X161752000Y-74878000D01*
X161752000Y-74522000D01*
X161772000Y-74522000D01*
X161772000Y-73887000D01*
X162128000Y-73887000D01*
X162128000Y-74522000D01*
X162788000Y-74522000D01*
X162934000Y-74376000D01*
X162934000Y-74208835D01*
X162845091Y-73994191D01*
X162680810Y-73829909D01*
X162466165Y-73741000D01*
X162274000Y-73741000D01*
X162128000Y-73887000D01*
X161772000Y-73887000D01*
X161759602Y-73874602D01*
X162051004Y-73583200D01*
X163197115Y-73583200D01*
X163340022Y-73726356D01*
X163534014Y-73806908D01*
X163744065Y-73807091D01*
X163938197Y-73726878D01*
X164086856Y-73578478D01*
X164167408Y-73384486D01*
X164167591Y-73174435D01*
X164087378Y-72980303D01*
X164060123Y-72953000D01*
X165800423Y-72953000D01*
X165652644Y-73100522D01*
G36*
X152291803Y-70227622D02*
X152143144Y-70376022D01*
X152062592Y-70570014D01*
X152062409Y-70780065D01*
X152142622Y-70974197D01*
X152291022Y-71122856D01*
X152485014Y-71203408D01*
X152652430Y-71203554D01*
X152801938Y-71353062D01*
X152908867Y-71424511D01*
X152926946Y-71428107D01*
X153035000Y-71449600D01*
X154522971Y-71449600D01*
X154589287Y-71516032D01*
X151890303Y-71529004D01*
X151842341Y-71538784D01*
X151793580Y-71542998D01*
X151775408Y-71552433D01*
X151755347Y-71556524D01*
X151714781Y-71583912D01*
X151671341Y-71606467D01*
X151658164Y-71622136D01*
X151641194Y-71633594D01*
X151614197Y-71674423D01*
X151582696Y-71711883D01*
X151078772Y-72628108D01*
X151066617Y-72633130D01*
X151084000Y-72591165D01*
X151084000Y-72558500D01*
X150938000Y-72412500D01*
X150028000Y-72412500D01*
X150028000Y-72475000D01*
X149672000Y-72475000D01*
X149672000Y-72412500D01*
X148924616Y-72412500D01*
X148822486Y-72370092D01*
X148612435Y-72369909D01*
X148571454Y-72386842D01*
X148526500Y-72377900D01*
X148524266Y-72377900D01*
X148584491Y-72366568D01*
X148662092Y-72316633D01*
X148714151Y-72240442D01*
X148714284Y-72239784D01*
X148762000Y-72287500D01*
X149672000Y-72287500D01*
X149672000Y-72225000D01*
X150028000Y-72225000D01*
X150028000Y-72287500D01*
X150938000Y-72287500D01*
X151084000Y-72141500D01*
X151084000Y-72108835D01*
X151027291Y-71971927D01*
X151071243Y-71927975D01*
X151204565Y-71928091D01*
X151398697Y-71847878D01*
X151547356Y-71699478D01*
X151627908Y-71505486D01*
X151628091Y-71295435D01*
X151547878Y-71101303D01*
X151399478Y-70952644D01*
X151205486Y-70872092D01*
X150995435Y-70871909D01*
X150801303Y-70952122D01*
X150720831Y-71032453D01*
X150732466Y-70975000D01*
X150732466Y-70725000D01*
X150716568Y-70640509D01*
X150690519Y-70600028D01*
X150714151Y-70565442D01*
X150732466Y-70475000D01*
X150732466Y-70225000D01*
X150728326Y-70203000D01*
X150756243Y-70203000D01*
X150800522Y-70247356D01*
X150994514Y-70327908D01*
X151204565Y-70328091D01*
X151398697Y-70247878D01*
X151493741Y-70153000D01*
X152472404Y-70153000D01*
X152291803Y-70227622D01*
X152291803Y-70227622D01*
G37*
X152291803Y-70227622D02*
X152143144Y-70376022D01*
X152062592Y-70570014D01*
X152062409Y-70780065D01*
X152142622Y-70974197D01*
X152291022Y-71122856D01*
X152485014Y-71203408D01*
X152652430Y-71203554D01*
X152801938Y-71353062D01*
X152908867Y-71424511D01*
X152926946Y-71428107D01*
X153035000Y-71449600D01*
X154522971Y-71449600D01*
X154589287Y-71516032D01*
X151890303Y-71529004D01*
X151842341Y-71538784D01*
X151793580Y-71542998D01*
X151775408Y-71552433D01*
X151755347Y-71556524D01*
X151714781Y-71583912D01*
X151671341Y-71606467D01*
X151658164Y-71622136D01*
X151641194Y-71633594D01*
X151614197Y-71674423D01*
X151582696Y-71711883D01*
X151078772Y-72628108D01*
X151066617Y-72633130D01*
X151084000Y-72591165D01*
X151084000Y-72558500D01*
X150938000Y-72412500D01*
X150028000Y-72412500D01*
X150028000Y-72475000D01*
X149672000Y-72475000D01*
X149672000Y-72412500D01*
X148924616Y-72412500D01*
X148822486Y-72370092D01*
X148612435Y-72369909D01*
X148571454Y-72386842D01*
X148526500Y-72377900D01*
X148524266Y-72377900D01*
X148584491Y-72366568D01*
X148662092Y-72316633D01*
X148714151Y-72240442D01*
X148714284Y-72239784D01*
X148762000Y-72287500D01*
X149672000Y-72287500D01*
X149672000Y-72225000D01*
X150028000Y-72225000D01*
X150028000Y-72287500D01*
X150938000Y-72287500D01*
X151084000Y-72141500D01*
X151084000Y-72108835D01*
X151027291Y-71971927D01*
X151071243Y-71927975D01*
X151204565Y-71928091D01*
X151398697Y-71847878D01*
X151547356Y-71699478D01*
X151627908Y-71505486D01*
X151628091Y-71295435D01*
X151547878Y-71101303D01*
X151399478Y-70952644D01*
X151205486Y-70872092D01*
X150995435Y-70871909D01*
X150801303Y-70952122D01*
X150720831Y-71032453D01*
X150732466Y-70975000D01*
X150732466Y-70725000D01*
X150716568Y-70640509D01*
X150690519Y-70600028D01*
X150714151Y-70565442D01*
X150732466Y-70475000D01*
X150732466Y-70225000D01*
X150728326Y-70203000D01*
X150756243Y-70203000D01*
X150800522Y-70247356D01*
X150994514Y-70327908D01*
X151204565Y-70328091D01*
X151398697Y-70247878D01*
X151493741Y-70153000D01*
X152472404Y-70153000D01*
X152291803Y-70227622D01*
G36*
X164416000Y-71616165D02*
X164504909Y-71830809D01*
X164505900Y-71831800D01*
X163756579Y-71831800D01*
X163706378Y-71710303D01*
X163557978Y-71561644D01*
X163363986Y-71481092D01*
X163153935Y-71480909D01*
X162959803Y-71561122D01*
X162811144Y-71709522D01*
X162730592Y-71903514D01*
X162730409Y-72113565D01*
X162785543Y-72247000D01*
X162307413Y-72247000D01*
X162414197Y-72202878D01*
X162562856Y-72054478D01*
X162643408Y-71860486D01*
X162643585Y-71657119D01*
X162704441Y-71596263D01*
X163146928Y-71209087D01*
X164416000Y-70920662D01*
X164416000Y-71616165D01*
X164416000Y-71616165D01*
G37*
X164416000Y-71616165D02*
X164504909Y-71830809D01*
X164505900Y-71831800D01*
X163756579Y-71831800D01*
X163706378Y-71710303D01*
X163557978Y-71561644D01*
X163363986Y-71481092D01*
X163153935Y-71480909D01*
X162959803Y-71561122D01*
X162811144Y-71709522D01*
X162730592Y-71903514D01*
X162730409Y-72113565D01*
X162785543Y-72247000D01*
X162307413Y-72247000D01*
X162414197Y-72202878D01*
X162562856Y-72054478D01*
X162643408Y-71860486D01*
X162643585Y-71657119D01*
X162704441Y-71596263D01*
X163146928Y-71209087D01*
X164416000Y-70920662D01*
X164416000Y-71616165D01*
G36*
X157783367Y-66162092D02*
X157859558Y-66214151D01*
X157950000Y-66232466D01*
X158047000Y-66232466D01*
X158047000Y-66992534D01*
X157900000Y-66992534D01*
X157815509Y-67008432D01*
X157737908Y-67058367D01*
X157685849Y-67134558D01*
X157675453Y-67185893D01*
X157569190Y-67229909D01*
X157404909Y-67394191D01*
X157316000Y-67608835D01*
X157316000Y-67641500D01*
X157462000Y-67787500D01*
X158372000Y-67787500D01*
X158372000Y-67725000D01*
X158728000Y-67725000D01*
X158728000Y-67787500D01*
X158748000Y-67787500D01*
X158748000Y-67912500D01*
X158728000Y-67912500D01*
X158728000Y-67975000D01*
X158372000Y-67975000D01*
X158372000Y-67912500D01*
X157462000Y-67912500D01*
X157316000Y-68058500D01*
X157316000Y-68091165D01*
X157404909Y-68305809D01*
X157569190Y-68470091D01*
X157674845Y-68513855D01*
X157683432Y-68559491D01*
X157709481Y-68599972D01*
X157685849Y-68634558D01*
X157667534Y-68725000D01*
X157667534Y-68975000D01*
X157683432Y-69059491D01*
X157709481Y-69099972D01*
X157685849Y-69134558D01*
X157667534Y-69225000D01*
X157667534Y-69475000D01*
X157671674Y-69497000D01*
X157350000Y-69497000D01*
X157214913Y-69523871D01*
X157100391Y-69600391D01*
X156928757Y-69772025D01*
X156795435Y-69771909D01*
X156728087Y-69799736D01*
X156728091Y-69795435D01*
X156647878Y-69601303D01*
X156499478Y-69452644D01*
X156305486Y-69372092D01*
X156095435Y-69371909D01*
X155913699Y-69447000D01*
X151599577Y-69447000D01*
X151747356Y-69299478D01*
X151827908Y-69105486D01*
X151828091Y-68895435D01*
X151801027Y-68829935D01*
X151936697Y-68773878D01*
X152085356Y-68625478D01*
X152165908Y-68431486D01*
X152166091Y-68221435D01*
X152136651Y-68150184D01*
X152317697Y-68075378D01*
X152466356Y-67926978D01*
X152546908Y-67732986D01*
X152546984Y-67646202D01*
X152950391Y-68049609D01*
X153064913Y-68126129D01*
X153200000Y-68153001D01*
X153200005Y-68153000D01*
X155800000Y-68153000D01*
X155935087Y-68126129D01*
X156049609Y-68049609D01*
X156126129Y-67935087D01*
X156153000Y-67800000D01*
X156153000Y-67493670D01*
X156247356Y-67399478D01*
X156327908Y-67205486D01*
X156328091Y-66995435D01*
X156247878Y-66801303D01*
X156099478Y-66652644D01*
X156050884Y-66632466D01*
X156075000Y-66632466D01*
X156159491Y-66616568D01*
X156199972Y-66590519D01*
X156234558Y-66614151D01*
X156325000Y-66632466D01*
X156575000Y-66632466D01*
X156659491Y-66616568D01*
X156699972Y-66590519D01*
X156734558Y-66614151D01*
X156825000Y-66632466D01*
X157075000Y-66632466D01*
X157159491Y-66616568D01*
X157237092Y-66566633D01*
X157289151Y-66490442D01*
X157307466Y-66400000D01*
X157307466Y-66103000D01*
X157745342Y-66103000D01*
X157783367Y-66162092D01*
X157783367Y-66162092D01*
G37*
X157783367Y-66162092D02*
X157859558Y-66214151D01*
X157950000Y-66232466D01*
X158047000Y-66232466D01*
X158047000Y-66992534D01*
X157900000Y-66992534D01*
X157815509Y-67008432D01*
X157737908Y-67058367D01*
X157685849Y-67134558D01*
X157675453Y-67185893D01*
X157569190Y-67229909D01*
X157404909Y-67394191D01*
X157316000Y-67608835D01*
X157316000Y-67641500D01*
X157462000Y-67787500D01*
X158372000Y-67787500D01*
X158372000Y-67725000D01*
X158728000Y-67725000D01*
X158728000Y-67787500D01*
X158748000Y-67787500D01*
X158748000Y-67912500D01*
X158728000Y-67912500D01*
X158728000Y-67975000D01*
X158372000Y-67975000D01*
X158372000Y-67912500D01*
X157462000Y-67912500D01*
X157316000Y-68058500D01*
X157316000Y-68091165D01*
X157404909Y-68305809D01*
X157569190Y-68470091D01*
X157674845Y-68513855D01*
X157683432Y-68559491D01*
X157709481Y-68599972D01*
X157685849Y-68634558D01*
X157667534Y-68725000D01*
X157667534Y-68975000D01*
X157683432Y-69059491D01*
X157709481Y-69099972D01*
X157685849Y-69134558D01*
X157667534Y-69225000D01*
X157667534Y-69475000D01*
X157671674Y-69497000D01*
X157350000Y-69497000D01*
X157214913Y-69523871D01*
X157100391Y-69600391D01*
X156928757Y-69772025D01*
X156795435Y-69771909D01*
X156728087Y-69799736D01*
X156728091Y-69795435D01*
X156647878Y-69601303D01*
X156499478Y-69452644D01*
X156305486Y-69372092D01*
X156095435Y-69371909D01*
X155913699Y-69447000D01*
X151599577Y-69447000D01*
X151747356Y-69299478D01*
X151827908Y-69105486D01*
X151828091Y-68895435D01*
X151801027Y-68829935D01*
X151936697Y-68773878D01*
X152085356Y-68625478D01*
X152165908Y-68431486D01*
X152166091Y-68221435D01*
X152136651Y-68150184D01*
X152317697Y-68075378D01*
X152466356Y-67926978D01*
X152546908Y-67732986D01*
X152546984Y-67646202D01*
X152950391Y-68049609D01*
X153064913Y-68126129D01*
X153200000Y-68153001D01*
X153200005Y-68153000D01*
X155800000Y-68153000D01*
X155935087Y-68126129D01*
X156049609Y-68049609D01*
X156126129Y-67935087D01*
X156153000Y-67800000D01*
X156153000Y-67493670D01*
X156247356Y-67399478D01*
X156327908Y-67205486D01*
X156328091Y-66995435D01*
X156247878Y-66801303D01*
X156099478Y-66652644D01*
X156050884Y-66632466D01*
X156075000Y-66632466D01*
X156159491Y-66616568D01*
X156199972Y-66590519D01*
X156234558Y-66614151D01*
X156325000Y-66632466D01*
X156575000Y-66632466D01*
X156659491Y-66616568D01*
X156699972Y-66590519D01*
X156734558Y-66614151D01*
X156825000Y-66632466D01*
X157075000Y-66632466D01*
X157159491Y-66616568D01*
X157237092Y-66566633D01*
X157289151Y-66490442D01*
X157307466Y-66400000D01*
X157307466Y-66103000D01*
X157745342Y-66103000D01*
X157783367Y-66162092D01*
G36*
X168678000Y-69322000D02*
X168698000Y-69322000D01*
X168698000Y-69678000D01*
X168678000Y-69678000D01*
X168678000Y-69698000D01*
X168322000Y-69698000D01*
X168322000Y-69678000D01*
X168302000Y-69678000D01*
X168302000Y-69322000D01*
X168322000Y-69322000D01*
X168322000Y-69302000D01*
X168678000Y-69302000D01*
X168678000Y-69322000D01*
X168678000Y-69322000D01*
G37*
X168678000Y-69322000D02*
X168698000Y-69322000D01*
X168698000Y-69678000D01*
X168678000Y-69678000D01*
X168678000Y-69698000D01*
X168322000Y-69698000D01*
X168322000Y-69678000D01*
X168302000Y-69678000D01*
X168302000Y-69322000D01*
X168322000Y-69322000D01*
X168322000Y-69302000D01*
X168678000Y-69302000D01*
X168678000Y-69322000D01*
G36*
X154466000Y-64478002D02*
X154611998Y-64478002D01*
X154466000Y-64624000D01*
X154466000Y-64791165D01*
X154497633Y-64867534D01*
X154325000Y-64867534D01*
X154240509Y-64883432D01*
X154200028Y-64909481D01*
X154165442Y-64885849D01*
X154114107Y-64875453D01*
X154070091Y-64769190D01*
X153905809Y-64604909D01*
X153691165Y-64516000D01*
X153658500Y-64516000D01*
X153512500Y-64662000D01*
X153512500Y-65572000D01*
X153575000Y-65572000D01*
X153575000Y-65928000D01*
X153512500Y-65928000D01*
X153512500Y-66838000D01*
X153658500Y-66984000D01*
X153691165Y-66984000D01*
X153757362Y-66956580D01*
X153971938Y-67171156D01*
X153971909Y-67204565D01*
X154052122Y-67398697D01*
X154100341Y-67447000D01*
X153346218Y-67447000D01*
X153053000Y-67153782D01*
X153053000Y-66946218D01*
X153071927Y-66927291D01*
X153208835Y-66984000D01*
X153241500Y-66984000D01*
X153387500Y-66838000D01*
X153387500Y-65928000D01*
X153325000Y-65928000D01*
X153325000Y-65572000D01*
X153387500Y-65572000D01*
X153387500Y-64662000D01*
X153241500Y-64516000D01*
X153208835Y-64516000D01*
X152994191Y-64604909D01*
X152829909Y-64769190D01*
X152786145Y-64874845D01*
X152779600Y-64876077D01*
X152779600Y-64820000D01*
X152773508Y-64789374D01*
X152754511Y-64693867D01*
X152683063Y-64586938D01*
X152633062Y-64536938D01*
X152526133Y-64465489D01*
X152505206Y-64461327D01*
X152400000Y-64440400D01*
X151767569Y-64440400D01*
X154466000Y-64314348D01*
X154466000Y-64478002D01*
X154466000Y-64478002D01*
G37*
X154466000Y-64478002D02*
X154611998Y-64478002D01*
X154466000Y-64624000D01*
X154466000Y-64791165D01*
X154497633Y-64867534D01*
X154325000Y-64867534D01*
X154240509Y-64883432D01*
X154200028Y-64909481D01*
X154165442Y-64885849D01*
X154114107Y-64875453D01*
X154070091Y-64769190D01*
X153905809Y-64604909D01*
X153691165Y-64516000D01*
X153658500Y-64516000D01*
X153512500Y-64662000D01*
X153512500Y-65572000D01*
X153575000Y-65572000D01*
X153575000Y-65928000D01*
X153512500Y-65928000D01*
X153512500Y-66838000D01*
X153658500Y-66984000D01*
X153691165Y-66984000D01*
X153757362Y-66956580D01*
X153971938Y-67171156D01*
X153971909Y-67204565D01*
X154052122Y-67398697D01*
X154100341Y-67447000D01*
X153346218Y-67447000D01*
X153053000Y-67153782D01*
X153053000Y-66946218D01*
X153071927Y-66927291D01*
X153208835Y-66984000D01*
X153241500Y-66984000D01*
X153387500Y-66838000D01*
X153387500Y-65928000D01*
X153325000Y-65928000D01*
X153325000Y-65572000D01*
X153387500Y-65572000D01*
X153387500Y-64662000D01*
X153241500Y-64516000D01*
X153208835Y-64516000D01*
X152994191Y-64604909D01*
X152829909Y-64769190D01*
X152786145Y-64874845D01*
X152779600Y-64876077D01*
X152779600Y-64820000D01*
X152773508Y-64789374D01*
X152754511Y-64693867D01*
X152683063Y-64586938D01*
X152633062Y-64536938D01*
X152526133Y-64465489D01*
X152505206Y-64461327D01*
X152400000Y-64440400D01*
X151767569Y-64440400D01*
X154466000Y-64314348D01*
X154466000Y-64478002D01*
G36*
X174000522Y-64547356D02*
X174194514Y-64627908D01*
X174272806Y-64627976D01*
X172450391Y-66450391D01*
X172373871Y-66564913D01*
X172347000Y-66700000D01*
X172347000Y-67021099D01*
X172330810Y-67004909D01*
X172116165Y-66916000D01*
X168824000Y-66916000D01*
X168678002Y-67061998D01*
X168678002Y-66955144D01*
X168785856Y-66847478D01*
X168866408Y-66653486D01*
X168866591Y-66443435D01*
X168786378Y-66249303D01*
X168642700Y-66105374D01*
X168642700Y-65849500D01*
X168619544Y-65733088D01*
X168553602Y-65634398D01*
X168363102Y-65443898D01*
X168264412Y-65377956D01*
X168148000Y-65354800D01*
X166748995Y-65354800D01*
X166669478Y-65275144D01*
X166475486Y-65194592D01*
X166265435Y-65194409D01*
X166071303Y-65274622D01*
X165927374Y-65418300D01*
X163703000Y-65418300D01*
X163586587Y-65441456D01*
X163487898Y-65507398D01*
X161862496Y-67132800D01*
X161353500Y-67132800D01*
X161237088Y-67155956D01*
X161138398Y-67221898D01*
X161022648Y-67337648D01*
X161013000Y-67328000D01*
X160378000Y-67328000D01*
X160378000Y-67348000D01*
X160022000Y-67348000D01*
X160022000Y-67328000D01*
X160002000Y-67328000D01*
X160002000Y-66972000D01*
X160022000Y-66972000D01*
X160022000Y-66952000D01*
X160378000Y-66952000D01*
X160378000Y-66972000D01*
X161013000Y-66972000D01*
X161159000Y-66826000D01*
X161159000Y-66695079D01*
X161311514Y-66758408D01*
X161521565Y-66758591D01*
X161715697Y-66678378D01*
X161864356Y-66529978D01*
X161944908Y-66335986D01*
X161945009Y-66220593D01*
X163839126Y-64453000D01*
X173906330Y-64453000D01*
X174000522Y-64547356D01*
X174000522Y-64547356D01*
G37*
X174000522Y-64547356D02*
X174194514Y-64627908D01*
X174272806Y-64627976D01*
X172450391Y-66450391D01*
X172373871Y-66564913D01*
X172347000Y-66700000D01*
X172347000Y-67021099D01*
X172330810Y-67004909D01*
X172116165Y-66916000D01*
X168824000Y-66916000D01*
X168678002Y-67061998D01*
X168678002Y-66955144D01*
X168785856Y-66847478D01*
X168866408Y-66653486D01*
X168866591Y-66443435D01*
X168786378Y-66249303D01*
X168642700Y-66105374D01*
X168642700Y-65849500D01*
X168619544Y-65733088D01*
X168553602Y-65634398D01*
X168363102Y-65443898D01*
X168264412Y-65377956D01*
X168148000Y-65354800D01*
X166748995Y-65354800D01*
X166669478Y-65275144D01*
X166475486Y-65194592D01*
X166265435Y-65194409D01*
X166071303Y-65274622D01*
X165927374Y-65418300D01*
X163703000Y-65418300D01*
X163586587Y-65441456D01*
X163487898Y-65507398D01*
X161862496Y-67132800D01*
X161353500Y-67132800D01*
X161237088Y-67155956D01*
X161138398Y-67221898D01*
X161022648Y-67337648D01*
X161013000Y-67328000D01*
X160378000Y-67328000D01*
X160378000Y-67348000D01*
X160022000Y-67348000D01*
X160022000Y-67328000D01*
X160002000Y-67328000D01*
X160002000Y-66972000D01*
X160022000Y-66972000D01*
X160022000Y-66952000D01*
X160378000Y-66952000D01*
X160378000Y-66972000D01*
X161013000Y-66972000D01*
X161159000Y-66826000D01*
X161159000Y-66695079D01*
X161311514Y-66758408D01*
X161521565Y-66758591D01*
X161715697Y-66678378D01*
X161864356Y-66529978D01*
X161944908Y-66335986D01*
X161945009Y-66220593D01*
X163839126Y-64453000D01*
X173906330Y-64453000D01*
X174000522Y-64547356D01*
G36*
X178135849Y-63259558D02*
X178117534Y-63350000D01*
X178117534Y-63883248D01*
X177834000Y-64166782D01*
X177834000Y-64124000D01*
X177688000Y-63978000D01*
X177028000Y-63978000D01*
X177028000Y-63998000D01*
X176672000Y-63998000D01*
X176672000Y-63978000D01*
X176012000Y-63978000D01*
X175866000Y-64124000D01*
X175866000Y-64366165D01*
X175940904Y-64547000D01*
X175900000Y-64547000D01*
X175764913Y-64573871D01*
X175650391Y-64650391D01*
X175650389Y-64650394D01*
X175428844Y-64871938D01*
X175395435Y-64871909D01*
X175201303Y-64952122D01*
X175052644Y-65100522D01*
X174972092Y-65294514D01*
X174972062Y-65328720D01*
X173053000Y-67247782D01*
X173053000Y-66846218D01*
X175271243Y-64627975D01*
X175404565Y-64628091D01*
X175598697Y-64547878D01*
X175747356Y-64399478D01*
X175827908Y-64205486D01*
X175828091Y-63995435D01*
X175747878Y-63801303D01*
X175599478Y-63652644D01*
X175405486Y-63572092D01*
X175195435Y-63571909D01*
X175001303Y-63652122D01*
X174852644Y-63800522D01*
X174799970Y-63927376D01*
X174747878Y-63801303D01*
X174599478Y-63652644D01*
X174405486Y-63572092D01*
X174195435Y-63571909D01*
X174001303Y-63652122D01*
X173906259Y-63747000D01*
X166611469Y-63747000D01*
X175866000Y-63314695D01*
X175866000Y-63476000D01*
X176012000Y-63622000D01*
X176672000Y-63622000D01*
X176672000Y-63602000D01*
X177028000Y-63602000D01*
X177028000Y-63622000D01*
X177688000Y-63622000D01*
X177834000Y-63476000D01*
X177834000Y-63233835D01*
X177829501Y-63222974D01*
X178171770Y-63206986D01*
X178135849Y-63259558D01*
X178135849Y-63259558D01*
G37*
X178135849Y-63259558D02*
X178117534Y-63350000D01*
X178117534Y-63883248D01*
X177834000Y-64166782D01*
X177834000Y-64124000D01*
X177688000Y-63978000D01*
X177028000Y-63978000D01*
X177028000Y-63998000D01*
X176672000Y-63998000D01*
X176672000Y-63978000D01*
X176012000Y-63978000D01*
X175866000Y-64124000D01*
X175866000Y-64366165D01*
X175940904Y-64547000D01*
X175900000Y-64547000D01*
X175764913Y-64573871D01*
X175650391Y-64650391D01*
X175650389Y-64650394D01*
X175428844Y-64871938D01*
X175395435Y-64871909D01*
X175201303Y-64952122D01*
X175052644Y-65100522D01*
X174972092Y-65294514D01*
X174972062Y-65328720D01*
X173053000Y-67247782D01*
X173053000Y-66846218D01*
X175271243Y-64627975D01*
X175404565Y-64628091D01*
X175598697Y-64547878D01*
X175747356Y-64399478D01*
X175827908Y-64205486D01*
X175828091Y-63995435D01*
X175747878Y-63801303D01*
X175599478Y-63652644D01*
X175405486Y-63572092D01*
X175195435Y-63571909D01*
X175001303Y-63652122D01*
X174852644Y-63800522D01*
X174799970Y-63927376D01*
X174747878Y-63801303D01*
X174599478Y-63652644D01*
X174405486Y-63572092D01*
X174195435Y-63571909D01*
X174001303Y-63652122D01*
X173906259Y-63747000D01*
X166611469Y-63747000D01*
X175866000Y-63314695D01*
X175866000Y-63476000D01*
X176012000Y-63622000D01*
X176672000Y-63622000D01*
X176672000Y-63602000D01*
X177028000Y-63602000D01*
X177028000Y-63622000D01*
X177688000Y-63622000D01*
X177834000Y-63476000D01*
X177834000Y-63233835D01*
X177829501Y-63222974D01*
X178171770Y-63206986D01*
X178135849Y-63259558D01*
G36*
X191428000Y-64572000D02*
X191448000Y-64572000D01*
X191448000Y-64928000D01*
X191428000Y-64928000D01*
X191428000Y-64948000D01*
X191072000Y-64948000D01*
X191072000Y-64928000D01*
X191052000Y-64928000D01*
X191052000Y-64572000D01*
X191072000Y-64572000D01*
X191072000Y-64552000D01*
X191428000Y-64552000D01*
X191428000Y-64572000D01*
X191428000Y-64572000D01*
G37*
X191428000Y-64572000D02*
X191448000Y-64572000D01*
X191448000Y-64928000D01*
X191428000Y-64928000D01*
X191428000Y-64948000D01*
X191072000Y-64948000D01*
X191072000Y-64928000D01*
X191052000Y-64928000D01*
X191052000Y-64572000D01*
X191072000Y-64572000D01*
X191072000Y-64552000D01*
X191428000Y-64552000D01*
X191428000Y-64572000D01*
G36*
X149898000Y-64828000D02*
X149878000Y-64828000D01*
X149878000Y-64848000D01*
X149522000Y-64848000D01*
X149522000Y-64828000D01*
X148478000Y-64828000D01*
X148478000Y-64848000D01*
X148122000Y-64848000D01*
X148122000Y-64828000D01*
X148102000Y-64828000D01*
X148102000Y-64611629D01*
X149898000Y-64527733D01*
X149898000Y-64828000D01*
X149898000Y-64828000D01*
G37*
X149898000Y-64828000D02*
X149878000Y-64828000D01*
X149878000Y-64848000D01*
X149522000Y-64848000D01*
X149522000Y-64828000D01*
X148478000Y-64828000D01*
X148478000Y-64848000D01*
X148122000Y-64848000D01*
X148122000Y-64828000D01*
X148102000Y-64828000D01*
X148102000Y-64611629D01*
X149898000Y-64527733D01*
X149898000Y-64828000D01*
G36*
X155648000Y-64478000D02*
X155628000Y-64478000D01*
X155628000Y-64498000D01*
X155272000Y-64498000D01*
X155272000Y-64478000D01*
X155252000Y-64478000D01*
X155252000Y-64277632D01*
X155648000Y-64259134D01*
X155648000Y-64478000D01*
X155648000Y-64478000D01*
G37*
X155648000Y-64478000D02*
X155628000Y-64478000D01*
X155628000Y-64498000D01*
X155272000Y-64498000D01*
X155272000Y-64478000D01*
X155252000Y-64478000D01*
X155252000Y-64277632D01*
X155648000Y-64259134D01*
X155648000Y-64478000D01*
D35*
G36*
X138588012Y-74769455D02*
X138602148Y-78053686D01*
X127853997Y-77592200D01*
X127868087Y-74506420D01*
X138588012Y-74769455D01*
X138588012Y-74769455D01*
G37*
X138588012Y-74769455D02*
X138602148Y-78053686D01*
X127853997Y-77592200D01*
X127868087Y-74506420D01*
X138588012Y-74769455D01*
G36*
X126584007Y-74454617D02*
X126598069Y-77519992D01*
X116271040Y-77053962D01*
X116271040Y-74211667D01*
X126584007Y-74454617D01*
X126584007Y-74454617D01*
G37*
X126584007Y-74454617D02*
X126598069Y-77519992D01*
X116271040Y-77053962D01*
X116271040Y-74211667D01*
X126584007Y-74454617D01*
G36*
X114996352Y-74180391D02*
X115005683Y-77012292D01*
X103901240Y-76535536D01*
X103901240Y-73917050D01*
X114996352Y-74180391D01*
X114996352Y-74180391D01*
G37*
X114996352Y-74180391D02*
X115005683Y-77012292D01*
X103901240Y-76535536D01*
X103901240Y-73917050D01*
X114996352Y-74180391D01*
G36*
X114980110Y-73021880D02*
X103880920Y-72753711D01*
X103880920Y-70379369D01*
X114966091Y-70021783D01*
X114980110Y-73021880D01*
X114980110Y-73021880D01*
G37*
X114980110Y-73021880D02*
X103880920Y-72753711D01*
X103880920Y-70379369D01*
X114966091Y-70021783D01*
X114980110Y-73021880D01*
G36*
X115005305Y-68908843D02*
X103921560Y-69236589D01*
X103921560Y-66602879D01*
X114986674Y-66081642D01*
X115005305Y-68908843D01*
X115005305Y-68908843D01*
G37*
X115005305Y-68908843D02*
X103921560Y-69236589D01*
X103921560Y-66602879D01*
X114986674Y-66081642D01*
X115005305Y-68908843D01*
G36*
X126588133Y-68502615D02*
X116209433Y-68824935D01*
X116195416Y-65993475D01*
X126578777Y-65522631D01*
X126588133Y-68502615D01*
X126588133Y-68502615D01*
G37*
X126588133Y-68502615D02*
X116209433Y-68824935D01*
X116195416Y-65993475D01*
X126578777Y-65522631D01*
X126588133Y-68502615D01*
G36*
X138828140Y-68076231D02*
X127858520Y-68438575D01*
X127858520Y-65445116D01*
X138748311Y-64953512D01*
X138828140Y-68076231D01*
X138828140Y-68076231D01*
G37*
X138828140Y-68076231D02*
X127858520Y-68438575D01*
X127858520Y-65445116D01*
X138748311Y-64953512D01*
X138828140Y-68076231D01*
G36*
X138741603Y-73571100D02*
X127858520Y-73352644D01*
X127858520Y-69597445D01*
X138799077Y-69279752D01*
X138741603Y-73571100D01*
X138741603Y-73571100D01*
G37*
X138741603Y-73571100D02*
X127858520Y-73352644D01*
X127858520Y-69597445D01*
X138799077Y-69279752D01*
X138741603Y-73571100D01*
M02*
